<?xml version="1.0" encoding="UTF-8"?>
<svg width="720px" height="500px" viewBox="0 0 720 500" version="1.1" xmlns="http://www.w3.org/2000/svg" xmlns:xlink="http://www.w3.org/1999/xlink">
    <title>Countdown-15</title>
    <g id="V3-Desktop" stroke="none" stroke-width="1" fill="none" fill-rule="evenodd">
        <g id="NWD50-Landing-V3-Splash3-15" transform="translate(-360.000000, -200.000000)">
            <g id="Countdown-15" transform="translate(360.000000, 200.000000)">
                <polygon id="Fill-1" fill-opacity="0" fill="#FFFFFF" points="0 500 720 500 720 0 0 0"></polygon>
                <polygon id="Fill-2" fill="#000000" points="171.179309 320.443556 160.865828 294.923389 153.558569 290.89363 153.479402 318.922852 158.851124 321.986778 158.90742 301.96113 158.982717 302.003 169.572402 328.172333 176.594661 332.274574 176.673828 303.789352 171.302106 300.753926"></polygon>
                <polygon id="Fill-3" fill="#000000" points="221.239172 349.242137 216.227394 326.865063 211.230394 323.879952 206.017709 339.458193 202.174783 318.520896 196.315394 315.089637 203.468543 348.344563 208.090117 351.16747 213.584283 334.293711 218.908857 357.843507 223.695098 360.827563 230.909469 335.755304 225.462802 332.436637"></polygon>
                <g id="Group-14" transform="translate(189.833333, 102.574074)">
                    <path d="M76.9029574,274.856428 C76.4494204,275.74415 75.8393093,276.305002 75.0494019,276.515761 C74.2679389,276.731094 73.3436241,276.648409 72.277513,276.268761 C71.21105,275.880317 70.0552167,275.285335 68.810013,274.475372 L66.0187722,272.664743 L66.0659204,254.835706 L69.2396241,256.857798 C70.3648463,257.576631 71.4376426,258.44852 72.4566056,259.455169 C73.4762722,260.462872 74.367513,261.57578 75.1232907,262.769965 C75.8790685,263.975057 76.4772167,265.265298 76.9244204,266.655113 C77.3716241,268.045983 77.5932907,269.476965 77.5894702,270.957909 C77.5848463,272.671428 77.3561426,273.968002 76.9029574,274.856428 M82.0336611,267.112872 C81.2659204,264.669261 80.2346426,262.421631 78.9246981,260.361891 C77.6228463,258.310594 76.087013,256.448594 74.3326796,254.776594 C72.5786981,253.117261 70.7261981,251.669039 68.7755315,250.43052 L60.7103833,245.343446 L60.6308648,275.286039 L69.4162537,281.00328 C71.2318093,282.192539 72.966087,283.005317 74.6180315,283.440206 C76.2780685,283.871576 77.7357907,283.871928 79.0070315,283.440909 C80.2708833,283.004261 81.2803463,282.090854 82.0280315,280.713002 C82.7834574,279.329169 83.1641611,277.408057 83.170599,274.949669 C83.1778833,272.173557 82.7936611,269.554724 82.0336611,267.112872" id="Fill-4" fill="#000000"></path>
                    <path d="M322.366702,74.7618333 C322.504628,74.8413519 339.847757,84.8547037 339.847757,84.8547037 L379.031387,62.0835556 C379.031387,62.0835556 354.836998,48.115037 345.220183,42.562463 C326.848239,31.955537 310.368202,31.4326852 293.805128,41.0579444 C285.453572,45.9113889 226.807257,79.9931667 226.807257,79.9931667 L188.384683,57.8096111 L279.70748,4.73874074 C254.795665,-2.58435185 224.903387,-1.79937037 203.824998,10.45 C193.658239,16.3582963 122.322035,57.8141852 122.322035,57.8141852 C122.322035,57.8141852 188.292146,95.9021481 202.939739,104.358907 C220.517202,114.50737 237.446906,112.144685 253.493813,102.819556 C254.696443,102.120426 300.726757,75.370537 303.271702,73.8917037 C309.432276,70.3116111 314.301906,70.1057778 322.366702,74.7618333" id="Fill-6" fill="#D1D3D4"></path>
                    <path d="M346.612848,93.0088 C346.612848,93.0088 346.667033,112.089022 346.667385,112.24243 C346.692719,121.039781 344.078107,125.019578 337.877422,128.59967 C335.315237,130.078504 261.076256,172.940393 261.076256,172.940393 L261.178996,209.009781 C261.178996,209.009781 353.351515,155.793948 361.764996,150.936633 C378.429404,141.315244 386.21483,127.299226 386.158488,107.271819 C386.128274,96.7929667 386.052978,70.2380037 386.052978,70.2380037 L346.612848,93.0088 Z" id="Fill-8" fill="#D1D3D4"></path>
                    <polygon id="Fill-10" fill="#D1D3D4" points="157.801404 268.40248 157.801404 201.803961 208.577848 172.46585 208.577848 239.175202"></polygon>
                    <path d="M153.151717,191.564791 L32.5784204,122.698587 L5.25571667,138.072402 L5.25571667,138.07205 C-1.70989444,134.060939 -1.70989444,124.009587 5.25571667,119.998476 L40.3554019,99.7852907 C57.4839019,89.9218278 78.5672167,89.9218278 95.6957167,99.7852907 L204.77542,161.849846 L153.151717,191.564791 Z" id="Fill-12" fill="#D1D3D4"></path>
                </g>
            </g>
        </g>
    </g>
</svg>