<?xml version="1.0" encoding="UTF-8"?>
<svg width="720px" height="500px" viewBox="0 0 720 500" version="1.1" xmlns="http://www.w3.org/2000/svg" xmlns:xlink="http://www.w3.org/1999/xlink">
    <title>Countdown-29</title>
    <g id="V3-Desktop" stroke="none" stroke-width="1" fill="none" fill-rule="evenodd">
        <g id="NWD50-Landing-V3-Splash3-29" transform="translate(-360.000000, -200.000000)">
            <g id="Countdown-29" transform="translate(360.000000, 200.000000)">
                <polygon id="Fill-1" fill-opacity="0" fill="#FFFFFF" points="0 500 720 500 720 0 0 0"></polygon>
                <polygon id="Fill-2" fill="#000000" points="145.808245 329.712444 134.137727 300.834361 125.868986 296.27437 125.779005 327.991648 131.857532 331.458722 131.921634 308.79812 132.00644 308.8455 143.989505 338.458167 151.936144 343.100176 152.025727 310.866898 145.947199 307.432074"></polygon>
                <polygon id="Fill-3" fill="#000000" points="202.454932 362.300313 196.78371 336.978887 191.12921 333.600998 185.230645 351.229007 180.882071 327.536804 174.25171 323.654063 182.346062 361.284637 187.575738 364.47898 193.792821 345.384989 199.817997 372.033443 205.234006 375.410137 213.397636 347.038896 207.234303 343.283563"></polygon>
                <g id="Group-14" transform="translate(166.916667, 74.416667)">
                    <path d="M87.0218472,319.781006 C86.5086343,320.785534 85.8182454,321.420182 84.9244028,321.658673 C84.0397176,321.90234 82.9937824,321.808775 81.7873935,321.379173 C80.5810046,320.939618 79.273088,320.266349 77.8636435,319.349812 L74.7055324,317.300942 L74.7588843,297.125979 L78.3501806,299.414136 C79.6234583,300.227553 80.8370139,301.214164 81.9900509,302.353266 C83.1442824,303.493562 84.1527917,304.752905 85.0080139,306.104219 C85.8632361,307.467877 86.5396898,308.927886 87.0461343,310.500571 C87.5521806,312.074451 87.8030139,313.693719 87.7986906,315.369525 C87.7934583,317.308506 87.5342639,318.775682 87.0218472,319.781006 M92.8276435,311.018562 C91.9588843,308.253423 90.791912,305.710053 89.3096065,303.379294 C87.8360602,301.05809 86.0985417,298.95109 84.113375,297.05909 C82.1286065,295.181423 80.0323565,293.542645 77.824625,292.141164 L68.6986713,286.384738 L68.6086898,320.267145 L78.5500509,326.736655 C80.6044954,328.082395 82.5669676,329.002118 84.4362731,329.494229 C86.3147361,329.982358 87.9642639,329.982756 89.4027731,329.495025 C90.8329213,329.000923 91.9752083,327.967331 92.8212731,326.408182 C93.6756991,324.842266 94.1068935,322.668377 94.1137805,319.886516 C94.1220231,316.745127 93.6876435,313.78171 92.8276435,311.018562" id="Fill-4" fill="#000000"></path>
                    <path d="M392.219921,114.006059 L392.138301,148.503207 L320.71331,191.471754 C315.911644,194.360319 312.981273,199.560133 312.997134,205.16367 L313.087579,236.944652 C313.087579,236.944652 399.844856,185.052411 409.365773,179.555976 C428.222866,168.668615 437.03269,152.808383 436.968541,130.145791 C436.934745,118.288143 436.849542,88.2391056 436.849542,88.2391056 L392.219921,114.006059 Z" id="Fill-6" fill="#D1D3D4"></path>
                    <path d="M12.0440213,187.622656 L12.0444194,187.622656 L111.013299,130.881369 L164.351216,161.596906 L81.6562435,209.525184 C72.3877528,214.828119 72.3885491,228.194749 81.6586324,233.496092 L120.61504,255.686082 L158.313299,234.151045 L133.700179,220.099601 L229.506568,165.030138 C232.175355,163.493286 232.204021,159.651953 229.558327,158.075286 L135.901938,102.261286 C120.562086,93.1198046 101.451373,93.0955176 86.0880306,102.199175 L11.7868176,146.227592 C-3.9949787,155.579295 -3.85244167,178.468434 12.0440213,187.622656" id="Fill-8" fill="#D1D3D4"></path>
                    <path d="M128.792804,265.881701 L128.792804,312.594831 C128.792804,325.259923 142.494276,333.182275 153.470424,326.864062 L271.026452,259.197988 L271.026452,218.280701 L167.181054,278.223099 L167.181054,243.408627 L128.792804,265.881701 Z" id="Fill-10" fill="#D1D3D4"></path>
                    <path d="M324.159521,69.935837 L269.816679,100.474596 C266.126244,102.548152 261.616818,102.524263 257.948679,100.412087 L216.594225,76.5968556 C213.917475,75.0556241 213.937781,71.1864204 216.630456,69.6734574 L269.48741,39.276837 C273.894114,36.8003556 279.279864,36.8286241 283.66029,39.3512907 L324.195753,63.0124389 C326.872105,64.5536704 326.852197,68.4228741 324.159521,69.935837 L324.159521,69.935837 Z M301.868003,6.4965037 C287.555771,-1.70654259 269.960012,-1.6719037 255.680827,6.58767963 L158.439512,62.2535685 C149.024901,67.7719019 149.085818,81.4033 158.550197,86.8372259 L237.892762,132.391744 C253.387494,141.314643 272.460382,141.314643 287.955512,132.391744 L358.818716,91.7901889 L383.030105,105.275467 L429.071956,80.013763 L301.868003,6.4965037 Z" id="Fill-12" fill="#D1D3D4"></path>
                </g>
            </g>
        </g>
    </g>
</svg>