<?xml version="1.0" encoding="UTF-8"?>
<svg width="720px" height="500px" viewBox="0 0 720 500" version="1.1" xmlns="http://www.w3.org/2000/svg" xmlns:xlink="http://www.w3.org/1999/xlink">
    <title>Countdown-48</title>
    <g id="V3-Desktop" stroke="none" stroke-width="1" fill="none" fill-rule="evenodd">
        <g id="NWD50-Landing-V3-Splash3-48" transform="translate(-360.000000, -200.000000)">
            <g id="Countdown-48" transform="translate(360.000000, 200.000000)">
                <polygon id="Fill-1" fill-opacity="0" fill="#FFFFFF" points="0 500 720 500 720 0 0 0"></polygon>
                <polygon id="Fill-2" fill="#000000" points="71.6948426 357.519111 55.953213 318.567278 44.8000278 312.416593 44.6786574 355.198037 52.8776019 359.874556 52.9640648 329.309093 53.0784537 329.373 69.2416574 369.315667 79.9603796 375.576981 80.081213 332.099537 71.8822685 327.466519"></polygon>
                <polygon id="Fill-3" fill="#000000" points="148.102002 401.474841 140.452446 367.320359 132.825446 362.764137 124.869243 386.541452 119.003724 354.584526 110.060446 349.347341 120.978409 400.104859 128.032391 404.413507 136.418224 378.658822 144.545206 414.603248 151.85052 419.157859 162.861928 380.889674 154.548594 375.824341"></polygon>
                <g id="Group-16" transform="translate(58.814815, 22.296296)">
                    <path d="M158.730157,422.202891 C158.037917,423.557835 157.106694,424.413872 155.901046,424.735557 C154.70775,425.064224 153.296954,424.93802 151.669731,424.358557 C150.042509,423.765669 148.278343,422.857539 146.377231,421.62128 L142.117454,418.857687 L142.189417,391.644946 L147.033491,394.731298 C148.750935,395.828465 150.387824,397.159243 151.943083,398.695706 C153.499954,400.23378 154.860269,401.932428 156.013824,403.755131 C157.16738,405.594483 158.079806,407.563798 158.762917,409.685094 C159.445491,411.808002 159.783824,413.992131 159.777993,416.25252 C159.770935,418.867891 159.421324,420.846872 158.730157,422.202891 M166.561231,410.38378 C165.389417,406.654057 163.815361,403.223465 161.815972,400.07965 C159.828398,396.948724 157.484769,394.106724 154.807102,391.554724 C152.129972,389.022057 149.302472,386.811613 146.324602,384.921243 L134.015176,377.156761 L133.893806,422.858613 L147.303083,431.584928 C150.074194,433.400113 152.72125,434.640669 155.242639,435.304446 C157.77638,435.962854 160.001324,435.963391 161.941639,435.30552 C163.870676,434.639057 165.411435,433.244909 166.552639,431.141872 C167.70512,429.029706 168.286731,426.097483 168.296021,422.345206 C168.307139,418.107983 167.721231,414.110817 166.561231,410.38378" id="Fill-4" fill="#000000"></path>
                    <path d="M352.419063,94.0643463 C340.098359,86.9507537 340.593507,82.6705685 350.019044,77.1933278 C350.972285,76.6396426 369.083859,66.1142537 378.475563,60.6563463 C387.878007,55.1919944 395.299322,54.8719204 407.619489,61.9849759 C414.091859,65.7216796 543.521544,140.447161 543.521544,140.447161 L603.3276,105.691198 C603.3276,105.691198 457.179952,21.313013 442.501656,12.8385685 C414.45973,-3.35148704 389.307063,-4.14952407 364.026044,10.5421981 C338.756841,25.2269389 289.354804,53.9358648 262.75697,69.3934019 C236.102211,84.8826241 242.411322,99.8627352 267.053267,114.089383 C280.937822,122.105735 428.490896,207.295383 428.490896,207.295383 L488.286211,172.546402 C488.286211,172.546402 356.9726,96.6942167 352.419063,94.0643463" id="Fill-6" fill="#D1D3D4"></path>
                    <path d="M615.456581,118.140307 L555.258489,152.895196 C555.258489,152.895196 555.34173,182.017641 555.34173,182.251789 C555.379859,195.679863 551.389674,201.753752 541.924933,207.218104 C532.472544,212.676011 514.241748,223.2014 513.2826,223.755085 C503.795841,229.232326 499.818007,227.758696 499.779878,214.330622 C499.780415,214.522881 499.662804,184.993363 499.662804,184.993363 L439.476526,219.742344 C439.476526,219.742344 439.595211,261.797715 439.638174,276.931956 C439.714433,303.800993 449.613637,315.658233 476.442396,300.167937 C503.215304,284.711474 552.9401,256.002548 578.374711,241.317807 C603.8206,226.627159 615.703619,205.233215 615.617624,174.665604 C615.571507,158.671567 615.456581,118.140307 615.456581,118.140307" id="Fill-8" fill="#D1D3D4"></path>
                    <path d="M435.198328,171.257674 C437.03392,170.191119 520.230624,121.761656 524.11555,119.503952 L496.984439,76.8159519 C484.236791,84.2238407 384.48592,142.059507 384.48592,142.059507 L435.198328,171.257674 Z" id="Fill-10" fill="#D1D3D4"></path>
                    <polygon id="Fill-12" fill="#D1D3D4" points="351.264219 372.383791 351.264219 271.166809 406.464107 239.244791 406.464107 340.629865"></polygon>
                    <path d="M0.123303704,220.768891 L136.682156,300.904483 C161.391767,315.382465 191.964211,315.511354 216.794119,301.242817 L297.380285,254.933039 C309.685415,247.861335 324.850804,247.987539 337.037248,255.262243 L340.5731,257.372798 L395.695119,225.802539 L194.539841,108.884743 L172.442378,121.486317 C159.544359,128.841576 159.21623,147.318872 171.845193,155.127391 L264.180656,212.221409 L177.212341,260.228761 L74.2258222,200.891539 C60.780563,193.157131 44.2076,193.284409 30.8821,201.223428 L0.123303704,220.768891 Z" id="Fill-14" fill="#D1D3D4"></path>
                </g>
            </g>
        </g>
    </g>
</svg>