<?xml version="1.0" encoding="UTF-8"?>
<svg width="720px" height="500px" viewBox="0 0 720 500" version="1.1" xmlns="http://www.w3.org/2000/svg" xmlns:xlink="http://www.w3.org/1999/xlink">
    <title>Countdown-38</title>
    <g id="V3-Desktop" stroke="none" stroke-width="1" fill="none" fill-rule="evenodd">
        <g id="NWD50-Landing-V3-Splash3-38" transform="translate(-360.000000, -200.000000)">
            <g id="Countdown-38" transform="translate(360.000000, 200.000000)">
                <polygon id="Fill-1" fill-opacity="0" fill="#FFFFFF" points="0 500 720 500 720 0 0 0"></polygon>
                <polygon id="Fill-2" fill="#000000" points="96.0659278 348.250222 81.6813352 312.656306 71.4896315 307.035852 71.3792148 346.129241 78.870863 350.402611 78.950363 322.472102 79.0544 322.5305 93.8242241 359.029833 103.618919 364.75138 103.729826 325.021991 96.2371963 320.78837"></polygon>
                <polygon id="Fill-3" fill="#000000" points="165.886263 388.416665 158.896152 357.206535 151.926652 353.043091 144.656328 374.770637 139.296457 345.568619 131.124152 340.782915 141.100911 387.164785 147.546791 391.101998 155.209707 367.567544 162.635596 400.413313 169.311633 404.575285 179.373781 369.606081 171.776624 364.977415"></polygon>
                <g id="Group-18" transform="translate(108.833333, 41.925926)">
                    <path d="M120.509192,385.80609 C119.876627,387.044229 119.025682,387.826469 117.92446,388.120423 C116.834034,388.420756 115.544858,388.305432 114.057914,387.775923 C112.570969,387.234145 110.958886,386.404303 109.221664,385.274618 L105.328618,382.749266 L105.394868,357.882451 L109.820858,360.702738 C111.390247,361.705321 112.886516,362.921377 114.307701,364.325386 C115.729868,365.730868 116.973405,367.283081 118.027516,368.948655 C119.081627,370.629442 119.915395,372.428988 120.539127,374.367414 C121.163349,376.307312 121.472025,378.303155 121.467175,380.368682 C121.460247,382.75859 121.141266,384.566969 120.509192,385.80609 M127.665664,375.005868 C126.594377,371.597673 125.156016,368.462821 123.329479,365.590025 C121.513247,362.729006 119.371655,360.132006 116.924821,357.800006 C114.477988,355.485673 111.894238,353.465784 109.173571,351.738377 L97.924812,344.643247 L97.8139046,386.405284 L110.06721,394.379331 C112.599432,396.038034 115.018294,397.171645 117.322321,397.778201 C119.637636,398.379849 121.671266,398.38034 123.444312,397.779182 C125.207053,397.170173 126.614497,395.89621 127.657321,393.974469 C128.710942,392.044386 129.241923,389.364942 129.250902,385.936136 C129.261062,382.064192 128.725664,378.411608 127.665664,375.005868" id="Fill-4" fill="#000000"></path>
                    <path d="M297.501023,85.9553509 C286.242449,79.4549991 286.694912,75.5437954 295.307903,70.5387306 C296.178968,70.0327769 312.729199,60.4147491 321.311273,55.4273509 C329.903162,50.4340639 336.684708,50.1415824 347.943282,56.6414435 C353.857199,60.0560176 472.129153,128.339647 472.129153,128.339647 L526.779514,96.579888 C526.779514,96.579888 393.230801,19.4756843 379.817875,11.7317954 C354.193356,-3.06256574 331.209023,-3.79180648 308.107403,9.63338796 C285.016579,23.0522028 239.873338,49.2862213 215.568421,63.411212 C191.211486,77.5651565 196.977199,91.2538787 219.493856,104.254092 C232.181958,111.579379 367.01494,189.425092 367.01494,189.425092 L421.655486,157.671712 C421.655486,157.671712 301.662014,88.3585083 297.501023,85.9553509" id="Fill-6" fill="#D1D3D4"></path>
                    <path d="M181.216569,263.020254 C182.893431,262.045643 246.909088,222.896309 250.459106,220.833235 L225.666884,181.825726 C214.018171,188.594513 134.875921,236.33917 134.875921,236.33917 L181.216569,263.020254 Z" id="Fill-8" fill="#D1D3D4"></path>
                    <path d="M537.862894,107.955798 L482.854292,139.714576 C482.854292,139.714576 482.930356,166.326465 482.930356,166.540428 C482.96569,178.810909 479.318995,184.361187 470.670181,189.354474 C462.032653,194.341872 445.373968,203.9599 444.497014,204.465854 C435.828079,209.470919 432.193162,208.124326 432.158319,195.853844 C432.15881,196.02953 432.051338,169.045659 432.051338,169.045659 L377.053532,200.799039 C377.053532,200.799039 377.161986,239.228946 377.201245,253.058511 C377.271421,277.611252 386.316755,288.446317 410.833181,274.291391 C435.297588,260.167381 480.735764,233.933363 503.977736,220.514548 C527.230014,207.090335 538.088634,187.540696 538.010053,159.608224 C537.967912,144.992983 537.862894,107.955798 537.862894,107.955798" id="Fill-10" fill="#D1D3D4"></path>
                    <path d="M284.416354,254.283253 C284.416354,254.283253 284.491437,280.895142 284.491928,281.109105 C284.527261,293.379586 280.880567,298.929864 272.232243,303.92266 C268.659159,305.985734 165.115317,365.76679 165.115317,365.76679 C165.179113,388.162725 189.429557,402.119392 208.824613,390.921669 C247.288872,368.714179 298.357807,339.229494 305.549613,335.077336 C328.792076,321.658031 339.650206,302.109373 339.571624,274.17641 C339.529974,259.561169 339.424956,222.523494 339.424956,222.523494 L284.416354,254.283253 Z" id="Fill-12" fill="#D1D3D4"></path>
                    <path d="M18.1574074,232.12037 C-4.35974074,219.119667 -7.22664815,192.308046 17.130287,178.15312 C41.4352037,164.029111 86.5779537,137.794602 109.669269,124.375296 C132.770398,110.950593 155.755222,111.679833 181.379741,126.474685 C194.792667,134.218574 328.34138,211.322778 328.34138,211.322778 L273.690528,243.082537 C273.690528,243.082537 155.419065,174.797926 149.504657,171.383352 C138.246083,164.883491 131.465028,165.176954 122.872648,170.16975 C114.291065,175.157639 97.7408333,184.774685 96.8697685,185.28162 L18.1574074,232.12037" id="Fill-14" fill="#D1D3D4"></path>
                    <path d="M373.144095,156.494081 C374.821447,155.51947 450.846021,111.264961 454.39604,109.201887 L429.603818,70.193887 C417.955105,76.9631648 326.803447,129.812998 326.803447,129.812998 L373.144095,156.494081 Z" id="Fill-16" fill="#D1D3D4"></path>
                </g>
            </g>
        </g>
    </g>
</svg>