<?xml version="1.0" encoding="UTF-8"?>
<svg width="720px" height="500px" viewBox="0 0 720 500" version="1.1" xmlns="http://www.w3.org/2000/svg" xmlns:xlink="http://www.w3.org/1999/xlink">
    <title>Countdown-30</title>
    <g id="V3-Desktop" stroke="none" stroke-width="1" fill="none" fill-rule="evenodd">
        <g id="NWD50-Landing-V3-Splash3-30" transform="translate(-360.000000, -200.000000)">
            <g id="Countdown-30" transform="translate(360.000000, 200.000000)">
                <polygon id="Fill-1" fill-opacity="0" fill="#FFFFFF" points="0 500 720 500 720 0 0 0"></polygon>
                <polygon id="Fill-2" fill="#000000" points="121.437022 338.981333 108.409467 306.745333 99.1792444 301.655111 99.0792444 337.060444 105.864578 340.930667 105.935689 315.635111 106.0308 315.688 119.407244 348.744 128.277467 353.925778 128.377467 317.944444 121.592133 314.110222"></polygon>
                <polygon id="Fill-3" fill="#000000" points="184.670533 375.358489 178.339867 347.092711 172.027867 343.322044 165.443422 362.999822 160.5892 336.552711 153.187867 332.218489 162.223422 374.224711 168.0612 377.790489 175.0012 356.476267 181.726978 386.223378 187.772756 389.992711 196.885644 358.322489 190.005644 354.130489"></polygon>
                <g id="Group-16" transform="translate(133.000000, 61.555556)">
                    <path d="M109.140578,349.409289 C108.567689,350.530622 107.797022,351.239067 106.799244,351.505289 C105.812133,351.777289 104.644578,351.672844 103.297911,351.193289 C101.9508,350.702622 100.4908,349.951067 98.9179111,348.927956 L95.3921333,346.640844 L95.4516889,324.119956 L99.4605778,326.674178 C100.881911,327.582178 102.237022,328.683511 103.524133,329.955067 C104.812133,331.227956 105.937911,332.633733 106.892578,334.142178 C107.847244,335.6644 108.6028,337.294178 109.167689,339.049733 C109.732578,340.806622 110.012578,342.614178 110.007752,344.484844 C110.001911,346.649289 109.713022,348.287067 109.140578,349.409289 M115.621467,339.627956 C114.651689,336.541289 113.349022,333.702178 111.694356,331.1004 C110.049911,328.509289 108.109911,326.157289 105.893911,324.045289 C103.678356,321.949289 101.338356,320.119956 98.8743556,318.555511 L88.6868,312.129733 L88.5863556,349.951956 L99.6836889,357.173733 C101.977022,358.675956 104.167689,359.702622 106.254356,360.251956 C108.351244,360.796844 110.192578,360.797289 111.798356,360.252844 C113.3948,359.701289 114.669911,358.547511 115.614356,356.807067 C116.568578,355.059067 117.049467,352.6324 117.057599,349.527067 C117.0668,346.0204 116.581467,342.7124 115.621467,339.627956" id="Fill-4" fill="#000000"></path>
                    <path d="M269.434844,77.8463556 C259.2384,71.9592444 259.648178,68.4170222 267.448622,63.8841333 C268.237956,63.4259111 283.2264,54.7152444 290.998844,50.1983556 C298.780178,45.6761333 304.921956,45.4112444 315.1184,51.2979111 C320.4744,54.3903556 427.588622,116.232133 427.588622,116.232133 L477.083289,87.4685778 C477.083289,87.4685778 356.133511,17.6383556 343.985956,10.6250222 C320.778844,-2.77364444 299.962844,-3.43408889 279.040622,8.72457778 C258.128178,20.8774667 217.243733,44.6365778 195.231733,57.4290222 C173.172622,70.2476889 178.3944,82.6450222 198.787289,94.4188 C210.277956,101.053022 332.390844,171.5548 332.390844,171.5548 L381.877067,142.797022 C381.877067,142.797022 273.203289,80.0228 269.434844,77.8463556" id="Fill-6" fill="#D1D3D4"></path>
                    <path d="M164.120622,238.207022 C165.639733,237.324356 223.615733,201.868356 226.831289,199.999911 L204.377511,164.672356 C193.828178,170.802578 122.151733,214.043022 122.151733,214.043022 L164.120622,238.207022 Z" id="Fill-8" fill="#D1D3D4"></path>
                    <path d="M487.121022,97.7712889 L437.301911,126.533956 C437.301911,126.533956 437.3708,150.635289 437.3708,150.829067 C437.4028,161.941956 434.100133,166.968622 426.267689,171.490844 C418.444578,176.007733 403.357467,184.7184 402.563244,185.176622 C394.712133,189.709511 391.420133,188.489956 391.389022,177.377067 C391.389022,177.536178 391.291689,153.097956 391.291689,153.097956 L341.482356,181.855733 C341.482356,181.855733 341.580578,216.660178 341.616133,229.185067 C341.679689,251.421511 349.871689,261.2344 372.075244,248.414844 C394.231689,235.623289 435.383244,211.864178 456.432578,199.711289 C477.491244,187.553511 487.325467,169.848178 487.254299,144.550844 C487.216133,131.3144 487.121022,97.7712889 487.121022,97.7712889" id="Fill-10" fill="#D1D3D4"></path>
                    <path d="M257.584578,230.294267 C257.584578,230.294267 257.653022,254.3956 257.653022,254.589378 C257.685022,265.702267 254.382356,270.728933 246.549911,275.250711 C243.313911,277.119156 149.538356,331.260489 149.538356,331.260489 C149.596133,351.5436 171.558356,364.1836 189.124133,354.042267 C223.959689,333.929822 270.2108,307.226711 276.724133,303.466267 C297.773911,291.312933 307.608133,273.608489 307.536526,248.310711 C307.4988,235.074267 307.403689,201.530711 307.403689,201.530711 L257.584578,230.294267 Z" id="Fill-12" fill="#D1D3D4"></path>
                    <path d="M16.4444,210.222222 C-3.94848889,198.448 -6.54537778,174.165778 15.5141778,161.346222 C37.5266222,148.554667 78.4106222,124.795111 99.3230667,112.641778 C120.245289,100.483556 141.061733,101.144 164.2684,114.543111 C176.4164,121.556444 297.365733,191.386667 297.365733,191.386667 L247.870622,220.150222 C247.870622,220.150222 140.756844,158.307556 135.4004,155.215111 C125.2044,149.328444 119.063067,149.594222 111.281289,154.116 C103.509289,158.633333 88.5199556,167.343111 87.7315111,167.802222 L16.4444,210.222222" id="Fill-14" fill="#D1D3D4"></path>
                </g>
            </g>
        </g>
    </g>
</svg>