<?xml version="1.0" encoding="UTF-8"?>
<svg width="720px" height="500px" viewBox="0 0 720 500" version="1.1" xmlns="http://www.w3.org/2000/svg" xmlns:xlink="http://www.w3.org/1999/xlink">
    <title>Countdown-15</title>
    <g id="V3-Desktop" stroke="none" stroke-width="1" fill="none" fill-rule="evenodd">
        <g id="NWD50-Landing-V3-Splash3-00" transform="translate(-360.000000, -200.000000)">
            <g id="Countdown-15" transform="translate(360.000000, 200.000000)">
                <polygon id="Fill-1" fill-opacity="0" fill="#FFFFFF" points="0 500 720 500 720 0 0 0"></polygon>
                <polygon id="Fill-2" fill="#000000" points="225.995825 300.052 218.667825 281.91925 213.475825 279.056 213.419575 298.9715 217.236325 301.1485 217.276325 286.91975 217.329825 286.9495 224.854075 305.5435 229.843575 308.45825 229.899825 288.21875 226.083075 286.062"></polygon>
                <polygon id="Fill-3" fill="#000000" points="261.564675 320.51415 258.003675 304.61465 254.453175 302.49365 250.749425 313.5624 248.018925 298.68615 243.855675 296.2479 248.938175 319.87665 252.221925 321.88215 256.125675 309.8929 259.908925 326.62565 263.309675 328.7459 268.435675 310.9314 264.565675 308.57365"></polygon>
                <path d="M293.891575,340.5426 C293.569325,341.17335 293.135825,341.5721 292.574575,341.7216 C292.019325,341.8746 291.362575,341.81585 290.605075,341.5461 C289.847325,341.2701 289.026075,340.84735 288.141325,340.2721 L286.158075,338.9856 L286.191575,326.3176 L288.446575,327.7541 C289.246075,328.26485 290.008325,328.8846 290.732325,329.5996 C291.456825,330.3156 292.090075,331.1066 292.627075,331.9551 C293.164075,332.81135 293.589075,333.7281 293.906825,334.7156 C294.224575,335.7036 294.382075,336.72035 294.37936,337.7726 C294.376075,338.9901 294.213575,339.91135 293.891575,340.5426 M297.537075,335.04085 C296.991575,333.30435 296.258825,331.7076 295.328075,330.2441 C294.403075,328.7866 293.311825,327.4636 292.065325,326.27535 C290.819075,325.09635 289.502825,324.06735 288.116825,323.1876 L282.386325,319.5731 L282.329825,340.8481 L288.572075,344.9101 C289.862075,345.7551 291.094325,346.33285 292.268075,346.6416 C293.447575,346.94835 294.483325,346.9486 295.386575,346.64235 C296.284575,346.3321 297.001825,345.68285 297.533075,344.70385 C298.069825,343.72085 298.340325,342.3556 298.344899,340.6091 C298.350075,338.6366 298.077075,336.7756 297.537075,335.04085" id="Fill-4" fill="#000000"></path>
                <path d="M384.0571,187.78845 C378.3216,184.47695 378.5521,182.4847 382.93985,179.9347 C383.38385,179.67695 391.81485,174.77745 396.18685,172.23645 C400.56385,169.69295 404.0186,169.5437 409.7541,172.85495 C412.76685,174.59445 473.0186,209.3807 473.0186,209.3807 L500.85935,193.2012 C500.85935,193.2012 432.8251,153.9217 425.9921,149.97645 C412.9381,142.43995 401.2291,142.06845 389.46035,148.90745 C377.6971,155.74345 354.6996,169.1082 342.31785,176.3037 C329.9096,183.51445 332.84685,190.4877 344.31785,197.1107 C350.78135,200.8422 419.46985,240.4997 419.46985,240.4997 L447.30585,224.32345 C447.30585,224.32345 386.17685,189.01295 384.0571,187.78845" id="Fill-6" fill="#D1D3D4"></path>
                <path d="M506.505575,198.996225 L478.482325,215.175475 C478.482325,215.175475 478.521075,228.732225 478.521075,228.841475 C478.539075,235.092475 476.681325,237.919975 472.275575,240.463725 C467.875075,243.004225 459.388575,247.903975 458.941825,248.161725 C454.525575,250.711725 452.673825,250.025725 452.656325,243.774725 C452.656325,243.863975 452.601575,230.117725 452.601575,230.117725 L424.583825,246.293725 C424.583825,246.293725 424.639075,265.871225 424.659075,272.916475 C424.694825,285.424475 429.302825,290.944225 441.792325,283.733475 C454.255325,276.537975 477.403075,263.173725 489.243325,256.337725 C501.088825,249.498725 506.620575,239.539725 506.580543,225.309725 C506.559075,217.864475 506.505575,198.996225 506.505575,198.996225" id="Fill-8" fill="#D1D3D4"></path>
                <path d="M282.966025,246.161975 C277.230525,242.850475 277.461025,240.858225 281.848775,238.308225 C282.292525,238.050475 290.723775,233.150975 295.095775,230.609975 C299.472775,228.066475 302.927525,227.917225 308.662775,231.228475 C311.675775,232.967975 371.927275,267.754225 371.927275,267.754225 L399.768275,251.574725 C399.768275,251.574725 331.734025,212.295225 324.900775,208.349975 C311.847025,200.813475 300.138025,200.441975 288.369025,207.280975 C276.606025,214.116975 253.608525,227.481725 241.226775,234.677225 C228.818275,241.887975 231.755525,248.861225 243.226525,255.484225 C249.690025,259.215725 318.378775,298.873225 318.378775,298.873225 L346.214525,282.696975 C346.214525,282.696975 285.085775,247.386225 282.966025,246.161975" id="Fill-10" fill="#D1D3D4"></path>
                <path d="M405.414525,257.36975 L377.391275,273.54875 C377.391275,273.54875 377.430025,287.10575 377.430025,287.215 C377.447775,293.46575 375.590025,296.2935 371.184275,298.83725 C366.783775,301.37775 358.297275,306.2775 357.850775,306.53525 C353.434525,309.08525 351.582775,308.39925 351.565025,302.14825 C351.565275,302.2375 351.510525,288.49125 351.510525,288.49125 L323.492775,304.66725 C323.492775,304.66725 323.548025,324.24475 323.568025,331.29 C323.603525,343.798 328.211775,349.31775 340.701025,342.107 C353.164025,334.9115 376.311775,321.54725 388.152025,314.71125 C399.997775,307.87225 405.529525,297.913 405.489246,283.68325 C405.468025,276.238 405.414525,257.36975 405.414525,257.36975" id="Fill-12" fill="#D1D3D4"></path>
            </g>
        </g>
    </g>
</svg>