<?xml version="1.0" standalone="no"?>
<!DOCTYPE svg PUBLIC "-//W3C//DTD SVG 20010904//EN"
 "http://www.w3.org/TR/2001/REC-SVG-20010904/DTD/svg10.dtd">
<svg version="1.0" xmlns="http://www.w3.org/2000/svg"
 width="880.000000pt" height="880.000000pt" viewBox="0 0 880.000000 880.000000"
 preserveAspectRatio="xMidYMid meet">
<metadata>
Created by potrace 1.11, written by Peter Selinger 2001-2013
</metadata>
<g transform="translate(0.000000,880.000000) scale(0.100000,-0.100000)"
fill="#000000" stroke="none">
<path d="M5767 7594 c-1 -1 -33 -4 -72 -8 -75 -6 -77 -6 -145 -25 -25 -7 -53
-15 -63 -17 -24 -4 -211 -96 -262 -128 -22 -14 -62 -38 -90 -53 -27 -15 -57
-32 -66 -38 -10 -5 -64 -37 -120 -70 -57 -33 -105 -63 -107 -67 -2 -4 -8 -8
-13 -8 -7 0 -139 -73 -179 -100 -8 -6 -22 -13 -30 -17 -8 -4 -33 -18 -55 -32
-22 -14 -60 -36 -85 -49 -25 -14 -52 -31 -61 -38 -8 -8 -21 -14 -27 -14 -6 0
-17 -6 -24 -13 -7 -7 -24 -18 -38 -24 -14 -7 -43 -24 -65 -37 -22 -14 -51 -31
-65 -39 -46 -25 -75 -42 -80 -47 -3 -3 -21 -14 -40 -24 -91 -49 -290 -170
-316 -192 -187 -155 -187 -300 1 -449 28 -22 52 -43 55 -46 5 -5 195 -119 280
-166 19 -11 98 -57 174 -102 76 -44 143 -81 147 -81 5 0 9 -5 9 -11 0 -5 4 -8
9 -5 5 3 14 -1 21 -9 7 -8 19 -15 26 -15 8 0 14 -4 14 -10 0 -5 4 -10 9 -10 5
0 102 -54 216 -120 113 -66 210 -120 215 -120 6 0 10 -4 10 -10 0 -5 4 -10 9
-10 7 0 66 -32 111 -60 54 -35 172 -100 180 -100 6 0 10 -4 10 -10 0 -5 4 -10
8 -10 9 0 208 -112 227 -127 6 -5 21 -14 35 -20 14 -7 32 -17 40 -23 8 -5 78
-46 155 -90 77 -44 147 -85 155 -90 8 -5 33 -19 54 -31 22 -12 84 -48 140 -81
l100 -59 36 19 c19 10 51 28 70 38 19 10 37 21 40 24 3 3 15 11 28 18 42 23
487 282 502 292 8 5 48 28 89 51 l73 42 -46 28 c-25 16 -50 29 -56 29 -5 0
-10 5 -10 10 0 6 -4 10 -9 10 -5 0 -42 19 -83 43 -40 24 -93 55 -118 69 -25
14 -110 63 -189 109 -79 46 -166 97 -195 112 -28 16 -62 36 -76 45 -14 9 -34
22 -45 28 -35 19 -356 205 -502 291 -78 45 -146 83 -152 83 -6 0 -11 5 -11 10
0 6 -6 10 -14 10 -7 0 -24 8 -37 18 -13 10 -49 32 -79 48 -30 16 -57 32 -60
35 -3 3 -27 18 -55 33 -170 95 -217 125 -227 140 -4 6 -8 7 -8 3 0 -22 -53 57
-52 79 0 43 47 79 287 219 264 153 287 164 361 171 91 9 164 -19 364 -138 41
-24 82 -47 90 -51 8 -4 29 -15 45 -26 17 -10 188 -109 380 -221 193 -112 429
-249 525 -305 96 -56 186 -108 200 -116 14 -8 33 -20 43 -28 9 -8 17 -10 17
-6 0 4 8 1 18 -7 15 -13 77 -50 287 -170 28 -16 59 -34 70 -41 65 -41 96 -57
106 -57 6 0 92 48 192 106 100 59 202 118 227 132 25 13 50 28 55 32 9 7 43
27 118 69 34 19 38 21 154 90 85 51 90 55 70 66 -51 26 -123 69 -139 83 -10 8
-18 11 -18 7 0 -4 -8 -1 -17 7 -10 8 -88 55 -173 104 -85 49 -162 94 -172 99
-9 6 -29 17 -45 26 -59 33 -469 272 -498 290 -16 10 -37 22 -45 26 -8 4 -59
33 -113 65 -54 32 -101 58 -103 58 -2 0 -21 11 -42 24 -82 52 -263 156 -272
156 -6 0 -10 5 -10 10 0 6 -4 10 -9 10 -12 0 -201 108 -225 129 -10 9 -20 15
-22 13 -2 -1 -14 4 -27 12 -61 38 -149 86 -158 86 -5 0 -9 5 -9 10 0 6 -4 10
-10 10 -5 0 -38 17 -72 38 -35 21 -78 45 -95 53 -18 7 -33 17 -33 21 0 5 -5 8
-12 8 -6 0 -30 9 -52 20 -54 25 -216 79 -258 85 -114 15 -196 23 -201 19z"/>
<path d="M8692 5884 c-41 -24 -78 -44 -83 -44 -5 0 -9 -4 -9 -8 0 -5 -16 -14
-35 -22 -19 -8 -35 -17 -35 -22 0 -4 -5 -8 -10 -8 -6 0 -27 -11 -48 -24 -20
-13 -145 -85 -277 -161 -132 -76 -242 -140 -244 -141 -2 -2 -5 -124 -6 -271
-1 -192 -5 -276 -15 -298 -7 -16 -17 -41 -23 -55 -25 -57 -123 -133 -292 -224
-11 -6 -31 -18 -45 -27 -63 -40 -175 -103 -179 -100 -2 1 -7 -1 -10 -6 -7 -11
-90 -51 -111 -53 -39 -5 -57 2 -75 33 -20 33 -24 102 -25 439 l0 108 -32 -19
c-18 -10 -56 -32 -84 -48 -27 -17 -70 -41 -95 -55 -24 -14 -73 -42 -109 -63
-36 -21 -101 -58 -145 -83 -44 -25 -99 -58 -122 -74 -24 -16 -43 -26 -43 -22
0 4 -8 0 -17 -8 -10 -8 -58 -37 -106 -64 l-88 -49 4 -475 c3 -261 8 -491 12
-510 13 -64 45 -137 77 -174 45 -53 89 -69 168 -62 60 4 176 42 205 66 6 5 15
7 18 3 4 -3 7 -1 7 5 0 7 4 12 10 12 5 0 49 24 97 53 48 28 109 63 136 77 26
14 47 28 47 32 0 5 4 8 10 8 5 0 75 38 155 85 79 47 146 85 149 85 2 0 56 32
120 70 64 39 120 70 125 70 5 0 11 3 13 8 2 4 17 14 33 23 24 13 162 92 380
219 17 10 70 41 118 69 127 73 184 113 251 172 49 45 77 76 166 186 6 7 10 15
10 19 0 4 6 15 13 23 17 19 88 187 91 216 1 6 7 28 13 50 24 82 26 131 29 603
2 364 0 482 -9 481 -7 0 -45 -20 -85 -45z"/>
<path d="M2746 5683 c-1 -1 -42 -5 -92 -8 -118 -7 -158 -11 -229 -24 -91 -17
-96 -18 -160 -35 -33 -9 -69 -19 -79 -21 -26 -6 -156 -55 -181 -69 -11 -5 -22
-10 -25 -11 -7 0 -197 -108 -403 -228 -82 -48 -153 -87 -158 -87 -5 0 -9 -4
-9 -8 0 -4 -19 -18 -42 -30 -24 -12 -50 -26 -58 -32 -50 -33 -773 -450 -780
-450 -6 0 -10 -4 -10 -10 0 -5 -4 -10 -9 -10 -8 0 -58 -28 -136 -76 -22 -13
-51 -30 -65 -37 -14 -6 -27 -14 -30 -17 -3 -4 -36 -23 -74 -44 l-69 -39 59
-36 c32 -20 61 -36 64 -36 3 0 16 -8 30 -17 14 -8 59 -35 100 -59 41 -24 84
-49 95 -56 11 -7 32 -17 48 -24 15 -6 27 -15 27 -20 0 -5 5 -9 11 -9 6 0 37
-15 68 -34 31 -19 72 -43 91 -54 71 -40 335 -192 350 -202 8 -5 35 -21 60 -35
25 -14 68 -38 95 -55 28 -17 72 -43 99 -58 27 -15 56 -31 65 -37 72 -44 182
-105 191 -105 5 0 10 -4 10 -9 0 -5 10 -13 23 -17 12 -4 24 -10 27 -13 3 -4
43 -29 90 -56 292 -167 413 -206 630 -200 169 4 238 18 390 83 70 29 303 157
425 233 17 10 41 24 55 31 14 7 48 27 77 45 29 18 57 33 63 33 5 0 10 5 10 10
0 6 4 10 9 10 5 0 71 37 147 81 77 45 153 90 169 99 17 10 57 34 90 53 109 65
265 149 283 152 9 2 17 4 17 5 0 2 22 3 50 5 91 4 151 -18 315 -113 52 -30
106 -62 120 -69 14 -8 48 -28 75 -44 116 -68 103 -66 178 -20 37 23 69 41 71
41 3 0 40 22 83 48 63 39 423 249 556 325 18 11 36 22 40 27 8 7 -243 160
-263 160 -4 0 -10 4 -12 8 -4 10 -393 235 -516 298 -112 57 -234 101 -337 120
-70 13 -277 12 -345 -1 -85 -17 -299 -101 -320 -125 -3 -4 -30 -20 -60 -36
-59 -33 -301 -174 -490 -286 -63 -37 -126 -73 -140 -80 -14 -7 -27 -15 -30
-18 -3 -3 -16 -11 -29 -18 -13 -8 -40 -23 -60 -34 -20 -11 -74 -43 -121 -71
-47 -27 -116 -68 -155 -90 -38 -22 -82 -48 -97 -58 -15 -11 -30 -19 -32 -19
-3 0 -34 -17 -68 -38 -35 -21 -84 -50 -109 -64 l-45 -26 -255 148 c-249 146
-289 168 -359 206 -19 11 -40 25 -48 32 -7 6 -20 12 -28 12 -8 0 -14 3 -14 8
0 4 -23 18 -51 32 -28 14 -53 28 -55 31 -3 5 90 69 101 69 2 0 40 23 85 50 45
28 83 50 84 50 1 0 103 59 227 131 123 73 249 145 279 162 30 17 57 33 60 36
3 3 14 11 25 17 48 26 120 67 257 147 80 48 164 97 186 109 314 181 622 364
622 369 0 7 2 7 -161 43 -141 31 -212 41 -369 52 -87 6 -201 10 -204 7z"/>
<path d="M5734 4171 c-13 -13 -96 -61 -116 -68 -10 -3 -18 -9 -18 -14 0 -5 -4
-9 -9 -9 -6 0 -85 -44 -178 -98 -92 -53 -180 -103 -195 -111 -16 -8 -28 -18
-28 -23 0 -4 -6 -8 -13 -8 -7 0 -29 -11 -48 -25 -20 -13 -39 -21 -43 -18 -3 4
-6 1 -6 -5 0 -7 -4 -12 -9 -12 -8 0 -137 -74 -150 -87 -3 -2 -6 -122 -6 -266
-2 -247 -3 -265 -25 -321 -27 -69 -91 -137 -172 -181 -29 -15 -56 -33 -59 -38
-3 -5 -9 -8 -13 -8 -3 1 -16 -5 -29 -12 -33 -21 -466 -271 -507 -293 -19 -11
-53 -31 -75 -45 -22 -14 -47 -29 -55 -33 -8 -4 -24 -12 -35 -19 -11 -7 -63
-36 -115 -66 -52 -30 -103 -61 -112 -69 -10 -8 -18 -12 -18 -8 0 4 -6 2 -12
-4 -7 -6 -141 -85 -297 -175 -156 -90 -287 -168 -290 -174 -9 -14 -8 -747 1
-756 6 -7 191 94 196 107 2 5 8 8 13 8 5 0 39 18 75 40 36 22 68 40 70 40 2 0
44 25 95 55 50 30 93 55 95 55 3 0 23 12 47 27 23 15 44 28 47 28 3 0 49 27
102 58 54 32 100 57 104 57 4 -1 10 2 13 7 5 7 139 87 321 191 51 29 259 150
375 217 55 33 115 66 133 74 17 8 32 19 32 23 0 4 4 8 10 8 8 0 113 59 160 91
8 5 23 12 33 15 9 4 17 10 17 15 0 5 5 9 11 9 15 0 243 136 309 184 71 51 180
161 216 217 16 24 31 46 34 49 28 27 93 189 116 289 24 99 28 150 28 333 1 93
5 168 9 168 5 0 5 5 1 12 -4 6 -8 136 -8 289 -1 152 -4 280 -7 283 -3 3 -10 2
-15 -3z"/>
<path d="M1 3223 l-1 -298 50 -27 c28 -16 53 -28 58 -28 4 0 7 92 7 205 0 112
3 201 6 197 3 -4 28 -61 54 -127 26 -66 53 -133 60 -150 7 -16 35 -84 61 -149
30 -72 57 -123 69 -130 11 -6 43 -26 72 -43 l53 -33 1 28 c4 116 3 575 -1 581
-8 12 -102 62 -107 58 -2 -3 -5 -93 -6 -201 0 -107 -2 -194 -4 -192 -7 7 -81
186 -77 186 3 0 -1 12 -9 28 -20 37 -33 67 -57 132 -12 30 -27 69 -35 85 -7
17 -17 43 -21 58 -4 20 -22 38 -55 59 -26 16 -52 29 -56 30 -4 0 -17 7 -28 14
-11 8 -23 14 -27 14 -4 0 -7 -134 -7 -297z"/>
<path d="M918 3005 c-3 -3 6 -51 19 -108 12 -56 26 -118 29 -137 3 -19 12 -62
20 -95 8 -33 16 -69 18 -80 20 -122 60 -282 74 -292 10 -7 22 -16 28 -20 5 -4
20 -14 32 -21 21 -12 24 -10 38 25 9 20 17 44 19 52 2 9 12 45 24 81 12 36 21
70 22 75 0 6 4 15 9 20 4 6 11 25 15 43 3 17 10 32 14 32 6 0 24 -68 37 -140
1 -8 12 -58 24 -110 12 -52 23 -104 26 -115 23 -109 28 -119 78 -152 28 -18
51 -31 53 -30 1 2 13 43 27 92 13 50 45 162 71 250 58 203 56 192 39 206 -8 6
-14 8 -14 4 0 -5 -8 -1 -17 7 -10 8 -30 22 -45 31 l-26 16 -18 -77 c-10 -42
-19 -81 -20 -87 -2 -5 -14 -50 -27 -100 -25 -96 -26 -96 -48 10 -7 33 -14 65
-15 70 -2 6 -5 24 -9 40 -3 17 -8 41 -11 55 -3 14 -6 26 -5 27 0 2 -5 17 -10
35 -5 18 -12 49 -15 68 -7 47 -24 90 -36 90 -6 0 -22 9 -37 19 -47 34 -51 31
-82 -59 -16 -47 -31 -89 -32 -95 -13 -54 -44 -135 -51 -135 -5 0 -7 2 -4 5 3
4 1 25 -4 48 -5 23 -11 56 -14 72 -2 17 -11 64 -19 105 -8 41 -18 91 -21 110
-12 87 -19 106 -42 113 -21 7 -75 39 -83 50 -3 4 -8 5 -11 2z"/>
<path d="M2066 1984 l0 -316 25 -19 c13 -10 30 -19 37 -19 6 0 12 -4 12 -8 0
-4 15 -16 33 -27 17 -10 34 -21 37 -24 9 -10 64 -41 110 -62 65 -29 134 -30
167 -1 78 67 77 253 -1 417 -38 82 -50 99 -126 174 -49 49 -266 201 -287 201
-4 0 -8 -142 -7 -316z m243 26 c81 -76 124 -179 116 -278 -9 -114 -75 -121
-220 -26 l-25 16 1 189 1 188 40 -22 c21 -12 61 -42 87 -67z"/>
</g>
</svg>
