<?xml version="1.0" encoding="UTF-8"?>
<svg width="80px" height="71px" viewBox="0 0 80 71" version="1.1" xmlns="http://www.w3.org/2000/svg" xmlns:xlink="http://www.w3.org/1999/xlink">
    <title>Group</title>
    <g id="Symbols" stroke="none" stroke-width="1" fill="none" fill-rule="evenodd">
        <g id="Icon-Virtual-Tour" transform="translate(0.000000, -5.000000)" stroke="#D8182A" stroke-width="2">
            <g id="Group" transform="translate(1.000000, 7.000000)">
                <path d="M68,4 C71.5268205,2.89559028 75.0425079,1.54916251 78,0 C78,0 78,66 78,66 C75.0258295,64.4421012 71.5578042,63.1026747 68,62 M10,62 C6.31510618,63.13104 3.06325417,64.3883227 0,66 C0,66 0,0 0,0 C3.04825913,1.6037879 6.34688215,2.87116952 10,4" id="Shape"></path>
                <path d="M58,6 C61.9789269,4.69500624 64.8635475,2.20942219 68,0 C68,0 68,66 68,66 C64.8258071,63.7639922 62.0342858,61.309692 58,60 M20,60 C15.8432423,61.4009754 13.1483313,63.6581378 10,66 C10,66 10,0 10,0 C13.1660099,2.35501231 15.831398,4.70115399 20,6" id="Shape"></path>
                <path d="M20,1 C29.5,10.6071429 47.9411765,10.6512605 58,1 C58,1 58,66 58,66 C47.9411765,56.3487395 29.5,56.3928571 20,66 C20,66 20,1 20,1 Z" id="Rectangle"></path>
            </g>
        </g>
    </g>
</svg>