<?xml version="1.0" encoding="UTF-8"?>
<svg width="60px" height="53px" viewBox="0 0 60 53" version="1.1" xmlns="http://www.w3.org/2000/svg" xmlns:xlink="http://www.w3.org/1999/xlink">
    <title>Group 2</title>
    <g id="V3-Mobile" stroke="none" stroke-width="1" fill="none" fill-rule="evenodd">
        <g id="Group-2" stroke="#D8182A" stroke-width="2">
            <path d="M59,1.6389136 L59,50.8610864 C50.8716098,46.8872674 39.8286326,44.7551666 28.9527049,44.7551666 C18.5882721,44.7551666 8.39014993,46.6958276 1,50.7555934 L1,50.7555934 L1,1.74440665 C8.39014993,5.80417244 18.5882721,7.74483345 28.9527049,7.74483345 C39.8286326,7.74483345 50.8716098,5.61273258 59,1.6389136 L59,1.6389136 Z" id="Rectangle"></path>
            <path d="M51.5,1.87628253 L51.5,50.6237175 C45.393025,46.8031016 37.2453482,44.7551666 29.2145287,44.7551666 C21.5745913,44.7551666 14.0599212,46.6111507 8.5,50.4825537 L8.5,50.4825537 L8.5,2.01744625 C14.0599212,5.88884932 21.5745913,7.74483345 29.2145287,7.74483345 C37.2453482,7.74483345 45.393025,5.69689839 51.5,1.87628253 L51.5,1.87628253 Z" id="Rectangle"></path>
            <path d="M44,2.35590823 L44,50.1440918 C39.9224486,46.6236494 34.6618803,44.7551666 29.4763525,44.7551666 C24.5609834,44.7551666 19.7184461,46.4286408 16,49.9403254 L16,49.9403254 L16,2.55967465 C19.7184461,6.07135925 24.5609834,7.74483345 29.4763525,7.74483345 C34.6618803,7.74483345 39.9224486,5.87635057 44,2.35590823 L44,2.35590823 Z" id="Rectangle"></path>
        </g>
    </g>
</svg>