<?xml version="1.0" encoding="UTF-8"?>
<svg width="18px" height="18px" viewBox="0 0 18 18" version="1.1" xmlns="http://www.w3.org/2000/svg" xmlns:xlink="http://www.w3.org/1999/xlink">
    <title>SC-icon</title>
    <g id="SC-icon" stroke="none" stroke-width="1" fill="none" fill-rule="evenodd">
        <g id="Group-8">
            <rect id="Rectangle" x="0" y="0" width="18" height="18"></rect>
            <path d="M3.636,16.89 L3.636,9.456 L8.496,9.456 L8.496,4.272 L5.706,4.272 L6.894,3.822 C6.732,3.516 6.534,3.192 6.3,2.85 L8.604,2.85 L8.604,1.374 L4.158,1.374 C4.284,1.104 4.41,0.816 4.518,0.51 L2.898,0.15 C2.466,1.374 1.71,2.526 0.648,3.606 L1.818,4.326 L1.818,16.89 L3.636,16.89 Z M14.544,16.836 C15.642,16.836 16.2,16.278 16.2,15.18 L16.2,4.272 L13.716,4.272 L14.922,3.804 C14.76,3.48 14.562,3.156 14.31,2.796 L17.046,2.796 L17.046,1.32 L11.718,1.32 C11.79,1.068 11.88,0.798 11.97,0.546 L10.35,0.186 C10.008,1.338 9.432,2.436 8.622,3.48 L9.9,4.272 L9.432,4.272 L9.432,9.456 L14.382,9.456 L14.382,14.64 C14.382,15.054 14.22,15.27 13.896,15.27 C13.518,15.27 13.122,15.252 12.69,15.216 L12.69,10.212 L5.274,10.212 L5.274,15.792 L12.492,15.792 L12.762,16.782 C13.338,16.818 13.932,16.836 14.544,16.836 Z M13.392,4.272 L10.188,4.272 C10.512,3.84 10.8,3.336 11.088,2.796 L12.492,2.796 C12.816,3.264 13.122,3.75 13.392,4.272 Z M5.292,4.272 L2.34,4.272 C2.718,3.84 3.06,3.354 3.384,2.85 L4.482,2.85 C4.77,3.318 5.04,3.786 5.292,4.272 Z M6.732,6.306 L3.636,6.306 L3.636,5.55 L6.732,5.55 L6.732,6.306 Z M14.382,6.306 L11.232,6.306 L11.232,5.586 L14.382,5.586 L14.382,6.306 Z M6.732,8.178 L3.636,8.178 L3.636,7.44 L6.732,7.44 L6.732,8.178 Z M14.382,8.178 L11.232,8.178 L11.232,7.44 L14.382,7.44 L14.382,8.178 Z M10.962,12.39 L7.002,12.39 L7.002,11.526 L10.962,11.526 L10.962,12.39 Z M10.962,14.442 L7.002,14.442 L7.002,13.578 L10.962,13.578 L10.962,14.442 Z" id="簡" fill="#000000" fill-rule="nonzero"></path>
        </g>
    </g>
</svg>