<?xml version="1.0" encoding="UTF-8"?>
<svg width="18px" height="18px" viewBox="0 0 18 18" version="1.1" xmlns="http://www.w3.org/2000/svg" xmlns:xlink="http://www.w3.org/1999/xlink">
    <title>IG</title>
    <g id="IG" stroke="none" stroke-width="1" fill="none" fill-rule="evenodd">
        <g id="sns3-IG" fill="#000000" fill-rule="nonzero">
            <path d="M9.15,17.87 L6.28,17.87 C5.77,17.87 5.28,17.87 4.74,17.8 C3.95913166,17.7504374 3.19830617,17.5320839 2.51,17.16 C1.59853104,16.6556381 0.891313739,15.8494104 0.51,14.88 C0.315966507,14.4058013 0.184852287,13.9082397 0.12,13.4 C0.0486752748,12.892942 0.00859964169,12.3819776 0,11.87 C0,10.2433333 0,8.62 0,7 C0,6.42 0,5.84 0,5.26 C0.0313662225,4.6375847 0.145710149,4.02214533 0.34,3.43 C0.669465252,2.31893467 1.40960156,1.37499272 2.41,0.79 C2.92092202,0.495566688 3.47929238,0.29252292 4.06,0.19 C4.40997745,0.122685237 4.76412802,0.0792516758 5.12,0.06 C6.65,0 8.18,0 9.7,0 L11.57,0 C12.04,0 12.51,0 12.97,0.06 C13.6612091,0.105684482 14.3386111,0.275034985 14.97,0.56 C16.0785503,1.05912811 16.9373161,1.9864509 17.35,3.13 C17.5248842,3.58587286 17.6359345,4.06372561 17.68,4.55 C17.68,5.02 17.76,5.5 17.76,5.97 C17.76,7.60333333 17.76,9.23666667 17.76,10.87 C17.76,11.44 17.76,12.02 17.76,12.59 C17.7427156,13.2205407 17.6418351,13.8459997 17.46,14.45 C17.2144848,15.2515735 16.7545863,15.9708133 16.13,16.53 C15.6843431,16.9279637 15.164362,17.233835 14.6,17.43 C14.1294564,17.6001763 13.6385854,17.7077645 13.14,17.75 C12.71,17.75 12.27,17.81 11.84,17.82 L9.15,17.87 Z M16.24,8.94 L16.24,8.94 C16.24,8.46 16.24,7.94 16.24,7.49 C16.24,6.6 16.24,5.71 16.15,4.82 C16.1155632,4.44390932 16.0314999,4.07403086 15.9,3.72 C15.6470968,3.00310331 15.1228082,2.41417636 14.44,2.08 C13.9232496,1.83492802 13.3616107,1.69877313 12.79,1.68 C12.27,1.68 11.79,1.62 11.22,1.62 L7.11,1.62 C6.38,1.62 5.64,1.62 4.91,1.69 C4.57026073,1.71923231 4.23484868,1.78631472 3.91,1.89 C3.02737558,2.15329218 2.31993002,2.81629089 2,3.68 C1.81529089,4.18007522 1.71394284,4.70708511 1.7,5.24 C1.7,5.73 1.7,6.24 1.7,6.72 C1.7,8.46 1.7,10.2 1.7,11.94 C1.70444326,12.3983171 1.73784314,12.8558955 1.8,13.31 C1.85396054,13.7020383 1.96866939,14.0832766 2.14,14.44 C2.51252161,15.1988303 3.18790279,15.765279 4,16 C4.44316374,16.123382 4.90007784,16.1905753 5.36,16.2 C6.02,16.2 6.69,16.2 7.36,16.2 L11.87,16.2 C12.29,16.2 12.71,16.2 13.13,16.13 C13.543384,16.0943044 13.9484515,15.9930375 14.33,15.83 C14.9598572,15.5701051 15.4771693,15.0953118 15.79,14.49 C16.0591204,13.9587215 16.2092685,13.3751914 16.23,12.78 C16.23,12.2266667 16.25,11.6733333 16.29,11.12 C16.25,10.41 16.24,9.67 16.24,8.94 L16.24,8.94 Z" id="Shape"></path>
            <path d="M13.510011,8.94 C13.5044711,11.4694553 11.4494626,13.515503 8.92000733,13.5099893 C6.39055205,13.5044533 4.34450103,11.4494481 4.3500107,8.91999277 C4.35554267,6.39053748 6.4105447,4.3444832 8.94,4.34998887 C10.1546924,4.35264927 11.3185815,4.83772621 12.1756233,5.69851882 C13.0326652,6.55931143 13.5126551,7.7253076 13.510011,8.94 L13.510011,8.94 Z M11.91,8.94 C11.91,7.28314575 10.5668542,5.94 8.91,5.94 C7.25314575,5.94 5.91,7.28314575 5.91,8.94 C5.91,10.5968542 7.25314575,11.94 8.91,11.94 C9.70565084,11.9373523 10.4676616,11.6187396 11.0283963,11.0542541 C11.589131,10.4897687 11.9026566,9.72565081 11.9,8.93 L11.91,8.94 Z" id="Shape"></path>
            <path d="M14.76,4.17 C14.76,4.60368054 14.4981887,4.99445912 14.097128,5.15947173 C13.6960674,5.32448434 13.2350674,5.23109186 12.929852,4.92299709 C12.6246366,4.61490233 12.5355768,4.15304575 12.7043479,3.75355215 C12.873119,3.35405856 13.2663384,3.09594691 13.7,3.1 C14.2870357,3.10548655 14.7600256,3.58293863 14.76,4.17 Z" id="Path"></path>
        </g>
    </g>
</svg>