<?xml version="1.0" encoding="UTF-8"?>
<svg width="18px" height="18px" viewBox="0 0 18 18" version="1.1" xmlns="http://www.w3.org/2000/svg" xmlns:xlink="http://www.w3.org/1999/xlink">
    <title>TC-icon</title>
    <g id="TC-icon" stroke="none" stroke-width="1" fill="none" fill-rule="evenodd">
        <g id="Group-5">
            <rect id="Rectangle" x="0" y="0" width="18" height="18"></rect>
            <path d="M8.352,16.908 C9.504,16.908 10.098,16.368 10.098,15.324 L10.098,13.326 C11.466,13.236 12.888,13.128 14.382,13.02 C14.76,13.38 15.102,13.722 15.408,14.064 L16.704,13.164 C15.912,12.336 14.778,11.364 13.302,10.248 L12.042,11.04 C12.402,11.328 12.78,11.616 13.14,11.922 C11.16,12.12 9.144,12.282 7.074,12.408 C9.198,11.706 11.142,10.824 12.906,9.762 L11.628,8.916 C10.926,9.33 10.242,9.708 9.594,10.05 L6.102,10.32 C7.038,9.96 7.938,9.528 8.802,9.024 L8.172,8.556 C8.244,8.412 8.334,8.214 8.406,7.944 L9.27,7.944 L9.27,6.9 L8.604,6.9 C8.64,6.666 8.658,6.414 8.694,6.126 L9.738,6.126 L9.738,4.938 L8.784,4.938 C8.82,4.362 8.838,3.75 8.874,3.066 L2.934,3.066 C3.096,2.886 3.276,2.688 3.456,2.472 L9.522,2.472 L9.522,1.176 L4.374,1.176 C4.5,0.942 4.626,0.708 4.77,0.474 L3.222,0.132 C2.484,1.41 1.62,2.4 0.648,3.084 L1.62,4.272 L2.25,3.75 L2.142,4.902 L0.846,4.902 L0.846,6.108 L1.962,6.108 C1.854,6.702 1.728,7.314 1.584,7.944 L6.966,7.944 C6.948,7.98 6.93,8.034 6.894,8.07 C6.714,8.25 6.3,8.34 5.688,8.358 L4.824,8.358 L5.148,9.276 L5.904,9.276 C5.364,9.528 4.842,9.762 4.32,9.96 C4.068,10.05 3.654,10.104 3.06,10.104 L3.312,11.274 L7.326,11.13 C6.012,11.67 4.77,12.084 3.618,12.336 C3.15,12.336 2.682,12.318 2.214,12.282 L2.574,13.704 C4.338,13.632 6.228,13.542 8.28,13.434 L8.28,14.91 C8.28,15.288 8.118,15.486 7.83,15.486 C7.398,15.486 6.93,15.45 6.462,15.378 L6.804,16.908 L8.352,16.908 Z M16.38,9.15 L17.334,7.71 C16.254,7.35 15.282,6.918 14.454,6.378 C15.138,5.514 15.624,4.47 15.948,3.246 L17.064,3.246 L17.064,1.77 L12.582,1.77 C12.762,1.338 12.924,0.906 13.05,0.438 L11.358,0.168 C10.98,1.626 10.242,2.868 9.162,3.876 L10.134,5.154 C10.782,4.578 11.322,3.93 11.79,3.246 L14.346,3.246 C14.094,4.056 13.716,4.776 13.212,5.406 C12.78,5.01 12.384,4.56 12.042,4.056 L10.872,4.722 C11.214,5.334 11.628,5.892 12.132,6.414 C11.376,6.954 10.44,7.368 9.342,7.638 L10.188,8.988 C11.412,8.682 12.456,8.178 13.338,7.494 C14.184,8.142 15.192,8.7 16.38,9.15 Z M7.344,5.028 L6.246,5.028 L6.408,4.794 C6.048,4.542 5.652,4.308 5.22,4.11 L7.38,4.11 L7.344,5.028 Z M5.274,5.028 L3.618,5.028 L3.69,4.11 L4.878,4.11 L4.518,4.632 C4.77,4.74 5.022,4.866 5.274,5.028 Z M5.094,6.9 L3.312,6.9 C3.366,6.612 3.42,6.288 3.492,5.964 L4.59,5.964 L4.248,6.45 C4.518,6.558 4.806,6.72 5.094,6.9 Z M7.182,6.9 L5.976,6.9 L6.192,6.576 C5.868,6.342 5.508,6.144 5.148,5.964 L7.29,5.964 C7.254,6.306 7.218,6.612 7.182,6.9 Z M16.11,16.782 L16.956,15.45 C15.444,14.694 13.77,14.064 11.934,13.56 L11.106,14.784 C12.816,15.288 14.49,15.954 16.11,16.782 Z M1.584,16.8 C3.528,16.26 5.184,15.594 6.552,14.766 L5.598,13.668 C4.374,14.352 2.808,14.91 0.9,15.342 L1.584,16.8 Z" id="ç¹" fill="#000000" fill-rule="nonzero"></path>
        </g>
    </g>
</svg>