<?xml version="1.0" encoding="UTF-8"?>
<svg width="249px" height="60px" viewBox="0 0 249 60" version="1.1" xmlns="http://www.w3.org/2000/svg" xmlns:xlink="http://www.w3.org/1999/xlink">
    <title>Group 4</title>
    <defs>
        <polygon id="path-1" points="0 0 117.314815 0 117.314815 42 0 42"></polygon>
    </defs>
    <g id="V3-Desktop" stroke="none" stroke-width="1" fill="none" fill-rule="evenodd">
        <g id="NWD50-Landing-V4-Full" transform="translate(-80.000000, -1779.000000)">
            <g id="Group-4" transform="translate(80.000000, 1779.000000)">
                <g id="Combined-Shape">
                    <path d="M19.3834857,49.6250774 L20.9940755,50.645469 C21.3836188,50.8938975 21.7535583,51.1843894 22.1038943,51.517227 C22.4542303,51.8526054 22.7608621,52.226095 23.0209089,52.6375546 C23.2824312,53.050708 23.4883748,53.5015492 23.641761,53.9917013 C23.793531,54.4815006 23.870189,55.0067997 23.8687344,55.5636464 C23.8674487,56.0567628 23.7914231,56.4421091 23.6405665,56.7196856 C23.4912556,56.9960622 23.2897387,57.1792782 23.0373506,57.2668633 C22.783487,57.3533193 22.4923133,57.3532487 22.1608081,57.2667222 C21.8309189,57.1794899 21.484588,57.0164588 21.1220261,56.777911 L21.1220261,56.777911 L19.3676061,55.6311173 L19.3834857,49.6250774 Z M20.4530433,51.5290838 L20.4435576,55.1053242 L21.0009614,55.4685096 C21.2496957,55.6309762 21.4805127,55.7503206 21.6934124,55.8282368 C21.9063121,55.9043886 22.0908955,55.920974 22.2470219,55.8777814 C22.4046942,55.8355062 22.5265318,55.7230076 22.6171021,55.5449437 C22.707602,55.3667386 22.7532736,55.1066651 22.7542655,54.7629587 C22.7549599,54.4659032 22.7107639,54.1788696 22.6213882,53.8998816 C22.5320827,53.6211054 22.4127043,53.3623022 22.2617774,53.1205785 C22.1108504,52.8810427 21.9328016,52.65781 21.7291768,52.4556796 C21.5256924,52.2537609 21.3114577,52.0788729 21.0867536,51.9346856 L21.0867536,51.9346856 L20.4530433,51.5290838 Z M8.55426116,43.040291 L9.72436639,43.7285507 L10.491789,47.9282618 L11.5327492,44.8034978 L12.5306375,45.4022668 L13.5314769,49.8907759 L14.3748549,46.5198419 L15.4626108,47.1855172 L14.0219192,52.2146405 L13.0660487,51.6160832 L12.0028149,46.8923434 L10.9056436,50.2769692 L9.98272687,49.7107358 L8.55426116,43.040291 Z M0.0158796483,38.1868603 L1.4750507,38.9952408 L3.53462703,44.1142077 L3.55914914,40.1647601 L4.63193884,40.7736215 L4.61598892,46.4873345 L3.2136614,45.6644858 L1.09899814,40.4153058 L1.08403192,40.4068366 L1.07271943,44.4237552 L4.4408921e-16,43.8091771 L0.0158796483,38.1868603 Z" fill="#000000"></path>
                    <path d="M53.9613145,32.0623299 L53.9617415,32.2135767 C53.9618107,32.2380719 53.9618877,32.2653618 53.9619723,32.2953127 L53.9625668,32.5058819 C53.9626799,32.5459426 53.9627998,32.5883971 53.962926,32.6331118 L53.9637572,32.9274538 C53.9682657,34.5240873 53.9778419,37.9144077 53.9823145,39.4908344 C53.9935657,43.5080352 52.4389059,46.3194406 49.1110657,48.2493485 C48.3796752,48.6734578 44.4789637,50.9355329 40.3066895,53.3551016 L39.6281817,53.7485792 C39.4015241,53.8800217 39.1745307,54.0116589 38.9476592,54.1432254 L38.2678678,54.5374477 C33.5182948,57.2918045 29.0242942,59.8979605 29.0242942,59.8979605 L29.0242942,59.8979605 L29.0037772,52.6629762 C29.0037772,52.6629762 43.8291152,44.0655171 44.3407069,43.7688145 C45.5789681,43.0507716 46.1010994,42.2525541 46.0960404,40.4878652 C46.0960352,40.4855859 46.0959714,40.4624756 46.0958577,40.4216329 L46.0950387,40.1286052 C46.0928447,39.3449935 46.0876679,37.5015367 46.0858579,36.8570932 L46.0852198,36.6298845 L53.9613145,32.0623299 L53.9613145,32.0623299 Z M82.3735256,15.5856453 L82.3737692,15.6719241 C82.3738222,15.6906963 82.3738835,15.7123968 82.3739527,15.736892 L82.3747783,16.0291968 C82.376702,16.7102274 82.3805819,18.083072 82.3845725,19.4912791 L82.3859826,19.9886928 C82.3892694,21.1477626 82.392484,22.278438 82.3945958,23.0140791 C82.405847,27.03128 80.851117,29.8427559 77.5218715,31.7734401 C74.1941014,33.7032069 67.6882938,37.4760727 64.1854964,39.5073986 C60.6752509,41.5430298 59.3801462,39.9847765 59.3700984,36.4537049 C59.36785,35.6581411 59.3640164,34.2965104 59.3602255,32.9489567 L59.3588091,32.4454169 C59.3555237,31.2773183 59.3524268,30.1755189 59.3506089,29.5286695 L59.3499113,29.2804356 C59.3498091,29.2440833 59.3497143,29.2103354 59.3496272,29.1793337 L59.348949,28.9379682 L67.2234979,24.3714018 L67.2234979,24.3714018 L67.2237387,24.4321158 C67.2253801,24.8460374 67.234948,27.2585906 67.2379292,28.0061838 L67.2388155,28.2268418 C67.2438042,29.9915307 67.7642492,30.1851919 69.0054615,29.4653141 C69.1310231,29.3925499 71.5162025,28.0093258 72.752918,27.2921298 C73.9912495,26.5740164 74.5133807,25.7757988 74.5083217,24.01111 L74.5083217,24.01111 L74.5079483,23.8706832 C74.5078686,23.8417814 74.5077773,23.8088341 74.5076755,23.7722284 L74.5069473,23.5117935 C74.5048558,22.7664496 74.5008968,21.3722785 74.4988053,20.6364536 L74.4980771,20.380334 C74.4979753,20.3445322 74.497884,20.312431 74.4978043,20.2844177 L74.4974308,20.1531292 L82.3735256,15.5856453 L82.3735256,15.5856453 Z M17.5708098,20.0697716 C21.7801111,17.6127296 27.7495238,17.4553445 32.7243507,18.9241777 L32.7243507,18.9241777 L14.4874177,29.5694776 L22.1603092,34.0190992 C22.1603092,34.0190992 33.8717606,27.1828001 35.5396156,26.2092712 C38.8472198,24.278587 42.1382418,24.3834633 45.807073,26.5111258 C46.4472242,26.882357 47.4108238,27.4411641 48.4111115,28.0212487 L48.8412164,28.2706743 C50.7074923,29.3529614 52.5590151,30.4266969 52.5590151,30.4266969 L52.5590151,30.4266969 L44.7341427,34.9942514 C44.7341427,34.9942514 43.9875724,34.5613054 43.1849261,34.0958314 L42.8130065,33.8801456 C42.0094491,33.4141402 41.2560456,32.9772095 41.2432901,32.9697713 C39.6327706,32.0358356 38.6603178,32.0771227 37.4301369,32.7952362 C36.9218476,33.0918682 27.7297094,38.4575697 27.4895473,38.5977341 C24.2850202,40.4682168 20.9042009,40.9421364 17.3940257,38.9065053 C16.2657777,38.2522452 13.6127328,36.713705 10.7790185,35.0703814 L10.1468766,34.7037904 C9.72419435,34.458669 9.29973208,34.212515 8.87786021,33.9678631 L8.24754153,33.6023287 C4.58838925,31.4803122 1.2948729,29.5703245 1.2948729,29.5703245 C1.2948729,29.5703245 4.9573161,27.4324936 8.83283515,25.1702855 L9.80415784,24.6033074 C13.2593381,22.5864582 16.6557557,20.6039086 17.5708098,20.0697716 Z M49.4772883,1.44533832 C52.7849628,-0.485345895 56.0758443,-0.38046957 59.7447457,1.74712242 C60.5835646,2.23359405 64.7039515,4.62308504 69.079221,7.16037951 L69.7717299,7.56197734 L69.7717299,7.56197734 L70.4658274,7.96449634 C75.6708972,10.9830047 80.7866147,13.9496875 80.7866147,13.9496875 L80.7866147,13.9496875 L72.9618126,18.517242 C72.9618126,18.517242 68.7282878,16.0621585 64.3889192,13.5456913 L63.703478,13.1481933 C59.5927743,10.7643321 55.5820553,8.43845037 55.1809629,8.20583845 C53.5689678,7.27105586 52.5979905,7.31318989 51.3678096,8.03123277 C50.139034,8.7485699 47.7693829,10.1317235 47.6446645,10.2044876 C46.4114622,10.9243655 46.3466789,11.4867877 47.958674,12.4216409 C48.2408798,12.5853852 52.2443327,14.9082283 56.3803203,17.3079677 L57.4150015,17.9082996 C61.6629664,20.3730091 65.7350268,22.7356558 65.7350268,22.7356558 L65.7350268,22.7356558 L57.91163,27.3022928 C57.91163,27.3022928 38.606334,16.1067804 36.7896601,15.0533591 C33.5657401,13.1836528 32.7402092,11.2150691 36.2276189,9.17943798 C39.7075806,7.14811201 46.1711596,3.37517563 49.4772883,1.44533832 Z" fill="#D8182A"></path>
                </g>
                <g id="Group-3" transform="translate(130.800000, 9.000000)">
                    <mask id="mask-2" fill="white">
                        <use xlink:href="#path-1"></use>
                    </mask>
                    <g id="Clip-2"></g>
                    <path d="M32.4122803,38.7946241 C32.2510664,39.1236575 31.6144872,40.1971561 30.2020659,40.1971561 C29.0469391,40.1971561 28.9137937,39.5610488 28.9137937,39.0822584 C28.9137937,38.2272755 29.7036701,37.6545269 31.2607521,37.3791324 C31.5871384,37.3218936 31.9433924,37.2844543 32.3824126,37.2621348 L32.4162387,37.2603348 L32.4122803,38.7946241 Z M34.6786318,39.9077218 L34.6786318,35.8761625 C34.6786318,33.3428931 33.5641684,32.2625547 30.9530782,32.2625547 C28.600722,32.2625547 27.1051747,33.2474951 26.743163,35.0352193 L26.7057384,35.2173757 L28.8785281,35.4542509 L28.9101952,35.3073739 C29.0973185,34.4394312 29.6360178,34.101038 30.8310882,34.101038 C31.9998893,34.101038 32.2982071,34.5769485 32.3856512,35.2918942 C32.4083219,35.401692 32.4137197,35.5759285 32.4147993,35.6972461 L32.415519,35.7314454 L32.383852,35.7328853 C31.9192823,35.7537649 31.4730651,35.7886842 31.0563559,35.8372833 C27.9983288,36.2102358 26.5121377,37.3377332 26.5121377,39.2849343 C26.5121377,40.900942 27.6517908,41.9445611 29.415788,41.9445611 C30.7022609,41.9445611 31.6526316,41.598608 32.4065227,40.8566629 L32.4554626,40.8080638 L32.4608604,40.8800624 C32.4853304,41.2328553 32.5436265,41.5435291 32.6213547,41.7321654 L32.6634574,41.8344033 L34.9377256,41.8344033 L34.8607172,41.6104878 C34.7434052,41.2666947 34.6786318,40.6619068 34.6786318,39.9077218 L34.6786318,39.9077218 Z M40.6284341,25.2624948 C38.8975432,25.2624948 38.6226159,24.849223 38.6226159,23.3736125 L38.6226159,19.9097618 C39.4096134,18.7880242 39.7633485,18.4532309 40.2365546,18.4532309 C40.8853688,18.4532309 41.0419047,19.3780524 41.7108706,19.3780524 C42.3208207,19.3780524 42.51766,18.1972761 42.51766,18.098998 C42.51766,17.7058859 41.927142,16.9776204 41.0620564,16.9776204 C40.0397153,16.9776204 39.5477968,17.3908922 38.6625595,18.8470631 L38.6226159,18.8470631 L38.6226159,16.898782 L38.1306974,16.898782 L35.5142094,17.9614808 L35.5142094,18.4143517 L36.9701729,19.1422572 L36.9701729,23.7469251 C36.9701729,24.8686626 36.3015668,25.2624948 35.5142094,25.2624948 L35.5142094,25.9709606 L40.6284341,25.9709606 L40.6284341,25.2624948 Z M41.5676493,32.2812744 C40.233316,32.2812744 39.3837041,33.1070979 38.9065396,33.800444 L38.8439252,33.8900822 L38.8439252,32.4457911 L36.4750158,32.4457911 L36.4750158,41.8344033 L38.9731123,41.8344033 L38.9774305,36.1288774 C39.58882,34.9941801 40.4718982,34.3951521 41.531664,34.3951521 C41.9325398,34.3951521 42.0404955,34.4041519 42.0692837,34.4095518 L42.2733202,34.448431 L42.2733202,32.350393 L42.1398148,32.3215936 C41.9559302,32.2812744 41.7760039,32.2812744 41.5676493,32.2812744 L41.5676493,32.2812744 Z M44.8552623,36.0194396 L44.8613798,35.9787604 C45.048863,34.7684646 45.7829622,34.0466791 46.8243755,34.0466791 C48.2000919,34.0466791 48.5595846,35.2576948 48.651347,35.9794804 L48.6567448,36.0194396 L44.8552623,36.0194396 Z M46.8071026,32.2625547 C44.1729818,32.2625547 42.3326958,34.3289134 42.3326958,37.2866143 C42.3326958,40.0941981 44.123682,41.9812804 46.7887501,41.9812804 C48.8147201,41.9812804 50.337976,40.9319014 50.9684377,39.101698 L51.0368097,38.9058619 L48.9233955,38.6243475 L48.8787738,38.750345 C48.5387131,39.699286 47.9197667,40.1607968 46.9848698,40.1607968 C45.6145512,40.1607968 44.8599404,39.301494 44.8030837,37.6754065 L44.8016443,37.6386872 L51.0850299,37.6386872 L51.0850299,37.4705706 C51.0850299,37.2671747 51.0850299,37.0749385 51.0673971,36.8773025 C50.9320926,33.9872803 49.3390253,32.2625547 46.8071026,32.2625547 L46.8071026,32.2625547 Z M16.1710545,36.0194396 L16.1768122,35.9787604 C16.3646552,34.7684646 17.0983946,34.0466791 18.1398079,34.0466791 C19.5155243,34.0466791 19.875017,35.2576948 19.9667794,35.9794804 L19.9721772,36.0194396 L16.1710545,36.0194396 Z M18.1847895,32.2625547 C15.5506687,32.2625547 13.7103827,34.3289134 13.7103827,37.2866143 C13.7103827,40.0941981 15.5013689,41.9812804 18.166437,41.9812804 C20.1924069,41.9812804 21.7156629,40.9319014 22.3464844,39.101698 L22.4144965,38.9058619 L20.3014423,38.6243475 L20.2568206,38.750345 C19.9164,39.699286 19.2974536,40.1607968 18.3629165,40.1607968 C16.9922381,40.1607968 16.2379871,39.301494 16.1811304,37.6754065 L16.179691,37.6386872 L22.4627168,37.6386872 L22.4627168,37.4705706 C22.4627168,37.2671747 22.4627168,37.0749385 22.445084,36.8773025 C22.3097794,33.9872803 20.717072,32.2625547 18.1847895,32.2625547 L18.1847895,32.2625547 Z M1.04177317,3.56248875 L3.89324489,10.6471471 L4.56365022,10.6471471 L7.04159498,5.03773925 L9.20610816,10.6471471 L9.83477059,10.6471471 L12.8841612,3.28637427 C13.1796002,2.57790844 13.4145839,2.40115198 14.0248938,2.28307434 L14.0248938,1.57460851 L10.7984558,1.57460851 L10.7984558,2.28307434 C12.1176753,2.28307434 12.0971637,3.26729465 11.7822927,4.03443931 L10.0316099,8.24599508 L8.39895885,4.17195656 C7.88724851,2.89326213 8.02543189,2.38171237 9.26440427,2.28307434 L9.26440427,1.57460851 L4.99583315,1.57460851 L4.99583315,2.28307434 C5.97931021,2.28307434 6.11605418,2.53902922 6.68821976,4.03443931 L4.74069768,8.38315234 L2.83131998,3.81772365 C2.43764127,2.87346253 2.61576829,2.32231355 3.61795768,2.28307434 L3.61795768,1.57460851 L0,1.57460851 L0,2.28307434 C0.491558603,2.40115198 0.668246212,2.61750765 1.04177317,3.56248875 L1.04177317,3.56248875 Z M9.65916253,37.99976 L7.87825219,32.4457911 L6.00414004,32.4457911 L4.31211328,37.9940001 L4.27972655,37.8896022 L2.60713183,32.4457911 L0.0953609296,32.4457911 L3.10516778,41.8344033 L5.03577679,41.8344033 L6.76774718,36.1238375 L8.54757796,41.8344033 L10.4767476,41.8344033 L13.4275386,32.4457911 L11.2954121,32.4457911 L9.65916253,37.99976 Z M1.04177317,19.1030179 L3.89324489,26.1873163 L4.56365022,26.1873163 L7.04159498,20.5782684 L9.20610816,26.1873163 L9.83477059,26.1873163 L12.8841612,18.8269035 C13.1796002,18.1187976 13.4145839,17.9420412 14.0248938,17.8236035 L14.0248938,17.1154977 L10.7984558,17.1154977 L10.7984558,17.8236035 C12.1176753,17.8236035 12.0971637,18.8078238 11.7822927,19.5749685 L10.0316099,23.7865243 L8.39895885,19.7128457 C7.88724851,18.4341513 8.02543189,17.9222416 9.26440427,17.8236035 L9.26440427,17.1154977 L4.99583315,17.1154977 L4.99583315,17.8236035 C5.97931021,17.8236035 6.11605418,18.0795584 6.68821976,19.5749685 L4.74069768,23.9236815 L2.83131998,19.3586128 C2.43764127,18.4143517 2.61576829,17.8628427 3.61795768,17.8236035 L3.61795768,17.1154977 L0,17.1154977 L0,17.8236035 C0.491558603,17.9420412 0.668246212,18.1580368 1.04177317,19.1030179 L1.04177317,19.1030179 Z M81.4619841,41.8344033 L84.4300481,41.8344033 L84.4300481,39.0239395 L81.4619841,39.0239395 L81.4619841,41.8344033 Z M96.0957485,23.8455631 C95.4267826,24.5536689 94.8164726,24.8686626 94.1079229,24.8686626 C93.124086,24.8686626 92.7322066,24.200156 92.7322066,23.5896082 C92.7322066,22.7630647 93.4594686,22.3692326 95.0532556,21.7795644 L96.0957485,21.3860923 L96.0957485,23.8455631 Z M97.7478316,24.0424792 L97.7478316,19.0047399 C97.7478316,17.5093298 96.7442028,16.898782 94.8751286,16.898782 C92.2985842,16.898782 91.2564512,18.2764745 91.2564512,19.201296 C91.2564512,19.6343673 91.7868739,20.6178676 91.9052654,20.5595488 L93.0657899,20.0080398 C93.5778601,19.7718846 92.7707108,19.1030179 92.7707108,18.6703066 C92.7707108,18.2174357 93.5177647,17.7451251 94.2846105,17.7451251 C94.9348641,17.7451251 96.0957485,18.1389572 96.0957485,19.299934 L96.0957485,20.6376672 L93.9913307,21.3659327 C91.8070256,22.1139977 90.9815239,22.8613428 90.9815239,24.0817184 C90.9815239,25.302094 91.9052654,26.1873163 93.1841814,26.1873163 C94.1482264,26.1873163 94.9550159,25.7942041 96.0957485,24.7707446 C96.1939883,25.6757665 96.6855469,26.1873163 97.4329606,26.1873163 C97.9648227,26.1873163 98.4549419,25.9115618 99.0267476,25.2624948 L98.8486206,24.5536689 C98.1800146,24.9867403 97.7478316,24.7707446 97.7478316,24.0424792 L97.7478316,24.0424792 Z M109.009058,23.6878862 L109.009058,19.948641 C109.009058,17.8236035 107.947133,16.898782 106.117642,16.898782 C105.035566,16.898782 103.776442,17.5093298 102.971092,18.5716686 L102.931508,18.5716686 L102.931508,16.898782 L102.439589,16.898782 L99.9616446,17.8236035 L99.9616446,18.2764745 L101.278705,19.0238195 L101.278705,23.7670847 C101.278705,24.750585 100.806938,25.2225355 99.8231014,25.2624948 L99.8231014,25.9709606 L104.525295,25.9709606 L104.525295,25.2624948 C103.36477,25.2624948 102.931508,24.7315054 102.931508,23.649007 L102.931508,19.3780524 C103.776442,18.6703066 104.603743,18.2174357 105.509132,18.2174357 C106.786608,18.2174357 107.358414,19.1422572 107.358414,20.3820724 L107.358414,23.649007 C107.358414,24.7113458 106.905,25.2624948 105.764627,25.2624948 L105.764627,25.9709606 L110.406365,25.9709606 L110.406365,25.2624948 C109.286144,25.1440571 109.009058,24.6724666 109.009058,23.6878862 L109.009058,23.6878862 Z M85.0310019,18.9453411 C85.0310019,18.098998 85.5812164,17.6266875 86.5063974,17.6266875 C87.5888339,17.6266875 88.2174963,18.3157137 88.5125754,19.8705226 L89.1228854,19.8705226 L89.1228854,17.7451251 C88.3941839,17.1745365 87.510386,16.898782 86.4668136,16.898782 C84.7758664,16.898782 83.5951901,17.9028019 83.5951901,19.3391732 C83.5951901,19.9097618 83.8121812,20.5782684 84.2055001,20.9721006 C85.8179994,22.5863083 88.4143357,22.5467091 88.4143357,24.0615588 C88.4143357,24.8686626 87.6672817,25.4594108 86.6247889,25.4594108 C85.4444724,25.4594108 84.715771,24.6127077 84.5192915,23.0784184 L83.8704773,23.0784184 L83.8704773,25.5576888 C84.6175313,25.9317214 85.7780558,26.1873163 86.7618927,26.1873163 C88.611175,26.1873163 89.7713397,25.2034559 89.7713397,23.5896082 C89.7713397,22.9405412 89.5547084,22.3109138 89.1426773,21.8972821 C88.020657,20.7751845 85.0310019,20.4216716 85.0310019,18.9453411 L85.0310019,18.9453411 Z M116.685073,21.8972821 C115.564132,20.7751845 112.574477,20.4216716 112.574477,18.9453411 C112.574477,18.098998 113.124692,17.6266875 114.048433,17.6266875 C115.13051,17.6266875 115.760971,18.3157137 116.056051,19.8705226 L116.664921,19.8705226 L116.664921,17.7451251 C115.937659,17.1745365 115.052062,16.898782 114.010289,16.898782 C112.317902,16.898782 111.137226,17.9028019 111.137226,19.3391732 C111.137226,19.9097618 111.353857,20.5782684 111.747536,20.9721006 C113.359675,22.5863083 115.957811,22.5467091 115.957811,24.0615588 C115.957811,24.8686626 115.209317,25.4594108 114.166825,25.4594108 C112.986148,25.4594108 112.259246,24.6127077 112.062767,23.0784184 L111.413952,23.0784184 L111.413952,25.5576888 C112.160647,25.9317214 113.321531,26.1873163 114.305008,26.1873163 C116.15465,26.1873163 117.314815,25.2034559 117.314815,23.5896082 C117.314815,22.9405412 117.098543,22.3109138 116.685073,21.8972821 L116.685073,21.8972821 Z M18.0120603,17.6266875 C19.0944968,17.6266875 19.8034063,18.4143517 19.9599422,19.8114838 L15.8694981,19.8114838 C16.0465456,18.4733905 16.8716875,17.6266875 18.0120603,17.6266875 L18.0120603,17.6266875 Z M18.3675946,26.1873163 C19.8617024,26.1873163 21.1805621,25.4194516 22.0258558,24.0424792 L21.6123852,23.6684466 C20.8653312,24.3175136 20.0783337,24.6127077 19.1542323,24.6127077 C17.3251017,24.6127077 15.6528668,23.1568969 15.7511066,20.5199496 L22.0258558,20.5199496 C22.0258558,19.1224576 20.9236274,16.898782 18.3873865,16.898782 C16.0663374,16.898782 14.2757111,18.9453411 14.2757111,21.6413272 C14.2757111,24.2786344 15.9864502,26.1873163 18.3675946,26.1873163 L18.3675946,26.1873163 Z M61.2109212,38.4652307 C60.9766572,39.6791264 60.4642271,40.1971561 59.4987427,40.1971561 C57.9301454,40.1971561 57.6008803,38.5350693 57.6008803,37.1404572 C57.6008803,35.147537 58.2331412,34.1377572 59.4807501,34.1377572 C60.4088098,34.1377572 60.9500281,34.750105 61.135712,36.0097198 L61.1591024,36.1709966 L63.4492042,35.9323214 L63.4196962,35.7570049 C63.0393321,33.5038099 61.6207933,32.2625547 59.4238934,32.2625547 C56.8340345,32.2625547 54.9552442,34.2907542 54.9552442,37.0853783 C54.9552442,40.0707986 56.6944117,42 59.3868286,42 C61.6729719,42 63.1123822,40.8228235 63.4391283,38.6851863 L63.4664771,38.5095098 L61.2404291,38.3143937 L61.2109212,38.4652307 Z M79.7584421,32.4457911 L77.8249543,37.8392032 C77.8238747,37.8438831 77.7044036,38.2114358 77.5910501,38.5710686 L77.5586634,38.6725865 L77.5248372,38.5710686 C77.408245,38.2150357 77.2887739,37.8640427 77.2786981,37.8388432 L75.4020669,32.4457911 L72.7909767,32.4457911 L76.2340461,41.8344033 L78.4608137,41.8344033 L81.923675,32.4457911 L79.7584421,32.4457911 Z M53.5748498,8.04907902 C53.5748498,7.22253555 54.3031914,6.82870343 55.8958988,6.23867523 L56.937672,5.8452031 L56.937672,8.3050339 C56.2694258,9.01277974 55.6605553,9.32813344 54.9520056,9.32813344 C53.9681686,9.32813344 53.5748498,8.65926681 53.5748498,8.04907902 L53.5748498,8.04907902 Z M58.275244,10.6471471 C58.8071061,10.6471471 59.2990245,10.3710326 59.8693908,9.72196556 L59.6927032,9.01277974 C59.0240972,9.44621108 58.5904748,9.2298554 58.5904748,8.50194996 L58.5904748,3.46385072 C58.5904748,1.96844063 57.5882854,1.35789284 55.7192112,1.35789284 C53.1426669,1.35789284 52.0990944,2.73594528 52.0990944,3.66076678 C52.0990944,4.09347813 52.6309565,5.07697846 52.749348,5.01865963 L53.9095127,4.46751065 C54.4201435,4.23135537 53.6144336,3.56248875 53.6144336,3.1297774 C53.6144336,2.67654647 54.3614875,2.20423592 55.1286932,2.20423592 C55.7775073,2.20423592 56.937672,2.59806804 56.937672,3.75940481 L56.937672,5.09713806 L54.8336141,5.82540349 C52.6507484,6.57346853 51.8238072,7.32045359 51.8238072,8.54082918 C51.8238072,9.76120478 52.749348,10.6471471 54.0264648,10.6471471 C54.9901499,10.6471471 55.7972992,10.2533149 56.937672,9.2298554 C57.0362716,10.1348773 57.5281901,10.6471471 58.275244,10.6471471 L58.275244,10.6471471 Z M69.0499495,35.8934421 L68.6443956,35.8272035 C67.5562015,35.652247 66.8890348,35.5172497 66.8890348,34.9596208 C66.8890348,34.3771525 67.4223363,34.0823184 68.4731058,34.0823184 C69.4662989,34.0823184 70.0999993,34.452031 70.3580135,35.1802964 L70.4062338,35.3188936 L72.4833028,34.9049019 L72.4318439,34.7285054 C71.9777099,33.1844963 70.4979962,32.2625547 68.4731058,32.2625547 C66.1448597,32.2625547 64.5802208,33.4202916 64.5802208,35.1428571 C64.5802208,37.2549349 66.4640489,37.8096838 68.4997349,38.0937181 L68.6983735,38.1264775 C69.8992015,38.3215936 70.4767649,38.4457911 70.4767649,39.1376972 C70.4767649,40.0610788 69.241391,40.1607968 68.7102486,40.1607968 C67.3730365,40.1607968 66.5101101,39.6848863 66.2816037,38.8198236 L66.2405805,38.6679066 L64.1199693,39.0800984 L64.1656706,39.2543349 C64.6435548,41.0384592 66.2017164,41.9812804 68.6739035,41.9812804 C71.1489695,41.9812804 72.7495937,40.7857443 72.7495937,38.9364613 C72.7495937,36.7822644 70.8790801,36.1897162 69.0499495,35.8934421 L69.0499495,35.8934421 Z M18.0120603,2.08615828 C19.0944968,2.08615828 19.8034063,2.87346253 19.9599422,4.27059459 L15.8694981,4.27059459 C16.0465456,2.93286134 16.8716875,2.08615828 18.0120603,2.08615828 L18.0120603,2.08615828 Z M18.3675946,10.6471471 C19.8617024,10.6471471 21.1805621,9.87892242 22.0258558,8.50194996 L21.6123852,8.12791744 C20.8653312,8.77698446 20.0783337,9.07253855 19.1542323,9.07253855 C17.3251017,9.07253855 15.6528668,7.61600768 15.7511066,4.97942041 L22.0258558,4.97942041 C22.0258558,3.58192836 20.9236274,1.35789284 18.3873865,1.35789284 C16.0663374,1.35789284 14.2757111,3.40445191 14.2757111,6.10079798 C14.2757111,8.73774525 15.9864502,10.6471471 18.3675946,10.6471471 L18.3675946,10.6471471 Z M61.4631779,8.91450171 C61.4631779,10.1147177 62.0155515,10.6471471 63.3124602,10.6471471 C64.1397612,10.6471471 65.0249985,10.450231 65.890444,10.3116338 L65.890444,9.34757305 C65.5352695,9.40661187 64.8868151,9.44621108 64.4931364,9.44621108 C63.3326119,9.44621108 63.1159807,9.17081658 63.1159807,8.26543469 L63.1159807,2.55846883 L65.7922042,2.55846883 L65.7922042,1.57460851 L63.1159807,1.57460851 L63.1159807,0 L62.4473746,0 C61.8385041,0.76750465 61.1098026,1.63400732 59.9892217,2.02675946 L59.9892217,2.55846883 L61.4631779,2.55846883 L61.4631779,8.91450171 Z M46.6372522,17.6266875 C47.7193289,17.6266875 48.4282384,18.4143517 48.5847743,19.8114838 L44.4943302,19.8114838 C44.6710178,18.4733905 45.4965196,17.6266875 46.6372522,17.6266875 L46.6372522,17.6266875 Z M46.9924267,26.1873163 C48.4865345,26.1873163 49.8053942,25.4194516 50.6510477,24.0424792 L50.2372173,23.6684466 C49.4905232,24.3175136 48.7031658,24.6127077 47.7794242,24.6127077 C45.9502937,24.6127077 44.2780588,23.1568969 44.3762985,20.5199496 L50.6510477,20.5199496 C50.6510477,19.1224576 49.5488193,16.898782 47.0125784,16.898782 C44.6915294,16.898782 42.9005432,18.9453411 42.9005432,21.6413272 C42.9005432,24.2786344 44.6112823,26.1873163 46.9924267,26.1873163 L46.9924267,26.1873163 Z M68.9383952,18.4532309 C69.5872093,18.4532309 69.7437452,19.3780524 70.4127111,19.3780524 C71.0226612,19.3780524 71.2195006,18.1972761 71.2195006,18.098998 C71.2195006,17.7058859 70.6293424,16.9776204 69.763897,16.9776204 C68.7415558,16.9776204 68.2496374,17.3908922 67.3644001,18.8470631 L67.3244564,18.8470631 L67.3244564,16.898782 L66.8321781,16.898782 L64.21605,17.9614808 L64.21605,18.4143517 L65.6720134,19.1422572 L65.6720134,23.7469251 C65.6720134,24.8686626 65.0030475,25.2624948 64.21605,25.2624948 L64.21605,25.9709606 L69.3302746,25.9709606 L69.3302746,25.2624948 C67.5993838,25.2624948 67.3244564,24.849223 67.3244564,23.3736125 L67.3244564,19.9097618 C68.1110941,18.7880242 68.4648292,18.4532309 68.9383952,18.4532309 L68.9383952,18.4532309 Z M40.6302333,9.72196556 C38.8993425,9.72196556 38.6240553,9.30833383 38.6240553,7.83272335 L38.6240553,4.36887262 C39.4110529,3.24713506 39.7647879,2.91270175 40.2365546,2.91270175 C40.8853688,2.91270175 41.0433441,3.83788324 41.71231,3.83788324 C42.32262,3.83788324 42.51766,2.65674687 42.51766,2.55846883 C42.51766,2.16535669 41.9289412,1.43745125 41.0634958,1.43745125 C40.0397153,1.43745125 39.5477968,1.850003 38.6625595,3.30653387 L38.6240553,3.30653387 L38.6240553,1.35789284 L38.1324967,1.35789284 L35.5160087,2.42059159 L35.5160087,2.87346253 L36.9716123,3.60136797 L36.9716123,8.20639587 C36.9716123,9.32813344 36.3030063,9.72196556 35.5160087,9.72196556 L35.5160087,10.4300714 L40.6302333,10.4300714 L40.6302333,9.72196556 Z M70.0852453,2.08615828 C71.1676818,2.08615828 71.8747921,2.87346253 72.0331272,4.27059459 L67.9408839,4.27059459 C68.1179313,2.93286134 68.9448725,2.08615828 70.0852453,2.08615828 L70.0852453,2.08615828 Z M70.4389804,10.6471471 C71.9345276,10.6471471 73.2519479,9.87892242 74.0976014,8.50194996 L73.6852103,8.12791744 C72.936717,8.77698446 72.1515187,9.07253855 71.2259779,9.07253855 C69.3968473,9.07253855 67.7242526,7.61600768 67.8224924,4.97942041 L74.0976014,4.97942041 C74.0976014,3.58192836 72.9968124,1.35789284 70.4591321,1.35789284 C68.1377232,1.35789284 66.3488961,3.40445191 66.3488961,6.10079798 C66.3488961,8.73774525 68.0596352,10.6471471 70.4389804,10.6471471 L70.4389804,10.6471471 Z M46.6372522,2.08615828 C47.7193289,2.08615828 48.4282384,2.87346253 48.5847743,4.27059459 L44.4943302,4.27059459 C44.6710178,2.93286134 45.4965196,2.08615828 46.6372522,2.08615828 L46.6372522,2.08615828 Z M46.9924267,10.6471471 C48.4865345,10.6471471 49.8053942,9.87892242 50.6510477,8.50194996 L50.2372173,8.12791744 C49.4905232,8.77698446 48.7031658,9.07253855 47.7794242,9.07253855 C45.9502937,9.07253855 44.2780588,7.61600768 44.3762985,4.97942041 L50.6510477,4.97942041 C50.6510477,3.58192836 49.5488193,1.35789284 47.0125784,1.35789284 C44.6915294,1.35789284 42.9005432,3.40445191 42.9005432,6.10079798 C42.9005432,8.73774525 44.6112823,10.6471471 46.9924267,10.6471471 L46.9924267,10.6471471 Z M80.6253269,14.4191516 C81.2154851,14.4191516 81.6876117,13.9472011 81.6876117,13.3564529 C81.6876117,12.7667847 81.2154851,12.2941141 80.6253269,12.2941141 C80.0351687,12.2941141 79.5630421,12.7667847 79.5630421,13.3564529 C79.5630421,13.9472011 80.0351687,14.4191516 80.6253269,14.4191516 L80.6253269,14.4191516 Z M60.4411966,23.8455631 C59.7722307,24.5536689 59.16372,24.8686626 58.4548104,24.8686626 C57.4709735,24.8686626 57.0772948,24.200156 57.0772948,23.5896082 C57.0772948,22.7630647 57.8059962,22.3692326 59.3987037,21.7795644 L60.4411966,21.3860923 L60.4411966,23.8455631 Z M58.3364189,21.3659327 C56.1539131,22.1139977 55.3266121,22.8613428 55.3266121,24.0817184 C55.3266121,25.302094 56.2521529,26.1873163 57.5292696,26.1873163 C58.4933146,26.1873163 59.3004639,25.7942041 60.4411966,24.7707446 C60.5390765,25.6757665 61.0309949,26.1873163 61.7780488,26.1873163 C62.3099109,26.1873163 62.8018294,25.9115618 63.3721957,25.2624948 L63.1955081,24.5536689 C62.526902,24.9867403 62.0932797,24.7707446 62.0932797,24.0424792 L62.0932797,19.0047399 C62.0932797,17.5093298 61.0907304,16.898782 59.2220161,16.898782 C56.6454717,16.898782 55.6015394,18.2764745 55.6015394,19.201296 C55.6015394,19.6343673 56.1337614,20.6178676 56.2521529,20.5595488 L57.4126774,20.0080398 C57.9229483,19.7718846 57.1172384,19.1030179 57.1172384,18.6703066 C57.1172384,18.2174357 57.8642924,17.7451251 58.631498,17.7451251 C59.2803122,17.7451251 60.4411966,18.1389572 60.4411966,19.299934 L60.4411966,20.6376672 L58.3364189,21.3659327 Z M79.878273,23.8257635 C79.878273,24.8096238 79.2082275,25.2624948 78.4611736,25.2624948 L78.4611736,25.9709606 L82.7498964,25.9709606 L82.7498964,25.2624948 C82.0413467,25.2423352 81.5292765,24.7707446 81.5292765,23.6878862 L81.5292765,16.898782 L81.0387975,16.898782 L78.3827257,17.8628427 L78.3827257,18.3157137 L79.878273,19.0637787 L79.878273,23.8257635 Z M30.8937025,10.6471471 C32.7030412,10.6471471 34.0805568,9.68200636 34.4936676,8.12791744 L34.0416927,7.83272335 C33.4900388,8.69850603 32.7429848,9.09197816 31.5040125,9.09197816 C29.437739,9.09197816 28.2973663,7.12389752 28.2973663,5.39233215 C28.2973663,3.48329033 29.3794429,2.20423592 31.0117341,2.20423592 C33.2734075,2.20423592 32.427754,4.07367853 33.70667,4.07367853 C34.1586448,4.07367853 34.4537239,3.7198056 34.4537239,3.1297774 C34.4537239,1.83092338 32.9596161,1.35789284 31.3456773,1.35789284 C28.0022872,1.35789284 26.7035792,3.9750405 26.7035792,6.08135837 C26.7035792,8.16715666 27.9623435,10.6471471 30.8937025,10.6471471 L30.8937025,10.6471471 Z M30.6968632,21.7795644 L31.7389962,21.3860923 L31.7389962,23.8455631 C31.0703901,24.5536689 30.4615196,24.8686626 29.7529699,24.8686626 C28.7694928,24.8686626 28.3758141,24.200156 28.3758141,23.5896082 C28.3758141,22.7630647 29.1045156,22.3692326 30.6968632,21.7795644 L30.6968632,21.7795644 Z M28.8277889,26.1873163 C29.7914741,26.1873163 30.5986234,25.7942041 31.7389962,24.7707446 C31.8372359,25.6757665 32.3295142,26.1873163 33.0765682,26.1873163 C33.6080704,26.1873163 34.0999889,25.9115618 34.6703552,25.2624948 L34.4936676,24.5536689 C33.8250615,24.9867403 33.391799,24.7707446 33.391799,24.0424792 L33.391799,19.0047399 C33.391799,17.5093298 32.3896096,16.898782 30.5201755,16.898782 C27.9436312,16.898782 26.9000587,18.2764745 26.9000587,19.201296 C26.9000587,19.6343673 27.4319208,20.6178676 27.5503123,20.5595488 L28.7108369,20.0080398 C29.2211078,19.7718846 28.4157577,19.1030179 28.4157577,18.6703066 C28.4157577,18.2174357 29.1628117,17.7451251 29.9300173,17.7451251 C30.5784717,17.7451251 31.7389962,18.1389572 31.7389962,19.299934 L31.7389962,20.6376672 L29.6345784,21.3659327 C27.4520726,22.1139977 26.6247715,22.8613428 26.6247715,24.0817184 C26.6247715,25.302094 27.5503123,26.1873163 28.8277889,26.1873163 L28.8277889,26.1873163 Z M71.7635977,17.5676486 L71.7635977,18.098998 L73.239353,18.098998 L73.239353,24.4553909 C73.239353,25.6556069 73.7895676,26.1873163 75.0886354,26.1873163 C75.9141371,26.1873163 76.7993744,25.9907602 77.6648199,25.8525229 L77.6648199,24.8881022 C77.3114446,24.947501 76.6626305,24.9867403 76.2689518,24.9867403 C75.1084272,24.9867403 74.891796,24.7113458 74.891796,23.8063239 L74.891796,18.098998 L77.5662203,18.098998 L77.5662203,17.1154977 L74.891796,17.1154977 L74.891796,15.5408892 L74.2231899,15.5408892 C73.61288,16.3080338 72.8859778,17.1745365 71.7635977,17.5676486 L71.7635977,17.5676486 Z" id="Fill-1" fill="#000000" mask="url(#mask-2)"></path>
                </g>
                <rect id="Rectangle" fill="#000000" x="106.2" y="0" width="1" height="60"></rect>
            </g>
        </g>
    </g>
</svg>