<?xml version="1.0" encoding="UTF-8"?>
<svg width="414px" height="100px" viewBox="0 0 414 100" version="1.1" xmlns="http://www.w3.org/2000/svg" xmlns:xlink="http://www.w3.org/1999/xlink">
    <title>Group 4</title>
    <defs>
        <filter id="filter-1">
            <feColorMatrix in="SourceGraphic" type="matrix" values="0 0 0 0 1.000000 0 0 0 0 1.000000 0 0 0 0 1.000000 0 0 0 1.000000 0"></feColorMatrix>
        </filter>
        <polygon id="path-2" points="0 0 195.524691 0 195.524691 70 0 70"></polygon>
    </defs>
    <g id="Symbols" stroke="none" stroke-width="1" fill="none" fill-rule="evenodd">
        <g id="Footer" transform="translate(-50.000000, -60.000000)">
            <g id="Group-4" transform="translate(50.000000, 60.000000)">
                <g id="Combined-Shape" fill="#FFFFFF">
                    <path d="M32.3058095,82.7084624 L34.9901259,84.4091151 C35.6393646,84.8231625 36.2559306,85.3073156 36.8398238,85.862045 C37.4237171,86.421009 37.9347701,87.0434917 38.3681814,87.7292577 C38.804052,88.4178467 39.1472913,89.1692487 39.4029349,89.9861689 C39.6558851,90.802501 39.7836483,91.6779995 39.7812239,92.6060774 C39.7790812,93.4279379 39.6523719,94.0701819 39.4009441,94.5328093 C39.1520927,94.993437 38.8162311,95.298797 38.3955844,95.4447722 C37.9724784,95.5888654 37.4871889,95.5887478 36.9346801,95.444537 C36.3848649,95.2991499 35.8076467,95.0274313 35.2033769,94.6298517 L35.2033769,94.6298517 L32.2793434,92.7185289 L32.3058095,82.7084624 Z M34.0884054,85.8818064 L34.072596,91.842207 L35.0016023,92.447516 C35.4161595,92.7182936 35.8008545,92.917201 36.1556874,93.0470614 C36.5105202,93.173981 36.8181591,93.2016234 37.0783699,93.1296356 C37.341157,93.059177 37.5442197,92.8716794 37.6951701,92.5749062 C37.8460033,92.2778977 37.9221226,91.8444419 37.9237758,91.2715979 C37.9249331,90.7765054 37.8512731,90.298116 37.7023136,89.833136 C37.5534712,89.368509 37.3545071,88.9371704 37.1029623,88.5342976 C36.8514174,88.1350712 36.5546694,87.7630166 36.2152946,87.4261326 C35.876154,87.0896015 35.5190962,86.7981215 35.1445894,86.5578093 L35.1445894,86.5578093 L34.0884054,85.8818064 Z M14.2571019,71.7338184 L16.2072773,72.8809179 L17.4863151,79.8804363 L19.2212486,74.6724963 L20.8843959,75.6704447 L22.5524616,83.1512932 L23.9580915,77.5330698 L25.771018,78.6425287 L23.3698653,87.0244008 L21.7767478,86.0268053 L20.0046915,78.1539057 L18.1760727,83.7949487 L16.6378781,82.8512264 L14.2571019,71.7338184 Z M0.0264660805,63.6447672 L2.45841783,64.992068 L5.89104505,73.5236794 L5.93191524,66.9412668 L7.71989806,67.9560358 L7.69331487,77.4788908 L5.35610233,76.1074764 L1.83166357,67.358843 L1.80671987,67.3447277 L1.78786572,74.0395919 L4.4408921e-16,73.0152951 L0.0264660805,63.6447672 Z"></path>
                    <path d="M89.9355242,53.4372166 L89.936095,53.6393889 C89.9361692,53.6656689 89.9362502,53.694374 89.9363379,53.7254231 L89.9369414,53.9391959 C89.9370546,53.9792962 89.937174,54.0215781 89.9372993,54.0659606 L89.9381205,54.3568119 C89.9416755,55.6158467 89.9483837,57.9912739 89.9550822,60.3612028 L89.9567547,60.9529212 C89.962039,62.8222215 89.9671519,64.6294816 89.9705241,65.8180573 C89.9892761,72.513392 87.3981766,77.1990677 81.8517761,80.4155808 C80.6196138,81.1300714 73.9904227,84.974429 66.9521348,89.0560454 L65.990301,89.6138284 C57.319407,94.6422211 48.3738237,99.8299342 48.3738237,99.8299342 L48.3738237,99.8299342 L48.3396286,87.7716269 C48.3396286,87.7716269 53.6741889,84.6780271 59.4714746,81.3160814 L60.229866,80.8762771 C60.483271,80.7293232 60.7371502,80.5820943 60.9911033,80.4348225 L61.7527839,79.9931107 C67.7147451,76.5356658 73.4963834,73.1827889 73.9011781,72.9480242 C75.9649469,71.751286 76.8351657,70.4209235 76.826734,67.4797754 L76.826734,67.4797754 L76.8263341,67.3351282 C76.826251,67.3053388 76.826156,67.2712731 76.8260497,67.2332277 L76.8252844,66.959568 C76.8218867,65.7456441 76.8134464,62.739938 76.8100993,61.5481609 L76.8093483,61.2807811 C76.8092447,61.2438661 76.8091523,61.2109727 76.809072,61.1823973 L76.8086996,61.0498074 L89.9355242,53.4372166 L89.9355242,53.4372166 Z M137.289209,25.9760754 L137.290023,26.2642818 C137.290111,26.2953309 137.290205,26.3287239 137.290306,26.3643797 L137.290985,26.6048189 C137.293994,27.6699961 137.300423,29.9450532 137.307118,32.30809 L137.310474,33.4917461 C137.315775,35.361029 137.320914,37.1682628 137.324326,38.3567985 C137.343078,45.0521333 134.751862,49.7379265 129.203119,52.9557336 C123.656836,56.1720114 112.813823,62.4601211 106.975827,65.8456644 C101.125418,69.2383829 98.9669103,66.6412941 98.950164,60.7561749 C98.9469854,59.6314939 98.941906,57.8280351 98.9365816,55.9358652 L98.934894,55.3360772 C98.9284083,53.0308625 98.921819,50.6866705 98.918063,49.3502049 L98.9171494,49.0251095 C98.9167266,48.8746798 98.9163564,48.7429433 98.9160453,48.6322228 L98.9151313,48.3069315 C98.9150839,48.2900819 98.9150441,48.2759116 98.9150121,48.2645065 L98.914915,48.2299471 L112.039163,40.619003 L112.039163,40.619003 L112.040043,40.8407467 C112.044122,41.8694872 112.061138,46.1595607 112.064215,46.9271255 L112.064692,47.0447364 C112.073007,49.9858845 112.940415,50.3086532 115.009102,49.1088568 C115.218372,48.9875832 119.193671,46.6822096 121.254863,45.486883 C123.318749,44.2900273 124.188968,42.9596647 124.180536,40.0185166 L124.180536,40.0185166 L124.180159,39.8738442 C124.179915,39.7844689 124.179561,39.6566097 124.179119,39.4982677 L124.178125,39.1433109 C124.176662,38.6221657 124.174684,37.9221863 124.172625,37.1951008 L124.171072,36.647075 C124.167703,35.4589471 124.164407,34.299406 124.163042,33.8195183 L124.162385,33.5885487 L137.289209,25.9760754 L137.289209,25.9760754 Z M29.284683,33.4496193 C36.3001851,29.3545493 46.2492064,29.0922409 54.5405844,31.5402962 L54.5405844,31.5402962 L24.1456962,49.2824626 L36.9338487,56.6984986 C36.9338487,56.6984986 42.4859442,53.4575865 48.0895996,50.1865886 L49.1395463,49.5737078 C53.6802951,46.923157 58.0281307,44.3852229 59.2326926,43.6821186 C64.7453664,40.4643116 70.230403,40.6391055 76.3451216,44.1852097 C77.5805012,44.9016207 79.5386369,46.0371766 81.4775786,47.161604 L82.0053476,47.4676668 C84.8993276,49.1459389 87.5983585,50.7111614 87.5983585,50.7111614 L87.5983585,50.7111614 L74.5569046,58.3237523 C74.5569046,58.3237523 68.7846056,54.9763202 68.7388169,54.9496188 C66.0546176,53.3930594 64.433863,53.4618712 62.3835615,54.658727 C62.2589808,54.7314309 61.8214009,54.9868435 61.1643017,55.3703976 L60.7444476,55.6154705 C59.4103456,56.3942008 57.4255758,57.5527499 55.3353123,58.7728818 L54.6353985,59.1814368 C50.4214466,61.6412131 46.0278199,64.2058824 45.8159122,64.3295569 C40.4750337,67.447028 34.8403349,68.236894 28.9900429,64.8441755 C26.9424817,63.6568146 21.881721,60.7219997 16.7000381,57.7170426 L15.9592874,57.287467 C15.7123045,57.1442368 15.4653597,57.0010287 15.2187654,56.8580237 L14.4803458,56.4297995 C8.09523364,52.7269454 2.1581215,49.2838741 2.1581215,49.2838741 C2.1581215,49.2838741 8.57816588,45.5363842 15.217197,41.6610657 L15.983858,41.2135522 C16.2395005,41.0643293 16.495114,40.9151231 16.7503459,40.7661398 L17.5145437,40.3200642 C22.8509732,37.2050965 27.8634896,34.2792009 29.284683,33.4496193 Z M82.4621472,2.40889721 C87.9749381,-0.808909825 93.4597405,-0.63411595 99.5745762,2.9118707 C101.014916,3.74719369 108.260581,7.94909171 115.79511,12.3184943 L116.800941,12.9017931 C125.692349,18.0580721 134.644358,23.2494792 134.644358,23.2494792 L134.644358,23.2494792 L121.603021,30.86207 C121.603021,30.86207 114.826559,26.9322997 107.748536,22.8276443 L106.880772,22.3244147 C106.591308,22.1565503 106.301783,21.98865 106.012636,21.8209689 L105.146768,21.318839 C98.6678775,17.5616286 92.6033344,14.0446996 91.9682714,13.6763974 C89.281613,12.1184264 87.6633175,12.1886498 85.613016,13.385388 C84.9108585,13.7952949 83.9851826,14.3356475 83.0634197,14.8737 L82.6039173,15.1419201 C81.0041706,16.0757174 79.5324926,16.9347152 79.4077741,17.0074793 C77.352437,18.2072758 77.2444648,19.1446462 79.9311233,20.7027348 C80.437526,20.9965649 88.1334469,25.4618138 95.5538621,29.7672091 L96.4251308,30.2727274 L96.4251308,30.2727274 L97.2911562,30.7752035 C103.759931,34.5284474 109.558378,37.8927596 109.558378,37.8927596 L109.558378,37.8927596 L96.5193833,45.5038213 C96.5193833,45.5038213 89.1061497,41.2047446 81.0615373,36.5395381 L80.0531629,35.9547649 C71.6308159,31.0705053 62.8299951,25.9667829 61.3161001,25.0889318 C55.9429002,21.9727546 54.5670154,18.6917818 60.3793648,15.2990633 C63.0307642,13.7513864 66.7213555,11.5971077 70.4733422,9.40699392 L71.8813054,8.58513625 C75.8678665,6.25809724 79.7857572,3.97114645 82.4621472,2.40889721 Z"></path>
                </g>
                <g filter="url(#filter-1)" id="Group-3">
                    <g transform="translate(218.000000, 15.000000)">
                        <mask id="mask-3" fill="white">
                            <use xlink:href="#path-2"></use>
                        </mask>
                        <g id="Clip-2"></g>
                        <path d="M54.0204672,64.6577068 C53.7517773,65.2060959 52.690812,66.9952601 50.3367765,66.9952601 C48.4115652,66.9952601 48.1896562,65.9350813 48.1896562,65.1370973 C48.1896562,63.7121258 49.5061168,62.7575448 52.1012535,62.298554 C52.6452307,62.2031559 53.2389874,62.1407572 53.9706876,62.1035579 L54.0270645,62.100558 L54.0204672,64.6577068 Z M57.7977196,66.5128697 L57.7977196,59.7936041 C57.7977196,55.5714886 55.9402806,53.7709246 51.5884636,53.7709246 C47.6678699,53.7709246 45.1752912,55.4124918 44.5719384,58.3920322 L44.5095639,58.6956261 L48.1308802,59.0904182 L48.1836586,58.8456231 C48.4955308,57.399052 49.393363,56.8350633 51.3851469,56.8350633 C53.3331488,56.8350633 53.8303451,57.6282474 53.9760854,58.8198236 C54.0138699,59.0028199 54.0228662,59.2932141 54.0246655,59.4954101 L54.025865,59.552409 L53.9730866,59.5548089 C53.1988039,59.5896082 52.4551086,59.647807 51.7605931,59.7288054 C46.6638813,60.350393 44.1868961,62.2295554 44.1868961,65.4748905 C44.1868961,68.1682366 46.0863179,69.9076018 49.0263134,69.9076018 C51.1704349,69.9076018 52.7543859,69.3310134 54.0108711,68.0944381 L54.0924377,68.0134397 L54.101434,68.1334373 C54.1422173,68.7214256 54.2393775,69.2392152 54.3689244,69.5536089 L54.4390957,69.7240055 L58.2295427,69.7240055 L58.1011953,69.350813 C57.9056754,68.7778244 57.7977196,67.7698446 57.7977196,66.5128697 L57.7977196,66.5128697 Z M67.7140568,42.1041579 C64.8292387,42.1041579 64.3710265,41.4153717 64.3710265,38.9560209 L64.3710265,33.1829363 C65.6826891,31.3133737 66.2722475,30.7553849 67.0609244,30.7553849 C68.1422813,30.7553849 68.4031745,32.2967541 69.5181177,32.2967541 C70.5347011,32.2967541 70.8627667,30.3287934 70.8627667,30.1649967 C70.8627667,29.5098098 69.87857,28.2960341 68.4367607,28.2960341 C66.7328588,28.2960341 65.9129947,28.9848203 64.4375992,31.4117718 L64.3710265,31.4117718 L64.3710265,28.1646367 L63.5511624,28.1646367 L59.1903491,29.9358013 L59.1903491,30.6905862 L61.6169548,31.9037619 L61.6169548,39.5782084 C61.6169548,41.447771 60.5026114,42.1041579 59.1903491,42.1041579 L59.1903491,43.2849343 L67.7140568,43.2849343 L67.7140568,42.1041579 Z M69.2794155,53.802124 C67.0555266,53.802124 65.6395068,55.1784964 64.8442326,56.3340733 L64.7398754,56.4834703 L64.7398754,54.0763185 L60.791693,54.0763185 L60.791693,69.7240055 L64.9551871,69.7240055 L64.9623842,60.2147957 C65.9813667,58.3236335 67.4531637,57.3252535 69.21944,57.3252535 C69.8875663,57.3252535 70.0674926,57.3402532 70.1154729,57.349253 L70.4555336,57.4140517 L70.4555336,53.9173217 L70.2330247,53.8693226 C69.9265503,53.802124 69.6266732,53.802124 69.2794155,53.802124 L69.2794155,53.802124 Z M74.7587705,60.0323994 L74.7689663,59.9646007 C75.0814383,57.9474411 76.304937,56.7444651 78.0406259,56.7444651 C80.3334865,56.7444651 80.932641,58.7628247 81.0855783,59.9658007 L81.0945747,60.0323994 L74.7587705,60.0323994 Z M78.0118377,53.7709246 C73.6216364,53.7709246 70.554493,57.2148557 70.554493,62.1443571 C70.554493,66.8236635 73.5394701,69.9688006 77.9812502,69.9688006 C81.3578668,69.9688006 83.8966266,68.2198356 84.9473961,65.1694966 L85.0613494,64.8431031 L81.5389926,64.3739125 L81.464623,64.5839083 C80.8978552,66.1654767 79.8662779,66.9346613 78.3081163,66.9346613 C76.024252,66.9346613 74.7665673,65.50249 74.6718061,62.7923442 L74.6694071,62.7311454 L85.1417165,62.7311454 L85.1417165,62.450951 C85.1417165,62.1119578 85.1417165,61.7915642 85.1123285,61.4621708 C84.8868209,56.6454671 82.2317088,53.7709246 78.0118377,53.7709246 L78.0118377,53.7709246 Z M26.9517576,60.0323994 L26.9613536,59.9646007 C27.2744254,57.9474411 28.4973243,56.7444651 30.2330132,56.7444651 C32.5258738,56.7444651 33.1250283,58.7628247 33.2779656,59.9658007 L33.286962,60.0323994 L26.9517576,60.0323994 Z M30.3079825,53.7709246 C25.9177812,53.7709246 22.8506378,57.2148557 22.8506378,62.1443571 C22.8506378,66.8236635 25.8356149,69.9688006 30.277395,69.9688006 C33.6540116,69.9688006 36.1927714,68.2198356 37.2441407,65.1694966 L37.3574942,64.8431031 L33.8357371,64.3739125 L33.7613676,64.5839083 C33.194,66.1654767 32.1624227,66.9346613 30.6048608,66.9346613 C28.3203968,66.9346613 27.0633119,65.50249 26.9685507,62.7923442 L26.9661517,62.7311454 L37.4378613,62.7311454 L37.4378613,62.450951 C37.4378613,62.1119578 37.4378613,61.7915642 37.4084733,61.4621708 C37.1829657,56.6454671 34.5284533,53.7709246 30.3079825,53.7709246 L30.3079825,53.7709246 Z M1.73628862,5.93748125 L6.48874149,17.7452451 L7.6060837,17.7452451 L11.7359916,8.39623208 L15.3435136,17.7452451 L16.3912843,17.7452451 L21.473602,5.47729045 C21.9660003,4.29651407 22.3576398,4.00191996 23.3748231,3.8051239 L23.3748231,2.62434751 L17.9974263,2.62434751 L17.9974263,3.8051239 C20.1961254,3.8051239 20.1619394,5.44549109 19.6371544,6.72406552 L16.7193499,13.7433251 L13.9982648,6.95326093 C13.1454142,4.82210356 13.3757198,3.96952061 15.4406738,3.8051239 L15.4406738,2.62434751 L8.32638859,2.62434751 L8.32638859,3.8051239 C9.96551702,3.8051239 10.1934236,4.23171537 11.1470329,6.72406552 L7.90116281,13.9719206 L4.71886663,6.36287274 C4.06273545,4.78910422 4.35961382,3.87052259 6.02992947,3.8051239 L6.02992947,2.62434751 L0,2.62434751 L0,3.8051239 C0.819264338,4.00191996 1.11374369,4.36251275 1.73628862,5.93748125 L1.73628862,5.93748125 Z M16.0986042,63.3329333 L13.1304203,54.0763185 L10.0069001,54.0763185 L7.18685547,63.3233335 L7.13287758,63.149337 L4.34521972,54.0763185 L0.158934883,54.0763185 L5.17527963,69.7240055 L8.39296131,69.7240055 L11.2795786,60.2063959 L14.2459633,69.7240055 L17.4612459,69.7240055 L22.379231,54.0763185 L18.8256869,54.0763185 L16.0986042,63.3329333 Z M1.73628862,31.8383632 L6.48874149,43.6455271 L7.6060837,43.6455271 L11.7359916,34.2971141 L15.3435136,43.6455271 L16.3912843,43.6455271 L21.473602,31.3781724 C21.9660003,30.197996 22.3576398,29.9034019 23.3748231,29.7060059 L23.3748231,28.5258295 L17.9974263,28.5258295 L17.9974263,29.7060059 C20.1961254,29.7060059 20.1619394,31.3463731 19.6371544,32.6249475 L16.7193499,39.6442071 L13.9982648,32.8547429 C13.1454142,30.7235855 13.3757198,29.8704026 15.4406738,29.7060059 L15.4406738,28.5258295 L8.32638859,28.5258295 L8.32638859,29.7060059 C9.96551702,29.7060059 10.1934236,30.1325973 11.1470329,32.6249475 L7.90116281,39.8728025 L4.71886663,32.2643547 C4.06273545,30.6905862 4.35961382,29.7714046 6.02992947,29.7060059 L6.02992947,28.5258295 L0,28.5258295 L0,29.7060059 C0.819264338,29.9034019 1.11374369,30.2633947 1.73628862,31.8383632 L1.73628862,31.8383632 Z M135.769974,69.7240055 L140.716747,69.7240055 L140.716747,65.0398992 L135.769974,65.0398992 L135.769974,69.7240055 Z M160.159581,39.7426051 C159.044638,40.9227815 158.027454,41.447771 156.846538,41.447771 C155.20681,41.447771 154.553678,40.3335933 154.553678,39.3160137 C154.553678,37.9384412 155.765781,37.2820544 158.422093,36.299274 L160.159581,35.6434871 L160.159581,39.7426051 Z M162.913053,40.0707986 L162.913053,31.6745665 C162.913053,29.1822164 161.240338,28.1646367 158.125214,28.1646367 C153.830974,28.1646367 152.094085,30.4607908 152.094085,32.00216 C152.094085,32.7239455 152.978123,34.3631127 153.175442,34.2659147 L155.10965,33.3467331 C155.9631,32.9531409 154.617851,31.8383632 154.617851,31.1171777 C154.617851,30.3623928 155.862941,29.5752085 157.141018,29.5752085 C158.224774,29.5752085 160.159581,30.2315954 160.159581,32.1665567 L160.159581,34.3961121 L156.652218,35.6098878 C153.011709,36.8566629 151.635873,38.102238 151.635873,40.1361973 C151.635873,42.1701566 153.175442,43.6455271 155.306969,43.6455271 C156.913711,43.6455271 158.25836,42.9903402 160.159581,41.2845743 C160.323314,42.7929441 161.142578,43.6455271 162.388268,43.6455271 C163.274705,43.6455271 164.09157,43.1859363 165.044579,42.1041579 L164.747701,40.9227815 C163.633358,41.6445671 162.913053,41.2845743 162.913053,40.0707986 L162.913053,40.0707986 Z M181.681763,39.4798104 L181.681763,33.247735 C181.681763,29.7060059 179.911888,28.1646367 176.862737,28.1646367 C175.059276,28.1646367 172.960736,29.1822164 171.618486,30.9527809 L171.552513,30.9527809 L171.552513,28.1646367 L170.732649,28.1646367 L166.602741,29.7060059 L166.602741,30.4607908 L168.797842,31.7063659 L168.797842,39.6118078 C168.797842,41.250975 168.011564,42.0375592 166.371836,42.1041579 L166.371836,43.2849343 L174.208825,43.2849343 L174.208825,42.1041579 C172.274617,42.1041579 171.552513,41.2191756 171.552513,39.4150117 L171.552513,32.2967541 C172.960736,31.1171777 174.339571,30.3623928 175.848553,30.3623928 C177.977681,30.3623928 178.93069,31.9037619 178.93069,33.9701206 L178.93069,39.4150117 C178.93069,41.1855763 178.175,42.1041579 176.274378,42.1041579 L176.274378,43.2849343 L184.010609,43.2849343 L184.010609,42.1041579 C182.143574,41.9067619 181.681763,41.1207776 181.681763,39.4798104 L181.681763,39.4798104 Z M141.718336,31.5755685 C141.718336,30.1649967 142.635361,29.3778124 144.177329,29.3778124 C145.98139,29.3778124 147.029161,30.5261895 147.520959,33.1175376 L148.538142,33.1175376 L148.538142,29.5752085 C147.32364,28.6242275 145.850643,28.1646367 144.111356,28.1646367 C141.293111,28.1646367 139.325317,29.8380032 139.325317,32.2319554 C139.325317,33.1829363 139.686969,34.2971141 140.3425,34.9535009 C143.029999,37.6438471 147.357226,37.5778484 147.357226,40.1025979 C147.357226,41.447771 146.112136,42.4323514 144.374648,42.4323514 C142.407454,42.4323514 141.192952,41.0211796 140.865486,38.4640307 L139.784129,38.4640307 L139.784129,42.5961481 C141.029219,43.2195356 142.963426,43.6455271 144.603154,43.6455271 C147.685292,43.6455271 149.618899,42.0057599 149.618899,39.3160137 C149.618899,38.2342353 149.257847,37.1848563 148.571129,36.4954701 C146.701095,34.6253075 141.718336,34.0361193 141.718336,31.5755685 L141.718336,31.5755685 Z M194.475121,36.4954701 C192.606887,34.6253075 187.624128,34.0361193 187.624128,31.5755685 C187.624128,30.1649967 188.541153,29.3778124 190.080722,29.3778124 C191.884183,29.3778124 192.934952,30.5261895 193.426751,33.1175376 L194.441535,33.1175376 L194.441535,29.5752085 C193.229432,28.6242275 191.753436,28.1646367 190.017148,28.1646367 C187.196504,28.1646367 185.22871,29.8380032 185.22871,32.2319554 C185.22871,33.1829363 185.589762,34.2971141 186.245893,34.9535009 C188.932792,37.6438471 193.263018,37.5778484 193.263018,40.1025979 C193.263018,41.447771 192.015529,42.4323514 190.278041,42.4323514 C188.310247,42.4323514 187.098744,41.0211796 186.771278,38.4640307 L185.689921,38.4640307 L185.689921,42.5961481 C186.934411,43.2195356 188.869218,43.6455271 190.508347,43.6455271 C193.591084,43.6455271 195.524691,42.0057599 195.524691,39.3160137 C195.524691,38.2342353 195.164239,37.1848563 194.475121,36.4954701 L194.475121,36.4954701 Z M30.0201004,29.3778124 C31.8241613,29.3778124 33.0056772,30.6905862 33.2665703,33.0191396 L26.4491635,33.0191396 C26.7442426,30.7889842 28.1194791,29.3778124 30.0201004,29.3778124 L30.0201004,29.3778124 Z M30.6126577,43.6455271 C33.1028374,43.6455271 35.3009368,42.3657527 36.7097596,40.0707986 L36.0206419,39.4474111 C34.7755521,40.5291894 33.4638895,41.0211796 31.9237205,41.0211796 C28.8751695,41.0211796 26.0881114,38.5948281 26.2518443,34.199916 L36.7097596,34.199916 C36.7097596,31.8707626 34.8727123,28.1646367 30.6456441,28.1646367 C26.7772291,28.1646367 23.7928518,31.5755685 23.7928518,36.0688786 C23.7928518,40.4643907 26.6440836,43.6455271 30.6126577,43.6455271 L30.6126577,43.6455271 Z M102.018202,64.1087178 C101.627762,66.1318774 100.773712,66.9952601 99.1645712,66.9952601 C96.5502423,66.9952601 96.0014671,64.2251155 96.0014671,61.900762 C96.0014671,58.5792284 97.0552354,56.8962621 99.1345835,56.8962621 C100.68135,56.8962621 101.58338,57.9168417 101.892853,60.0161997 L101.931837,60.2849943 L105.748674,59.8872023 L105.699494,59.5950081 C105.065553,55.8396832 102.701322,53.7709246 99.0398223,53.7709246 C94.7233908,53.7709246 91.5920737,57.151257 91.5920737,61.8089638 C91.5920737,66.7846643 94.4906861,70 98.9780476,70 C102.788286,70 105.187304,68.0380392 105.73188,64.4753105 L105.777462,64.1825163 L102.067382,63.8573229 L102.018202,64.1087178 Z M132.930737,54.0763185 L129.708257,63.0653387 C129.706458,63.0731385 129.507339,63.6857263 129.318417,64.2851143 L129.264439,64.4543109 L129.208062,64.2851143 C129.013742,63.6917262 128.814623,63.1067379 128.79783,63.0647387 L125.670112,54.0763185 L121.318295,54.0763185 L127.056743,69.7240055 L130.768023,69.7240055 L136.539458,54.0763185 L132.930737,54.0763185 Z M89.2914163,13.4151317 C89.2914163,12.0375592 90.505319,11.3811724 93.1598314,10.397792 L94.89612,9.74200516 L94.89612,13.8417232 C93.7823763,15.0212996 92.7675921,15.5468891 91.5866759,15.5468891 C89.9469477,15.5468891 89.2914163,14.4321114 89.2914163,13.4151317 L89.2914163,13.4151317 Z M97.1254066,17.7452451 C98.0118435,17.7452451 98.8317075,17.2850543 99.7823181,16.2032759 L99.4878387,15.0212996 C98.3734953,15.7436851 97.6507914,15.3830923 97.6507914,14.1699166 L97.6507914,5.77308454 C97.6507914,3.28073439 95.9804757,2.26315474 92.865352,2.26315474 C88.5711114,2.26315474 86.831824,4.5599088 86.831824,6.10127797 C86.831824,6.82246355 87.7182609,8.46163077 87.91558,8.36443271 L89.8491878,7.44585108 C90.7002391,7.05225895 89.3573893,5.93748125 89.3573893,5.21629567 C89.3573893,4.46091078 90.6024792,3.67372653 91.8811553,3.67372653 C92.9625122,3.67372653 94.89612,4.3301134 94.89612,6.26567469 L94.89612,8.4952301 L91.3893568,9.70900582 C87.7512473,10.9557809 86.373012,12.200756 86.373012,14.2347153 C86.373012,16.2686746 87.91558,17.7452451 90.0441079,17.7452451 C91.6502499,17.7452451 92.9954987,17.0888582 94.89612,15.3830923 C95.0604527,16.8914622 95.8803168,17.7452451 97.1254066,17.7452451 L97.1254066,17.7452451 Z M115.083249,59.8224036 L114.407326,59.7120058 C112.593669,59.4204116 111.481725,59.1954161 111.481725,58.2660347 C111.481725,57.2952541 112.370561,56.8038639 114.121843,56.8038639 C115.777165,56.8038639 116.833332,57.4200516 117.263356,58.6338273 L117.343723,58.8648227 L120.805505,58.1748365 L120.71974,57.8808424 C119.96285,55.3074939 117.49666,53.7709246 114.121843,53.7709246 C110.241433,53.7709246 107.633701,55.700486 107.633701,58.5714286 C107.633701,62.0915582 110.773415,63.0161397 114.166225,63.4895302 L114.497289,63.5441291 C116.498669,63.8693226 117.461275,64.0763185 117.461275,65.2294954 C117.461275,66.7684646 115.402318,66.9346613 114.517081,66.9346613 C112.288394,66.9346613 110.850183,66.1414772 110.469339,64.699706 L110.400967,64.4465111 L106.866616,65.1334973 L106.942784,65.4238915 C107.739258,68.3974321 110.336194,69.9688006 114.456506,69.9688006 C118.581616,69.9688006 121.249323,67.9762405 121.249323,64.8941021 C121.249323,61.3037739 118.1318,60.3161937 115.083249,59.8224036 L115.083249,59.8224036 Z M30.0201004,3.47693046 C31.8241613,3.47693046 33.0056772,4.78910422 33.2665703,7.11765765 L26.4491635,7.11765765 C26.7442426,4.88810224 28.1194791,3.47693046 30.0201004,3.47693046 L30.0201004,3.47693046 Z M30.6126577,17.7452451 C33.1028374,17.7452451 35.3009368,16.4648707 36.7097596,14.1699166 L36.0206419,13.5465291 C34.7755521,14.6283074 33.4638895,15.1208976 31.9237205,15.1208976 C28.8751695,15.1208976 26.0881114,12.6933461 26.2518443,8.29903402 L36.7097596,8.29903402 C36.7097596,5.9698806 34.8727123,2.26315474 30.6456441,2.26315474 C26.7772291,2.26315474 23.7928518,5.67408652 23.7928518,10.1679966 C23.7928518,14.5629087 26.6440836,17.7452451 30.6126577,17.7452451 L30.6126577,17.7452451 Z M102.43863,14.8575028 C102.43863,16.8578628 103.359253,17.7452451 105.520767,17.7452451 C106.899602,17.7452451 108.374998,17.4170517 109.817407,17.1860563 L109.817407,15.5792884 C109.225449,15.6776864 108.144692,15.7436851 107.488561,15.7436851 C105.554353,15.7436851 105.193301,15.2846943 105.193301,13.7757245 L105.193301,4.26411472 L109.653674,4.26411472 L109.653674,2.62434751 L105.193301,2.62434751 L105.193301,0 L104.078958,0 C103.064173,1.27917442 101.849671,2.72334553 99.9820362,3.37793244 L99.9820362,4.26411472 L102.43863,4.26411472 L102.43863,14.8575028 Z M77.7287537,29.3778124 C79.5322148,29.3778124 80.7137307,30.6905862 80.9746238,33.0191396 L74.157217,33.0191396 C74.4516963,30.7889842 75.8275326,29.3778124 77.7287537,29.3778124 L77.7287537,29.3778124 Z M78.3207111,43.6455271 C80.8108909,43.6455271 83.0089903,42.3657527 84.4184128,40.0707986 L83.7286954,39.4474111 C82.4842053,40.5291894 81.171943,41.0211796 79.6323737,41.0211796 C76.5838228,41.0211796 73.7967646,38.5948281 73.9604976,34.199916 L84.4184128,34.199916 C84.4184128,31.8707626 82.5813655,28.1646367 78.3542974,28.1646367 C74.4858823,28.1646367 71.5009053,31.5755685 71.5009053,36.0688786 C71.5009053,40.4643907 74.3521371,43.6455271 78.3207111,43.6455271 L78.3207111,43.6455271 Z M114.897325,30.7553849 C115.978682,30.7553849 116.239575,32.2967541 117.354519,32.2967541 C118.371102,32.2967541 118.699168,30.3287934 118.699168,30.1649967 C118.699168,29.5098098 117.715571,28.2960341 116.273162,28.2960341 C114.56926,28.2960341 113.749396,28.9848203 112.274,31.4117718 L112.207427,31.4117718 L112.207427,28.1646367 L111.386964,28.1646367 L107.02675,29.9358013 L107.02675,30.6905862 L109.453356,31.9037619 L109.453356,39.5782084 C109.453356,41.447771 108.338413,42.1041579 107.02675,42.1041579 L107.02675,43.2849343 L115.550458,43.2849343 L115.550458,42.1041579 C112.66564,42.1041579 112.207427,41.4153717 112.207427,38.9560209 L112.207427,33.1829363 C113.51849,31.3133737 114.108049,30.7553849 114.897325,30.7553849 L114.897325,30.7553849 Z M67.7170556,16.2032759 C64.8322375,16.2032759 64.3734255,15.5138897 64.3734255,13.0545389 L64.3734255,7.28145437 C65.6850881,5.41189176 66.2746465,4.85450291 67.0609244,4.85450291 C68.1422813,4.85450291 68.4055735,6.39647207 69.5205167,6.39647207 C70.5376999,6.39647207 70.8627667,4.42791144 70.8627667,4.26411472 C70.8627667,3.60892782 69.8815687,2.39575208 68.4391597,2.39575208 C66.7328588,2.39575208 65.9129947,3.08333833 64.4375992,5.51088978 L64.3734255,5.51088978 L64.3734255,2.26315474 L63.5541612,2.26315474 L59.1933478,4.03431931 L59.1933478,4.78910422 L61.6193539,6.00227995 L61.6193539,13.6773265 C61.6193539,15.5468891 60.5050104,16.2032759 59.1933478,16.2032759 L59.1933478,17.3834523 L67.7170556,17.3834523 L67.7170556,16.2032759 Z M116.808742,3.47693046 C118.612803,3.47693046 119.79132,4.78910422 120.055212,7.11765765 L113.234806,7.11765765 C113.529886,4.88810224 114.908121,3.47693046 116.808742,3.47693046 L116.808742,3.47693046 Z M117.398301,17.7452451 C119.890879,17.7452451 122.08658,16.4648707 123.496002,14.1699166 L122.808684,13.5465291 C121.561195,14.6283074 120.252531,15.1208976 118.709963,15.1208976 C115.661412,15.1208976 112.873754,12.6933461 113.037487,8.29903402 L123.496002,8.29903402 C123.496002,5.9698806 121.661354,2.26315474 117.431887,2.26315474 C113.562872,2.26315474 110.581494,5.67408652 110.581494,10.1679966 C110.581494,14.5629087 113.432725,17.7452451 117.398301,17.7452451 L117.398301,17.7452451 Z M77.7287537,3.47693046 C79.5322148,3.47693046 80.7137307,4.78910422 80.9746238,7.11765765 L74.157217,7.11765765 C74.4516963,4.88810224 75.8275326,3.47693046 77.7287537,3.47693046 L77.7287537,3.47693046 Z M78.3207111,17.7452451 C80.8108909,17.7452451 83.0089903,16.4648707 84.4184128,14.1699166 L83.7286954,13.5465291 C82.4842053,14.6283074 81.171943,15.1208976 79.6323737,15.1208976 C76.5838228,15.1208976 73.7967646,12.6933461 73.9604976,8.29903402 L84.4184128,8.29903402 C84.4184128,5.9698806 82.5813655,2.26315474 78.3542974,2.26315474 C74.4858823,2.26315474 71.5009053,5.67408652 71.5009053,10.1679966 C71.5009053,14.5629087 74.3521371,17.7452451 78.3207111,17.7452451 L78.3207111,17.7452451 Z M134.375545,24.0319194 C135.359142,24.0319194 136.146019,23.2453351 136.146019,22.2607548 C136.146019,21.2779744 135.359142,20.4901902 134.375545,20.4901902 C133.391948,20.4901902 132.60507,21.2779744 132.60507,22.2607548 C132.60507,23.2453351 133.391948,24.0319194 134.375545,24.0319194 L134.375545,24.0319194 Z M100.735328,39.7426051 C99.6203844,40.9227815 98.6061999,41.447771 97.424684,41.447771 C95.7849558,41.447771 95.1288247,40.3335933 95.1288247,39.3160137 C95.1288247,37.9384412 96.3433271,37.2820544 98.9978395,36.299274 L100.735328,35.6434871 L100.735328,39.7426051 Z M97.2273649,35.6098878 C93.5898552,36.8566629 92.2110201,38.102238 92.2110201,40.1361973 C92.2110201,42.1701566 93.7535881,43.6455271 95.882116,43.6455271 C97.4888577,43.6455271 98.8341066,42.9903402 100.735328,41.2845743 C100.898461,42.7929441 101.718325,43.6455271 102.963415,43.6455271 C103.849852,43.6455271 104.669716,43.1859363 105.620326,42.1041579 L105.325847,40.9227815 C104.211503,41.6445671 103.488799,41.2845743 103.488799,40.0707986 L103.488799,31.6745665 C103.488799,29.1822164 101.817884,28.1646367 98.7033601,28.1646367 C94.4091195,28.1646367 92.6692324,30.4607908 92.6692324,32.00216 C92.6692324,32.7239455 93.556269,34.3631127 93.7535881,34.2659147 L95.6877956,33.3467331 C96.5382472,32.9531409 95.1953974,31.8383632 95.1953974,31.1171777 C95.1953974,30.3623928 96.4404873,29.5752085 97.7191634,29.5752085 C98.8005203,29.5752085 100.735328,30.2315954 100.735328,32.1665567 L100.735328,34.3961121 L97.2273649,35.6098878 Z M133.130455,39.7096058 C133.130455,41.349373 132.013713,42.1041579 130.768623,42.1041579 L130.768623,43.2849343 L137.916494,43.2849343 L137.916494,42.1041579 C136.735578,42.0705586 135.882128,41.2845743 135.882128,39.4798104 L135.882128,28.1646367 L135.064663,28.1646367 L130.637876,29.7714046 L130.637876,30.5261895 L133.130455,31.7729645 L133.130455,39.7096058 Z M51.4895042,17.7452451 C54.5050687,17.7452451 56.800928,16.1366773 57.4894459,13.5465291 L56.7361546,13.0545389 C55.8167313,14.49751 54.5716414,15.1532969 52.5066874,15.1532969 C49.0628984,15.1532969 47.1622771,11.8731625 47.1622771,8.98722026 C47.1622771,5.80548389 48.9657382,3.67372653 51.6862236,3.67372653 C55.4556792,3.67372653 54.0462566,6.78946421 56.1777833,6.78946421 C56.9310747,6.78946421 57.4228732,6.19967601 57.4228732,5.21629567 C57.4228732,3.05153897 54.9326935,2.26315474 52.2427955,2.26315474 C46.6704786,2.26315474 44.5059654,6.6250675 44.5059654,10.1355973 C44.5059654,13.6119278 46.6039059,17.7452451 51.4895042,17.7452451 L51.4895042,17.7452451 Z M51.1614386,36.299274 L52.898327,35.6434871 L52.898327,39.7426051 C51.7839835,40.9227815 50.7691993,41.447771 49.5882831,41.447771 C47.9491547,41.447771 47.2930235,40.3335933 47.2930235,39.3160137 C47.2930235,37.9384412 48.5075259,37.2820544 51.1614386,36.299274 L51.1614386,36.299274 Z M48.0463149,43.6455271 C49.6524568,43.6455271 50.9977057,42.9903402 52.898327,41.2845743 C53.0620599,42.7929441 53.8825237,43.6455271 55.1276136,43.6455271 C56.0134507,43.6455271 56.8333148,43.1859363 57.7839253,42.1041579 L57.4894459,40.9227815 C56.3751025,41.6445671 55.6529983,41.2845743 55.6529983,40.0707986 L55.6529983,31.6745665 C55.6529983,29.1822164 53.9826827,28.1646367 50.8669592,28.1646367 C46.5727186,28.1646367 44.8334312,30.4607908 44.8334312,32.00216 C44.8334312,32.7239455 45.7198681,34.3631127 45.9171872,34.2659147 L47.8513948,33.3467331 C48.7018463,32.9531409 47.3595962,31.8383632 47.3595962,31.1171777 C47.3595962,30.3623928 48.6046861,29.5752085 49.8833622,29.5752085 C50.9641194,29.5752085 52.898327,30.2315954 52.898327,32.1665567 L52.898327,34.3961121 L49.390964,35.6098878 C45.7534543,36.8566629 44.3746192,38.102238 44.3746192,40.1361973 C44.3746192,42.1701566 45.9171872,43.6455271 48.0463149,43.6455271 L48.0463149,43.6455271 Z M119.605996,29.2794144 L119.605996,30.1649967 L122.065588,30.1649967 L122.065588,40.7589848 C122.065588,42.7593448 122.982613,43.6455271 125.147726,43.6455271 C126.523562,43.6455271 127.998957,43.3179336 129.441366,43.0875382 L129.441366,41.4801704 C128.852408,41.5791684 127.771051,41.6445671 127.11492,41.6445671 C125.180712,41.6445671 124.81966,41.1855763 124.81966,39.6772065 L124.81966,30.1649967 L129.277034,30.1649967 L129.277034,28.5258295 L124.81966,28.5258295 L124.81966,25.901482 L123.705317,25.901482 C122.688133,27.1800564 121.47663,28.6242275 119.605996,29.2794144 L119.605996,29.2794144 Z" id="Fill-1" fill="#231F20" mask="url(#mask-3)"></path>
                    </g>
                </g>
                <rect id="Rectangle" fill="#FFFFFF" x="177" y="0" width="1" height="100"></rect>
            </g>
        </g>
    </g>
</svg>