<?xml version="1.0" encoding="UTF-8"?>
<svg width="249px" height="60px" viewBox="0 0 249 60" version="1.1" xmlns="http://www.w3.org/2000/svg" xmlns:xlink="http://www.w3.org/1999/xlink">
    <title>NWD-logo-lockup</title>
    <g id="NWD-logo-lockup" stroke="none" stroke-width="1" fill="none" fill-rule="evenodd">
        <g id="Group">
            <path d="M19.3834857,49.6250774 L20.9940755,50.645469 C21.3836188,50.8938975 21.7535583,51.1843894 22.1038943,51.517227 C22.4542303,51.8526054 22.7608621,52.226095 23.0209089,52.6375546 C23.2824312,53.050708 23.4883748,53.5015492 23.641761,53.9917013 C23.793531,54.4815006 23.870189,55.0067997 23.8687344,55.5636464 C23.8674487,56.0567628 23.7914231,56.4421091 23.6405665,56.7196856 C23.4912556,56.9960622 23.2897387,57.1792782 23.0373506,57.2668633 C22.783487,57.3533193 22.4923133,57.3532487 22.1608081,57.2667222 C21.8309189,57.1794899 21.484588,57.0164588 21.1220261,56.777911 L21.1220261,56.777911 L19.3676061,55.6311173 L19.3834857,49.6250774 Z M20.4530433,51.5290838 L20.4435576,55.1053242 L21.0009614,55.4685096 C21.2496957,55.6309762 21.4805127,55.7503206 21.6934124,55.8282368 C21.9063121,55.9043886 22.0908955,55.920974 22.2470219,55.8777814 C22.4046942,55.8355062 22.5265318,55.7230076 22.6171021,55.5449437 C22.707602,55.3667386 22.7532736,55.1066651 22.7542655,54.7629587 C22.7549599,54.4659032 22.7107639,54.1788696 22.6213882,53.8998816 C22.5320827,53.6211054 22.4127043,53.3623022 22.2617774,53.1205785 C22.1108504,52.8810427 21.9328016,52.65781 21.7291768,52.4556796 C21.5256924,52.2537609 21.3114577,52.0788729 21.0867536,51.9346856 L21.0867536,51.9346856 L20.4530433,51.5290838 Z M8.55426116,43.040291 L9.72436639,43.7285507 L10.491789,47.9282618 L11.5327492,44.8034978 L12.5306375,45.4022668 L13.5314769,49.8907759 L14.3748549,46.5198419 L15.4626108,47.1855172 L14.0219192,52.2146405 L13.0660487,51.6160832 L12.0028149,46.8923434 L10.9056436,50.2769692 L9.98272687,49.7107358 L8.55426116,43.040291 Z M0.0158796483,38.1868603 L1.4750507,38.9952408 L3.53462703,44.1142077 L3.55914914,40.1647601 L4.63193884,40.7736215 L4.61598892,46.4873345 L3.2136614,45.6644858 L1.09899814,40.4153058 L1.08403192,40.4068366 L1.07271943,44.4237552 L4.30766534e-14,43.8091771 L0.0158796483,38.1868603 Z" id="Combined-Shape" fill="#000000"></path>
            <path d="M53.9613145,32.0623299 L53.9617415,32.2135767 C53.9618107,32.2380719 53.9618877,32.2653618 53.9619723,32.2953127 L53.9625668,32.5058819 C53.9626799,32.5459426 53.9627998,32.5883971 53.962926,32.6331118 L53.9637572,32.9274538 C53.9682657,34.5240873 53.9778419,37.9144077 53.9823145,39.4908344 C53.9935657,43.5080352 52.4389059,46.3194406 49.1110657,48.2493485 C48.3796752,48.6734578 44.4789637,50.9355329 40.3066895,53.3551016 L39.6281817,53.7485792 C39.4015241,53.8800217 39.1745307,54.0116589 38.9476592,54.1432254 L38.2678678,54.5374477 C33.5182948,57.2918045 29.0242942,59.8979605 29.0242942,59.8979605 L29.0242942,59.8979605 L29.0037772,52.6629762 C29.0037772,52.6629762 43.8291152,44.0655171 44.3407069,43.7688145 C45.5789681,43.0507716 46.1010994,42.2525541 46.0960404,40.4878652 C46.0960352,40.4855859 46.0959714,40.4624756 46.0958577,40.4216329 L46.0950387,40.1286052 C46.0928447,39.3449935 46.0876679,37.5015367 46.0858579,36.8570932 L46.0852198,36.6298845 L53.9613145,32.0623299 L53.9613145,32.0623299 Z M82.3735256,15.5856453 L82.3737692,15.6719241 C82.3738222,15.6906963 82.3738835,15.7123968 82.3739527,15.736892 L82.3747783,16.0291968 C82.376702,16.7102274 82.3805819,18.083072 82.3845725,19.4912791 L82.3859826,19.9886928 C82.3892694,21.1477626 82.392484,22.278438 82.3945958,23.0140791 C82.405847,27.03128 80.851117,29.8427559 77.5218715,31.7734401 C74.1941014,33.7032069 67.6882938,37.4760727 64.1854964,39.5073986 C60.6752509,41.5430298 59.3801462,39.9847765 59.3700984,36.4537049 C59.36785,35.6581411 59.3640164,34.2965104 59.3602255,32.9489567 L59.3588091,32.4454169 C59.3555237,31.2773183 59.3524268,30.1755189 59.3506089,29.5286695 L59.3499113,29.2804356 C59.3498091,29.2440833 59.3497143,29.2103354 59.3496272,29.1793337 L59.348949,28.9379682 L67.2234979,24.3714018 L67.2234979,24.3714018 L67.2237387,24.4321158 C67.2253801,24.8460374 67.234948,27.2585906 67.2379292,28.0061838 L67.2388155,28.2268418 C67.2438042,29.9915307 67.7642492,30.1851919 69.0054615,29.4653141 C69.1310231,29.3925499 71.5162025,28.0093258 72.752918,27.2921298 C73.9912495,26.5740164 74.5133807,25.7757988 74.5083217,24.01111 L74.5083217,24.01111 L74.5079483,23.8706832 C74.5078686,23.8417814 74.5077773,23.8088341 74.5076755,23.7722284 L74.5069473,23.5117935 C74.5048558,22.7664496 74.5008968,21.3722785 74.4988053,20.6364536 L74.4980771,20.380334 C74.4979753,20.3445322 74.497884,20.312431 74.4978043,20.2844177 L74.4974308,20.1531292 L82.3735256,15.5856453 L82.3735256,15.5856453 Z M17.5708098,20.0697716 C21.7801111,17.6127296 27.7495238,17.4553445 32.7243507,18.9241777 L32.7243507,18.9241777 L14.4874177,29.5694776 L22.1603092,34.0190992 C22.1603092,34.0190992 33.8717606,27.1828001 35.5396156,26.2092712 C38.8472198,24.278587 42.1382418,24.3834633 45.807073,26.5111258 C46.4472242,26.882357 47.4108238,27.4411641 48.4111115,28.0212487 L48.8412164,28.2706743 C50.7074923,29.3529614 52.5590151,30.4266969 52.5590151,30.4266969 L52.5590151,30.4266969 L44.7341427,34.9942514 C44.7341427,34.9942514 43.9875724,34.5613054 43.1849261,34.0958314 L42.8130065,33.8801456 C42.0094491,33.4141402 41.2560456,32.9772095 41.2432901,32.9697713 C39.6327706,32.0358356 38.6603178,32.0771227 37.4301369,32.7952362 C36.9218476,33.0918682 27.7297094,38.4575697 27.4895473,38.5977341 C24.2850202,40.4682168 20.9042009,40.9421364 17.3940257,38.9065053 C16.2657777,38.2522452 13.6127328,36.713705 10.7790185,35.0703814 L10.1468766,34.7037904 C9.72419435,34.458669 9.29973208,34.212515 8.87786021,33.9678631 L8.24754153,33.6023287 C4.58838925,31.4803122 1.2948729,29.5703245 1.2948729,29.5703245 C1.2948729,29.5703245 4.9573161,27.4324936 8.83283515,25.1702855 L9.80415784,24.6033074 C13.2593381,22.5864582 16.6557557,20.6039086 17.5708098,20.0697716 Z M49.4772883,1.44533832 C52.7849628,-0.485345895 56.0758443,-0.38046957 59.7447457,1.74712242 C60.5835646,2.23359405 64.7039515,4.62308504 69.079221,7.16037951 L69.7717299,7.56197734 L69.7717299,7.56197734 L70.4658274,7.96449634 C75.6708972,10.9830047 80.7866147,13.9496875 80.7866147,13.9496875 L80.7866147,13.9496875 L72.9618126,18.517242 C72.9618126,18.517242 68.7282878,16.0621585 64.3889192,13.5456913 L63.703478,13.1481933 C59.5927743,10.7643321 55.5820553,8.43845037 55.1809629,8.20583845 C53.5689678,7.27105586 52.5979905,7.31318989 51.3678096,8.03123277 C50.139034,8.7485699 47.7693829,10.1317235 47.6446645,10.2044876 C46.4114622,10.9243655 46.3466789,11.4867877 47.958674,12.4216409 C48.2408798,12.5853852 52.2443327,14.9082283 56.3803203,17.3079677 L57.4150015,17.9082996 C61.6629664,20.3730091 65.7350268,22.7356558 65.7350268,22.7356558 L65.7350268,22.7356558 L57.91163,27.3022928 C57.91163,27.3022928 38.606334,16.1067804 36.7896601,15.0533591 C33.5657401,13.1836528 32.7402092,11.2150691 36.2276189,9.17943798 C39.7075806,7.14811201 46.1711596,3.37517563 49.4772883,1.44533832 Z" id="Combined-Shape" fill="#D8182A"></path>
            <path d="M163.21228,47.7946241 C163.051066,48.1236575 162.414487,49.1971561 161.002066,49.1971561 C159.846939,49.1971561 159.713794,48.5610488 159.713794,48.0822584 C159.713794,47.2272755 160.50367,46.6545269 162.060752,46.3791324 C162.387138,46.3218936 162.743392,46.2844543 163.182413,46.2621348 L163.216239,46.2603348 L163.21228,47.7946241 Z M165.478632,48.9077218 L165.478632,44.8761625 C165.478632,42.3428931 164.364168,41.2625547 161.753078,41.2625547 C159.400722,41.2625547 157.905175,42.2474951 157.543163,44.0352193 L157.505738,44.2173757 L159.678528,44.4542509 L159.710195,44.3073739 C159.897319,43.4394312 160.436018,43.101038 161.631088,43.101038 C162.799889,43.101038 163.098207,43.5769485 163.185651,44.2918942 C163.208322,44.401692 163.21372,44.5759285 163.214799,44.6972461 L163.215519,44.7314454 L163.183852,44.7328853 C162.719282,44.7537649 162.273065,44.7886842 161.856356,44.8372833 C158.798329,45.2102358 157.312138,46.3377332 157.312138,48.2849343 C157.312138,49.900942 158.451791,50.9445611 160.215788,50.9445611 C161.502261,50.9445611 162.452632,50.598608 163.206523,49.8566629 L163.255463,49.8080638 L163.26086,49.8800624 C163.28533,50.2328553 163.343627,50.5435291 163.421355,50.7321654 L163.463457,50.8344033 L165.737726,50.8344033 L165.660717,50.6104878 C165.543405,50.2666947 165.478632,49.6619068 165.478632,48.9077218 L165.478632,48.9077218 Z M171.428434,34.2624948 C169.697543,34.2624948 169.422616,33.849223 169.422616,32.3736125 L169.422616,28.9097618 C170.209613,27.7880242 170.563349,27.4532309 171.036555,27.4532309 C171.685369,27.4532309 171.841905,28.3780524 172.510871,28.3780524 C173.120821,28.3780524 173.31766,27.1972761 173.31766,27.098998 C173.31766,26.7058859 172.727142,25.9776204 171.862056,25.9776204 C170.839715,25.9776204 170.347797,26.3908922 169.46256,27.8470631 L169.422616,27.8470631 L169.422616,25.898782 L168.930697,25.898782 L166.314209,26.9614808 L166.314209,27.4143517 L167.770173,28.1422572 L167.770173,32.7469251 C167.770173,33.8686626 167.101567,34.2624948 166.314209,34.2624948 L166.314209,34.9709606 L171.428434,34.9709606 L171.428434,34.2624948 Z M172.367649,41.2812744 C171.033316,41.2812744 170.183704,42.1070979 169.70654,42.800444 L169.643925,42.8900822 L169.643925,41.4457911 L167.275016,41.4457911 L167.275016,50.8344033 L169.773112,50.8344033 L169.777431,45.1288774 C170.38882,43.9941801 171.271898,43.3951521 172.331664,43.3951521 C172.73254,43.3951521 172.840496,43.4041519 172.869284,43.4095518 L173.07332,43.448431 L173.07332,41.350393 L172.939815,41.3215936 C172.75593,41.2812744 172.576004,41.2812744 172.367649,41.2812744 L172.367649,41.2812744 Z M175.655262,45.0194396 L175.66138,44.9787604 C175.848863,43.7684646 176.582962,43.0466791 177.624376,43.0466791 C179.000092,43.0466791 179.359585,44.2576948 179.451347,44.9794804 L179.456745,45.0194396 L175.655262,45.0194396 Z M177.607103,41.2625547 C174.972982,41.2625547 173.132696,43.3289134 173.132696,46.2866143 C173.132696,49.0941981 174.923682,50.9812804 177.58875,50.9812804 C179.61472,50.9812804 181.137976,49.9319014 181.768438,48.101698 L181.83681,47.9058619 L179.723396,47.6243475 L179.678774,47.750345 C179.338713,48.699286 178.719767,49.1607968 177.78487,49.1607968 C176.414551,49.1607968 175.65994,48.301494 175.603084,46.6754065 L175.601644,46.6386872 L181.88503,46.6386872 L181.88503,46.4705706 C181.88503,46.2671747 181.88503,46.0749385 181.867397,45.8773025 C181.732093,42.9872803 180.139025,41.2625547 177.607103,41.2625547 L177.607103,41.2625547 Z M146.971055,45.0194396 L146.976812,44.9787604 C147.164655,43.7684646 147.898395,43.0466791 148.939808,43.0466791 C150.315524,43.0466791 150.675017,44.2576948 150.766779,44.9794804 L150.772177,45.0194396 L146.971055,45.0194396 Z M148.984789,41.2625547 C146.350669,41.2625547 144.510383,43.3289134 144.510383,46.2866143 C144.510383,49.0941981 146.301369,50.9812804 148.966437,50.9812804 C150.992407,50.9812804 152.515663,49.9319014 153.146484,48.101698 L153.214497,47.9058619 L151.101442,47.6243475 L151.056821,47.750345 C150.7164,48.699286 150.097454,49.1607968 149.162917,49.1607968 C147.792238,49.1607968 147.037987,48.301494 146.98113,46.6754065 L146.979691,46.6386872 L153.262717,46.6386872 L153.262717,46.4705706 C153.262717,46.2671747 153.262717,46.0749385 153.245084,45.8773025 C153.109779,42.9872803 151.517072,41.2625547 148.984789,41.2625547 L148.984789,41.2625547 Z M131.841773,12.5624888 L134.693245,19.6471471 L135.36365,19.6471471 L137.841595,14.0377392 L140.006108,19.6471471 L140.634771,19.6471471 L143.684161,12.2863743 C143.9796,11.5779084 144.214584,11.401152 144.824894,11.2830743 L144.824894,10.5746085 L141.598456,10.5746085 L141.598456,11.2830743 C142.917675,11.2830743 142.897164,12.2672947 142.582293,13.0344393 L140.83161,17.2459951 L139.198959,13.1719566 C138.687249,11.8932621 138.825432,11.3817124 140.064404,11.2830743 L140.064404,10.5746085 L135.795833,10.5746085 L135.795833,11.2830743 C136.77931,11.2830743 136.916054,11.5390292 137.48822,13.0344393 L135.540698,17.3831523 L133.63132,12.8177236 C133.237641,11.8734625 133.415768,11.3223136 134.417958,11.2830743 L134.417958,10.5746085 L130.8,10.5746085 L130.8,11.2830743 C131.291559,11.401152 131.468246,11.6175076 131.841773,12.5624888 L131.841773,12.5624888 Z M140.459163,46.99976 L138.678252,41.4457911 L136.80414,41.4457911 L135.112113,46.9940001 L135.079727,46.8896022 L133.407132,41.4457911 L130.895361,41.4457911 L133.905168,50.8344033 L135.835777,50.8344033 L137.567747,45.1238375 L139.347578,50.8344033 L141.276748,50.8344033 L144.227539,41.4457911 L142.095412,41.4457911 L140.459163,46.99976 Z M131.841773,28.1030179 L134.693245,35.1873163 L135.36365,35.1873163 L137.841595,29.5782684 L140.006108,35.1873163 L140.634771,35.1873163 L143.684161,27.8269035 C143.9796,27.1187976 144.214584,26.9420412 144.824894,26.8236035 L144.824894,26.1154977 L141.598456,26.1154977 L141.598456,26.8236035 C142.917675,26.8236035 142.897164,27.8078238 142.582293,28.5749685 L140.83161,32.7865243 L139.198959,28.7128457 C138.687249,27.4341513 138.825432,26.9222416 140.064404,26.8236035 L140.064404,26.1154977 L135.795833,26.1154977 L135.795833,26.8236035 C136.77931,26.8236035 136.916054,27.0795584 137.48822,28.5749685 L135.540698,32.9236815 L133.63132,28.3586128 C133.237641,27.4143517 133.415768,26.8628427 134.417958,26.8236035 L134.417958,26.1154977 L130.8,26.1154977 L130.8,26.8236035 C131.291559,26.9420412 131.468246,27.1580368 131.841773,28.1030179 L131.841773,28.1030179 Z M212.261984,50.8344033 L215.230048,50.8344033 L215.230048,48.0239395 L212.261984,48.0239395 L212.261984,50.8344033 Z M226.895749,32.8455631 C226.226783,33.5536689 225.616473,33.8686626 224.907923,33.8686626 C223.924086,33.8686626 223.532207,33.200156 223.532207,32.5896082 C223.532207,31.7630647 224.259469,31.3692326 225.853256,30.7795644 L226.895749,30.3860923 L226.895749,32.8455631 Z M228.547832,33.0424792 L228.547832,28.0047399 C228.547832,26.5093298 227.544203,25.898782 225.675129,25.898782 C223.098584,25.898782 222.056451,27.2764745 222.056451,28.201296 C222.056451,28.6343673 222.586874,29.6178676 222.705265,29.5595488 L223.86579,29.0080398 C224.37786,28.7718846 223.570711,28.1030179 223.570711,27.6703066 C223.570711,27.2174357 224.317765,26.7451251 225.084611,26.7451251 C225.734864,26.7451251 226.895749,27.1389572 226.895749,28.299934 L226.895749,29.6376672 L224.791331,30.3659327 C222.607026,31.1139977 221.781524,31.8613428 221.781524,33.0817184 C221.781524,34.302094 222.705265,35.1873163 223.984181,35.1873163 C224.948226,35.1873163 225.755016,34.7942041 226.895749,33.7707446 C226.993988,34.6757665 227.485547,35.1873163 228.232961,35.1873163 C228.764823,35.1873163 229.254942,34.9115618 229.826748,34.2624948 L229.648621,33.5536689 C228.980015,33.9867403 228.547832,33.7707446 228.547832,33.0424792 L228.547832,33.0424792 Z M239.809058,32.6878862 L239.809058,28.948641 C239.809058,26.8236035 238.747133,25.898782 236.917642,25.898782 C235.835566,25.898782 234.576442,26.5093298 233.771092,27.5716686 L233.731508,27.5716686 L233.731508,25.898782 L233.239589,25.898782 L230.761645,26.8236035 L230.761645,27.2764745 L232.078705,28.0238195 L232.078705,32.7670847 C232.078705,33.750585 231.606938,34.2225355 230.623101,34.2624948 L230.623101,34.9709606 L235.325295,34.9709606 L235.325295,34.2624948 C234.16477,34.2624948 233.731508,33.7315054 233.731508,32.649007 L233.731508,28.3780524 C234.576442,27.6703066 235.403743,27.2174357 236.309132,27.2174357 C237.586608,27.2174357 238.158414,28.1422572 238.158414,29.3820724 L238.158414,32.649007 C238.158414,33.7113458 237.705,34.2624948 236.564627,34.2624948 L236.564627,34.9709606 L241.206365,34.9709606 L241.206365,34.2624948 C240.086144,34.1440571 239.809058,33.6724666 239.809058,32.6878862 L239.809058,32.6878862 Z M215.831002,27.9453411 C215.831002,27.098998 216.381216,26.6266875 217.306397,26.6266875 C218.388834,26.6266875 219.017496,27.3157137 219.312575,28.8705226 L219.922885,28.8705226 L219.922885,26.7451251 C219.194184,26.1745365 218.310386,25.898782 217.266814,25.898782 C215.575866,25.898782 214.39519,26.9028019 214.39519,28.3391732 C214.39519,28.9097618 214.612181,29.5782684 215.0055,29.9721006 C216.617999,31.5863083 219.214336,31.5467091 219.214336,33.0615588 C219.214336,33.8686626 218.467282,34.4594108 217.424789,34.4594108 C216.244472,34.4594108 215.515771,33.6127077 215.319292,32.0784184 L214.670477,32.0784184 L214.670477,34.5576888 C215.417531,34.9317214 216.578056,35.1873163 217.561893,35.1873163 C219.411175,35.1873163 220.57134,34.2034559 220.57134,32.5896082 C220.57134,31.9405412 220.354708,31.3109138 219.942677,30.8972821 C218.820657,29.7751845 215.831002,29.4216716 215.831002,27.9453411 L215.831002,27.9453411 Z M247.485073,30.8972821 C246.364132,29.7751845 243.374477,29.4216716 243.374477,27.9453411 C243.374477,27.098998 243.924692,26.6266875 244.848433,26.6266875 C245.93051,26.6266875 246.560971,27.3157137 246.856051,28.8705226 L247.464921,28.8705226 L247.464921,26.7451251 C246.737659,26.1745365 245.852062,25.898782 244.810289,25.898782 C243.117902,25.898782 241.937226,26.9028019 241.937226,28.3391732 C241.937226,28.9097618 242.153857,29.5782684 242.547536,29.9721006 C244.159675,31.5863083 246.757811,31.5467091 246.757811,33.0615588 C246.757811,33.8686626 246.009317,34.4594108 244.966825,34.4594108 C243.786148,34.4594108 243.059246,33.6127077 242.862767,32.0784184 L242.213952,32.0784184 L242.213952,34.5576888 C242.960647,34.9317214 244.121531,35.1873163 245.105008,35.1873163 C246.95465,35.1873163 248.114815,34.2034559 248.114815,32.5896082 C248.114815,31.9405412 247.898543,31.3109138 247.485073,30.8972821 L247.485073,30.8972821 Z M148.81206,26.6266875 C149.894497,26.6266875 150.603406,27.4143517 150.759942,28.8114838 L146.669498,28.8114838 C146.846546,27.4733905 147.671687,26.6266875 148.81206,26.6266875 L148.81206,26.6266875 Z M149.167595,35.1873163 C150.661702,35.1873163 151.980562,34.4194516 152.825856,33.0424792 L152.412385,32.6684466 C151.665331,33.3175136 150.878334,33.6127077 149.954232,33.6127077 C148.125102,33.6127077 146.452867,32.1568969 146.551107,29.5199496 L152.825856,29.5199496 C152.825856,28.1224576 151.723627,25.898782 149.187386,25.898782 C146.866337,25.898782 145.075711,27.9453411 145.075711,30.6413272 C145.075711,33.2786344 146.78645,35.1873163 149.167595,35.1873163 L149.167595,35.1873163 Z M192.010921,47.4652307 C191.776657,48.6791264 191.264227,49.1971561 190.298743,49.1971561 C188.730145,49.1971561 188.40088,47.5350693 188.40088,46.1404572 C188.40088,44.147537 189.033141,43.1377572 190.28075,43.1377572 C191.20881,43.1377572 191.750028,43.750105 191.935712,45.0097198 L191.959102,45.1709966 L194.249204,44.9323214 L194.219696,44.7570049 C193.839332,42.5038099 192.420793,41.2625547 190.223893,41.2625547 C187.634034,41.2625547 185.755244,43.2907542 185.755244,46.0853783 C185.755244,49.0707986 187.494412,51 190.186829,51 C192.472972,51 193.912382,49.8228235 194.239128,47.6851863 L194.266477,47.5095098 L192.040429,47.3143937 L192.010921,47.4652307 Z M210.558442,41.4457911 L208.624954,46.8392032 C208.623875,46.8438831 208.504404,47.2114358 208.39105,47.5710686 L208.358663,47.6725865 L208.324837,47.5710686 C208.208245,47.2150357 208.088774,46.8640427 208.078698,46.8388432 L206.202067,41.4457911 L203.590977,41.4457911 L207.034046,50.8344033 L209.260814,50.8344033 L212.723675,41.4457911 L210.558442,41.4457911 Z M184.37485,17.049079 C184.37485,16.2225355 185.103191,15.8287034 186.695899,15.2386752 L187.737672,14.8452031 L187.737672,17.3050339 C187.069426,18.0127797 186.460555,18.3281334 185.752006,18.3281334 C184.768169,18.3281334 184.37485,17.6592668 184.37485,17.049079 L184.37485,17.049079 Z M189.075244,19.6471471 C189.607106,19.6471471 190.099025,19.3710326 190.669391,18.7219656 L190.492703,18.0127797 C189.824097,18.4462111 189.390475,18.2298554 189.390475,17.50195 L189.390475,12.4638507 C189.390475,10.9684406 188.388285,10.3578928 186.519211,10.3578928 C183.942667,10.3578928 182.899094,11.7359453 182.899094,12.6607668 C182.899094,13.0934781 183.430957,14.0769785 183.549348,14.0186596 L184.709513,13.4675106 C185.220143,13.2313554 184.414434,12.5624888 184.414434,12.1297774 C184.414434,11.6765465 185.161487,11.2042359 185.928693,11.2042359 C186.577507,11.2042359 187.737672,11.598068 187.737672,12.7594048 L187.737672,14.0971381 L185.633614,14.8254035 C183.450748,15.5734685 182.623807,16.3204536 182.623807,17.5408292 C182.623807,18.7612048 183.549348,19.6471471 184.826465,19.6471471 C185.79015,19.6471471 186.597299,19.2533149 187.737672,18.2298554 C187.836272,19.1348773 188.32819,19.6471471 189.075244,19.6471471 L189.075244,19.6471471 Z M199.849949,44.8934421 L199.444396,44.8272035 C198.356201,44.652247 197.689035,44.5172497 197.689035,43.9596208 C197.689035,43.3771525 198.222336,43.0823184 199.273106,43.0823184 C200.266299,43.0823184 200.899999,43.452031 201.158014,44.1802964 L201.206234,44.3188936 L203.283303,43.9049019 L203.231844,43.7285054 C202.77771,42.1844963 201.297996,41.2625547 199.273106,41.2625547 C196.94486,41.2625547 195.380221,42.4202916 195.380221,44.1428571 C195.380221,46.2549349 197.264049,46.8096838 199.299735,47.0937181 L199.498374,47.1264775 C200.699202,47.3215936 201.276765,47.4457911 201.276765,48.1376972 C201.276765,49.0610788 200.041391,49.1607968 199.510249,49.1607968 C198.173037,49.1607968 197.31011,48.6848863 197.081604,47.8198236 L197.04058,47.6679066 L194.919969,48.0800984 L194.965671,48.2543349 C195.443555,50.0384592 197.001716,50.9812804 199.473904,50.9812804 C201.948969,50.9812804 203.549594,49.7857443 203.549594,47.9364613 C203.549594,45.7822644 201.67908,45.1897162 199.849949,44.8934421 L199.849949,44.8934421 Z M148.81206,11.0861583 C149.894497,11.0861583 150.603406,11.8734625 150.759942,13.2705946 L146.669498,13.2705946 C146.846546,11.9328613 147.671687,11.0861583 148.81206,11.0861583 L148.81206,11.0861583 Z M149.167595,19.6471471 C150.661702,19.6471471 151.980562,18.8789224 152.825856,17.50195 L152.412385,17.1279174 C151.665331,17.7769845 150.878334,18.0725385 149.954232,18.0725385 C148.125102,18.0725385 146.452867,16.6160077 146.551107,13.9794204 L152.825856,13.9794204 C152.825856,12.5819284 151.723627,10.3578928 149.187386,10.3578928 C146.866337,10.3578928 145.075711,12.4044519 145.075711,15.100798 C145.075711,17.7377452 146.78645,19.6471471 149.167595,19.6471471 L149.167595,19.6471471 Z M192.263178,17.9145017 C192.263178,19.1147177 192.815552,19.6471471 194.11246,19.6471471 C194.939761,19.6471471 195.824999,19.450231 196.690444,19.3116338 L196.690444,18.347573 C196.335269,18.4066119 195.686815,18.4462111 195.293136,18.4462111 C194.132612,18.4462111 193.915981,18.1708166 193.915981,17.2654347 L193.915981,11.5584688 L196.592204,11.5584688 L196.592204,10.5746085 L193.915981,10.5746085 L193.915981,9 L193.247375,9 C192.638504,9.76750465 191.909803,10.6340073 190.789222,11.0267595 L190.789222,11.5584688 L192.263178,11.5584688 L192.263178,17.9145017 Z M177.437252,26.6266875 C178.519329,26.6266875 179.228238,27.4143517 179.384774,28.8114838 L175.29433,28.8114838 C175.471018,27.4733905 176.29652,26.6266875 177.437252,26.6266875 L177.437252,26.6266875 Z M177.792427,35.1873163 C179.286535,35.1873163 180.605394,34.4194516 181.451048,33.0424792 L181.037217,32.6684466 C180.290523,33.3175136 179.503166,33.6127077 178.579424,33.6127077 C176.750294,33.6127077 175.078059,32.1568969 175.176299,29.5199496 L181.451048,29.5199496 C181.451048,28.1224576 180.348819,25.898782 177.812578,25.898782 C175.491529,25.898782 173.700543,27.9453411 173.700543,30.6413272 C173.700543,33.2786344 175.411282,35.1873163 177.792427,35.1873163 L177.792427,35.1873163 Z M199.738395,27.4532309 C200.387209,27.4532309 200.543745,28.3780524 201.212711,28.3780524 C201.822661,28.3780524 202.019501,27.1972761 202.019501,27.098998 C202.019501,26.7058859 201.429342,25.9776204 200.563897,25.9776204 C199.541556,25.9776204 199.049637,26.3908922 198.1644,27.8470631 L198.124456,27.8470631 L198.124456,25.898782 L197.632178,25.898782 L195.01605,26.9614808 L195.01605,27.4143517 L196.472013,28.1422572 L196.472013,32.7469251 C196.472013,33.8686626 195.803048,34.2624948 195.01605,34.2624948 L195.01605,34.9709606 L200.130275,34.9709606 L200.130275,34.2624948 C198.399384,34.2624948 198.124456,33.849223 198.124456,32.3736125 L198.124456,28.9097618 C198.911094,27.7880242 199.264829,27.4532309 199.738395,27.4532309 L199.738395,27.4532309 Z M171.430233,18.7219656 C169.699343,18.7219656 169.424055,18.3083338 169.424055,16.8327233 L169.424055,13.3688726 C170.211053,12.2471351 170.564788,11.9127017 171.036555,11.9127017 C171.685369,11.9127017 171.843344,12.8378832 172.51231,12.8378832 C173.12262,12.8378832 173.31766,11.6567469 173.31766,11.5584688 C173.31766,11.1653567 172.728941,10.4374513 171.863496,10.4374513 C170.839715,10.4374513 170.347797,10.850003 169.46256,12.3065339 L169.424055,12.3065339 L169.424055,10.3578928 L168.932497,10.3578928 L166.316009,11.4205916 L166.316009,11.8734625 L167.771612,12.601368 L167.771612,17.2063959 C167.771612,18.3281334 167.103006,18.7219656 166.316009,18.7219656 L166.316009,19.4300714 L171.430233,19.4300714 L171.430233,18.7219656 Z M200.885245,11.0861583 C201.967682,11.0861583 202.674792,11.8734625 202.833127,13.2705946 L198.740884,13.2705946 C198.917931,11.9328613 199.744873,11.0861583 200.885245,11.0861583 L200.885245,11.0861583 Z M201.23898,19.6471471 C202.734528,19.6471471 204.051948,18.8789224 204.897601,17.50195 L204.48521,17.1279174 C203.736717,17.7769845 202.951519,18.0725385 202.025978,18.0725385 C200.196847,18.0725385 198.524253,16.6160077 198.622492,13.9794204 L204.897601,13.9794204 C204.897601,12.5819284 203.796812,10.3578928 201.259132,10.3578928 C198.937723,10.3578928 197.148896,12.4044519 197.148896,15.100798 C197.148896,17.7377452 198.859635,19.6471471 201.23898,19.6471471 L201.23898,19.6471471 Z M177.437252,11.0861583 C178.519329,11.0861583 179.228238,11.8734625 179.384774,13.2705946 L175.29433,13.2705946 C175.471018,11.9328613 176.29652,11.0861583 177.437252,11.0861583 L177.437252,11.0861583 Z M177.792427,19.6471471 C179.286535,19.6471471 180.605394,18.8789224 181.451048,17.50195 L181.037217,17.1279174 C180.290523,17.7769845 179.503166,18.0725385 178.579424,18.0725385 C176.750294,18.0725385 175.078059,16.6160077 175.176299,13.9794204 L181.451048,13.9794204 C181.451048,12.5819284 180.348819,10.3578928 177.812578,10.3578928 C175.491529,10.3578928 173.700543,12.4044519 173.700543,15.100798 C173.700543,17.7377452 175.411282,19.6471471 177.792427,19.6471471 L177.792427,19.6471471 Z M211.425327,23.4191516 C212.015485,23.4191516 212.487612,22.9472011 212.487612,22.3564529 C212.487612,21.7667847 212.015485,21.2941141 211.425327,21.2941141 C210.835169,21.2941141 210.363042,21.7667847 210.363042,22.3564529 C210.363042,22.9472011 210.835169,23.4191516 211.425327,23.4191516 L211.425327,23.4191516 Z M191.241197,32.8455631 C190.572231,33.5536689 189.96372,33.8686626 189.25481,33.8686626 C188.270974,33.8686626 187.877295,33.200156 187.877295,32.5896082 C187.877295,31.7630647 188.605996,31.3692326 190.198704,30.7795644 L191.241197,30.3860923 L191.241197,32.8455631 Z M189.136419,30.3659327 C186.953913,31.1139977 186.126612,31.8613428 186.126612,33.0817184 C186.126612,34.302094 187.052153,35.1873163 188.32927,35.1873163 C189.293315,35.1873163 190.100464,34.7942041 191.241197,33.7707446 C191.339076,34.6757665 191.830995,35.1873163 192.578049,35.1873163 C193.109911,35.1873163 193.601829,34.9115618 194.172196,34.2624948 L193.995508,33.5536689 C193.326902,33.9867403 192.89328,33.7707446 192.89328,33.0424792 L192.89328,28.0047399 C192.89328,26.5093298 191.89073,25.898782 190.022016,25.898782 C187.445472,25.898782 186.401539,27.2764745 186.401539,28.201296 C186.401539,28.6343673 186.933761,29.6178676 187.052153,29.5595488 L188.212677,29.0080398 C188.722948,28.7718846 187.917238,28.1030179 187.917238,27.6703066 C187.917238,27.2174357 188.664292,26.7451251 189.431498,26.7451251 C190.080312,26.7451251 191.241197,27.1389572 191.241197,28.299934 L191.241197,29.6376672 L189.136419,30.3659327 Z M210.678273,32.8257635 C210.678273,33.8096238 210.008228,34.2624948 209.261174,34.2624948 L209.261174,34.9709606 L213.549896,34.9709606 L213.549896,34.2624948 C212.841347,34.2423352 212.329277,33.7707446 212.329277,32.6878862 L212.329277,25.898782 L211.838798,25.898782 L209.182726,26.8628427 L209.182726,27.3157137 L210.678273,28.0637787 L210.678273,32.8257635 Z M161.693703,19.6471471 C163.503041,19.6471471 164.880557,18.6820064 165.293668,17.1279174 L164.841693,16.8327233 C164.290039,17.698506 163.542985,18.0919782 162.304012,18.0919782 C160.237739,18.0919782 159.097366,16.1238975 159.097366,14.3923322 C159.097366,12.4832903 160.179443,11.2042359 161.811734,11.2042359 C164.073408,11.2042359 163.227754,13.0736785 164.50667,13.0736785 C164.958645,13.0736785 165.253724,12.7198056 165.253724,12.1297774 C165.253724,10.8309234 163.759616,10.3578928 162.145677,10.3578928 C158.802287,10.3578928 157.503579,12.9750405 157.503579,15.0813584 C157.503579,17.1671567 158.762344,19.6471471 161.693703,19.6471471 L161.693703,19.6471471 Z M161.496863,30.7795644 L162.538996,30.3860923 L162.538996,32.8455631 C161.87039,33.5536689 161.26152,33.8686626 160.55297,33.8686626 C159.569493,33.8686626 159.175814,33.200156 159.175814,32.5896082 C159.175814,31.7630647 159.904516,31.3692326 161.496863,30.7795644 L161.496863,30.7795644 Z M159.627789,35.1873163 C160.591474,35.1873163 161.398623,34.7942041 162.538996,33.7707446 C162.637236,34.6757665 163.129514,35.1873163 163.876568,35.1873163 C164.40807,35.1873163 164.899989,34.9115618 165.470355,34.2624948 L165.293668,33.5536689 C164.625061,33.9867403 164.191799,33.7707446 164.191799,33.0424792 L164.191799,28.0047399 C164.191799,26.5093298 163.18961,25.898782 161.320176,25.898782 C158.743631,25.898782 157.700059,27.2764745 157.700059,28.201296 C157.700059,28.6343673 158.231921,29.6178676 158.350312,29.5595488 L159.510837,29.0080398 C160.021108,28.7718846 159.215758,28.1030179 159.215758,27.6703066 C159.215758,27.2174357 159.962812,26.7451251 160.730017,26.7451251 C161.378472,26.7451251 162.538996,27.1389572 162.538996,28.299934 L162.538996,29.6376672 L160.434578,30.3659327 C158.252073,31.1139977 157.424772,31.8613428 157.424772,33.0817184 C157.424772,34.302094 158.350312,35.1873163 159.627789,35.1873163 L159.627789,35.1873163 Z M202.563598,26.5676486 L202.563598,27.098998 L204.039353,27.098998 L204.039353,33.4553909 C204.039353,34.6556069 204.589568,35.1873163 205.888635,35.1873163 C206.714137,35.1873163 207.599374,34.9907602 208.46482,34.8525229 L208.46482,33.8881022 C208.111445,33.947501 207.46263,33.9867403 207.068952,33.9867403 C205.908427,33.9867403 205.691796,33.7113458 205.691796,32.8063239 L205.691796,27.098998 L208.36622,27.098998 L208.36622,26.1154977 L205.691796,26.1154977 L205.691796,24.5408892 L205.02319,24.5408892 C204.41288,25.3080338 203.685978,26.1745365 202.563598,26.5676486 L202.563598,26.5676486 Z" id="Fill-1" fill="#000000"></path>
            <rect id="Rectangle" fill="#000000" x="106.2" y="0" width="1" height="60"></rect>
        </g>
    </g>
</svg>