<?xml version="1.0" encoding="UTF-8"?>
<svg width="110px" height="80px" viewBox="0 0 110 80" version="1.1" xmlns="http://www.w3.org/2000/svg" xmlns:xlink="http://www.w3.org/1999/xlink">
    <title>NWD50-logo</title>
    <g id="Symbols" stroke="none" stroke-width="1" fill="none" fill-rule="evenodd">
        <g id="Combined-Shape">
            <path d="M25.8446476,66.1667699 L27.9921007,67.527292 C28.5114917,67.85853 29.0047445,68.2458525 29.4718591,68.689636 C29.9389737,69.1368072 30.3478161,69.6347933 30.6945452,70.1834061 C31.0432416,70.7342774 31.3178331,71.3353989 31.5223479,71.9889351 C31.7247081,72.6420008 31.8269187,73.3423996 31.8249791,74.0848619 C31.8232649,74.7423503 31.7218975,75.2561455 31.5207553,75.6262474 C31.3216742,75.9947496 31.0529849,76.2390376 30.7164675,76.3558178 C30.3779827,76.4710923 29.9897511,76.4709982 29.5477441,76.3556296 C29.1078919,76.2393199 28.6461174,76.021945 28.1627015,75.7038813 L28.1627015,75.7038813 L25.8234747,74.1748231 L25.8446476,66.1667699 Z M27.2707243,68.7054451 L27.2580768,73.4737656 L28.0012818,73.9580128 C28.3329276,74.1746349 28.6406836,74.3337608 28.9245499,74.4376491 C29.2084162,74.5391848 29.4545273,74.5612987 29.6626959,74.5037085 C29.8729256,74.4473416 30.0353758,74.2973435 30.1561361,74.0599249 C30.2768027,73.8223182 30.3376981,73.4755535 30.3390207,73.0172783 C30.3399465,72.6212043 30.2810185,72.2384928 30.1618509,71.8665088 C30.0427769,71.4948072 29.8836057,71.1497363 29.6823698,70.827438 C29.4811339,70.5080569 29.2437355,70.2104133 28.9722357,69.9409061 C28.7009232,69.6716812 28.4152769,69.4384972 28.1156715,69.2462475 L28.1156715,69.2462475 L27.2707243,68.7054451 Z M11.4056815,57.3870547 L12.9658219,58.3047343 L13.9890521,63.904349 L15.3769989,59.737997 L16.7075167,60.5363557 L18.0419693,66.5210345 L19.1664732,62.0264559 L20.6168144,62.9140229 L18.6958922,69.6195206 L17.4213982,68.8214443 L16.0037532,62.5231245 L14.5408581,67.0359589 L13.3103025,66.2809811 L11.4056815,57.3870547 Z M0.0211728644,50.9158138 L1.96673426,51.9936544 L4.71283604,58.8189436 L4.74553219,53.5530134 L6.17591845,54.3648286 L6.1546519,61.9831126 L4.28488186,60.8859811 L1.46533085,53.8870744 L1.4453759,53.8757822 L1.43029257,59.2316735 L4.4408921e-16,58.4122361 L0.0211728644,50.9158138 Z" fill="#000000"></path>
            <path d="M71.9484194,42.7497733 C71.9484194,42.7497733 71.9484542,42.7621034 71.9485215,42.7859388 L71.9492964,43.0604169 C71.9493903,43.0936957 71.9494912,43.1294384 71.9495988,43.167542 L71.950322,43.4236688 C71.9555123,45.2619166 71.9699589,50.3773851 71.9764193,52.6544459 C71.9914209,58.0107136 69.9185413,61.7592541 65.4814209,64.3324646 C64.495691,64.9040571 59.1923382,67.9795432 53.5617079,71.2448363 L52.7922408,71.6910627 C45.8555256,75.7137769 38.699059,79.8639473 38.699059,79.8639473 L38.699059,79.8639473 L38.6717029,70.2173016 C38.6717029,70.2173016 44.0838733,67.0786943 49.3420397,64.0293923 L50.0417272,63.6236313 C54.5774117,60.9933088 58.811608,58.5378209 59.1209425,58.3584193 C60.7719575,57.4010288 61.4681325,56.3367388 61.4613872,53.9838203 L61.4613872,53.9838203 L61.4607011,53.736943 C61.4584704,52.938881 61.451397,50.4198074 61.4483634,49.3396295 L61.4476142,49.0728906 C61.4475103,49.0358696 61.4474174,49.0027938 61.4473365,48.9740044 L61.4469597,48.8398459 Z M109.831367,20.7808604 L109.83147,20.8170259 C109.831503,20.8289436 109.831545,20.8437376 109.831595,20.8613049 L109.832245,21.0915038 C109.832339,21.1247825 109.83244,21.1605252 109.832547,21.1986288 L109.833271,21.4547552 C109.835801,22.3503105 109.84053,24.0236913 109.845472,25.7677473 L109.847037,26.3200263 C109.851739,27.9789627 109.856444,29.634523 109.859461,30.6854388 C109.874463,36.0417066 107.801489,39.7903412 103.362495,42.3645868 C101.215547,43.6095976 98.0764952,45.4299776 94.8790018,47.2842585 L93.5991007,48.0264955 C90.61572,49.7566109 87.6898732,51.4533675 85.5806618,52.6765315 C80.9003346,55.3907063 79.1735282,53.3130353 79.1601312,48.6049399 C79.157531,47.6849001 79.1533407,46.1970645 79.1489767,44.646156 L79.1474316,44.0969794 C79.1417565,42.079756 79.1360695,40.0563463 79.13344,39.1206415 L79.1325427,38.8013047 C79.1324636,38.7731812 79.1323918,38.7476132 79.1323274,38.7247035 L79.131932,38.5839577 L89.6313306,32.4952024 C89.6313306,32.4952024 89.631416,32.516739 89.6315757,32.5570244 L89.632267,32.7313387 C89.6337541,33.1063129 89.636824,33.8803062 89.640096,34.7048255 L89.6430582,35.4511257 C89.6469811,36.4392905 89.6505988,37.3496638 89.6515258,37.5800497 L89.651754,37.6357891 C89.6584056,39.9887076 90.3523322,40.2469226 92.007282,39.2870854 C92.1746975,39.1900666 95.3549367,37.3457677 97.0038906,36.3895064 C98.6549993,35.4320218 99.3511743,34.3677318 99.344429,32.0148133 L99.344429,32.0148133 L99.3437661,31.7679084 C99.3436608,31.7299038 99.3435443,31.6879969 99.3434176,31.6425288 L99.3425421,31.3297157 C99.3395941,30.279452 99.3339613,28.2964657 99.3313291,27.370614 L99.3305707,27.1038795 C99.3304654,27.0668591 99.3303713,27.0337839 99.3302894,27.004995 L99.3299078,26.8708389 L109.831367,20.7808604 L109.831367,20.7808604 Z M23.4277464,26.7596954 C29.0401481,23.4836395 36.9993651,23.2737927 43.6324675,25.2322369 L43.6324675,25.2322369 L19.316557,39.4259701 L29.547079,45.3587989 C29.547079,45.3587989 43.2002333,37.389074 46.7914893,35.2928065 L47.0669609,35.1320102 C47.1925427,35.0587067 47.2995123,34.9962678 47.3861541,34.9456949 C51.7962931,32.3714493 56.1843224,32.5112844 61.0760973,35.3481678 C61.9979151,35.8827406 63.4227597,36.7090317 64.8689842,37.5477232 L65.3511902,37.8273632 C67.7595724,39.2240279 70.0786868,40.5689291 70.0786868,40.5689291 L70.0786868,40.5689291 L59.6455237,46.6590018 C59.6455237,46.6590018 58.6308617,46.070586 57.5490105,45.4431941 L57.1149325,45.191461 C56.0320082,44.5634433 55.0082243,43.9697081 54.9910535,43.9596951 C52.8436941,42.7144475 51.5470904,42.769497 49.9068492,43.7269816 C49.6018756,43.9049608 46.9522628,45.4515888 44.1007636,47.1160708 L43.4646448,47.4873873 L43.4646448,47.4873873 L42.8271049,47.8595335 C39.7506468,49.6553311 36.8075009,51.3733173 36.6527297,51.4636455 C32.380027,53.9576224 27.8722679,54.5895152 23.1920343,51.8753404 C21.5522126,50.9244236 17.4966107,48.5725162 13.3465712,46.1658288 L12.6731307,45.7752876 C12.448619,45.6450889 12.224198,45.5149427 12.0002343,45.3850618 L11.3300819,44.996427 C6.31972765,42.0908219 1.7264972,39.4270993 1.7264972,39.4270993 C1.7264972,39.4270993 1.72889515,39.4256996 1.73364102,39.4229293 L1.78989076,39.3900954 C2.36132084,39.0565419 6.71133029,36.5173667 11.3906484,33.785967 L12.0773771,33.3851115 C17.0100415,30.5058291 22.1198531,27.5231413 23.4277464,26.7596954 Z M65.9697177,1.92711777 C70.3799504,-0.64712786 74.7677924,-0.50729276 79.6596609,2.32949656 C82.2202659,3.81451521 107.715486,18.5995834 107.715486,18.5995834 L107.715486,18.5995834 L97.2824168,24.689656 C97.2824168,24.689656 91.3949618,21.275434 85.4824457,17.846674 L84.3749865,17.2044411 C79.0960657,14.1431123 74.091075,11.2406356 73.5746172,10.9411179 C71.4252904,9.69474114 70.130654,9.75091985 68.4904128,10.7083104 C68.0676083,10.955136 67.5434982,11.2610838 66.9956689,11.5808685 L66.5815618,11.8225939 C65.1251076,12.6727602 63.6388682,13.540261 63.5262193,13.6059835 C61.8819496,14.5658206 61.7955718,15.3157169 63.9448986,16.5621878 C64.2913736,16.7632231 68.8447411,19.4051326 73.8692439,22.3203974 L74.6074666,22.7487213 C74.7309197,22.82035 74.8545447,22.8920783 74.9782874,22.963875 L75.7217215,23.3952226 C75.9697144,23.5391104 76.2177444,23.6830198 76.4653777,23.826699 L77.2066543,24.2567947 C82.6275969,27.4020768 87.6467024,30.3142077 87.6467024,30.3142077 L87.6467024,30.3142077 L77.2155067,36.4030571 C77.2155067,36.4030571 77.0893787,36.329913 76.85395,36.1933834 L76.6257788,36.0610626 C74.973779,35.1030366 70.0782279,32.2640147 64.8492299,29.2316305 L64.0425304,28.7638119 C63.9077728,28.6856638 63.7728941,28.6074454 63.6379434,28.5291852 L62.018216,27.5898788 C61.8834738,27.5117396 61.7488558,27.4336724 61.614411,27.3557057 L60.8102136,26.8893389 C55.2008788,23.6363971 50.0702175,20.6610614 49.0528801,20.0711455 C44.7543202,17.5782037 43.6536123,14.9534255 48.3034919,12.2392506 C52.9434408,9.53081601 61.5615461,4.50023417 65.9697177,1.92711777 Z" fill="#D8182A"></path>
        </g>
    </g>
</svg>