<?xml version="1.0" encoding="UTF-8"?>
<svg width="151px" height="57px" viewBox="0 0 151 57" version="1.1" xmlns="http://www.w3.org/2000/svg" xmlns:xlink="http://www.w3.org/1999/xlink">
    <title>logo-no-slogan</title>
    <defs>
        <filter id="filter-1">
            <feColorMatrix in="SourceGraphic" type="matrix" values="0 0 0 0 0.784314 0 0 0 0 0.784314 0 0 0 0 0.784314 0 0 0 1.000000 0"></feColorMatrix>
        </filter>
    </defs>
    <g id="V3-Revision" stroke="none" stroke-width="1" fill="none" fill-rule="evenodd">
        <g filter="url(#filter-1)" id="logo-no-slogan">
            <g>
                <polygon id="Path" fill="#1D1D1B" fill-rule="nonzero" points="42.6563732 1 28.5 24.0645161 14.3436268 1 0 1 0 56 14.4185283 56 14.4185283 25.6499657 28.5 47.2422787 42.5814717 25.6499657 42.5814717 56 57 56 57 1"></polygon>
                <path d="M89.9636886,22.4820717 C81.7750018,20.0976096 78.173496,19.2649402 78.173496,16.1992032 C78.173496,14.1175299 80.2206677,12.4521912 84.6182958,12.4521912 C88.9401028,12.4521912 93.603105,14.0418327 97.7732696,17.3346614 L104.369712,6.69920319 C98.9484978,2.61155378 92.0866815,0 83.8221735,0 C71.1600374,0 63.1229929,7.4940239 63.1229929,17.5996016 C63.1229929,27.4023904 70.8946633,31.5278884 78.2872278,33.6474104 C86.0968087,35.9183267 91.1010063,36.5996016 91.1010063,40.2330677 C91.1010063,42.5796813 88.9021922,44.5478088 84.6182958,44.5478088 C78.8558866,44.5478088 72.6764609,41.4442231 68.165101,37.6593625 L61,48.559761 C67.4068892,54.1992032 75.7472184,57 84.5045641,57 C97.3183426,57 106,49.6952191 106,38.5677291 C106.037778,28.5756972 97.9628225,24.7908367 89.9636886,22.4820717 Z" id="Path" fill="#1D1D1B" fill-rule="nonzero"></path>
                <polygon id="Path" fill="#1D1D1B" fill-rule="nonzero" points="125.542021 43.2786548 125.542021 1 111 1 111 56 151 56 151 43.2786548"></polygon>
            </g>
        </g>
    </g>
</svg>