<?xml version="1.0" encoding="UTF-8"?>
<svg width="68px" height="50px" viewBox="0 0 68 50" version="1.1" xmlns="http://www.w3.org/2000/svg" xmlns:xlink="http://www.w3.org/1999/xlink">
    <title>NWD50-logo</title>
    <g id="V3-Mobile" stroke="none" stroke-width="1" fill="none" fill-rule="evenodd">
        <g id="NWD50-Landing-Mobile-Full" transform="translate(-302.000000, -15.000000)">
            <g id="Combined-Shape" transform="translate(302.000000, 15.000000)">
                <path d="M15.9766912,41.3542312 L17.3042077,42.2045575 C17.6252858,42.4115812 17.9302057,42.6536578 18.2189674,42.9310225 C18.5077292,43.2105045 18.7604681,43.5217458 18.9748097,43.8646288 C19.1903675,44.2089234 19.360115,44.5846243 19.4865424,44.9930844 C19.6116377,45.4012505 19.6748224,45.8389998 19.6736235,46.3030387 C19.6725638,46.713969 19.6099003,47.035091 19.4855578,47.2664047 C19.3624895,47.4967185 19.1963907,47.6493985 18.9883617,47.7223861 C18.7791166,47.7944327 18.5391189,47.7943739 18.2658782,47.7222685 C17.9939695,47.6495749 17.7085089,47.5137156 17.40967,47.3149258 L17.40967,47.3149258 L15.9636026,46.3592644 L15.9766912,41.3542312 Z M16.858266,42.9409032 L16.8504475,45.9211035 L17.3098833,46.223758 C17.5149007,46.3591468 17.7051499,46.4586005 17.8806308,46.5235307 C18.0561118,46.5869905 18.2082532,46.6008117 18.3369393,46.5648178 C18.4668995,46.5295885 18.5673232,46.4358397 18.641975,46.2874531 C18.7165689,46.1389489 18.7542134,45.9222209 18.755031,45.6357989 C18.7556033,45.3882527 18.7191751,45.149058 18.6455078,44.916568 C18.5718985,44.6842545 18.4735017,44.4685852 18.3491013,44.2671488 C18.224701,44.0675356 18.0779456,43.8815083 17.9101093,43.7130663 C17.7423889,43.5448007 17.5658076,43.3990608 17.3805969,43.2789047 L17.3805969,43.2789047 L16.858266,42.9409032 Z M7.05078495,35.8669092 L8.01523533,36.440459 L8.64777764,39.9402181 L9.50578114,37.3362482 L10.328283,37.8352223 L11.1532174,41.5756466 L11.8483653,38.7665349 L12.7449398,39.3212643 L11.5574607,43.5122004 L10.7695916,43.0134027 L9.89322923,39.0769528 L8.98889412,41.8974743 L8.22818699,41.4256132 L7.05078495,35.8669092 Z M0.0130886798,31.8223836 L1.21579936,32.496034 L2.91338955,36.7618397 L2.93360172,33.4706334 L3.81784049,33.9780179 L3.8046939,38.7394454 L2.64883606,38.0537382 L0.90584089,33.6794215 L0.893505099,33.6723639 L0.884180863,37.019796 L2.22044605e-16,36.5076476 L0.0130886798,31.8223836 Z" fill="#000000"></path>
                <path d="M44.4772047,26.7186083 C44.4772047,26.7186083 44.4772476,26.7339676 44.4773293,26.7632357 L44.4782534,27.0941469 C44.4813461,28.20157 44.4904658,31.4665467 44.4945137,32.9090287 C44.5037875,36.256696 43.222371,38.5995338 40.4794238,40.2077904 C39.0945141,41.0197115 23.9230546,49.9149671 23.9230546,49.9149671 L23.9230546,49.9149671 L23.9061436,43.8858135 C23.9061436,43.8858135 36.1258162,36.7212643 36.5474917,36.4740121 C37.5681192,35.875643 37.9984819,35.2104617 37.9943121,33.7398877 C37.9943097,33.7388193 37.994292,33.7322583 37.9942603,33.7206643 L37.9932894,33.3693668 C37.9918098,32.8353114 37.9890495,31.8412188 37.9872164,31.1812191 L37.9863873,30.8827368 C37.9862654,30.8388554 37.9861525,30.7982133 37.9860499,30.7612699 L37.9853933,30.5249037 Z M67.8957544,12.9880377 L67.8962368,13.1607455 C67.8963145,13.1885631 67.8964009,13.2194954 67.8964955,13.2533609 L67.8971575,13.4903029 C67.9005432,14.701885 67.9091721,17.7874813 67.9131214,19.1783993 C67.9223951,22.5260666 66.6409207,24.8689633 63.8968153,26.4778668 C61.153926,28.0860057 55.7915634,31.2300606 52.9044091,32.9228322 C50.0111159,34.6191915 48.9436356,33.3206471 48.9353538,30.3780874 C48.9319121,29.1468577 48.923964,26.2886672 48.920104,24.9001526 L48.9192897,24.6072246 C48.9191674,24.5632213 48.9190521,24.5217443 48.9189444,24.4829701 L48.9183918,24.2841655 C48.918316,24.2569065 48.9182488,24.2327025 48.9181905,24.2117297 L48.9179216,24.1149735 L55.4084589,20.3095015 L55.4084589,20.3095015 L55.4090038,20.4484155 C55.411084,20.9787252 55.4185108,22.8718445 55.4205584,23.3903436 L55.4210843,23.5223682 C55.4251962,24.9929422 55.854169,25.1543266 56.8772289,24.5544284 C56.9419121,24.5165304 57.7341238,24.0520504 58.5680521,23.5631059 L58.9022227,23.3671765 C59.2908909,23.139294 59.6687301,22.91776 59.9660415,22.7434415 C60.9867268,22.1450136 61.4170896,21.4798324 61.4129197,20.0092583 L61.4129197,20.0092583 L61.412534,19.8637353 C61.4124522,19.8338464 61.4123587,19.7998439 61.4122548,19.7621872 L61.4115171,19.4960742 C61.4101145,18.9917251 61.4079327,18.213875 61.4062703,17.6220773 L61.4053456,17.2930013 C61.4052053,17.2431018 61.4050729,17.195982 61.4049495,17.1521013 L61.4043287,16.931364 C61.4042469,16.9022783 61.4041768,16.8773509 61.4041196,16.8570413 L61.403943,16.7942743 L67.8957544,12.9880377 L67.8957544,12.9880377 Z M14.4826069,16.7248096 C17.9520916,14.6772747 22.8723348,14.5461204 26.9727981,15.7701481 L26.9727981,15.7701481 L11.9411443,24.6412313 L18.265467,28.3492493 C18.265467,28.3492493 20.6787358,26.9250203 23.2638441,25.3993821 L24.3757337,24.743185 C26.5944154,23.4337999 28.7040946,22.1887482 29.2932589,21.8410593 C32.0195267,20.2321558 34.7321266,20.3195527 37.7561329,22.0926049 C38.2988481,22.410803 39.1236151,22.8943742 39.9732301,23.3925154 L40.3989176,23.642102 C41.8877357,24.5150174 43.32137,25.3555807 43.32137,25.3555807 L43.32137,25.3555807 L36.8717783,29.1618761 C36.8717783,29.1618761 34.017114,27.4881601 33.9944694,27.4748094 C32.6670109,26.6965297 31.8654741,26.7309356 30.8515068,27.3293635 C30.4884137,27.5435977 24.7491702,30.930694 23.0963009,31.9061459 L22.8755291,32.0364355 C22.7515426,32.1096065 22.6756468,32.1543959 22.6580511,32.1647785 C20.0167439,33.723514 17.2301292,34.118447 14.3368939,32.4220877 C13.3647241,31.852118 11.0190432,30.4768184 8.56558761,29.0383205 L7.97533705,28.6922476 C4.52769863,26.6708436 1.06728918,24.6419371 1.06728918,24.6419371 C1.06728918,24.6419371 3.91030873,22.9641143 6.99783188,21.1419955 L7.59777232,20.7879373 L7.59777232,20.7879373 L8.1996322,20.4327464 C11.0062775,18.776389 13.7388558,17.1637417 14.4826069,16.7248096 Z M40.7812801,1.2044486 C43.5076057,-0.404454913 46.2200898,-0.317057975 49.244154,1.45593535 C50.8270735,2.38407201 66.5877552,11.6247396 66.5877552,11.6247396 L66.5877552,11.6247396 L60.1382213,15.431035 C60.1382213,15.431035 56.7553124,13.4475987 53.2370826,11.3848197 L52.5766216,10.9975837 C49.1642395,8.99686411 45.8153485,7.0333674 45.4824906,6.8381987 C44.1538159,6.05921321 43.3534952,6.0943249 42.3395279,6.69269398 C42.0441253,6.86704675 41.668727,7.08860005 41.2825762,7.31649267 L40.9505715,7.51242864 C40.1220518,8.00138464 39.3350026,8.46584169 39.2707537,8.50373967 C38.2542961,9.1036379 38.2008989,9.57232309 39.5295737,10.3513674 C39.7713249,10.4931859 43.3262093,12.5785139 46.8734725,14.65937 L47.5376843,15.0490025 C50.9606063,17.0569188 54.1815979,18.9463798 54.1815979,18.9463798 L54.1815979,18.9463798 L47.7332223,22.7519107 C47.7332223,22.7519107 43.4305515,20.2291885 39.089444,17.6839424 L38.4218532,17.2925256 C34.6436377,15.0773112 31.0024108,12.9424251 30.3235986,12.5444659 C27.666307,10.9863773 26.9858694,9.34589091 29.8603404,7.64953165 C32.7286725,5.95676001 38.0562285,2.81264636 40.7812801,1.2044486 Z" fill="#FFFFFF"></path>
            </g>
        </g>
    </g>
</svg>