<?xml version="1.0" encoding="UTF-8"?>
<svg width="591px" height="78px" viewBox="0 0 591 78" version="1.1" xmlns="http://www.w3.org/2000/svg" xmlns:xlink="http://www.w3.org/1999/xlink">
    <title>Group 39</title>
    <defs>
        <polygon id="path-1" points="0.000307011783 0.777504586 395.350879 0.777504586 395.350879 77 0.000307011783 77"></polygon>
        <polygon id="path-3" points="0 77.2227 590.716 77.2227 590.716 0.9997 0 0.9997"></polygon>
    </defs>
    <g id="Symbols" stroke="none" stroke-width="1" fill="none" fill-rule="evenodd">
        <g id="Footer" transform="translate(-800.000000, -287.000000)">
            <g id="Group-39" transform="translate(800.000000, 287.000000)">
                <g id="Group-3" transform="translate(0.000000, 0.222700)">
                    <mask id="mask-2" fill="white">
                        <use xlink:href="#path-1"></use>
                    </mask>
                    <g id="Clip-2"></g>
                    <path d="M83.4046,41.2287 C83.5136,40.4327 83.1036,39.6047 82.5256,39.0817 C82.2546,38.8367 81.8896,38.6407 81.5296,38.5597 C81.0666,38.4537 80.5826,38.5747 80.1636,38.7807 C78.5366,39.5847 77.5476,42.4707 77.4446,43.1047 C77.3436,43.7337 76.4926,43.8297 74.8856,44.4877 C72.5696,45.4457 69.9086,45.1927 69.0916,44.7547 C68.2306,44.2927 68.4386,42.4287 68.5416,41.3067 C68.6316,40.3347 68.3696,39.7947 67.8366,39.0757 C67.2636,38.3017 66.3666,38.1217 65.9226,38.0627 C65.2896,37.9767 68.3336,33.3807 71.3016,28.1067 C77.5786,16.9647 78.3206,15.3057 78.5116,14.9047 C78.7886,14.3057 78.8226,13.9907 78.6886,13.8157 C78.5546,13.6417 78.2286,13.3537 77.6826,13.0217 C77.1386,12.6967 76.9596,13.1247 76.9596,13.1247 C76.9596,13.1247 72.9096,20.8057 71.8676,22.3327 C70.8246,23.8587 67.2206,30.8427 65.5796,33.4247 C64.7986,34.6547 64.1536,35.9797 63.4976,37.2797 C62.6446,38.9687 61.8176,40.6697 60.9946,42.3737 C60.4166,43.5717 59.8496,44.7767 59.2566,45.9677 C59.1286,46.2227 58.8926,46.4877 58.8975218,46.7877 C58.9026,47.0107 59.5996,48.2907 59.8856,48.6427 C60.0606,48.8657 60.3646,49.0667 60.6936,48.9607 C61.0196,48.8587 61.0056,48.5947 61.4536,47.8137 C61.9026,47.0477 62.3856,46.3597 63.2576,44.9837 C64.1346,43.6077 65.1386,42.3197 65.7106,41.6227 C66.2816,40.9247 65.8006,41.8447 66.7616,43.8507 C68.2996,47.0637 70.0296,47.3567 72.0066,47.5197 C73.9736,47.6817 76.6256,46.5687 77.3216,46.3597 C77.5216,46.2987 77.8016,46.1637 77.9516,46.3757 C78.4306,47.0597 78.4946,48.1797 80.8756,49.2487 C81.3906,49.4687 81.6136,49.0697 81.5916,48.8587 C81.5526,48.4387 80.7556,47.9477 80.3476,47.5777 C79.9446,47.2117 79.5096,46.8247 79.3526,46.3927 C79.2586,46.1377 79.2336,45.8477 79.3006,45.6117 C79.5836,44.6487 83.0776,43.6097 83.4046,41.2287 M81.4426,40.8327 C81.9406,41.7507 79.6986,43.1817 79.3566,42.9137 C79.0806,42.6967 80.8116,40.0307 81.4426,40.8327 M0.0216,41.5797 C0.1406,42.2967 1.0196,44.5007 1.9956,46.7907 L1.9946,46.7907 C2.3086,47.5337 2.1916,47.7087 2.2456,48.2507 L2.2396,48.2737 C3.9116,65.0117 18.6576,80.1457 34.9196,68.3737 C43.4836,62.1737 47.9476,51.1557 53.1786,42.3587 C59.5136,31.7057 66.2896,20.8537 73.4116,10.7107 C75.2406,8.2997 76.5156,6.6967 76.6386,6.5407 C76.9636,6.1197 76.7066,5.8517 76.7066,5.8517 C76.7066,5.8517 75.6626,4.6677 75.3866,4.4657 C75.1126,4.2687 74.1876,4.5507 74.1876,4.5507 C73.4876,4.8237 70.8936,5.4747 68.1866,6.0747 C66.8906,6.3657 65.4236,6.7177 64.2646,6.9557 C59.0856,8.0377 55.1396,8.0557 52.0846,7.8857 C49.4086,7.7297 47.6306,6.6527 47.4046,6.4857 C47.1826,6.3177 46.2356,5.7487 47.2156,7.3727 C49.0836,10.4647 54.1376,10.2447 54.1376,10.2447 C58.1076,10.6487 68.6376,8.5317 69.1456,8.4267 C69.6606,8.3197 69.6106,8.3397 71.2926,7.8687 C72.2876,7.5917 72.3886,7.8377 71.9496,8.4447 C71.5146,9.0507 70.0786,11.5437 68.3346,13.8717 C66.5896,16.2067 58.7706,27.7677 57.4246,30.3907 C54.9576,35.1937 40.6996,57.0987 39.6646,58.4747 C35.0096,64.6457 28.7696,70.2787 22.7086,70.2137 C16.6476,70.1537 13.3706,66.7827 10.3286,62.4397 C7.2896,58.0977 1.7046,43.0957 2.0526,42.1897 C2.9386,39.8827 9.6086,39.5217 11.9686,39.6667 C13.2496,39.7227 13.4886,39.3747 13.6316,39.3007 C13.7756,39.2297 14.2826,38.4187 12.1226,37.9577 C7.2546,36.9237 2.9636,38.6337 1.4806,39.4927 C1.3596,39.5637 1.3596,39.5657 1.2136,39.6657 C1.2136,39.6657 1.1096,39.7337 1.0006,39.8067 C0.0156,40.4627 -0.0514,41.1467 0.0216,41.5797 M3.5026,50.2697 C4.1926,51.8447 4.7496,53.1037 4.8896,53.4707 C9.8156,66.3637 16.2196,70.7987 21.3676,71.9617 C10.7986,70.9027 5.0376,59.8437 3.5026,50.2697 M31.6646,69.4067 C32.9456,68.5287 34.1426,67.6447 35.1106,66.7787 C37.0316,65.0587 40.2616,61.2337 43.2536,57.4237 C40.7296,62.2657 36.6086,66.9327 31.6646,69.4067 M161.9876,42.8257 C161.7656,42.9047 161.4336,42.9257 161.3016,42.6737 C161.1716,42.4287 161.5576,42.2147 161.6666,42.0827 C161.7786,41.9457 161.6986,41.8347 161.5926,41.7007 C161.4856,41.5597 161.9306,41.1837 161.4646,41.3387 C160.9956,41.4967 158.3056,42.0807 156.0366,42.2357 C153.7626,42.3837 152.8506,40.8657 151.8536,40.5207 C151.7536,40.4857 150.6586,40.4307 150.1616,40.4167 C150.1616,40.4167 147.0596,40.2577 146.5066,40.2597 C143.7966,40.2677 140.1436,40.2807 139.3736,40.1377 C139.6976,39.5397 141.1776,37.1697 143.0046,34.2427 C148.5236,25.4017 157.7596,10.6057 158.8026,7.0517 C159.9086,3.2947 158.2346,1.9327 157.9896,1.7567 C157.5266,1.1707 156.8846,0.8537 156.0826,0.8137 C151.1896,0.5777 141.6116,10.6747 141.2036,11.1047 L141.4556,11.3537 L141.6286,11.1857 L148.9186,5.4287 C152.4686,2.6267 155.8026,1.8147 155.8506,1.8027 C155.8806,1.7927 155.9076,1.7857 155.9326,1.7787 C150.5096,4.0997 146.6816,7.8337 142.6276,11.7847 C141.8196,12.5727 141.0006,13.3737 140.1526,14.1757 C134.7856,19.2657 122.2236,37.7887 121.1796,39.6137 C120.1546,41.4027 119.2696,41.5807 118.0426,41.8297 L117.8956,41.8587 C117.7936,41.8797 117.5936,41.8877 117.3176,41.8987 C115.6916,41.9687 110.7416,42.1777 98.5826,46.0047 C86.1106,49.9367 86.3666,55.8027 86.4516,57.7297 C86.6866,63.0307 88.7796,67.9557 92.3426,71.5977 C95.5816,74.9087 99.7196,76.8727 103.6956,76.9877 C103.8316,76.9917 103.9696,76.9937 104.1066,76.9937 C107.3656,76.9937 110.7356,75.8517 114.1276,73.5957 C117.2536,71.5177 119.5876,69.0187 120.7006,67.7137 C124.2026,63.6167 131.9346,51.6797 135.6506,45.9427 C136.7536,44.2417 137.6256,42.8957 137.7166,42.7907 C137.9946,42.5217 138.2106,42.3437 138.7076,42.3637 C138.9676,42.3847 140.3116,42.3457 141.8576,42.3027 C142.6886,42.2797 144.8186,42.1457 146.6126,42.0377 C147.4056,42.0217 148.4506,41.9587 149.2916,41.9007 L149.3006,41.8997 L149.3026,41.8997 C150.0726,41.8457 150.6626,41.7967 150.6626,41.7967 C151.0556,41.8317 150.9516,42.0937 150.7826,42.3117 C150.6136,42.5257 147.8796,46.0047 147.6546,46.1907 C147.4336,46.3767 147.5896,46.8467 147.7486,47.1187 C147.9066,47.3987 148.2986,48.4717 148.5426,48.6957 C148.7856,48.9137 149.0896,48.7037 149.4276,48.2437 C149.7606,47.7857 152.3356,44.4097 152.6986,43.8987 C153.0616,43.3847 153.3866,43.5017 153.9036,43.7577 C154.4186,44.0097 155.4466,44.4347 156.8416,44.5437 C158.2356,44.6507 158.5636,44.5997 160.0176,44.1857 C161.4756,43.7707 162.1996,43.1607 162.2836,42.8877 C162.3736,42.6187 162.2056,42.7437 161.9876,42.8257 M120.8306,44.1807 C120.7976,44.2207 120.7706,44.2557 120.7476,44.2857 C120.7136,44.3327 120.4746,44.6947 120.1066,45.2547 C118.5946,47.5497 115.0546,52.9267 113.9446,54.3017 C113.8136,54.4637 113.7006,54.6007 113.6076,54.7117 C114.5086,53.1067 119.0716,45.1967 119.5856,44.4097 C120.0486,43.6937 120.2326,43.6607 120.4636,43.6607 L120.4986,43.6607 C120.5506,43.6587 120.5996,43.6607 120.6506,43.6587 C121.0456,43.6367 121.0956,43.7207 121.0956,43.7207 C121.1116,43.7507 121.0956,43.8497 120.8306,44.1807 M116.4406,44.2037 C116.4786,44.2007 116.5106,44.2007 116.5406,44.2007 C116.7376,44.2007 116.7876,44.2447 116.7876,44.2447 C116.8256,44.2897 116.8006,44.4157 116.7896,44.4627 C116.7756,44.5287 116.6766,44.6407 116.5736,44.7597 C116.4126,44.9447 114.0986,48.8077 112.0326,52.7147 C110.2986,55.9917 107.8066,60.6237 107.3836,61.2987 C106.8516,62.1447 106.9566,62.4907 107.1546,62.7997 C107.4966,63.2587 108.0576,64.0247 108.3946,64.3797 C108.5636,64.5597 108.7346,64.5987 108.8516,64.5987 C109.1096,64.5977 109.2866,64.4137 109.3086,64.3877 C109.3086,64.3877 112.0576,61.1757 113.1796,59.8507 C114.7616,57.9797 120.8906,48.7007 123.6416,44.5137 C124.5396,43.1447 124.7846,43.1327 125.2326,43.1097 C125.8386,43.0787 133.1156,42.6417 134.3436,42.5707 C134.3896,42.5677 134.7616,42.5377 134.754698,42.6247 C134.7476,42.7087 134.6946,42.8007 134.6306,42.9097 C134.5636,43.0247 134.4966,43.1297 134.4316,43.2447 C134.2876,43.4997 134.1396,43.7527 133.9956,44.0087 C133.9426,44.1017 133.8906,44.1937 133.8416,44.2887 C133.5826,44.7827 131.3776,48.2207 121.9366,61.6177 L121.4946,62.2447 C120.9326,63.0457 120.3366,63.8247 119.7126,64.5787 C119.0726,65.3527 118.4036,66.1017 117.7066,66.8237 C117.0086,67.5477 116.2836,68.2467 115.5326,68.9157 C114.7986,69.5707 114.0376,70.1977 113.2496,70.7887 C112.4956,71.3537 111.7186,71.8877 110.9136,72.3767 C110.1596,72.8347 109.3836,73.2547 108.5796,73.6177 C107.8436,73.9487 107.0866,74.2337 106.3066,74.4417 C105.4886,74.6617 104.6396,74.8017 103.7906,74.7937 C102.8346,74.7827 101.8796,74.5767 100.9596,74.3277 C100.1656,74.1127 99.3876,73.8397 98.6346,73.5117 C97.9306,73.2037 97.2486,72.8477 96.5926,72.4487 C95.9796,72.0737 95.3896,71.6617 94.8256,71.2157 C94.3016,70.8027 93.8006,70.3597 93.3226,69.8937 C92.8876,69.4677 92.4716,69.0207 92.0756,68.5587 C91.7266,68.1487 91.3926,67.7247 91.0756,67.2897 C90.8096,66.9217 90.5546,66.5467 90.3126,66.1627 C90.1256,65.8657 89.9466,65.5647 89.7776,65.2587 C89.6676,65.0597 89.5606,64.8577 89.4606,64.6547 C89.4236,64.5797 89.3876,64.5037 89.3536,64.4277 C85.9826,56.9797 88.8306,54.2697 93.2226,51.2547 C96.1466,49.2507 101.6246,47.3707 105.7756,46.2787 C111.1226,44.8797 116.0516,44.2327 116.4406,44.2037 M137.0436,19.4567 C136.6466,20.2787 125.4066,37.2537 124.3836,38.5777 C124.0546,39.0057 123.7406,39.4977 123.4376,39.9727 C123.0666,40.5537 122.4546,41.5117 122.2236,41.5117 C122.2236,41.5117 122.2056,41.5107 122.1996,41.5077 C122.0456,41.4507 121.9556,41.3677 121.9196,41.2477 C121.8436,41.0037 121.9276,40.4617 122.7616,39.2617 C122.9806,38.9487 123.5076,38.1887 124.2346,37.1417 C127.5386,32.3707 135.2786,21.2017 136.3446,19.9597 C136.7986,19.4317 137.0626,19.1847 137.2076,19.0667 C137.1776,19.1557 137.1286,19.2807 137.0436,19.4567 M126.3876,40.4187 C126.5166,40.0717 128.7916,36.4777 130.1876,34.5747 C131.5466,32.7087 136.5046,25.5937 137.7156,23.8477 C139.0146,21.9667 139.9856,20.1377 140.0736,19.6137 C140.1816,19.0437 139.7086,18.8057 139.4566,18.6767 C139.4226,18.6587 139.4116,18.6467 139.4116,18.6467 C139.4086,18.6407 139.4046,18.6187 139.4036,18.6017 C139.3946,18.5367 139.3836,18.4397 139.3166,18.3237 C139.2066,18.1217 138.8076,17.9097 138.5296,17.7817 C140.4036,15.5817 144.8566,10.9877 147.3396,8.6207 C150.1976,5.8917 154.5786,3.9257 155.8536,3.3887 L155.8976,3.3707 C156.1406,3.2677 156.7106,3.0267 156.9746,3.1507 C157.0146,3.1677 157.0706,3.2067 157.1046,3.3117 C157.1616,3.4997 157.1196,3.7397 157.0806,3.9757 C157.0066,4.4167 156.9216,4.7907 156.8226,5.1167 C156.4816,6.2527 155.9246,7.3547 155.3886,8.4217 L155.1376,8.9227 C154.8736,9.4557 154.5996,9.9837 154.3266,10.5137 C154.0226,11.1017 153.7186,11.6877 153.4266,12.2797 C151.7356,15.7177 137.4556,38.8347 136.9066,39.5117 C136.3696,40.1777 135.9876,40.4537 135.8766,40.5247 C135.2186,40.5487 127.8886,40.8137 126.9466,40.8137 C126.9306,40.8137 126.9156,40.8127 126.9156,40.8127 C126.4506,40.8057 126.3596,40.7217 126.3426,40.6957 C126.3246,40.6697 126.3166,40.6007 126.3876,40.4187 M178.6956,35.3747 C178.5636,35.5717 179.0846,35.8377 179.2856,35.9717 C179.4886,36.1037 179.2266,36.4067 178.7116,36.4347 C178.1976,36.4657 173.1776,37.3347 172.3146,37.4147 C171.4566,37.4897 171.2846,37.8137 171.1156,38.0527 C170.9496,38.2837 163.9666,48.1997 163.7586,48.5377 C163.5586,48.8797 163.5986,49.5767 163.5586,49.8497 C163.5136,50.1247 163.3716,50.7637 163.1546,50.9537 C162.9306,51.1537 162.8756,51.3957 162.6066,52.0097 C162.3436,52.6267 161.7636,52.1197 161.5496,51.8437 C161.3356,51.5677 161.2326,51.1987 161.1246,50.9987 C161.0216,50.7947 160.8626,50.3397 160.8506,49.8797 C160.8436,49.4217 161.3666,48.2437 161.8256,47.3327 C162.2816,46.4327 163.8146,44.2657 164.5496,43.0707 C165.2796,41.8807 167.8296,38.5807 168.1676,38.0597 C168.5066,37.5317 167.8166,37.6277 167.3046,37.6387 C166.7946,37.6457 165.2676,37.7497 164.2286,37.6967 C163.1846,37.6457 162.8956,37.5107 161.6496,37.2867 C160.3996,37.0617 159.7066,36.3517 159.3846,35.8987 C159.0636,35.4507 158.2416,33.4247 158.1006,33.1037 C157.9596,32.7797 158.2246,32.2137 158.5016,32.1197 C158.7766,32.0267 159.2606,32.6687 159.7886,33.5767 C159.9996,33.9357 160.3596,34.3287 160.7686,34.5527 C161.3926,34.8887 161.7156,34.9777 162.1956,35.0707 C162.6786,35.1567 165.9686,35.2817 167.4446,35.3357 C168.9166,35.3917 170.3566,35.1567 170.3566,35.1567 C170.3566,35.1567 171.7416,33.0067 172.7916,31.4887 C173.8416,29.9697 178.7466,23.8437 178.7466,23.8437 C178.7466,23.8437 178.9436,23.6397 179.0896,23.4577 C179.2396,23.2807 179.6506,23.8337 179.7026,24.0157 C179.7586,24.2027 180.3766,25.1617 180.4446,25.4897 C180.5136,25.8247 180.1106,26.1037 179.8826,26.3767 C179.7726,26.5117 178.2716,28.1617 176.8436,30.0007 C175.3806,31.8747 173.9916,33.9387 173.8476,34.1877 C173.5706,34.6697 173.6056,34.7297 173.7526,34.7847 C173.8946,34.8397 174.0846,34.8387 175.3826,34.6627 C176.6836,34.4867 178.1096,34.2357 178.5086,34.3297 C178.9126,34.4257 178.8266,35.1787 178.6956,35.3747 M178.3936,43.6237 C178.5986,43.9787 178.4916,44.3727 178.3576,44.5067 C178.2236,44.6487 177.1146,46.0367 176.8596,46.3497 C176.6036,46.6677 176.1376,47.4137 176.0546,47.7067 C175.9696,47.9937 175.6966,48.6837 175.6686,48.9667 C175.6446,49.2497 175.2256,49.0557 175.1196,48.8977 C175.0156,48.7347 174.8666,48.3287 174.8706,48.1587 C174.8736,47.9857 174.5536,47.8307 174.4066,47.7097 C174.2566,47.5827 174.2266,46.9027 174.2416,46.5997 C174.2566,46.2987 174.4666,45.8807 174.5876,45.5707 C174.7166,45.2637 175.4616,44.1687 175.8296,43.5207 C176.2066,42.8747 176.7826,42.2497 176.7826,42.2497 C177.1246,41.8917 177.3606,42.1357 177.4486,42.3227 C177.5356,42.5057 178.1886,43.2717 178.3936,43.6237 M186.0066,40.0687 C186.6526,40.7387 187.4936,42.8327 187.5566,43.4577 C187.6206,44.0767 187.1066,44.1447 186.8176,43.9207 C186.5276,43.6957 186.6416,43.6547 186.2856,42.8477 C185.9336,42.0397 185.0806,42.7157 184.4056,43.8757 C183.6206,45.2187 184.2016,47.3437 184.1966,47.7097 C184.1906,48.0757 184.2196,48.3287 184.1796,48.5797 C184.1416,48.8427 183.4416,48.9737 183.0096,48.8597 C182.5716,48.7427 181.6216,48.6897 181.1486,48.5737 C180.6756,48.4517 180.7546,47.9417 180.6896,47.6897 C180.6216,47.4307 180.3376,46.7337 180.4546,46.3677 C180.5686,46.0087 181.6006,45.5087 181.9706,45.4427 C182.3346,45.3767 182.3986,43.8067 182.5576,42.9717 C182.7176,42.1327 183.4656,41.1217 183.9206,40.2137 C184.3766,39.3097 185.3576,39.3997 186.0066,40.0687 M182.4316,28.9317 C182.0866,28.5097 182.5146,27.9607 182.9236,28.1127 C183.3396,28.2537 184.1436,29.5477 184.8216,30.5957 C185.5006,31.6447 183.3876,31.7807 182.9746,31.5357 C182.5626,31.2847 182.7446,30.7007 182.8286,29.9797 C182.9116,29.2497 182.4316,28.9317 182.4316,28.9317 M199.6446,44.9537 C199.3486,45.3367 199.2066,45.5747 199.2426,46.1547 C197.9156,46.0987 197.2946,45.8617 197.0496,45.5677 C196.7376,45.1987 196.0726,44.4567 195.7996,44.4287 C195.5366,44.4017 195.0206,44.4707 194.9096,44.0527 C194.7926,43.6347 194.0456,41.6987 192.9446,41.8507 C191.8456,42.0027 191.2576,42.3787 190.3886,43.1217 C189.5256,43.8597 188.5286,45.0157 188.4726,45.7477 C188.4726,45.7477 187.4506,49.0747 190.4586,49.2537 C191.5736,49.3227 194.2526,48.6607 194.7746,48.3767 C195.2956,48.0937 195.8516,47.7257 196.2306,47.7697 C196.6106,47.8077 197.1956,48.3797 198.4886,48.6817 C200.7886,49.2177 201.7816,48.4697 202.3836,48.2357 L202.8366,48.0397 C204.1446,47.4737 205.6356,46.8347 205.8306,46.7457 C206.1046,46.6137 206.4676,46.4617 206.5706,46.7717 C206.6676,47.0867 207.0396,48.4667 207.9966,48.9367 C208.9536,49.3957 210.1036,49.5717 211.1936,49.4507 C212.5056,49.2837 217.3436,48.7377 218.2026,48.2597 C218.7206,47.9717 219.2796,47.6037 219.6626,47.6457 C220.0356,47.6867 220.5916,48.4327 221.9146,48.5597 C223.7066,48.6967 225.6746,49.3367 232.6686,45.7977 L232.6626,45.7947 C233.0776,45.5917 233.4786,45.3677 233.8836,45.1477 C233.4886,49.9487 234.8356,54.0447 239.3976,55.8727 C240.2656,56.2197 243.0676,54.9267 241.8586,54.4427 C237.3216,52.6247 236.3486,48.2077 237.1436,43.1277 C239.0916,41.7237 240.8786,40.0707 242.4706,38.1187 C244.9666,35.0597 251.9986,24.2427 247.3556,20.8377 C246.5676,20.2597 245.1626,20.6437 244.5016,21.4197 C241.1806,25.3187 235.4096,35.1137 234.0896,43.4267 C232.8766,44.1197 231.6126,44.7277 230.3096,45.2597 C230.1536,45.3257 230.0006,45.3887 229.8486,45.4487 C229.5006,45.5847 229.1456,45.7047 228.7916,45.8307 C224.7736,47.1057 221.6706,46.4307 220.4806,45.4537 C220.1116,45.1357 219.4956,44.3397 219.2276,44.3087 C218.9626,44.2807 218.4506,44.3467 218.3336,43.9327 C218.2216,43.5117 217.4746,41.5787 216.3726,41.7297 C215.2746,41.8857 214.6846,42.2617 213.8176,42.9997 C212.9566,43.7387 211.9876,44.8967 211.9016,45.6237 C211.8256,46.2647 212.0536,46.6967 211.6126,46.7377 C211.1716,46.7837 209.2396,46.9007 208.5686,46.5937 C208.1486,46.3997 207.6236,46.2127 208.0266,45.6087 C208.4266,45.0047 208.5506,44.8357 208.4596,44.4457 C208.3656,44.0527 207.7246,43.1417 207.4826,42.9927 C207.2446,42.8417 206.9716,43.0827 206.5986,43.3657 C206.2326,43.6557 205.2196,44.5817 204.8276,44.5817 C204.5096,44.5817 204.3376,44.5987 204.2756,44.1807 C204.2056,43.7667 203.9386,43.3097 203.8216,43.1397 C203.6526,42.8937 203.7606,42.5607 203.5746,42.4657 C203.4286,42.3907 203.1796,42.2507 202.9146,42.4547 C201.4516,43.5827 200.1396,44.3717 199.6446,44.9537 M192.8056,45.7917 C192.1676,46.0267 191.2126,46.3027 190.9666,46.3487 C190.7256,46.3927 190.4996,46.3577 190.8066,46.0027 C191.1996,45.5467 192.1406,44.7357 192.9026,44.5497 C192.9026,44.5497 193.5656,44.3427 193.5546,44.8047 C193.5446,45.2677 193.4446,45.5617 192.8056,45.7917 M216.2326,45.6757 C215.5966,45.9057 214.6436,46.1857 214.3986,46.2277 C214.1526,46.2717 213.9256,46.2337 214.2306,45.8827 C214.6306,45.4297 215.5686,44.6147 216.3276,44.4327 C216.3276,44.4327 216.9896,44.2287 216.9796,44.6877 C216.9736,45.1467 216.8726,45.4397 216.2326,45.6757 M245.7256,23.5667 C247.3386,27.3657 243.4816,34.5237 241.5316,37.0487 C240.3466,38.5807 239.0006,39.8937 237.5516,41.0577 C239.0696,34.6477 242.8916,27.6317 245.7256,23.5667 M394.3136,30.3307 C393.9216,30.3307 393.2936,30.3677 392.1946,30.3097 C387.5046,30.2617 383.6576,30.3267 379.5286,30.3997 C379.5606,30.3327 379.5916,30.2677 379.6236,30.2007 C381.3566,26.8897 383.0846,23.4407 384.1986,19.7127 C384.5476,18.5487 382.5576,17.0297 382.0346,18.4757 C380.6566,22.2877 378.9096,25.9407 377.1496,29.5827 C377.0056,29.8737 376.8536,30.1607 376.7036,30.4477 C375.5426,30.4657 374.3556,30.4847 373.0936,30.4987 C369.5246,30.5407 365.9546,30.5877 362.3846,30.6237 C361.0836,30.6367 348.2306,30.7127 348.8306,29.6227 C349.4576,28.4857 347.3336,28.8767 346.9466,29.6987 C345.0906,33.9417 359.9876,32.3647 361.7956,32.3447 C364.3456,32.3147 367.0306,32.1857 369.7776,32.0407 C370.6596,31.9937 373.2106,31.8977 375.9716,31.8067 C372.4226,38.1847 367.9556,43.3017 364.7946,44.7327 C363.9046,45.1357 363.4046,45.2627 363.4046,45.2627 C362.5296,45.4287 361.6736,45.4737 361.8716,45.1237 C362.1006,44.7177 363.0116,43.3057 362.8616,42.2737 C362.7116,41.2457 361.9296,40.2717 361.6426,40.5617 C361.3596,40.8477 360.9346,42.2007 360.3646,42.6597 C359.7956,43.1277 357.6236,44.3687 356.6416,44.6127 C355.6706,44.8457 354.5776,45.0847 355.2086,44.5937 C355.8396,44.0957 356.2366,43.3517 356.1436,42.7767 C356.0526,42.2067 355.5086,41.4047 355.2716,41.2027 C355.0446,41.0037 354.6446,41.1507 354.3576,41.4927 C354.0706,41.8437 352.9906,43.3667 351.9016,43.8967 C350.8146,44.4157 348.8096,45.0617 348.3206,45.0947 C347.8306,45.1227 347.5776,45.0977 348.0846,44.7747 C348.6026,44.4587 350.1456,42.9567 349.7936,41.4387 C349.4366,39.9177 348.4636,37.6597 347.2166,38.4397 C344.9966,39.8277 344.0616,41.8007 343.9406,42.8227 C343.8616,43.6537 344.0806,44.4607 343.7806,44.5777 C342.7146,44.9917 340.9256,45.3527 339.9686,45.4867 C339.4616,45.5537 337.9046,45.5887 338.2406,44.9847 C338.5816,44.3767 339.2356,43.1977 338.8286,42.3097 C338.4206,41.4217 337.8126,40.7957 337.4986,41.1427 C337.1856,41.4907 336.3356,42.8477 335.3626,43.7087 C334.3896,44.5767 333.7056,45.2727 333.4176,45.4727 C333.1366,45.6757 331.7596,46.2287 332.1256,45.5677 C332.5026,44.9027 334.3766,42.1667 334.1186,41.6827 C333.8496,41.1917 333.0996,39.9617 332.8656,39.8517 C332.6336,39.7357 332.4406,39.8817 332.1516,40.1437 C331.8706,40.4017 331.4126,41.2107 331.0126,41.3807 C330.6126,41.5597 330.1566,41.8747 330.1816,41.4457 C330.2036,41.0167 330.0026,40.5557 329.5746,40.5887 C329.1436,40.6207 328.5506,40.9547 327.9316,41.9837 C327.9126,42.0217 325.9406,44.1397 325.2996,44.9277 C324.6506,45.7087 324.7096,46.1977 324.8776,46.6837 C325.0456,47.1727 325.2546,47.7727 325.3616,48.1117 C325.4676,48.4517 325.6716,48.6537 326.0276,48.7387 C326.3826,48.8277 326.7216,48.6647 326.9706,48.4857 C327.2206,48.3117 328.6726,46.9557 328.8106,46.8347 C328.9426,46.7177 329.1866,46.5267 329.2986,46.7997 C329.3996,47.0837 330.1776,48.6167 330.2966,48.8477 C330.4196,49.0827 330.7436,49.3487 331.1276,49.3597 C331.5106,49.3757 332.6316,48.8457 333.1756,48.4777 C333.7176,48.1057 335.4386,46.7347 335.8336,46.4797 C336.2356,46.2317 336.6596,45.9007 336.7946,46.2537 C336.9246,46.6097 337.2746,47.8897 338.6056,48.0007 C339.9356,48.1077 340.9506,47.8057 342.1906,47.3277 C343.4256,46.8507 344.5626,46.5757 344.5626,46.5757 C344.5626,46.5757 345.7496,47.8847 346.9486,47.8737 C348.4426,47.8637 350.9826,46.1337 351.6206,46.1157 C352.2536,46.0947 352.2256,46.5677 352.3036,46.8977 C352.3036,46.8977 352.6766,48.1317 354.1236,47.8567 C355.9696,47.5027 360.0566,45.1757 360.1416,45.5567 C360.2136,45.9457 360.5646,47.9417 362.0986,47.9247 C363.8846,47.9047 367.3796,47.4507 372.1606,40.6987 C371.0466,43.6367 370.1336,46.6527 369.6096,49.8207 C369.4176,50.9787 371.4566,52.5647 371.7686,51.0657 C372.0716,49.6117 372.4136,48.1847 372.7326,46.7507 C374.1826,41.5187 376.5236,36.6177 378.8916,31.7167 C380.6866,31.6647 382.3536,31.6247 383.4736,31.6137 C387.0886,31.6667 390.6146,31.9177 393.8676,32.6077 C395.7206,32.9307 395.8006,30.3177 394.3136,30.3307 M346.0926,43.0867 C345.6966,43.0197 347.2816,40.3067 347.9776,41.1147 C348.5546,41.7827 346.4856,43.1567 346.0926,43.0867 M319.6906,40.0217 C318.1276,41.2967 317.6136,43.9307 317.8306,44.7927 C316.6966,45.3307 315.3006,46.0307 313.9256,46.1107 C312.5456,46.2027 311.1796,46.3997 311.5246,45.4317 C311.8766,44.4597 312.6706,43.0167 312.6156,42.5217 C312.5616,42.0237 311.8456,41.3617 311.6816,40.9827 C311.5156,40.6087 310.6696,40.4817 310.5296,40.9067 C310.3896,41.3327 309.8676,42.6267 307.3076,44.1607 C306.2166,44.8077 305.0896,45.5347 305.0896,45.5347 C305.0896,45.5347 304.3366,45.8297 304.8796,44.8167 C305.4166,43.8007 306.3596,42.2807 306.1126,41.7097 C305.9676,41.3807 305.3876,40.6737 305.0106,40.2477 C304.6996,39.8937 304.3576,40.0367 304.2256,40.0707 C299.2076,41.3237 296.0686,39.2817 295.5766,38.8897 C295.1886,38.5777 295.2486,38.2997 294.8916,38.1937 C294.7186,38.1557 294.1796,38.1307 294.3126,38.4587 C294.4796,38.8747 294.7626,39.8877 295.2996,40.5307 C295.5146,40.7827 296.4426,41.3737 296.4216,41.8347 C296.4016,42.2957 296.0096,43.2657 295.4976,43.9307 C294.9816,44.6037 294.0606,45.6327 293.5396,46.0657 C293.0196,46.5077 292.3636,46.8767 292.2836,46.3827 C292.1916,45.8107 292.0346,42.8997 291.8106,42.7387 C291.5916,42.5777 290.7536,42.6477 290.2016,43.5467 C289.6476,44.4557 288.8576,46.9967 289.1196,47.9817 C289.3846,48.9667 290.2356,50.7517 290.9406,50.7157 C292.1806,50.6517 293.1846,49.9497 293.8436,49.4337 C294.4816,48.9367 297.8636,45.9567 298.2116,43.8757 C298.3026,43.3457 298.0916,42.4427 298.0846,42.2877 C298.0166,41.8997 298.2576,42.1137 298.3636,42.1837 C298.7206,42.4147 300.8436,42.9317 302.6836,42.6207 C302.9336,42.5717 302.8426,42.9287 302.3176,43.9797 C301.8216,44.9717 301.9006,46.2317 302.0736,46.7907 C302.2706,47.4287 302.5566,48.1497 303.0946,48.5757 C304.1716,49.3427 305.8836,48.5407 309.6296,46.0997 C310.2096,45.7227 310.0296,48.2397 312.5496,48.4577 C316.0126,48.7597 318.4836,47.1087 318.4836,47.1087 C318.4836,47.1087 319.5556,49.3367 321.6216,49.3367 C323.5626,49.3367 323.1966,48.1307 323.1496,47.8617 C323.1016,47.5927 322.8196,46.7497 322.0676,46.7567 C321.4566,46.7767 319.7796,47.0257 320.1796,46.3587 C320.5786,45.6957 324.3386,44.7237 324.2316,42.6207 C324.1176,40.5147 322.4686,37.7507 319.6906,40.0217 M320.8296,43.3387 C320.6546,43.0377 321.9836,40.6727 322.5106,41.4767 C322.9096,42.2287 320.9766,43.5927 320.8296,43.3387 M305.2956,7.4587 C307.4866,4.4017 308.2676,3.2727 308.2836,3.2497 C308.8416,2.4477 308.4726,2.1927 308.4726,2.1927 C308.4726,2.1927 308.0036,1.6997 307.6116,1.2617 C307.1256,0.7087 306.8276,0.6437 306.5276,0.9937 C306.5276,0.9937 304.3926,3.4827 303.3226,4.8527 C302.3836,6.0547 302.1556,6.2247 298.8826,10.5257 C295.6066,14.8307 287.9096,20.4527 285.4856,22.4387 C283.0606,24.4277 278.3556,27.3557 276.3216,27.2307 C274.2966,27.1137 275.9876,14.8137 276.3306,13.4907 C276.6766,12.1697 274.8586,10.9117 274.2416,10.3427 C273.6306,9.7767 272.5916,11.9667 272.0196,13.2587 C271.0136,15.5257 270.0516,18.2347 268.7316,20.7567 C268.1336,21.9007 267.5146,23.0167 266.8906,24.0757 C267.5906,22.1267 268.2786,20.1637 269.2896,18.4457 C269.8026,17.5727 266.0536,16.2707 265.8766,17.5277 C264.8666,24.6727 261.6726,33.2857 256.0236,38.1067 C255.6506,38.4267 255.8636,38.7707 256.3186,39.0237 C256.3186,39.0237 256.3566,39.0487 256.3826,39.0817 L256.3826,39.0817 C256.6396,39.4137 256.9716,39.8217 257.1946,40.0087 C257.5926,40.3327 258.0466,40.2887 258.7206,39.5057 C259.3976,38.7197 260.9336,37.1667 264.4886,32.0657 C268.9836,25.6227 269.3536,24.3097 271.9736,17.8347 C274.5936,11.3627 273.1256,19.3457 273.2596,23.0637 C273.3546,25.6167 274.4276,28.0527 276.2276,29.0397 C279.5376,34.9617 289.9506,23.5117 292.3096,20.8147 C293.7146,19.2087 295.1616,17.5857 296.6126,15.9467 L297.2566,15.3637 C293.2576,21.6177 289.4156,27.9557 286.3006,34.8897 C285.4076,36.8747 284.5946,38.8737 283.8176,40.8787 C278.6696,51.1167 274.9346,61.9187 274.0716,73.8787 C274.0196,74.5857 274.4326,74.6897 274.4046,75.4427 C274.3946,75.7067 274.3286,75.8097 274.2566,76.1707 C273.9256,77.8207 277.2696,76.7187 277.3746,75.3847 C278.6466,59.2057 284.3386,41.3747 292.7066,25.6057 C296.7446,19.2947 301.1436,13.2507 305.2956,7.4587 M277.9146,29.4967 C278.2996,29.5087 278.7056,29.4667 279.1306,29.3577 C282.3496,28.5427 291.2366,20.7837 292.7146,19.4797 C286.9416,25.8297 281.1686,30.6657 277.9146,29.4967 M301.0756,11.8437 C301.4796,11.3907 301.9626,10.9087 302.5716,10.2817 C299.5196,14.9047 296.4306,19.5157 293.4646,24.1797 C295.8126,19.8727 298.3626,15.7407 301.0756,11.8437 M275.4796,70.2367 C275.9626,60.8477 278.9326,51.5027 283.2356,42.4367 C279.8546,51.4947 277.4926,60.7547 275.4796,70.2367" id="Fill-1" fill="#FEFEFE" mask="url(#mask-2)"></path>
                </g>
                <path d="M448.8421,31.3459 C448.8421,30.4419 449.1491,30.1879 449.8831,30.1879 L452.1001,30.1879 C452.8331,30.1879 453.1421,30.4419 453.1421,31.3459 L453.1421,43.9639 C453.1421,46.3219 454.7331,49.7109 458.5661,49.7109 L466.4201,49.7109 L466.4201,45.8479 L459.9811,45.8479 C458.2121,45.8479 457.8021,44.7479 457.8021,43.6329 L457.8021,29.5149 C457.8021,27.4559 456.8791,26.4789 454.9101,26.4789 L447.0201,26.4789 C444.9431,26.4789 444.1811,27.6609 444.1811,29.4709 L444.1811,43.5309 C444.1811,44.9719 443.7081,45.8529 441.8611,45.8529 L433.8491,45.8529 C432.3891,45.8529 431.6121,45.2119 431.6121,43.5439 L431.6121,21.8039 L435.5691,21.8039 L435.5691,41.1939 L440.2281,41.1939 L440.2281,25.4409 C440.2281,23.4289 441.7641,21.8219 443.7951,21.8219 L458.2281,21.8219 C460.2171,21.8219 461.7571,23.5469 461.7571,25.2609 L461.7571,41.1919 L466.4171,41.1919 L466.4171,23.8409 C466.4171,20.8259 464.2601,18.1069 460.9971,18.1069 L426.9611,18.1069 L426.9611,43.8009 C426.9611,46.4609 428.5511,49.7009 432.5591,49.7009 L443.2861,49.7009 C446.6091,49.7009 448.8391,47.2059 448.8391,43.7889 C448.8391,40.2709 448.8421,31.3459 448.8421,31.3459" id="Fill-4" fill="#FEFEFE"></path>
                <path d="M476.0188,49.7106 L476.9278,49.7106 L476.9278,46.5536 C476.9278,45.3266 476.9138,44.4306 476.8578,43.4896 L476.8898,43.4786 C477.2588,44.2856 477.7568,45.1336 478.2658,45.9646 L480.6098,49.7106 L481.5898,49.7106 L481.5898,42.3016 L480.6838,42.3016 L480.6838,45.3916 C480.6838,46.5436 480.7008,47.4476 480.7868,48.4376 L480.7628,48.4496 C480.4138,47.6826 479.9818,46.9016 479.4438,46.0346 L477.0808,42.3016 L476.0188,42.3016 L476.0188,49.7106" id="Fill-6" fill="#FEFEFE"></path>
                <path d="M487.4959,47.2336 C487.5169,47.1186 487.5309,46.9726 487.5309,46.7706 C487.5309,45.7886 487.0709,44.2686 485.3299,44.2686 C483.7739,44.2686 482.8289,45.5296 482.8289,47.1366 C482.8289,48.7266 483.8089,49.8116 485.4469,49.8116 C486.2929,49.8116 486.8839,49.6286 487.2269,49.4746 L487.0589,48.7836 C486.6959,48.9296 486.2729,49.0536 485.5799,49.0536 C484.6109,49.0536 483.7819,48.5186 483.7619,47.2246 L487.4959,47.2336 L487.4959,47.2336 Z M483.7739,46.5256 C483.8509,45.8546 484.2699,44.9656 485.2539,44.9656 C486.3359,44.9656 486.5949,45.9196 486.5859,46.5256 L483.7739,46.5256 Z" id="Fill-8" fill="#FEFEFE"></path>
                <path d="M489.1155,44.3981 L489.8255,47.0851 C489.9795,47.6771 490.1135,48.2311 490.2215,48.7811 L490.2485,48.7811 C490.3635,48.2441 490.5415,47.6681 490.7225,47.0931 L491.5875,44.3981 L492.4085,44.3981 L493.2325,47.0461 C493.4185,47.6741 493.5765,48.2371 493.7015,48.7811 L493.7265,48.7811 C493.8235,48.2411 493.9655,47.6811 494.1365,47.0531 L494.8935,44.3981 L495.8535,44.3981 L494.1385,49.7101 L493.2525,49.7101 L492.4455,47.1811 C492.2555,46.5861 492.1045,46.0541 491.9775,45.4301 L491.9545,45.4301 C491.8215,46.0721 491.6555,46.6221 491.4685,47.1881 L490.6185,49.7101 L489.7245,49.7101 L488.1215,44.3981 L489.1155,44.3981" id="Fill-10" fill="#FEFEFE"></path>
                <path d="M500.0008,49.7106 L498.1258,42.3016 L499.1478,42.3016 L500.0278,46.0456 C500.2408,46.9726 500.4388,47.8926 500.5708,48.6116 L500.5958,48.6116 C500.7158,47.8726 500.9488,46.9886 501.1948,46.0356 L502.1878,42.3016 L503.1888,42.3016 L504.0908,46.0526 C504.2948,46.9396 504.4938,47.8146 504.6088,48.5946 L504.6338,48.5946 C504.7808,47.7836 504.9828,46.9556 505.2168,46.0326 L506.1918,42.3016 L507.1828,42.3016 L505.0808,49.7106 L504.0728,49.7106 L503.1428,45.8686 C502.9088,44.9126 502.7548,44.1936 502.6548,43.4416 L502.6338,43.4416 C502.5108,44.1866 502.3378,44.9086 502.0648,45.8656 L501.0188,49.7106 L500.0008,49.7106" id="Fill-12" fill="#FEFEFE"></path>
                <path d="M509.8723,49.8332 C511.1413,49.8332 512.5083,48.9682 512.5083,47.0052 C512.5083,45.3902 511.4743,44.2772 509.9443,44.2772 C508.4743,44.2772 507.3033,45.3212 507.3033,47.0952 C507.3033,48.7792 508.4193,49.8332 509.8613,49.8332 L509.8723,49.8332 L509.8723,49.8332 Z M509.8783,49.1002 C508.9533,49.1002 508.2853,48.2262 508.2853,47.0652 C508.2853,46.0642 508.7773,45.0112 509.9073,45.0112 C511.0503,45.0112 511.5023,46.1422 511.5023,47.0392 C511.5023,48.2372 510.8123,49.1002 509.8913,49.1002 L509.8783,49.1002 Z" id="Fill-14" fill="#FEFEFE"></path>
                <path d="M513.7351,46.0558 C513.7351,45.4268 513.7171,44.8918 513.6891,44.3978 L514.5451,44.3978 L514.5821,45.4428 L514.6161,45.4428 C514.8631,44.7268 515.4501,44.2778 516.0971,44.2778 C516.2011,44.2778 516.2791,44.2848 516.3671,44.3008 L516.3671,45.2248 C516.2571,45.2028 516.1571,45.1958 516.0231,45.1958 C515.3431,45.1958 514.8611,45.7068 514.7311,46.4268 C514.7081,46.5608 514.6931,46.7198 514.6931,46.8778 L514.6931,49.7108 L513.7211,49.7108 L513.7351,46.0558" id="Fill-16" fill="#FEFEFE"></path>
                <mask id="mask-4" fill="white">
                    <use xlink:href="#path-3"></use>
                </mask>
                <g id="Clip-19"></g>
                <polygon id="Fill-18" fill="#FEFEFE" mask="url(#mask-4)" points="517.366 49.7107 518.334 49.7107 518.334 41.9097 517.366 41.9097"></polygon>
                <path d="M523.5735,41.9094 L523.5735,45.0764 L523.5525,45.0764 C523.3145,44.6544 522.7665,44.2764 521.9495,44.2764 C520.6565,44.2764 519.5535,45.3524 519.5625,47.1314 C519.5625,48.7454 520.5545,49.8334 521.8445,49.8334 C522.7095,49.8334 523.3485,49.3904 523.6455,48.7964 L523.6715,48.7964 L523.7225,49.7104 L524.5885,49.7104 C524.5615,49.3464 524.5445,48.8114 524.5445,48.3374 L524.5445,41.9094 L523.5735,41.9094 L523.5735,41.9094 Z M523.5735,47.4774 C523.5735,47.6284 523.5625,47.7644 523.5285,47.8924 C523.3485,48.6164 522.7645,49.0504 522.1175,49.0504 C521.0815,49.0504 520.5435,48.1564 520.5435,47.0784 C520.5435,45.9134 521.1395,45.0364 522.1395,45.0364 C522.8655,45.0364 523.3865,45.5384 523.5335,46.1464 C523.5645,46.2734 523.5735,46.4324 523.5735,46.5594 L523.5735,47.4774 Z" id="Fill-20" fill="#FEFEFE" mask="url(#mask-4)"></path>
                <path d="M528.5139,49.6994 C528.9989,49.7454 529.5689,49.7724 530.2549,49.7724 C531.6889,49.7724 532.8339,49.3934 533.5319,48.7024 C534.2199,48.0204 534.6019,47.0374 534.6019,45.8224 C534.6019,44.6274 534.2139,43.7604 533.5499,43.1604 C532.9019,42.5544 531.9229,42.2414 530.5519,42.2414 C529.7999,42.2414 529.1019,42.3034 528.5139,42.4014 L528.5139,49.6994 L528.5139,49.6994 Z M529.4839,43.1094 C529.7389,43.0574 530.1059,43.0124 530.5989,43.0124 C532.6079,43.0124 533.5959,44.0914 533.5829,45.8564 C533.5829,47.8554 532.4809,48.9944 530.4419,48.9894164 C530.0769,48.9894164 529.7259,48.9834 529.4839,48.9454 L529.4839,43.1094 Z" id="Fill-21" fill="#FEFEFE" mask="url(#mask-4)"></path>
                <path d="M540.155,47.2336 C540.176,47.1186 540.188,46.9726 540.188,46.7706 C540.188,45.7886 539.728,44.2686 537.989,44.2686 C536.433,44.2686 535.487,45.5296 535.487,47.1366 C535.487,48.7266 536.467,49.8116 538.106,49.8116 C538.951,49.8116 539.545,49.6286 539.886,49.4746 L539.715,48.7836 C539.354,48.9296 538.931,49.0536 538.238,49.0536 C537.269,49.0536 536.441,48.5186 536.422,47.2246 L540.155,47.2336 L540.155,47.2336 Z M536.433,46.5256 C536.509,45.8546 536.927,44.9656 537.913,44.9656 C538.997,44.9656 539.254,45.9196 539.244,46.5256 L536.433,46.5256 Z" id="Fill-22" fill="#FEFEFE" mask="url(#mask-4)"></path>
                <path d="M541.7522,44.3981 L542.7912,47.3721 C542.9692,47.8631 543.1072,48.3031 543.2252,48.7441 L543.2522,48.7441 C543.3762,48.3021 543.5272,47.8601 543.6972,47.3731 L544.7322,44.3981 L545.7542,44.3981 L543.6632,49.7101 L542.7312,49.7101 L540.7112,44.3981 L541.7522,44.3981" id="Fill-23" fill="#FEFEFE" mask="url(#mask-4)"></path>
                <path d="M550.8279,47.2336 C550.8469,47.1186 550.8609,46.9726 550.8609,46.7706 C550.8609,45.7886 550.4009,44.2686 548.6639,44.2686 C547.1039,44.2686 546.1619,45.5296 546.1619,47.1366 C546.1619,48.7266 547.1409,49.8116 548.7799,49.8116 C549.6229,49.8116 550.2159,49.6286 550.5589,49.4746 L550.3879,48.7836 C550.0249,48.9296 549.6019,49.0536 548.9129,49.0536 C547.9429,49.0536 547.1139,48.5186 547.0929,47.2246 L550.8279,47.2336 L550.8279,47.2336 Z M547.1039,46.5256 C547.1819,45.8546 547.6009,44.9656 548.5859,44.9656 C549.6679,44.9656 549.9269,45.9196 549.9149,46.5256 L547.1039,46.5256 Z" id="Fill-24" fill="#FEFEFE" mask="url(#mask-4)"></path>
                <polygon id="Fill-25" fill="#FEFEFE" mask="url(#mask-4)" points="552.053 49.7107 553.025 49.7107 553.025 41.9097 552.053 41.9097"></polygon>
                <path d="M556.8215,49.8332 C558.0885,49.8332 559.4535,48.9682 559.4535,47.0052 C559.4535,45.3902 558.4235,44.2772 556.8945,44.2772 C555.4215,44.2772 554.2525,45.3212 554.2525,47.0952 C554.2525,48.7792 555.3665,49.8332 556.8075,49.8332 L556.8215,49.8332 L556.8215,49.8332 Z M556.8265,49.1002 C555.8995,49.1002 555.2335,48.2262 555.2335,47.0652 C555.2335,46.0642 555.7235,45.0112 556.8555,45.0112 C557.9985,45.0112 558.4515,46.1422 558.4515,47.0392 C558.4515,48.2372 557.7605,49.1002 556.8365,49.1002 L556.8265,49.1002 Z" id="Fill-26" fill="#FEFEFE" mask="url(#mask-4)"></path>
                <path d="M560.6707,51.8967 L561.6397,51.8967 L561.6397,49.0017 L561.6637,49.0017 C561.9797,49.5277 562.5877,49.8347 563.2987,49.8347 C564.5407,49.8347 565.7137,48.8937 565.7137,46.9747 C565.7137,45.3577 564.7447,44.2767 563.4587,44.2767 C562.5947,44.2767 561.9577,44.6537 561.5727,45.3007 L561.5527,45.3007 L561.4967,44.3977 L560.6247,44.3977 C560.6507,44.9007 560.6707,45.4527 560.6707,46.1327 L560.6707,51.8967 L560.6707,51.8967 Z M561.6397,46.6337 C561.6397,46.5057 561.6707,46.3657 561.6997,46.2417 C561.8827,45.5167 562.5027,45.0497 563.1597,45.0497 C564.1797,45.0497 564.7327,45.9607 564.7327,47.0187 C564.7327,48.2347 564.1447,49.0747 563.1217,49.0747 C562.4377,49.0747 561.8537,48.6177 561.6817,47.9417 C561.6547,47.8197 561.6397,47.6867 561.6397,47.5517 L561.6397,46.6337 Z" id="Fill-27" fill="#FEFEFE" mask="url(#mask-4)"></path>
                <path d="M566.9373,45.839 C566.9373,45.281 566.9183,44.84 566.8923,44.398 L567.7423,44.398 L567.7933,45.252 L567.8193,45.252 C568.1153,44.748 568.6103,44.277 569.4963,44.277 C570.2153,44.277 570.7663,44.714 570.9943,45.339 L571.0163,45.339 C571.1893,45.038 571.3963,44.81 571.6213,44.65 C571.9413,44.408 572.2863,44.277 572.7873,44.277 C573.4993,44.277 574.5423,44.737 574.5423,46.582 L574.5423,49.711 L573.5893,49.711 L573.5893,46.708 C573.5893,45.682 573.2113,45.074 572.4413,45.074 C571.8903,45.074 571.4663,45.476 571.2963,45.941 C571.2513,46.082 571.2183,46.253 571.2183,46.424 L571.2183,49.711 L570.2623,49.711 L570.2623,46.526 C570.2623,45.682 569.8903,45.074 569.1623,45.074 C568.5623,45.074 568.1243,45.552 567.9633,46.036 C567.9173,46.176 567.8913,46.345 567.8913,46.51 L567.8913,49.711 L566.9373,49.711 L566.9373,45.839" id="Fill-28" fill="#FEFEFE" mask="url(#mask-4)"></path>
                <path d="M580.3992,47.2336 C580.4202,47.1186 580.4302,46.9726 580.4302,46.7706 C580.4302,45.7886 579.9762,44.2686 578.2372,44.2686 C576.6772,44.2686 575.7322,45.5296 575.7322,47.1366 C575.7322,48.7266 576.7142,49.8116 578.3502,49.8116 C579.1962,49.8116 579.7892,49.6286 580.1322,49.4746 L579.9602,48.7836 C579.5982,48.9296 579.1772,49.0536 578.4832,49.0536 C577.5152,49.0536 576.6872,48.5186 576.6672,47.2246 L580.3992,47.2336 L580.3992,47.2336 Z M576.6772,46.5256 C576.7532,45.8546 577.1762,44.9656 578.1592,44.9656 C579.2412,44.9656 579.5002,45.9196 579.4892,46.5256 L576.6772,46.5256 Z" id="Fill-29" fill="#FEFEFE" mask="url(#mask-4)"></path>
                <path d="M581.6267,45.839 C581.6267,45.281 581.6097,44.84 581.5837,44.398 L582.4437,44.398 L582.4977,45.268 L582.5257,45.268 C582.7887,44.771 583.4087,44.277 584.2917,44.277 C585.0277,44.277 586.1697,44.718 586.1697,46.54 L586.1697,49.711 L585.1987,49.711 L585.1987,46.648 C585.1987,45.792 584.8747,45.074 583.9687,45.074 C583.3307,45.074 582.8377,45.524 582.6677,46.064 C582.6247,46.179 582.5977,46.352 582.5977,46.51 L582.5977,49.711 L581.6267,49.711 L581.6267,45.839" id="Fill-30" fill="#FEFEFE" mask="url(#mask-4)"></path>
                <path d="M588.8733,43.1213 L588.8733,44.3983 L590.2593,44.3983 L590.2593,45.1363 L588.8733,45.1363 L588.8733,47.9803 C588.8733,48.6403 589.0643,49.0143 589.6043,49.0143 C589.8613,49.0143 590.0173,48.9893 590.1633,48.9433 L590.2073,49.6863 C590.0193,49.7603 589.7193,49.8213 589.3393,49.8213 C588.8953,49.8213 588.5243,49.6743 588.2923,49.4103 C588.0253,49.1143 587.9183,48.6463 587.9183,48.0223 L587.9183,45.1363 L587.0953,45.1363 L587.0953,44.3983 L587.9183,44.3983 L587.9183,43.4133 L588.8733,43.1213" id="Fill-31" fill="#FEFEFE" mask="url(#mask-4)"></path>
                <path d="M529.1086,20.5695 C529.3346,21.8975 529.1326,23.4465 529.8776,24.5465 C529.8776,24.5465 530.6616,24.3405 530.7286,24.1385 C530.7756,24.0155 530.7246,22.8505 530.6796,22.4905 C530.6296,22.1065 530.0686,22.2495 530.0396,21.9725 C529.9996,21.5885 530.8126,21.3515 530.4596,20.4685 C530.1056,20.1765 529.4326,20.1495 529.1086,20.5695 M533.3746,19.1935 C532.6906,19.2755 532.3256,19.7875 532.3616,20.4685 C532.5066,21.2155 534.0256,20.9425 534.0326,21.5245 C534.0356,22.1065 533.0216,22.1575 532.6676,22.5375 C532.3906,22.8375 532.4876,23.9685 532.7396,24.0975 C533.4176,24.1615 534.2366,24.0165 534.4986,23.3395 C534.8676,21.9615 535.1066,20.0175 535.0296,19.4865 C534.9556,18.9505 534.0576,19.1115 533.3746,19.1935 M538.5226,19.4305 C539.1326,20.8345 538.3926,24.5465 536.2876,25.9695 C536.6766,27.4565 542.9316,28.5435 542.8286,29.7905 C542.7566,30.6595 541.1486,30.9625 540.0506,30.8365 C538.3816,30.6495 536.8136,29.6755 536.2876,28.9815 C535.7626,28.2835 536.3206,34.3555 536.1916,36.7815 C535.7356,37.5905 535.4406,37.9805 534.5656,37.9475 C534.1776,37.9475 533.3096,37.6545 533.1476,37.2685 C533.0166,36.5235 533.5536,35.7415 533.6336,35.0355 C533.7146,34.3255 533.4396,30.2435 533.6336,27.9445 C533.9236,27.2005 534.6166,27.2735 535.1246,27.3605 L534.0856,25.9695 C532.7476,25.7275 530.8846,25.8975 529.7846,26.2945 C530.4926,26.9415 529.8466,27.8485 529.8776,28.6225 C531.8196,29.7905 531.9616,32.4405 531.5286,33.8685 C531.0976,35.2985 530.5896,35.9425 529.4216,36.2005 C529.0366,36.2305 528.5816,36.2005 528.6126,35.7455 C528.6476,34.9365 529.3436,34.2785 529.4506,33.6155 C529.5606,32.9525 529.6116,29.7635 529.2516,30.1525 C528.4506,31.0115 525.0416,34.6755 524.0506,33.8685 C523.5626,33.4745 528.1106,29.8495 528.6956,25.9385 C527.8696,23.8645 526.9416,19.6515 527.3476,19.2485 C527.7516,18.8425 529.0076,18.6055 529.4456,18.8475 C533.6256,18.0455 537.6636,17.4535 538.5226,19.4305" id="Fill-32" fill="#FEFEFE" mask="url(#mask-4)"></path>
                <path d="M510.0047,26.8757 L510.2327,29.6937 C510.7187,29.6937 511.2347,29.7257 511.6577,29.5637 C512.2087,28.6537 512.1427,27.5227 512.4657,26.5547 C511.6867,26.4867 510.7857,26.5847 510.0047,26.8757 M515.8657,20.1207 C515.8687,20.7347 515.6727,23.3657 515.6087,23.8647 C516.7947,23.9057 518.2227,23.5667 518.8367,24.7647 C519.1587,25.4117 518.3197,25.8667 517.8987,26.0287 C517.4447,26.2387 516.0587,26.1467 515.1557,26.2127 C514.5127,28.3187 513.6647,30.4127 512.8037,31.1477 C511.9487,31.8847 509.0157,32.2327 508.7027,31.5537 C508.3337,30.7587 507.9357,28.5927 507.8017,27.1357 C507.3497,26.9497 505.9977,27.1757 505.4697,27.4247 C505.6357,28.2467 506.0237,31.4087 506.2797,33.2877 C506.3447,33.8687 506.9147,33.8527 507.3167,33.7707 C509.1547,33.4007 514.3357,33.0917 514.7847,33.4817 C515.2257,33.8687 515.4767,34.9577 514.7487,35.3567 C513.9757,35.7817 509.0737,35.1597 506.8507,36.1237 C506.0567,36.4677 505.5417,36.5167 505.0117,35.5997 C504.2887,34.3477 503.5307,31.1817 503.2387,28.3007 L503.0137,28.0417 C502.0417,28.4217 501.4237,29.5297 500.3267,29.1107 C499.6127,28.7537 499.3497,28.0097 499.0627,27.3597 C498.8657,26.6197 499.2887,25.7287 500.0347,25.8737 C500.7787,26.0197 501.7877,25.6467 502.6577,25.3857 C503.0137,23.9617 501.8797,22.0217 503.3687,21.0497 C504.0147,21.0167 504.5327,21.2437 504.9857,21.6327 C505.7647,22.4387 505.4317,23.8007 505.5277,24.8367 C506.1837,24.8547 506.8977,24.7057 507.4517,24.4477 C507.4727,22.4807 507.2347,20.1547 507.8707,20.0127 C508.8707,19.7877 510.1277,21.0727 510.1277,21.4617 C510.1277,21.8527 510.0047,23.2837 510.0047,24.3207 C510.9847,24.3027 512.1767,24.1657 512.8207,23.9617 C512.8207,23.6077 512.7557,19.3017 513.7277,18.9787 C514.5797,18.6937 515.8657,19.6747 515.8657,20.1207" id="Fill-33" fill="#FEFEFE" mask="url(#mask-4)"></path>
                <path d="M582.7693,26.4719 C582.1543,26.7949 582.1383,27.6609 582.0403,28.3399 C582.0713,28.7619 582.8313,28.6729 583.0913,28.5679 C583.5523,28.0349 584.0313,27.3059 583.8633,26.7209 C583.7313,26.2779 583.1583,26.4399 582.7693,26.4719 M579.5393,24.5049 C579.0843,24.9899 578.9883,25.6859 578.9553,26.3349 C578.9553,26.3349 579.5143,26.4869 579.9413,26.2949 C580.3753,26.0999 580.5123,25.5109 580.5433,25.1779 C580.5773,24.8469 579.9303,24.5049 579.5393,24.5049 M582.9773,23.8819 C582.0713,24.0759 582.1443,24.3619 582.3463,25.1529 C582.5563,25.9779 583.6973,25.6789 584.1603,25.0409 C584.6233,24.3989 583.8853,23.6869 582.9773,23.8819 M583.6443,20.2409 C582.3773,20.8219 580.9413,21.3809 579.8383,21.8269 C579.6123,22.2179 579.5293,23.1939 579.8723,23.2109 C580.2363,23.2289 582.4113,22.6069 583.7423,22.3779 C584.2903,22.1179 584.3553,21.3229 584.4853,20.8069 C584.4533,20.4509 583.9993,20.1769 583.6443,20.2409 M587.3663,20.4689 C587.4963,22.0859 584.9523,22.1419 585.3123,23.0549 C585.5943,23.7039 587.9353,24.5719 588.0783,25.0309 C588.2253,25.4949 587.8523,25.9059 587.4963,26.0669 C586.4273,26.0669 584.8203,27.1909 585.0193,27.6609 C585.3513,28.4469 588.3243,26.7569 588.5253,27.9369 C588.8333,29.7419 586.2973,28.3829 585.8453,30.5009 C585.7173,31.0949 585.1003,31.3439 585.2633,32.0229 C586.5903,34.0959 589.9633,34.8339 590.2743,35.2119 C591.7873,37.0649 589.0103,37.2939 587.9483,37.2679 C586.2033,37.2289 584.5183,34.6449 583.0623,33.0589 C582.3863,33.0919 582.0513,32.9439 582.4313,32.2599 C582.3243,31.7289 582.0413,30.5849 581.4963,30.5009 C581.1093,30.4709 580.7553,30.6649 580.5613,31.0199 C580.3173,32.5889 580.3753,33.7389 579.6593,34.9359 C580.2193,35.5499 581.4153,34.3369 581.6683,35.5209 C581.2413,36.7819 578.4113,38.0119 577.8163,37.7209 C577.2143,37.4309 577.0353,36.7479 577.7733,36.1079 C578.0823,35.8459 578.7823,35.5539 578.6973,35.0479 C578.9103,34.0959 578.5403,32.7779 578.5833,31.7499 C578.3863,31.3269 578.0733,30.8909 578.0403,30.3719 C578.0733,29.6579 578.8903,29.6669 579.2073,29.5629 C579.5233,29.4569 581.1813,29.3289 581.1383,28.7439 C581.1003,28.1639 581.1163,27.6529 580.5993,27.3599 C580.0823,27.4249 579.4243,27.3779 579.2073,27.0069 C578.2053,27.7179 578.0733,29.5049 577.4823,30.4119 C576.8923,31.3209 575.2253,34.3859 573.0213,35.3909 C572.5053,35.0039 573.0213,34.4509 573.0213,33.9959 C574.7383,29.9829 577.2973,26.1969 577.1023,21.5349 C577.0933,20.9609 577.1333,20.5319 577.6863,20.2409 C580.1783,20.2729 582.7373,19.8209 585.1653,19.3019 C586.0403,19.3019 586.9773,19.6879 587.3663,20.4689" id="Fill-34" fill="#FEFEFE" mask="url(#mask-4)"></path>
                <path d="M490.7967,19.8874 C490.9907,20.6304 490.5707,21.2124 489.9847,21.5344 C488.8837,21.8904 487.0727,22.4974 486.5277,22.1724 C485.8547,21.7714 487.6087,19.5044 488.8197,18.8474 C489.7277,18.5904 490.3747,19.2704 490.7967,19.8874" id="Fill-35" fill="#FEFEFE" mask="url(#mask-4)"></path>
                <path d="M479.0437,30.8586 C478.8157,31.1816 478.2017,31.0196 478.2327,31.4406 C479.6907,32.0876 479.2687,33.6746 479.1477,34.8956 C479.1477,34.8956 479.4867,35.1466 479.9267,34.9116 C480.4967,34.6066 480.3627,32.0876 480.2097,31.1316 C479.9817,30.5826 479.4337,30.9226 479.0437,30.8586 M481.1637,22.8396 C480.8077,22.9036 480.0467,23.1206 480.2097,23.8646 C480.4837,24.5796 480.4427,25.5106 481.4157,25.2496 C481.8037,24.6646 482.1457,23.9786 482.1727,23.2336 C482.3037,22.6516 481.5197,22.7736 481.1637,22.8396 M483.8347,20.6846 C485.1877,21.4946 483.5727,21.8906 483.4807,22.3456 C483.8347,22.8396 484.5647,23.1616 484.2647,24.0016 C484.1277,24.3816 483.6697,24.9476 483.5887,25.2636 C483.6427,25.6876 483.6107,25.9906 483.3177,26.3376 C483.0047,26.7076 482.3777,26.9896 482.0207,27.0866 C481.6287,27.1916 481.6997,27.6696 481.8957,28.0586 C482.5577,28.1386 483.4807,27.9116 483.6797,28.6656 C483.8007,29.1136 482.9937,29.3306 482.6067,29.7576 C482.5597,30.0776 482.4497,30.5006 482.5417,30.8586 C483.2037,31.1176 484.1837,31.3756 484.7417,31.0856 C485.2667,30.7776 485.2347,29.9016 485.2287,29.4166 C485.2167,28.9316 485.0417,25.1126 484.9667,24.6756 C484.8957,24.2376 484.9357,23.6306 485.4527,23.5116 C486.6777,23.2256 486.4787,25.1106 487.7937,24.9836 C489.4847,24.8186 491.3847,23.8556 492.2077,23.8236 C493.0307,23.7946 493.7577,24.4806 493.8387,25.1286 C493.9197,25.7766 493.4247,26.4236 492.9667,26.4636 C492.5057,26.5046 491.1177,26.5846 490.2127,26.8756 C489.7607,27.4246 490.4307,28.0826 490.5277,28.6656 C491.3717,31.2226 491.2267,35.5346 491.1347,36.2806 C491.0457,37.0246 490.4567,37.7546 489.7607,38.0766 C489.0647,38.4006 488.2397,38.6006 487.9627,37.1486 C487.8557,36.5816 488.3657,35.6706 488.4677,34.3876 C488.5127,32.1536 488.3777,29.2876 488.2397,27.4566 C487.9807,27.2006 487.7517,26.8756 487.3007,27.0066 C486.9737,27.7816 486.9667,30.0066 486.6577,31.1486 C486.3527,32.2896 485.8497,34.7916 485.0497,34.6706 C484.5707,34.5946 483.3507,33.0586 482.6367,32.3786 C482.6537,33.2396 482.7587,35.0356 482.3277,35.7866 C481.9777,36.4016 480.6927,37.0326 480.1457,36.8056 C479.5927,36.5786 479.5307,35.7856 479.0387,35.4296 C477.4567,34.8536 476.8077,34.0776 477.8277,32.2486 C477.7957,31.9906 477.8457,31.6366 477.6497,31.4406 C476.8737,31.5046 476.4277,32.3726 475.5887,32.2416 C475.1007,31.9516 474.9307,31.3436 474.8327,30.8586 C474.9307,30.2756 475.7807,29.7256 476.3627,29.7906 C477.4007,29.4566 478.5817,29.0786 479.7787,28.7306 C479.8767,28.4386 479.7607,28.1786 479.6247,27.9856 C478.7837,27.8576 478.3147,28.9886 477.4567,28.3726 C476.7807,27.8896 476.6937,27.2906 476.9867,26.8356 C477.6357,26.5426 478.6527,26.3966 478.7927,26.1176 C478.8577,25.5616 478.7357,24.5206 477.9917,24.0316 C477.0217,23.3956 476.6907,22.2006 477.1747,21.9216 C477.8517,21.5386 479.3937,21.1436 480.5227,21.1396 C480.6817,20.8206 480.5657,20.4416 480.4357,20.0856 C480.2417,19.9236 480.0737,18.8776 481.4457,18.9206 C483.0527,18.9736 483.4807,20.4726 483.8347,20.6846" id="Fill-36" fill="#FEFEFE" mask="url(#mask-4)"></path>
                <path d="M554.2786,26.5685 C553.9016,26.6645 553.5496,27.2565 553.8306,27.4865 C554.1436,27.7445 555.0656,27.2275 554.8726,26.8065 C554.7766,26.6105 554.6556,26.4715 554.2786,26.5685 M556.7276,20.1445 C556.8416,20.5155 555.9566,22.8945 555.4296,24.4905 C555.9566,24.7885 556.5656,25.0645 556.9886,25.4855 C557.4406,26.8755 556.2106,27.4925 555.8236,28.5265 C555.1076,28.8815 554.2676,28.8505 553.7166,29.5635 C553.3936,31.1175 555.7576,30.7615 555.8236,32.1195 C555.8856,33.8355 556.3716,36.0695 554.5266,37.0405 C553.9126,37.2685 553.3276,37.5905 552.6496,37.6235 C552.0336,37.3305 551.5116,36.2025 551.7476,35.8595 C551.9846,35.5125 553.1046,35.8425 553.3626,34.9365 C553.7486,34.0955 553.8106,32.7485 553.5216,31.8645 C553.0356,31.6725 552.3686,32.1845 552.0116,31.9025 C551.5416,31.4455 552.5466,29.6635 551.9676,29.1105 C550.8686,29.9325 548.5846,31.6365 548.3426,30.7285 C548.0986,29.8215 552.3416,26.3325 552.4046,25.0975 C552.4546,24.1755 550.6396,24.3445 550.2216,23.0545 C549.9916,22.6355 549.7016,22.1175 549.9916,21.6325 C550.1876,21.5345 550.2846,21.1775 550.5746,21.3065 C551.1916,21.8585 552.1646,21.5675 552.6496,22.4745 C552.8746,22.6355 553.0356,22.9265 553.3626,22.7965 C553.5876,22.3135 554.0736,21.7605 553.7166,21.1775 C553.1996,20.8215 553.2296,20.1445 553.3626,19.6585 C554.1706,19.0735 555.7116,19.2625 556.0486,19.4305 C556.3826,19.5995 556.6166,19.7715 556.7276,20.1445" id="Fill-37" fill="#FEFEFE" mask="url(#mask-4)"></path>
                <path d="M558.6804,31.2018 C558.6004,31.7098 558.5404,32.2608 559.1344,32.2298 C559.7294,32.1958 559.5084,31.6068 559.4964,31.3478 C559.4854,31.0988 558.9394,31.2018 558.6804,31.2018 M561.2934,19.5628 C561.2584,20.1448 561.0654,20.7238 560.4834,20.9518 C560.1924,21.0498 559.7384,21.1468 559.6424,21.5348 C559.7074,21.8588 559.8674,22.2488 560.2244,22.3458 C562.2304,22.4098 561.9734,18.8158 564.3064,20.1448 C564.7244,20.4988 565.0184,21.2118 564.5624,21.6328 C563.9434,22.6148 562.6774,22.3458 561.6664,23.0998 C561.8304,24.5548 563.4994,24.6968 564.4344,25.1278 C565.3674,25.5598 568.4254,26.0198 567.8014,27.2338 C567.2354,28.3288 565.2434,28.7218 563.8524,28.1728 C562.9464,27.6528 561.6724,27.0268 560.6044,27.6418 C560.1494,27.9658 559.6424,28.3338 559.8994,28.9818 C560.4834,29.7898 562.6204,28.6878 561.6514,30.3718 C560.7094,31.2768 561.5854,32.9628 560.7094,33.8688 C561.5504,35.7808 565.3584,35.4228 564.6614,36.9108 C564.3414,37.5908 563.5254,37.6228 562.9124,37.8508 C561.3614,37.5598 559.5024,36.5238 558.8334,35.5208 C558.5454,35.5748 557.6664,35.5208 557.6664,35.5208 C557.6354,35.0348 558.0994,34.2618 557.7434,33.6158 C557.5144,32.5468 556.2724,31.6018 557.0854,30.3718 C557.4114,30.0488 557.8614,29.7898 557.6664,29.2068 C557.3764,28.9468 557.1414,28.5538 557.2424,28.1648 C557.9224,27.8438 559.2864,28.5598 559.3194,27.3598 C559.1234,26.9078 558.6394,27.2008 558.3804,27.0068 C558.1524,27.0378 557.8934,27.4568 557.6664,27.1358 C557.3424,26.5848 557.5644,25.8668 557.7974,25.4858 C558.0284,25.1018 558.8904,25.1718 559.3444,25.3348 C559.4754,25.5278 559.6424,25.6458 559.8994,25.6128 C560.0974,25.4858 559.9664,25.2248 560.0004,25.0308 C559.8084,24.4178 558.5034,23.0698 557.4884,22.1598 C557.0964,21.4568 557.8934,20.6598 558.4054,20.1168 C558.9174,19.5728 559.5144,18.4618 560.5814,18.8478 C560.7714,19.1708 561.2314,19.1708 561.2934,19.5628" id="Fill-38" fill="#FEFEFE" mask="url(#mask-4)"></path>
            </g>
        </g>
    </g>
</svg>