<?xml version="1.0" encoding="UTF-8"?>
<svg width="138px" height="100px" viewBox="0 0 138 100" version="1.1" xmlns="http://www.w3.org/2000/svg" xmlns:xlink="http://www.w3.org/1999/xlink">
    <title>NWD50-logo</title>
    <g id="Symbols" stroke="none" stroke-width="1" fill="none" fill-rule="evenodd">
        <g id="Combined-Shape" fill="#FFFFFF">
            <path d="M32.3058095,82.7084624 L34.9901259,84.4091151 C35.6393646,84.8231625 36.2559306,85.3073156 36.8398238,85.862045 C37.4237171,86.421009 37.9347701,87.0434917 38.3681814,87.7292577 C38.804052,88.4178467 39.1472913,89.1692487 39.4029349,89.9861689 C39.6558851,90.802501 39.7836483,91.6779995 39.7812239,92.6060774 C39.7790812,93.4279379 39.6523719,94.0701819 39.4009441,94.5328093 C39.1520927,94.993437 38.8162311,95.298797 38.3955844,95.4447722 C37.9724784,95.5888654 37.4871889,95.5887478 36.9346801,95.444537 C36.3848649,95.2991499 35.8076467,95.0274313 35.2033769,94.6298517 L35.2033769,94.6298517 L32.2793434,92.7185289 L32.3058095,82.7084624 Z M34.0884054,85.8818064 L34.072596,91.842207 L35.0016023,92.447516 C35.4161595,92.7182936 35.8008545,92.917201 36.1556874,93.0470614 C36.5105202,93.173981 36.8181591,93.2016234 37.0783699,93.1296356 C37.341157,93.059177 37.5442197,92.8716794 37.6951701,92.5749062 C37.8460033,92.2778977 37.9221226,91.8444419 37.9237758,91.2715979 C37.9249331,90.7765054 37.8512731,90.298116 37.7023136,89.833136 C37.5534712,89.368509 37.3545071,88.9371704 37.1029623,88.5342976 C36.8514174,88.1350712 36.5546694,87.7630166 36.2152946,87.4261326 C35.876154,87.0896015 35.5190962,86.7981215 35.1445894,86.5578093 L35.1445894,86.5578093 L34.0884054,85.8818064 Z M14.2571019,71.7338184 L16.2072773,72.8809179 L17.4863151,79.8804363 L19.2212486,74.6724963 L20.8843959,75.6704447 L22.5524616,83.1512932 L23.9580915,77.5330698 L25.771018,78.6425287 L23.3698653,87.0244008 L21.7767478,86.0268053 L20.0046915,78.1539057 L18.1760727,83.7949487 L16.6378781,82.8512264 L14.2571019,71.7338184 Z M0.0264660805,63.6447672 L2.45841783,64.992068 L5.89104505,73.5236794 L5.93191524,66.9412668 L7.71989806,67.9560358 L7.69331487,77.4788908 L5.35610233,76.1074764 L1.83166357,67.358843 L1.80671987,67.3447277 L1.78786572,74.0395919 L4.4408921e-16,73.0152951 L0.0264660805,63.6447672 Z"></path>
            <path d="M89.9355242,53.4372166 L89.936095,53.6393889 C89.9361692,53.6656689 89.9362502,53.694374 89.9363379,53.7254231 L89.9369414,53.9391959 C89.9370546,53.9792962 89.937174,54.0215781 89.9372993,54.0659606 L89.9381205,54.3568119 C89.9416755,55.6158467 89.9483837,57.9912739 89.9550822,60.3612028 L89.9567547,60.9529212 C89.962039,62.8222215 89.9671519,64.6294816 89.9705241,65.8180573 C89.9892761,72.513392 87.3981766,77.1990677 81.8517761,80.4155808 C80.6196138,81.1300714 73.9904227,84.974429 66.9521348,89.0560454 L65.990301,89.6138284 C57.319407,94.6422211 48.3738237,99.8299342 48.3738237,99.8299342 L48.3738237,99.8299342 L48.3396286,87.7716269 C48.3396286,87.7716269 53.6741889,84.6780271 59.4714746,81.3160814 L60.229866,80.8762771 C60.483271,80.7293232 60.7371502,80.5820943 60.9911033,80.4348225 L61.7527839,79.9931107 C67.7147451,76.5356658 73.4963834,73.1827889 73.9011781,72.9480242 C75.9649469,71.751286 76.8351657,70.4209235 76.826734,67.4797754 L76.826734,67.4797754 L76.8263341,67.3351282 C76.826251,67.3053388 76.826156,67.2712731 76.8260497,67.2332277 L76.8252844,66.959568 C76.8218867,65.7456441 76.8134464,62.739938 76.8100993,61.5481609 L76.8093483,61.2807811 C76.8092447,61.2438661 76.8091523,61.2109727 76.809072,61.1823973 L76.8086996,61.0498074 L89.9355242,53.4372166 L89.9355242,53.4372166 Z M137.289209,25.9760754 L137.290023,26.2642818 C137.290111,26.2953309 137.290205,26.3287239 137.290306,26.3643797 L137.290985,26.6048189 C137.293994,27.6699961 137.300423,29.9450532 137.307118,32.30809 L137.310474,33.4917461 C137.315775,35.361029 137.320914,37.1682628 137.324326,38.3567985 C137.343078,45.0521333 134.751862,49.7379265 129.203119,52.9557336 C123.656836,56.1720114 112.813823,62.4601211 106.975827,65.8456644 C101.125418,69.2383829 98.9669103,66.6412941 98.950164,60.7561749 C98.9469854,59.6314939 98.941906,57.8280351 98.9365816,55.9358652 L98.934894,55.3360772 C98.9284083,53.0308625 98.921819,50.6866705 98.918063,49.3502049 L98.9171494,49.0251095 C98.9167266,48.8746798 98.9163564,48.7429433 98.9160453,48.6322228 L98.9151313,48.3069315 C98.9150839,48.2900819 98.9150441,48.2759116 98.9150121,48.2645065 L98.914915,48.2299471 L112.039163,40.619003 L112.039163,40.619003 L112.040043,40.8407467 C112.044122,41.8694872 112.061138,46.1595607 112.064215,46.9271255 L112.064692,47.0447364 C112.073007,49.9858845 112.940415,50.3086532 115.009102,49.1088568 C115.218372,48.9875832 119.193671,46.6822096 121.254863,45.486883 C123.318749,44.2900273 124.188968,42.9596647 124.180536,40.0185166 L124.180536,40.0185166 L124.180159,39.8738442 C124.179915,39.7844689 124.179561,39.6566097 124.179119,39.4982677 L124.178125,39.1433109 C124.176662,38.6221657 124.174684,37.9221863 124.172625,37.1951008 L124.171072,36.647075 C124.167703,35.4589471 124.164407,34.299406 124.163042,33.8195183 L124.162385,33.5885487 L137.289209,25.9760754 L137.289209,25.9760754 Z M29.284683,33.4496193 C36.3001851,29.3545493 46.2492064,29.0922409 54.5405844,31.5402962 L54.5405844,31.5402962 L24.1456962,49.2824626 L36.9338487,56.6984986 C36.9338487,56.6984986 42.4859442,53.4575865 48.0895996,50.1865886 L49.1395463,49.5737078 C53.6802951,46.923157 58.0281307,44.3852229 59.2326926,43.6821186 C64.7453664,40.4643116 70.230403,40.6391055 76.3451216,44.1852097 C77.5805012,44.9016207 79.5386369,46.0371766 81.4775786,47.161604 L82.0053476,47.4676668 C84.8993276,49.1459389 87.5983585,50.7111614 87.5983585,50.7111614 L87.5983585,50.7111614 L74.5569046,58.3237523 C74.5569046,58.3237523 68.7846056,54.9763202 68.7388169,54.9496188 C66.0546176,53.3930594 64.433863,53.4618712 62.3835615,54.658727 C62.2589808,54.7314309 61.8214009,54.9868435 61.1643017,55.3703976 L60.7444476,55.6154705 C59.4103456,56.3942008 57.4255758,57.5527499 55.3353123,58.7728818 L54.6353985,59.1814368 C50.4214466,61.6412131 46.0278199,64.2058824 45.8159122,64.3295569 C40.4750337,67.447028 34.8403349,68.236894 28.9900429,64.8441755 C26.9424817,63.6568146 21.881721,60.7219997 16.7000381,57.7170426 L15.9592874,57.287467 C15.7123045,57.1442368 15.4653597,57.0010287 15.2187654,56.8580237 L14.4803458,56.4297995 C8.09523364,52.7269454 2.1581215,49.2838741 2.1581215,49.2838741 C2.1581215,49.2838741 8.57816588,45.5363842 15.217197,41.6610657 L15.983858,41.2135522 C16.2395005,41.0643293 16.495114,40.9151231 16.7503459,40.7661398 L17.5145437,40.3200642 C22.8509732,37.2050965 27.8634896,34.2792009 29.284683,33.4496193 Z M82.4621472,2.40889721 C87.9749381,-0.808909825 93.4597405,-0.63411595 99.5745762,2.9118707 C101.014916,3.74719369 108.260581,7.94909171 115.79511,12.3184943 L116.800941,12.9017931 C125.692349,18.0580721 134.644358,23.2494792 134.644358,23.2494792 L134.644358,23.2494792 L121.603021,30.86207 C121.603021,30.86207 114.826559,26.9322997 107.748536,22.8276443 L106.880772,22.3244147 C106.591308,22.1565503 106.301783,21.98865 106.012636,21.8209689 L105.146768,21.318839 C98.6678775,17.5616286 92.6033344,14.0446996 91.9682714,13.6763974 C89.281613,12.1184264 87.6633175,12.1886498 85.613016,13.385388 C84.9108585,13.7952949 83.9851826,14.3356475 83.0634197,14.8737 L82.6039173,15.1419201 C81.0041706,16.0757174 79.5324926,16.9347152 79.4077741,17.0074793 C77.352437,18.2072758 77.2444648,19.1446462 79.9311233,20.7027348 C80.437526,20.9965649 88.1334469,25.4618138 95.5538621,29.7672091 L96.4251308,30.2727274 L96.4251308,30.2727274 L97.2911562,30.7752035 C103.759931,34.5284474 109.558378,37.8927596 109.558378,37.8927596 L109.558378,37.8927596 L96.5193833,45.5038213 C96.5193833,45.5038213 89.1061497,41.2047446 81.0615373,36.5395381 L80.0531629,35.9547649 C71.6308159,31.0705053 62.8299951,25.9667829 61.3161001,25.0889318 C55.9429002,21.9727546 54.5670154,18.6917818 60.3793648,15.2990633 C63.0307642,13.7513864 66.7213555,11.5971077 70.4733422,9.40699392 L71.8813054,8.58513625 C75.8678665,6.25809724 79.7857572,3.97114645 82.4621472,2.40889721 Z"></path>
        </g>
    </g>
</svg>