<?xml version="1.0" encoding="UTF-8"?>
<svg width="100px" height="80px" viewBox="0 0 100 80" version="1.1" xmlns="http://www.w3.org/2000/svg" xmlns:xlink="http://www.w3.org/1999/xlink">
    <title>Combined Shape</title>
    <g id="V3-Revision" stroke="none" stroke-width="1" fill="none" fill-rule="evenodd">
        <path d="M80.8633088,47.6836242 L87.5823078,51.9386378 C89.2073898,52.9745797 90.7506902,54.1859253 92.2122088,55.573852 C93.6737274,56.9723736 94.9529225,58.5298181 96.0377762,60.2455968 C97.1287854,61.9684388 97.9879333,63.8484379 98.627824,65.892363 C99.2609728,67.9348166 99.5807716,70.125304 99.5747032,72.4473442 C99.5693398,74.50363 99.2521791,76.1105171 98.6228409,77.2680056 C97.9999514,78.420491 97.1592704,79.1844981 96.1063673,79.5497265 C95.0473086,79.9102461 93.8326008,79.9099518 92.4496396,79.5491379 C91.0734202,79.185381 89.6286097,78.5055442 88.1160875,77.5108045 L88.1160875,77.5108045 L80.7970626,72.7286966 L80.8633088,47.6836242 Z M85.3252494,55.6232947 L85.2856776,70.5361491 L87.611034,72.0506256 C88.6486946,72.728108 89.6116085,73.2257721 90.4997756,73.5506812 C91.3879428,73.8682327 92.1579807,73.9373936 92.8093033,73.757281 C93.4670746,73.5809943 93.9753524,73.1118774 94.3531899,72.3693543 C94.7307342,71.6262425 94.9212651,70.5417409 94.9254032,69.1084917 C94.9283001,67.869776 94.7439248,66.6728511 94.3710705,65.5094766 C93.9985093,64.3469849 93.5004908,63.2677807 92.8708594,62.2597975 C92.2412281,61.2609376 91.4984507,60.3300614 90.648976,59.4871814 C89.8000875,58.6451843 88.906351,57.9159048 87.968939,57.3146464 L87.968939,57.3146464 L85.3252494,55.6232947 Z M35.6863503,20.2252191 L40.5677521,23.0952491 L43.7692575,40.6079645 L48.1118965,27.5777579 L52.2748502,30.0746133 L56.4501151,48.7916111 L59.9684881,34.7348803 L64.5063479,37.5107336 L58.4961239,58.4820823 L54.5084586,55.9861098 L50.0728992,36.2882045 L45.4957606,50.4020299 L41.6455707,48.0408475 L35.6863503,20.2252191 Z M0.0662461296,-0.0134066652 L6.15356194,3.35752471 L14.7456263,24.7035194 L14.8479268,8.23439775 L19.3233511,10.7733383 L19.2568119,34.5994132 L13.4066338,31.1678557 L4.58475979,9.27887439 L4.52232428,9.24385249 L4.47513124,25.9940323 L7.10542736e-14,23.4312533 L0.0662461296,-0.0134066652 Z" id="Combined-Shape" fill="#FFFFFF"></path>
    </g>
</svg>