<?xml version="1.0" encoding="UTF-8"?>
<svg width="541px" height="844px" viewBox="0 0 541 844" version="1.1" xmlns="http://www.w3.org/2000/svg" xmlns:xlink="http://www.w3.org/1999/xlink">
    <title>Group 17</title>
    <defs>
        <polygon id="path-1" points="0 0 540.16 0 540.16 529.151539 0 529.151539"></polygon>
        <polygon id="path-3" points="0.0120692 0 301.308 0 301.308 323.448399 0.0120692 323.448399"></polygon>
        <polygon id="path-5" points="0.6998448 0 235.476 0 235.476 252.377944 0.6998448 252.377944"></polygon>
        <polygon id="path-7" points="0.2981852 0.0001688 192.432 0.0001688 192.432 206.645129 0.2981852 206.645129"></polygon>
    </defs>
    <g id="V3-Mobile" stroke="none" stroke-width="1" fill="none" fill-rule="evenodd" opacity="0.15">
        <g id="NWD50-Landing-Mobile-Full" transform="translate(76.000000, -844.000000)">
            <g id="Group-17" transform="translate(-76.000000, 844.000000)">
                <polygon id="Fill-1" points="0 844 540.16 844 540.16 0 0 0"></polygon>
                <g id="Group-16">
                    <g id="Group-4">
                        <mask id="mask-2" fill="white">
                            <use xlink:href="#path-1"></use>
                        </mask>
                        <g id="Clip-3"></g>
                        <path d="M0,0.5340832 L0,1.1248832 C8.109152,0.7206072 16.250376,0.5104512 24.420296,0.5104512 C94.132164,0.5104512 161.759352,15.2458472 225.422272,44.3072992 C286.915268,72.3778952 342.143252,112.564955 389.5693,163.751023 C436.99788,214.937091 474.23516,274.544591 500.245552,340.915907 C523.73576,400.853411 537.1216,464.047911 540.16,529.151539 L540.16,518.586347 C536.225272,457.135551 523.03946,397.458843 500.794996,340.699843 C474.757596,274.260163 437.481492,214.590207 390.003116,163.348435 C342.523052,112.104975 287.232612,71.8731832 225.667876,43.7705152 C164.483784,15.8400232 99.641796,1.1358552 32.807124,-0.0001688 L16.032624,-0.0001688 C10.674912,0.0909832 5.330704,0.2690672 0,0.5340832" id="Fill-2" fill="#FFFFFF" mask="url(#mask-2)"></path>
                    </g>
                    <g id="Group-7" transform="translate(238.852000, 0.000000)">
                        <mask id="mask-4" fill="white">
                            <use xlink:href="#path-3"></use>
                        </mask>
                        <g id="Clip-6"></g>
                        <path d="M3.3306772,1.4885628 C69.9518172,31.8995708 129.783821,75.4364668 181.164853,130.889799 C232.547573,186.344819 272.889085,250.921791 301.069401,322.827215 C301.149581,323.034839 301.227229,323.241619 301.308253,323.448399 L301.308253,321.832139 C273.116121,250.171475 232.845505,185.797063 181.598669,130.488899 C130.163621,74.9773308 70.2691612,31.3948588 3.5762812,0.9500908 C2.8715412,0.6285268 2.1634252,0.3179348 1.4578412,-0.0002532 L0.0120692,-0.0002532 C1.1185532,0.4960188 2.2267252,0.9846948 3.3306772,1.4885628" id="Fill-5" fill="#FFFFFF" mask="url(#mask-4)"></path>
                    </g>
                    <path d="M335.386188,0 L334.29574,0 C376.391084,27.26542 415.270788,60.047224 450.4639,98.029756 C485.127824,135.441744 515.124428,176.709124 540.16,221.35588 L540.16,220.152336 C515.206296,175.816172 485.355704,134.818028 450.896872,97.628012 C415.884376,59.840444 377.226644,27.192836 335.386188,0" id="Fill-8" fill="#FFFFFF"></path>
                    <g id="Group-12" transform="translate(304.684000, 0.000000)">
                        <mask id="mask-6" fill="white">
                            <use xlink:href="#path-5"></use>
                        </mask>
                        <g id="Clip-11"></g>
                        <path d="M1.8578128,0 L0.6998448,0 C50.1320808,29.0125 95.3527568,65.512968 135.630969,108.983188 C175.346233,151.845728 208.777917,199.898024 235.476169,252.377944 L235.476169,251.076496 C208.840373,198.951056 175.555545,151.2026 136.064785,108.581444 C95.9806928,65.32138 51.0039328,28.960172 1.8578128,0" id="Fill-10" fill="#FFFFFF" mask="url(#mask-6)"></path>
                    </g>
                    <g id="Group-15" transform="translate(347.728000, 0.000000)">
                        <mask id="mask-8" fill="white">
                            <use xlink:href="#path-7"></use>
                        </mask>
                        <g id="Clip-14"></g>
                        <path d="M107.810281,92.5532088 C140.099189,127.401125 168.379097,165.560897 192.432253,206.645129 L192.432253,205.475345 C168.467717,164.686513 140.333821,126.785849 108.244097,92.1514648 C75.6184332,56.9406288 39.8632172,26.1422248 1.3464332,0.0001688 L0.2981852,0.0001688 C39.0512892,26.2215608 75.0132852,57.1566928 107.810281,92.5532088" id="Fill-13" fill="#FFFFFF" mask="url(#mask-8)"></path>
                    </g>
                </g>
            </g>
        </g>
    </g>
</svg>