<?xml version="1.0" encoding="UTF-8"?>
<svg width="1440px" height="900px" viewBox="0 0 1440 900" version="1.1" xmlns="http://www.w3.org/2000/svg" xmlns:xlink="http://www.w3.org/1999/xlink">
    <title>Group 27</title>
    <defs>
        <polygon id="path-1" points="0 0 1439.62 0 1439.62 899.9998 0 899.9998"></polygon>
        <polygon id="path-3" points="0.6298 0 504.9998 0 504.9998 535.6738 0.6298 535.6738"></polygon>
        <polygon id="path-5" points="0 0 57.998 0 57.998 39.9335 0 39.9335"></polygon>
        <polygon id="path-7" points="0.5443 0.0004 346 0.0004 346 366.7034 0.5443 366.7034"></polygon>
        <polygon id="path-9" points="0 0 106.189 0 106.189 71.1408 0 71.1408"></polygon>
        <polygon id="path-11" points="0.3512 0 394 0 394 417.894 0.3512 417.894"></polygon>
        <polygon id="path-13" points="0.4392 0 323 0 323 342.3695 0.4392 342.3695"></polygon>
        <polygon id="path-15" points="0 0 35.102 0 35.102 24.4648 0 24.4648"></polygon>
    </defs>
    <g id="V3-Desktop" stroke="none" stroke-width="1" fill="none" fill-rule="evenodd">
        <g id="NWD50-Form-Popup" transform="translate(-28.000000, 20.000000)">
            <g id="Group-27" transform="translate(720.000000, 0.000000)">
                <g transform="translate(-692.000000, -20.000000)">
                    <g id="Group-3">
                        <mask id="mask-2" fill="white">
                            <use xlink:href="#path-1"></use>
                        </mask>
                        <g id="Clip-2"></g>
                        <path d="M0,234.2998 C71.3,166.3208 151.987,111.9008 240.445,72.2328 C346.811,24.5348 459.799,0.3498 576.271,0.3498 C692.742,0.3498 805.73,24.5348 912.096,72.2328 C1014.834,118.3038 1107.103,184.2588 1186.34,268.2658 C1265.577,352.2748 1327.788,450.1018 1371.244,559.0298 C1414.4,667.2038 1437.136,781.8408 1438.921,899.9998 L1439.62,899.9998 C1437.835,781.7518 1415.083,667.0278 1371.895,558.7708 C1328.405,449.7608 1266.147,351.8588 1186.849,267.7858 C1107.549,183.7108 1015.205,117.7018 912.382,71.5938 C813.2,27.1168 708.264,3.0788 600.115,-0.0002 L552.426,-0.0002 C444.277,3.0788 339.341,27.1168 240.159,71.5938 C151.827,111.2038 71.238,165.5138 0,233.3338 L0,234.2998 Z" id="Fill-1" fill="#231F20" mask="url(#mask-2)"></path>
                    </g>
                    <g id="Group-6" transform="translate(935.000000, 0.000000)">
                        <mask id="mask-4" fill="white">
                            <use xlink:href="#path-3"></use>
                        </mask>
                        <g id="Clip-5"></g>
                        <path d="M5.0928,1.9668 C60.4778,26.8038 113.8968,57.5438 163.8648,93.3348 C213.3598,128.7858 259.9028,169.4988 302.1998,214.3438 C344.4978,259.1888 382.8998,308.5338 416.3378,361.0098 C450.0978,413.9878 479.0928,470.6248 502.5198,529.3468 C503.3598,531.4508 504.1748,533.5648 504.9998,535.6738 L504.9998,533.7558 C504.3888,532.1998 503.7888,530.6408 503.1698,529.0878 C479.7278,470.3248 450.7108,413.6498 416.9288,360.6328 C383.4668,308.1208 345.0368,258.7398 302.7088,213.8628 C260.3808,168.9868 213.8038,128.2428 164.2728,92.7658 C114.2668,56.9468 60.8068,26.1838 5.3798,1.3278 C4.3768,0.8788 3.3688,0.4458 2.3658,-0.0002 L0.6298,-0.0002 C2.1168,0.6568 3.6078,1.3008 5.0928,1.9668" id="Fill-4" fill="#231F20" mask="url(#mask-4)"></path>
                    </g>
                    <path d="M0,133.9023 L0,134.8083 C17.445,120.3023 35.356,106.4563 53.676,93.3353 C103.645,57.5443 157.063,26.8033 212.448,1.9663 C213.934,1.3003 215.424,0.6573 216.911,0.0003 L215.175,0.0003 C214.171,0.4453 213.164,0.8793 212.161,1.3283 C156.734,26.1833 103.274,56.9473 53.269,92.7653 C35.092,105.7853 17.317,119.5193 0,133.9023" id="Fill-7" fill="#231F20"></path>
                    <g id="Group-11">
                        <mask id="mask-6" fill="white">
                            <use xlink:href="#path-5"></use>
                        </mask>
                        <g id="Clip-10"></g>
                        <path d="M0,39.0605 L0,39.9335 C4.467,36.6205 8.948,33.3315 13.461,30.0995 C28.042,19.6565 42.903,9.6265 57.998,-0.0005 L56.691,-0.0005 C41.906,9.4535 27.346,19.2935 13.054,29.5305 C8.678,32.6645 4.332,35.8505 0,39.0605" id="Fill-9" fill="#231F20" mask="url(#mask-6)"></path>
                    </g>
                    <g id="Group-14" transform="translate(1094.000000, 0.000000)">
                        <mask id="mask-8" fill="white">
                            <use xlink:href="#path-7"></use>
                        </mask>
                        <g id="Clip-13"></g>
                        <path d="M194.5693,159.9404 C148.9863,111.6124 98.8283,67.7364 45.4883,29.5304 C31.1963,19.2944 16.6353,9.4534 1.8493,0.0004 L0.5443,0.0004 C15.6373,9.6274 30.5003,19.6564 45.0803,30.0994 C98.3833,68.2794 148.5073,112.1254 194.0603,160.4204 C239.6133,208.7164 280.9693,261.8594 316.9813,318.3724 C327.0593,334.1884 336.7283,350.3184 346.0003,366.7034 L346.0003,365.2804 C336.9083,349.2544 327.4353,333.4754 317.5713,317.9964 C281.5363,261.4464 240.1523,208.2674 194.5693,159.9404" id="Fill-12" fill="#231F20" mask="url(#mask-8)"></path>
                    </g>
                    <g id="Group-17">
                        <mask id="mask-10" fill="white">
                            <use xlink:href="#path-9"></use>
                        </mask>
                        <g id="Clip-16"></g>
                        <path d="M0,70.2588 L0,71.1408 C8.859,64.3258 17.812,57.6638 26.866,51.1788 C52.502,32.8168 79.007,15.7298 106.189,-0.0002 L104.801,-0.0002 C77.963,15.5738 51.785,32.4678 26.458,50.6098 C17.543,56.9948 8.727,63.5548 0,70.2588" id="Fill-15" fill="#231F20" mask="url(#mask-10)"></path>
                    </g>
                    <g id="Group-20" transform="translate(1046.000000, 0.000000)">
                        <mask id="mask-12" fill="white">
                            <use xlink:href="#path-11"></use>
                        </mask>
                        <g id="Clip-19"></g>
                        <path d="M225.6162,177.915 C181.1172,130.737 132.1532,87.905 80.0832,50.609 C54.7562,32.468 28.5782,15.574 1.7402,0 L0.3512,0 C27.5342,15.729 54.0392,32.816 79.6752,51.179 C131.7092,88.448 180.6382,131.25 225.1062,178.395 C269.5752,225.541 309.9462,277.418 345.0992,332.585 C362.6622,360.145 378.9932,388.65 394.0002,417.894 L394.0002,416.375 C379.1522,387.533 363.0232,359.41 345.6902,332.209 C310.5122,277.004 270.1142,225.093 225.6162,177.915" id="Fill-18" fill="#231F20" mask="url(#mask-12)"></path>
                    </g>
                    <g id="Group-23" transform="translate(1117.000000, 0.000000)">
                        <mask id="mask-14" fill="white">
                            <use xlink:href="#path-13"></use>
                        </mask>
                        <g id="Clip-22"></g>
                        <path d="M28.7832,19.5615 C82.7212,58.1955 133.4412,102.5635 179.5372,151.4335 C225.6332,200.3045 267.4812,254.0805 303.9222,311.2665 C310.4492,321.5095 316.8042,331.8845 323.0002,342.3695 L323.0002,341.0025 C316.9892,330.8565 310.8332,320.8105 304.5122,310.8905 C268.0482,253.6665 226.1722,199.8565 180.0462,150.9535 C133.9202,102.0495 83.1652,57.6525 29.1902,18.9925 C20.1312,12.5025 10.9572,6.1805 1.6962,-0.0005 L0.4392,-0.0005 C9.9902,6.3595 19.4452,12.8735 28.7832,19.5615" id="Fill-21" fill="#231F20" mask="url(#mask-14)"></path>
                    </g>
                    <g id="Group-26">
                        <mask id="mask-16" fill="white">
                            <use xlink:href="#path-15"></use>
                        </mask>
                        <g id="Clip-25"></g>
                        <path d="M0,24.4648 C2.25,22.8248 4.497,21.1808 6.758,19.5618 C16.096,12.8728 25.551,6.3598 35.102,-0.0002 L33.845,-0.0002 C24.584,6.1808 15.41,12.5028 6.351,18.9918 C4.226,20.5138 2.115,22.0608 0,23.6008 L0,24.4648 Z" id="Fill-24" fill="#231F20" mask="url(#mask-16)"></path>
                    </g>
                </g>
            </g>
        </g>
    </g>
</svg>