<?xml version="1.0" encoding="UTF-8"?>
<svg width="514px" height="184px" viewBox="0 0 514 184" version="1.1" xmlns="http://www.w3.org/2000/svg" xmlns:xlink="http://www.w3.org/1999/xlink">
    <title>Group 2</title>
    <g id="V3-Desktop" stroke="none" stroke-width="1" fill="none" fill-rule="evenodd">
        <g id="NWD50-Landing-V4-Transition" transform="translate(-461.000000, -306.000000)" fill="#F5F5F5">
            <g id="Group-2" transform="translate(461.000000, 306.000000)">
                <path d="M4.5693285,15.725994 L17.0761883,47 L20.0166577,47 L30.8851883,22.2382337 L40.3789744,47 L43.136355,47 L56.5113083,14.5071342 C57.8071351,11.3797336 58.8377989,10.5994725 61.5146835,10.0782391 L61.5146835,6.95083852 L47.3631812,6.95083852 L47.3631812,10.0782391 C53.1494189,10.0782391 53.0594529,14.4229105 51.678395,17.8093387 L43.9997135,36.4005275 L36.8387313,18.4163849 C34.594315,12.7718082 35.2004021,10.5136597 40.6346674,10.0782391 L40.6346674,6.95083852 L21.9122582,6.95083852 L21.9122582,10.0782391 C26.2258937,10.0782391 26.8256674,11.2081079 29.3352468,17.8093387 L20.7932068,37.0059846 L12.4184721,16.8526846 C10.6917552,12.6844063 11.4730393,10.2514539 15.8687491,10.0782391 L15.8687491,6.95083852 L0,6.95083852 L0,10.0782391 C2.15602858,10.5994725 2.93099932,11.5545375 4.5693285,15.725994 L4.5693285,15.725994 Z M234.985018,35.5312754 C234.985018,31.8826413 238.179602,30.1441371 245.165387,27.5395591 L249.734715,25.802644 L249.734715,36.6611442 C246.803716,39.7853665 244.133145,41.1774412 241.02537,41.1774412 C236.710156,41.1774412 234.985018,38.2248445 234.985018,35.5312754 L234.985018,35.5312754 Z M255.601449,47 C257.934253,47 260.09186,45.7811401 262.593548,42.9159454 L261.818577,39.7853665 C258.885999,41.6986746 256.984085,40.7436097 256.984085,37.5303963 L256.984085,15.2905734 C256.984085,8.68934271 252.588376,5.99418447 244.390416,5.99418447 C233.089417,5.99418447 228.512197,12.07736 228.512197,16.1598255 C228.512197,18.0699554 230.845001,22.4114485 231.364279,22.15401 L236.452885,19.7210576 C238.692566,18.6785907 235.158636,15.725994 235.158636,13.8158642 C235.158636,11.8151542 238.435295,9.73022045 241.800341,9.73022045 C244.646109,9.73022045 249.734715,11.4687246 249.734715,16.5952461 L249.734715,22.5004395 L240.506092,25.7152421 C230.93181,29.0174466 227.304758,32.3148837 227.304758,37.7020219 C227.304758,43.0891601 231.364279,47 236.965849,47 C241.192675,47 244.732919,45.2614958 249.734715,40.7436097 C250.167184,44.7386732 252.324791,47 255.601449,47 L255.601449,47 Z M79.0028216,9.20898702 C83.7505039,9.20898702 86.8598569,12.6844063 87.54644,18.8518055 L69.6053149,18.8518055 C70.381864,12.9466121 74.0010247,9.20898702 79.0028216,9.20898702 L79.0028216,9.20898702 Z M80.5622332,47 C87.1155499,47 92.9002093,43.6088044 96.6077577,37.5303963 L94.7942315,35.879294 C91.5175731,38.7444888 88.0657177,40.0491615 84.0125103,40.0491615 C75.989748,40.0491615 68.6551471,33.6195564 69.0860372,21.9807952 L96.6077577,21.9807952 C96.6077577,15.8118069 91.7732661,5.99418447 80.6490425,5.99418447 C70.4686734,5.99418447 62.6147947,15.0283676 62.6147947,26.9309237 C62.6147947,38.571274 70.1182793,47 80.5622332,47 L80.5622332,47 Z M269.584068,39.351535 C269.584068,44.6496822 272.006838,47 277.695218,47 C281.323849,47 285.206594,46.1307479 289.00253,45.5189343 L289.00253,41.263254 C287.444697,41.5238707 284.600507,41.6986746 282.87379,41.6986746 C277.783606,41.6986746 276.833438,40.482993 276.833438,36.4863403 L276.833438,11.2939207 L288.57164,11.2939207 L288.57164,6.95083852 L276.833438,6.95083852 L276.833438,0 L273.90086,0 C271.230289,3.38801731 268.034126,7.21304436 263.119139,8.94678117 L263.119139,11.2939207 L269.584068,11.2939207 L269.584068,39.351535 Z M178.208546,42.9159454 C170.616674,42.9159454 169.409235,41.0900392 169.409235,34.5762104 L169.409235,19.285637 C172.86109,14.3339194 174.41261,12.857621 176.48183,12.857621 C179.327598,12.857621 180.020494,16.9416757 182.95465,16.9416757 C185.631535,16.9416757 186.487002,11.7277522 186.487002,11.2939207 C186.487002,9.55859481 183.904818,6.34538139 180.108882,6.34538139 C175.618471,6.34538139 173.460864,8.16652015 169.578119,14.5961252 L169.409235,14.5961252 L169.409235,5.99418447 L167.253206,5.99418447 L155.77701,10.6852854 L155.77701,12.6844063 L162.161444,15.8976197 L162.161444,36.2257236 C162.161444,41.1774412 159.228866,42.9159454 155.77701,42.9159454 L155.77701,46.0417568 L178.208546,46.0417568 L178.208546,42.9159454 Z M307.401377,9.20898702 C312.14906,9.20898702 315.250521,12.6844063 315.944996,18.8518055 L297.995979,18.8518055 C298.772528,12.9466121 302.39958,9.20898702 307.401377,9.20898702 L307.401377,9.20898702 Z M308.952897,47 C315.512527,47 321.290873,43.6088044 325,37.5303963 L323.191209,35.879294 C319.908237,38.7444888 316.464273,40.0491615 312.404753,40.0491615 C304.38199,40.0491615 297.045811,33.6195564 297.476701,21.9807952 L325,21.9807952 C325,15.8118069 320.171822,5.99418447 309.041285,5.99418447 C298.859337,5.99418447 291.01335,15.0283676 291.01335,26.9309237 C291.01335,38.571274 298.516835,47 308.952897,47 L308.952897,47 Z M204.555973,9.20898702 C209.302077,9.20898702 212.41143,12.6844063 213.098013,18.8518055 L195.156888,18.8518055 C195.931859,12.9466121 199.552598,9.20898702 204.555973,9.20898702 L204.555973,9.20898702 Z M206.113806,47 C212.667123,47 218.451783,43.6088044 222.160909,37.5303963 L220.345805,35.879294 C217.070725,38.7444888 213.617291,40.0491615 209.565662,40.0491615 C201.5429,40.0491615 194.208299,33.6195564 194.639189,21.9807952 L222.160909,21.9807952 C222.160909,15.8118069 217.326418,5.99418447 206.202194,5.99418447 C196.021825,5.99418447 188.166368,15.0283676 188.166368,26.9309237 C188.166368,38.571274 195.669853,47 206.113806,47 L206.113806,47 Z M135.503081,47 C143.439034,47 149.480965,42.7395523 151.292913,35.879294 L149.310503,34.5762104 C146.89089,38.3980592 143.614231,40.1349743 138.179966,40.1349743 C129.11707,40.1349743 124.115273,31.4472207 124.115273,23.8035231 C124.115273,15.3763863 128.861377,9.73022045 136.020781,9.73022045 C145.940722,9.73022045 142.231595,17.9825534 147.841058,17.9825534 C149.823467,17.9825534 151.117716,16.4204423 151.117716,13.8158642 C151.117716,8.08229646 144.564399,5.99418447 137.485491,5.99418447 C122.821025,5.99418447 117.124753,17.5471328 117.124753,26.8451109 C117.124753,36.0525088 122.645828,47 135.503081,47 L135.503081,47 Z" id="Fill-1"></path>
                <path d="M328.128917,68.255409 L328.128917,75.1689426 L339.846568,75.1689426 L339.846568,79.487135 L328.128917,79.487135 L328.128917,104.545928 C328.128917,108.51955 329.078059,109.728707 334.162751,109.728707 C335.887604,109.728707 338.730301,109.556422 340.27857,109.295624 L340.27857,109.295624 L340.27857,113.530044 C336.48673,114.136994 332.608175,115 328.991344,115 C323.299643,115 320.888948,112.665457 320.888948,107.395745 L320.888948,107.395745 L320.888948,79.487135 L314.423112,79.487135 L314.423112,77.154173 C319.340679,75.4281605 322.525509,71.6236623 325.199504,68.255409 L325.199504,68.255409 L328.128917,68.255409 Z M415.683357,74.2174228 C423.872469,74.2174228 428.269742,76.8981162 428.269742,83.4639183 L428.269742,83.4639183 L428.269742,105.5828 C428.269742,108.780349 430.163297,109.728707 433.092709,107.827248 L433.092709,107.827248 L433.87315,110.939445 C431.367856,113.789262 429.220461,115 426.890174,115 C423.615476,115 421.461774,112.753971 421.031349,108.780349 C416.033373,113.273988 412.498528,115 408.274687,115 C402.671278,115 398.624021,111.113311 398.624021,105.755085 C398.624021,100.39686 402.240853,97.1155391 411.811109,93.8310574 L411.811109,93.8310574 L421.031349,90.6335087 L421.031349,84.7600083 C421.031349,79.6625813 415.945081,77.9334076 413.096077,77.9334076 C409.73624,77.9334076 406.463117,80.0071516 406.463117,81.9955432 C406.463117,82.5568709 406.771824,83.2087106 407.148955,83.87532 L407.326999,84.1837588 C407.357191,84.2352481 407.387569,84.2867559 407.418024,84.3382476 L407.691239,84.8003096 C408.439523,86.0774412 409.030725,87.2799118 407.755969,87.8690436 L407.755969,87.8690436 L402.671278,90.290519 C402.152561,90.5465758 399.828581,86.2283834 399.828581,84.3269246 C399.828581,80.2663695 404.394555,74.2174228 415.683357,74.2174228 Z M133.720283,74.2174228 C141.910972,74.2174228 146.301937,76.8981162 146.301937,83.4639183 L146.301937,83.4639183 L146.301937,105.5828 C146.301937,108.780349 148.200222,109.728707 151.129635,107.827248 L151.129635,107.827248 L151.903769,110.939445 C149.404781,113.789262 147.249503,115 144.920793,115 C141.647671,115 139.490816,112.753971 139.060391,108.780349 C134.063992,113.273988 130.52757,115 126.305305,115 C120.708203,115 116.653064,111.113311 116.653064,105.755085 C116.653064,100.39686 120.277778,97.1155391 129.840151,93.8310574 L129.840151,93.8310574 L139.060391,90.6335087 L139.060391,84.7600083 C139.060391,79.6625813 133.9757,77.9334076 131.13458,77.9334076 C127.773165,77.9334076 124.500043,80.0071516 124.500043,81.9955432 C124.500043,83.8954214 128.028582,86.8321716 125.792895,87.8690436 L125.792895,87.8690436 L120.708203,90.290519 C120.189486,90.5465758 117.8592,86.2283834 117.8592,84.3269246 C117.8592,80.2663695 122.43148,74.2174228 133.720283,74.2174228 Z M499.521638,74.2174228 C504.086035,74.2174228 507.966166,75.4281605 511.152573,77.9334076 L511.152573,77.9334076 L511.152573,87.2652554 L508.484884,87.2652554 C507.192032,80.4386547 504.429744,77.413391 499.688762,77.413391 C495.641506,77.413391 493.23081,79.487135 493.23081,83.2031197 C493.23081,86.8942759 497.478317,88.9868337 502.042766,91.0142282 L502.712541,91.3106329 C505.956309,92.7427279 509.262719,94.1796451 511.240865,96.1640194 C513.052434,97.9801259 514,100.744591 514,103.594408 C514,110.680227 508.916885,115 500.812913,115 C496.503932,115 491.417665,113.877776 488.146119,112.235535 L488.146119,112.235535 L488.146119,101.34996 L490.988816,101.34996 C491.849666,108.086466 495.034496,111.804032 500.20748,111.804032 C504.77503,111.804032 508.054459,109.210271 508.054459,105.666572 C508.054459,99.0154173 496.671057,99.189283 489.607672,92.1018838 C487.882819,90.3727101 486.933676,87.4375405 486.933676,84.9322934 C486.933676,78.6257093 492.10666,74.2174228 499.521638,74.2174228 Z M80.5620046,74.2174228 C91.6742227,74.2174228 96.5034968,83.9807737 96.5034968,90.1166533 L96.5034968,90.1166533 L69.0114782,90.1166533 C68.5810532,101.69453 75.9077385,108.086466 83.9218424,108.086466 C87.9706756,108.086466 91.4188057,106.790376 94.6919278,103.940559 L94.6919278,103.940559 L96.5034968,105.5828 C92.7999497,111.628585 87.0215332,115 80.4752889,115 C70.0426063,115 62.5472197,106.619672 62.5472197,95.0402145 C62.5472197,83.2031197 70.3926223,74.2174228 80.5620046,74.2174228 Z M205.979657,74.2174228 C217.091875,74.2174228 221.921149,83.9807737 221.921149,90.1166533 L221.921149,90.1166533 L194.429131,90.1166533 C193.998706,101.69453 201.325391,108.086466 209.339495,108.086466 C213.386751,108.086466 216.836458,106.790376 220.108003,103.940559 L220.108003,103.940559 L221.921149,105.5828 C218.216025,111.628585 212.437609,115 205.891365,115 C195.458682,115 187.963295,106.619672 187.963295,95.0402145 C187.963295,83.2031197 195.810275,74.2174228 205.979657,74.2174228 Z M378.84339,74.2174228 C383.415671,74.2174228 387.287919,75.4281605 390.480632,77.9334076 L390.480632,77.9334076 L390.480632,87.2652554 L387.806637,87.2652554 C386.513785,80.4386547 383.75938,77.413391 379.016822,77.413391 C374.963259,77.413391 372.552563,79.487135 372.552563,83.2031197 C372.552563,86.6241913 376.201224,88.6720469 380.369893,90.567543 L381.031969,90.8657438 C381.253797,90.9648406 381.47661,91.0636934 381.699951,91.1624801 L382.371102,91.4588202 C385.506277,92.8424766 388.655574,94.2480718 390.567348,96.1640194 C392.37261,97.9801259 393.321753,100.744591 393.321753,103.594408 C393.321753,110.680227 388.238638,115 380.136242,115 C375.825685,115 370.740994,113.877776 367.467872,112.235535 L367.467872,112.235535 L367.467872,101.34996 L370.310569,101.34996 C371.171419,108.086466 374.364132,111.804032 379.535539,111.804032 C384.103089,111.804032 387.376212,109.210271 387.376212,105.666572 C387.376212,99.0154173 376.000693,99.189283 368.935732,92.1018838 C367.212455,90.3727101 366.261736,87.4375405 366.261736,84.9322934 C366.261736,78.6257093 371.434719,74.2174228 378.84339,74.2174228 Z M15.8516233,75.1689426 L15.8516233,78.2779779 C11.4606574,78.450263 10.6802164,80.8717384 12.4050698,85.0176457 L12.4050698,85.0176457 L20.7707664,105.061203 L29.3035876,85.9675848 C26.7967166,79.4017827 26.1975902,78.2779779 21.8886101,78.2779779 L21.8886101,78.2779779 L21.8886101,75.1689426 L40.5908137,75.1689426 L40.5908137,78.2779779 C35.1624132,78.7110616 34.5569802,80.9586713 36.7989743,86.5729536 L36.7989743,86.5729536 L43.9522282,104.458995 L51.6226228,85.9675848 C53.0021901,82.5993315 53.0920591,78.2779779 47.312066,78.2779779 L47.312066,78.2779779 L47.312066,75.1689426 L61.4482957,75.1689426 L61.4482957,78.2779779 C58.7743,78.7979945 57.7447486,79.5740678 56.4503202,82.6831032 L56.4503202,82.6831032 L43.0898015,115 L40.3353967,115 L30.8518564,90.3727101 L19.9950553,115 L17.0577593,115 L4.56439719,83.8954214 C2.92783613,79.746353 2.15370175,78.7979945 -1.42108547e-14,78.2779779 L-1.42108547e-14,78.2779779 L-1.42108547e-14,75.1689426 L15.8516233,75.1689426 Z M259.473761,74.2174228 C267.661297,74.2174228 272.053839,76.8981162 272.053839,83.4639183 L272.053839,83.4639183 L272.053839,105.5828 C272.053839,108.780349 273.953701,109.728707 276.883113,107.827248 L276.883113,107.827248 L277.657248,110.939445 C275.15826,113.789262 273.002982,115 270.672695,115 C267.399573,115 265.244295,112.753971 264.815446,108.780349 C259.817471,113.273988 256.281048,115 252.057207,115 C246.461682,115 242.406542,111.113311 242.406542,105.755085 C242.406542,100.39686 246.031257,97.1155391 255.59363,93.8310574 L255.59363,93.8310574 L264.815446,90.6335087 L264.815446,84.7600083 C264.815446,79.6625813 259.729178,77.9334076 256.886481,77.9334076 C253.525067,77.9334076 250.251945,80.0071516 250.251945,81.9955432 C250.251945,82.686408 250.718737,83.5143799 251.205335,84.3382476 L251.478189,84.8003096 C252.225549,86.0774412 252.81665,87.2799118 251.546373,87.8690436 L251.546373,87.8690436 L246.461682,90.290519 C245.942965,90.5465758 243.611102,86.2283834 243.611102,84.3269246 C243.611102,80.2663695 248.184959,74.2174228 259.473761,74.2174228 Z M169.220099,74.2174228 L169.220099,82.7716166 L169.395107,82.7716166 C173.273662,76.3780997 175.42894,74.5635737 179.908199,74.5635737 C183.698461,74.5635737 186.285741,77.7611225 186.285741,79.487135 C186.285741,79.9186381 185.423315,85.102998 182.750896,85.102998 C179.819906,85.102998 179.134064,81.0424429 176.291367,81.0424429 C174.218074,81.0424429 172.668229,82.5123986 169.220099,87.4375405 L169.220099,87.4375405 L169.220897,102.928865 C169.256907,109.177895 170.536183,110.939445 178.008337,110.939445 L178.008337,110.939445 L178.008337,114.050061 L155.60101,114.050061 L155.60101,110.939445 C159.050717,110.939445 161.980129,109.210271 161.980129,104.285129 L161.980129,104.285129 L161.980129,84.0677066 L155.60101,80.8717384 L155.60101,78.8833467 L167.06482,74.2174228 L169.220099,74.2174228 Z M294.973577,74.2174228 L294.973577,82.7716166 L295.148585,82.7716166 C299.02714,76.3780997 301.182419,74.5635737 305.661677,74.5635737 C309.453516,74.5635737 312.03922,77.7611225 312.03922,79.487135 C312.03922,79.9186381 311.176793,85.102998 308.504374,85.102998 C305.573385,85.102998 304.887543,81.0424429 302.044846,81.0424429 C299.969976,81.0424429 298.420131,82.5123986 294.973577,87.4375405 L294.973577,87.4375405 L294.973577,102.64605 C294.973577,109.124919 296.178137,110.939445 303.761816,110.939445 L303.761816,110.939445 L303.761816,114.050061 L281.354488,114.050061 L281.354488,110.939445 C284.802618,110.939445 287.733608,109.210271 287.733608,104.285129 L287.733608,104.285129 L287.733608,84.0677066 L281.354488,80.8717384 L281.354488,78.8833467 L292.816722,74.2174228 L294.973577,74.2174228 Z M357.210197,74.2174228 L357.210197,104.025911 C357.210197,108.780349 359.453768,110.850932 362.558189,110.939445 L362.558189,110.939445 L362.558189,114.050061 L343.767693,114.050061 L343.767693,110.939445 C347.040815,110.939445 349.976534,108.951053 349.976534,104.63128 L349.976534,104.63128 L349.976534,83.7231363 L343.423983,80.4386547 L343.423983,78.450263 L355.061225,74.2174228 L357.210197,74.2174228 Z M450.981362,74.2174228 L450.981362,81.5624595 L451.154794,81.5624595 C454.683333,76.8981162 460.200026,74.2174228 464.941008,74.2174228 C472.956688,74.2174228 477.609378,78.2779779 477.609378,87.608245 L477.609378,87.608245 L477.609378,104.025911 C477.609378,108.348846 478.823397,110.419428 483.731504,110.939445 L483.731504,110.939445 L483.731504,114.050061 L463.394315,114.050061 L463.394315,110.939445 C468.390714,110.939445 470.377291,108.51955 470.377291,103.855207 L470.377291,103.855207 L470.377291,89.5112844 C470.377291,84.0677066 467.871997,80.0071516 462.274895,80.0071516 C458.308048,80.0071516 454.683333,81.9955432 450.981362,85.102998 L450.981362,85.102998 L450.981362,103.855207 C450.981362,108.608064 452.879647,110.939445 457.964338,110.939445 L457.964338,110.939445 L457.964338,114.050061 L437.362273,114.050061 L437.362273,110.939445 C441.67283,110.763999 443.739816,108.691835 443.739816,104.373643 L443.739816,104.373643 L443.739816,83.54769 L437.969283,80.2663695 L437.969283,78.2779779 L448.826084,74.2174228 L450.981362,74.2174228 Z M139.060391,93.9195709 L134.494417,95.647164 C127.517748,98.2361827 124.325035,99.9653564 124.325035,103.594408 C124.325035,106.275102 126.049888,109.210271 130.358868,109.210271 C133.463289,109.210271 136.130978,107.827248 139.060391,104.718213 L139.060391,104.718213 L139.060391,93.9195709 Z M421.031349,93.9195709 L416.463798,95.647164 C409.480823,98.2361827 406.294416,99.9653564 406.294416,103.594408 C406.294416,106.275102 408.011386,109.210271 412.321943,109.210271 C415.426364,109.210271 418.10036,107.827248 421.031349,104.718213 L421.031349,104.718213 L421.031349,93.9195709 Z M264.815446,93.9195709 L260.247896,95.647164 C253.26965,98.2361827 250.076937,99.9653564 250.076937,103.594408 C250.076937,106.275102 251.80179,109.210271 256.112347,109.210271 C259.218344,109.210271 261.884457,107.827248 264.815446,104.718213 L264.815446,104.718213 L264.815446,93.9195709 Z M78.9175603,77.413391 C73.9211614,77.413391 70.3059066,81.1309564 69.5301956,87.0060374 L69.5301956,87.0060374 L87.4519582,87.0060374 C86.7661162,80.8717384 83.6601188,77.413391 78.9175603,77.413391 Z M204.335213,77.413391 C199.337237,77.413391 195.720406,81.1309564 194.946271,87.0060374 L194.946271,87.0060374 L212.868034,87.0060374 C212.182192,80.8717384 209.076194,77.413391 204.335213,77.413391 Z M353.249656,54 C355.83536,54 357.903923,56.0753245 357.903923,58.6643433 C357.903923,61.2581038 355.83536,63.3302671 353.249656,63.3302671 C350.663953,63.3302671 348.59539,61.2581038 348.59539,58.6643433 C348.59539,56.0753245 350.663953,54 353.249656,54 Z" id="Combined-Shape"></path>
                <path d="M260.290964,141 C269.929382,141 276.152911,146.481312 277.821675,156.431291 L277.821675,156.431291 L277.951135,157.205479 L267.903814,158.259455 L267.801194,157.547266 C266.986546,151.984879 264.61207,149.280787 260.54041,149.280787 C255.066799,149.280787 252.292893,153.739916 252.292893,162.540538 C252.292893,168.699065 253.737471,176.038745 260.619349,176.038745 C264.855201,176.038745 267.103376,173.751155 268.131158,168.390661 L268.131158,168.390661 L268.260617,167.724574 L278.026916,168.586195 L277.906929,169.361973 C276.473402,178.801656 270.158304,184 260.12835,184 C248.31596,184 240.685743,175.480757 240.685743,162.297312 C240.685743,149.956412 248.928524,141 260.290964,141 Z M204.937553,141 C216.04581,141 223.035045,148.616289 223.628664,161.378461 C223.706024,162.251211 223.706024,163.100115 223.706024,163.998299 L223.706024,163.998299 L223.706024,164.740693 L196.139043,164.740693 L196.145358,164.902843 C196.394805,172.083552 199.705495,175.878184 205.717468,175.878184 C209.819124,175.878184 212.534616,173.840179 214.026558,169.64971 L214.026558,169.64971 L214.222326,169.093312 L223.494468,170.336463 L223.194501,171.201264 C220.428488,179.283338 213.745536,183.917335 204.857036,183.917335 C193.164632,183.917335 185.307072,175.584088 185.307072,163.185959 C185.307072,150.124921 193.380924,141 204.937553,141 Z M79.3634125,141 C90.4732483,141 97.460904,148.616289 98.0545232,161.378461 C98.1318831,162.251211 98.1318831,163.100115 98.1318831,163.998299 L98.1318831,164.740693 L70.5664813,164.740693 L70.5727964,164.902843 C70.8222428,172.083552 74.131354,175.878184 80.1449059,175.878184 C84.2449831,175.878184 86.9604752,173.840179 88.4539958,169.64971 L88.4539958,169.64971 L88.6497638,169.093312 L97.9203274,170.336463 L97.621939,171.201264 C94.8543474,179.283338 88.1713952,183.917335 79.282895,183.917335 C67.5904915,183.917335 59.7329311,175.584088 59.7329311,163.185959 C59.7329311,150.124921 67.8067836,141 79.3634125,141 Z M299.992405,141 C308.876169,141 315.368089,145.071241 317.360502,151.889497 L317.360502,151.889497 L317.586267,152.668454 L308.473581,154.496617 L308.262025,153.88458 C307.130044,150.668601 304.349822,149.035972 299.992405,149.035972 C295.382383,149.035972 293.04264,150.337942 293.04264,152.910089 C293.04264,155.372546 295.969688,155.968686 300.743901,156.741284 L300.743901,156.741284 L302.52318,157.033791 C303.012504,157.113567 303.502503,157.198207 303.991275,157.288979 L304.577091,157.400929 C311.889392,158.839121 318.75456,161.770848 318.75456,170.471589 C318.75456,178.637916 311.732172,183.917335 300.873361,183.917335 C290.027181,183.917335 283.191087,179.753891 281.094475,171.8753 L281.094475,171.8753 L280.89397,171.105882 L290.197688,169.285667 L290.377668,169.956523 C291.38019,173.776591 295.166091,175.878184 301.032817,175.878184 C303.363088,175.878184 308.783021,175.437835 308.783021,171.360235 C308.783021,168.304817 306.249088,167.756368 300.980718,166.894747 L300.980718,166.894747 L300.109234,166.750083 C299.896588,166.720219 299.68432,166.689678 299.472532,166.658382 L298.838712,166.562155 C290.409716,165.246901 282.913223,162.601931 282.913223,153.71925 C282.913223,146.1125 289.777734,141 299.992405,141 Z M135.381487,141 C146.837075,141 151.726539,145.770712 151.726539,156.957485 L151.726539,156.957485 L151.726539,174.76062 C151.726539,178.091057 152.010719,180.761766 152.525399,182.279936 L152.525399,182.279936 L152.863257,183.268735 L142.885402,183.268735 L142.700686,182.817258 C142.35967,181.984251 142.103909,180.612333 141.996552,179.05442 L141.996552,179.05442 L141.972871,178.736478 L141.758157,178.951089 C138.450625,182.227476 134.281082,183.755185 128.636963,183.755185 C120.897811,183.755185 115.897832,179.146623 115.897832,172.010426 C115.897832,163.411697 122.41817,158.432733 135.834596,156.785796 C137.662816,156.571186 139.620497,156.416984 141.658695,156.324781 L141.658695,156.324781 L141.797627,156.318422 L141.794469,156.1674 C141.789733,155.631668 141.766051,154.86225 141.666588,154.377389 C141.282946,151.22023 139.974142,149.118637 134.846283,149.118637 C129.603173,149.118637 127.239748,150.612962 126.418785,154.445747 L126.418785,154.445747 L126.279853,155.094347 L116.747213,154.04832 L116.911405,153.243928 C118.499652,145.34944 125.061039,141 135.381487,141 Z M181.950597,141.082665 C182.864708,141.082665 183.654095,141.082665 184.460849,141.260712 L184.460849,141.260712 L185.046574,141.387889 L185.046574,150.652704 L184.151409,150.481016 C184.025107,150.45717 183.551474,150.417428 181.79272,150.417428 C177.143229,150.417428 173.268916,153.062701 170.586579,158.073459 L170.586579,158.073459 L170.567633,183.268735 L159.607781,183.268735 L159.607781,141.809161 L170.000853,141.809161 L170.000853,148.187068 L170.27556,147.791231 C172.369015,144.729454 176.096502,141.082665 181.950597,141.082665 Z M11.0198456,141.809161 L18.3579892,165.848719 L18.5000789,166.309734 L25.9234764,141.809161 L34.1457337,141.809161 L41.9590884,166.33517 L49.1377758,141.809161 L58.4920144,141.809161 L45.5460639,183.268735 L37.0822541,183.268735 L29.2736357,158.051203 L21.6749943,183.268735 L13.2048695,183.268735 L5.32907052e-14,141.809161 L11.0198456,141.809161 Z M370,170.857888 L370,183.268735 L356.978268,183.268735 L356.978268,170.857888 L370,170.857888 Z M330.391707,141.809161 L338.625015,165.62457 C338.669221,165.73585 339.193374,167.285815 339.704897,168.858035 L339.704897,168.858035 L339.853302,169.306333 L339.995392,168.858035 C340.492706,167.269918 341.016859,165.646826 341.021595,165.62616 L341.021595,165.62616 L349.50435,141.809161 L359.003836,141.809161 L343.81129,183.268735 L334.041833,183.268735 L318.936119,141.809161 L330.391707,141.809161 Z M141.800784,163.06991 L141.652379,163.077859 C139.726275,163.176421 138.163288,163.34175 136.73134,163.594514 C129.899983,164.81064 126.434573,167.339865 126.434573,171.11542 C126.434573,173.229731 127.018719,176.038745 132.086585,176.038745 C138.283275,176.038745 141.076127,171.298237 141.783418,169.845244 L141.783418,169.845244 L141.800784,163.06991 Z M205.013334,148.878591 C200.444361,148.878591 197.223661,152.065954 196.40112,157.410551 L196.40112,157.410551 L196.37428,157.590188 L213.052454,157.590188 L213.028772,157.413731 C212.626185,154.226367 211.048989,148.878591 205.013334,148.878591 Z M79.1660657,148.878591 C74.5970925,148.878591 71.3779714,152.065954 70.5538511,157.410551 L70.5538511,157.410551 L70.5285908,157.590188 L87.2051852,157.590188 L87.1815036,157.413731 C86.7789161,154.226367 85.2017204,148.878591 79.1660657,148.878591 Z" id="Combined-Shape"></path>
            </g>
        </g>
    </g>
</svg>