<?xml version="1.0" encoding="UTF-8"?>
<svg width="494px" height="94px" viewBox="0 0 494 71" version="1.1" xmlns="http://www.w3.org/2000/svg" xmlns:xlink="http://www.w3.org/1999/xlink">
    <title>Fill 1</title>
    <g id="V3-Revision" stroke="none" stroke-width="1" fill="none" fill-rule="evenodd">
        <path d="M6.94515449,23.749925 L25.954966,70.9809804 L30.4243348,70.9809804 L46.9439665,33.5849283 L61.3740544,70.9809804 L65.5651372,70.9809804 L85.8944081,21.9091618 C87.8640011,17.1860563 89.4305593,16.0076798 93.4992923,15.2204956 L93.4992923,10.4973901 L71.989705,10.4973901 L71.989705,15.2204956 C80.7845017,15.2204956 80.6477577,21.7819644 78.5486178,26.8962621 L66.8773996,54.9733005 L55.993059,27.8130437 C52.5816567,19.2884142 53.5028793,15.8780824 61.7626951,15.2204956 L61.7626951,10.4973901 L33.3055543,10.4973901 L33.3055543,15.2204956 C39.8620681,15.2204956 40.7736946,16.9268615 44.5881317,26.8962621 L31.6046512,55.8876822 L18.8754665,25.451491 C16.2509418,19.1564169 17.4384553,15.4820904 24.1197179,15.2204956 L24.1197179,10.4973901 L0,10.4973901 L0,15.2204956 C3.27705735,16.0076798 4.45497475,17.450051 6.94515449,23.749925 L6.94515449,23.749925 Z M357.165665,53.6605268 C357.165665,48.150237 362.021276,45.5246895 372.639326,41.5911682 L379.58448,38.9680206 L379.58448,55.3668927 C375.129505,60.0851983 371.070368,62.1875562 366.346704,62.1875562 C359.787791,62.1875562 357.165665,57.7284454 357.165665,53.6605268 L357.165665,53.6605268 Z M388.501627,70.9809804 C392.047374,70.9809804 395.32683,69.1402172 399.129272,64.8131037 L397.951355,60.0851983 C393.493981,62.9747405 390.603166,61.5323694 390.603166,56.6796664 L390.603166,23.0923382 C390.603166,13.1229375 383.921903,9.05261895 371.461408,9.05261895 C354.284446,9.05261895 347.327296,18.2396352 347.327296,24.4051119 C347.327296,27.2898542 350.873043,33.8465231 351.66232,33.4577308 L359.396751,29.7834043 C362.800956,28.2090358 357.429557,23.749925 357.429557,20.8651827 C357.429557,17.8436431 362.409917,14.6949061 367.524621,14.6949061 C371.850049,14.6949061 379.58448,17.3204536 379.58448,25.0626987 L379.58448,33.9809204 L365.557427,38.8360233 C351.004989,43.8231235 345.492048,48.8030239 345.492048,56.9388612 C345.492048,65.0746985 351.66232,70.9809804 360.176432,70.9809804 C366.600999,70.9809804 371.981995,68.3554329 379.58448,61.5323694 C380.241811,67.5658487 383.521267,70.9809804 388.501627,70.9809804 L388.501627,70.9809804 Z M120.080402,13.9077218 C127.296654,13.9077218 132.022709,19.1564169 133.066281,28.4706306 L105.796654,28.4706306 C106.97697,19.552409 112.477917,13.9077218 120.080402,13.9077218 L120.080402,13.9077218 Z M122.450631,70.9809804 C132.41135,70.9809804 141.203747,65.8594828 146.839038,56.6796664 L144.082568,54.1861163 C139.102208,58.5132297 133.855558,60.4835903 127.694882,60.4835903 C115.500678,60.4835903 104.352446,50.7733845 105.007377,33.1961361 L146.839038,33.1961361 C146.839038,23.8795224 139.490849,9.05261895 122.582577,9.05261895 C107.108916,9.05261895 95.1714072,22.6963461 95.1714072,40.6719866 C95.1714072,58.251635 106.576334,70.9809804 122.450631,70.9809804 L122.450631,70.9809804 Z M409.754519,59.4300114 C409.754519,67.4314514 413.43701,70.9809804 422.083068,70.9809804 C427.598408,70.9809804 433.49999,69.6682066 439.269626,68.7442251 L439.269626,62.3171537 C436.901796,62.7107458 432.578768,62.9747405 429.954243,62.9747405 C422.217413,62.9747405 420.773205,61.1387772 420.773205,55.1028979 L420.773205,17.0564589 L438.614695,17.0564589 L438.614695,10.4973901 L420.773205,10.4973901 L420.773205,0 L416.315831,0 C412.256694,5.11669767 407.398684,10.8933821 399.928145,13.5117298 L399.928145,17.0564589 L409.754519,17.0564589 L409.754519,59.4300114 Z M270.868222,64.8131037 C259.32895,64.8131037 257.493702,62.0555589 257.493702,52.2181556 L257.493702,29.1258175 C262.740352,21.647567 265.098586,19.4180116 268.243698,19.4180116 C272.569125,19.4180116 273.622294,25.5858883 278.082067,25.5858883 C282.1508,25.5858883 283.451067,17.7116458 283.451067,17.0564589 C283.451067,14.4357113 279.526275,9.58300834 273.756639,9.58300834 C266.931435,9.58300834 263.651979,12.3333533 257.750397,22.0435591 L257.493702,22.0435591 L257.493702,9.05261895 L254.216645,9.05261895 L236.773391,16.1372773 L236.773391,19.1564169 L246.477415,24.0091198 L246.477415,54.7093058 C246.477415,62.1875562 242.020042,64.8131037 236.773391,64.8131037 L236.773391,69.5338093 L270.868222,69.5338093 L270.868222,64.8131037 Z M467.234969,13.9077218 C474.451212,13.9077218 479.165281,19.1564169 480.220848,28.4706306 L452.939226,28.4706306 C454.119542,19.552409 459.632483,13.9077218 467.234969,13.9077218 L467.234969,13.9077218 Z M469.593202,70.9809804 C479.563517,70.9809804 488.346319,65.8594828 493.984009,56.6796664 L491.234736,54.1861163 C486.24478,58.5132297 481.010125,60.4835903 474.839853,60.4835903 C462.645649,60.4835903 451.495017,50.7733845 452.149949,33.1961361 L493.984009,33.1961361 C493.984009,23.8795224 486.645416,9.05261895 469.727547,9.05261895 C454.251488,9.05261895 442.325974,22.6963461 442.325974,40.6719866 C442.325974,58.251635 453.730901,70.9809804 469.593202,70.9809804 L469.593202,70.9809804 Z M310.915015,13.9077218 C318.128868,13.9077218 322.854923,19.1564169 323.898495,28.4706306 L296.628868,28.4706306 C297.806785,19.552409 303.31013,13.9077218 310.915015,13.9077218 L310.915015,13.9077218 Z M313.282845,70.9809804 C323.243564,70.9809804 332.035961,65.8594828 337.673651,56.6796664 L334.914782,54.1861163 C329.936821,58.5132297 324.687772,60.4835903 318.529495,60.4835903 C306.335291,60.4835903 295.187059,50.7733845 295.84199,33.1961361 L337.673651,33.1961361 C337.673651,23.8795224 330.325462,9.05261895 313.417189,9.05261895 C297.943529,9.05261895 286.003621,22.6963461 286.003621,40.6719866 C286.003621,58.251635 297.408548,70.9809804 313.282845,70.9809804 L313.282845,70.9809804 Z M205.958017,70.9809804 C218.020275,70.9809804 227.203712,64.5467091 229.957784,54.1861163 L226.944618,52.2181556 C223.266925,57.9900402 218.286566,60.6131877 210.02675,60.6131877 C196.251594,60.6131877 188.649108,47.4926501 188.649108,35.948881 C188.649108,23.2219356 195.862953,14.6949061 206.744894,14.6949061 C221.822717,14.6949061 216.185027,27.1578568 224.711133,27.1578568 C227.724299,27.1578568 229.691493,24.798704 229.691493,20.8651827 C229.691493,12.2061559 219.730774,9.05261895 208.971182,9.05261895 C186.681914,9.05261895 178.023862,26.50027 178.023862,40.5423892 C178.023862,54.447711 186.415623,70.9809804 205.958017,70.9809804 L205.958017,70.9809804 Z" id="Fill-1" fill="#000000"></path>
    </g>
</svg>