<?xml version="1.0" encoding="UTF-8"?>
<svg width="563px" height="94px" viewBox="0 0 563 65" version="1.1" xmlns="http://www.w3.org/2000/svg" xmlns:xlink="http://www.w3.org/1999/xlink">
    <title>Combined Shape</title>
    <g id="V3-Revision" stroke="none" stroke-width="1" fill="none" fill-rule="evenodd">
        <g id="Group" transform="translate(-18.000000, -645.000000)" fill="#000000">
            <path d="M414.159289,645.083698 C428.805289,645.083698 438.262214,653.358733 440.797975,668.380032 L440.797975,668.380032 L440.994694,669.548809 L425.72735,671.139977 L425.571413,670.064799 C424.333521,661.667367 420.725399,657.585048 414.538334,657.585048 C406.220942,657.585048 402.005869,664.316914 402.005869,677.603048 C402.005869,686.900462 404.200969,697.98104 414.658285,697.98104 C421.094848,697.98104 424.511048,694.527509 426.072808,686.434871 L426.072808,686.434871 L426.269527,685.429291 L441.109847,686.730065 L440.927522,687.901242 C438.749214,702.152157 429.153146,710 413.91219,710 C395.962744,710 384.368295,697.138657 384.368295,677.235855 C384.368295,658.605028 396.893563,645.083698 414.159289,645.083698 Z M330.047351,645.083698 C346.926835,645.083698 357.547284,656.581868 358.449314,675.848683 C358.566866,677.166257 358.566866,678.447831 358.566866,679.803804 L358.566866,679.803804 L358.566866,680.924582 L316.677628,680.924582 L316.687225,681.169377 C317.066269,692.00996 322.097008,697.738645 331.232465,697.738645 C337.465112,697.738645 341.591421,694.661907 343.858492,688.335633 L343.858492,688.335633 L344.15597,687.49565 L358.245398,689.372413 L357.789584,690.677986 C353.586506,702.879342 343.431467,709.875202 329.925001,709.875202 C312.15788,709.875202 300.217972,697.294654 300.217972,678.577428 C300.217972,658.859423 312.486546,645.083698 330.047351,645.083698 Z M139.23193,645.083698 C156.113813,645.083698 166.731863,656.581868 167.633893,675.848683 C167.751445,677.166257 167.751445,678.447831 167.751445,679.803804 L167.751445,679.803804 L167.751445,680.924582 L125.864607,680.924582 L125.874203,681.169377 C126.253247,692.00996 131.281587,697.738645 140.419443,697.738645 C146.649691,697.738645 150.776,694.661907 153.04547,688.335633 L153.04547,688.335633 L153.342948,687.49565 L167.429977,689.372413 L166.976563,690.677986 C162.771086,702.879342 152.616046,709.875202 139.10958,709.875202 C121.342459,709.875202 109.402551,697.294654 109.402551,678.577428 C109.402551,658.859423 121.671125,645.083698 139.23193,645.083698 Z M474.487372,645.083698 C487.986641,645.083698 497.8514,651.229975 500.878959,661.52337 L500.878959,661.52337 L501.222019,662.699346 L487.374892,665.459291 L487.053424,664.535309 C485.333328,659.680206 481.108659,657.215456 474.487372,657.215456 C467.482242,657.215456 463.926899,659.181016 463.926899,663.064139 C463.926899,666.781664 468.374676,667.681646 475.629304,668.848023 L475.629304,668.848023 L478.332996,669.289614 C478.576881,669.329117 478.820875,669.369411 479.064878,669.410562 L479.796809,669.536654 C491.504855,671.597458 502.997291,675.789548 502.997291,689.576408 C502.997291,701.904962 492.326463,709.875202 475.826024,709.875202 C459.344776,709.875202 448.957032,703.589728 445.771137,691.695566 L445.771137,691.695566 L445.466462,690.533989 L459.60387,687.786044 L459.877358,688.798824 C461.400734,694.565909 467.153577,697.738645 476.068324,697.738645 C479.609274,697.738645 487.845099,697.073859 487.845099,690.917982 C487.845099,686.305274 483.994677,685.47729 475.989157,684.176516 L475.989157,684.176516 L474.664899,683.958121 C461.09366,682.064559 448.534805,678.366233 448.534805,664.285714 C448.534805,652.801944 458.965731,645.083698 474.487372,645.083698 Z M224.353855,645.083698 C241.761123,645.083698 249.190879,652.285954 249.190879,669.174417 L249.190879,669.174417 L249.190879,696.051479 C249.190879,701.079378 249.622702,705.111298 250.404781,707.403252 L250.404781,707.403252 L250.918171,708.896022 L235.756383,708.896022 L235.475698,708.214436 C234.95751,706.956861 234.568869,704.885702 234.405736,702.533749 L234.405736,702.533749 L234.369751,702.053759 L234.043485,702.377752 C229.017544,707.324054 222.68174,709.630407 214.105253,709.630407 C202.345272,709.630407 194.747585,702.672947 194.747585,691.899562 C194.747585,678.918222 204.655525,671.401572 225.042372,668.915222 C227.820434,668.591228 230.795215,668.358433 233.892347,668.219236 L233.892347,668.219236 L234.10346,668.209636 L234.098662,667.98164 C234.091465,667.172857 234.05548,666.01128 233.904342,665.279294 C233.32138,660.51299 231.332595,657.340253 223.540588,657.340253 C215.573452,657.340253 211.982123,659.596208 210.734634,665.382492 L210.734634,665.382492 L210.523521,666.361673 L196.038256,664.782504 L196.287754,663.568129 C198.701165,651.649967 208.67148,645.083698 224.353855,645.083698 Z M295.117662,645.208496 C296.506693,645.208496 297.706201,645.208496 298.932099,645.47729 L298.932099,645.47729 L299.822134,645.669287 L299.822134,659.656207 L298.461892,659.397012 C298.26997,659.361013 297.550265,659.301014 294.87776,659.301014 C287.812655,659.301014 281.925467,663.294534 277.849537,670.859183 L277.849537,670.859183 L277.820749,708.896022 L261.166772,708.896022 L261.166772,646.305274 L276.959501,646.305274 L276.959501,655.933881 L277.37693,655.336293 C280.558027,650.713986 286.222106,645.208496 295.117662,645.208496 Z M35.3808789,646.305274 L46.5315103,682.597348 L46.7474219,683.293334 L58.0276002,646.305274 L70.5216813,646.305274 L82.3944169,683.331733 L93.3027476,646.305274 L107.516924,646.305274 L87.8449837,708.896022 L74.9838531,708.896022 L63.1183145,670.825583 L51.5718452,708.896022 L38.7011185,708.896022 L18.6357395,646.305274 L35.3808789,646.305274 Z M580.866987,690.159597 L580.866987,708.896022 L561.079894,708.896022 L561.079894,690.159597 L580.866987,690.159597 Z M520.680446,646.305274 L533.19132,682.258955 C533.23533,682.369022 533.592393,683.411403 534.052007,684.784721 L534.276561,685.457624 C534.455891,685.996562 534.644628,686.567531 534.832248,687.140457 L534.832248,687.140457 L535.057756,687.817244 L535.273667,687.140457 C536.029358,684.742905 536.825831,682.292554 536.833028,682.261355 L536.833028,682.261355 L549.722947,646.305274 L564.157833,646.305274 L541.072092,708.896022 L526.226974,708.896022 L503.273178,646.305274 L520.680446,646.305274 Z M234.108258,678.402232 L233.88275,678.414232 C230.95595,678.563029 228.580923,678.812624 226.405014,679.194216 C216.024467,681.030179 210.758625,684.848503 210.758625,690.548389 C210.758625,693.740325 211.646261,697.98104 219.347106,697.98104 C228.763248,697.98104 233.007109,690.824384 234.081869,688.630827 L234.081869,688.630827 L234.108258,678.402232 Z M330.162504,656.97786 C323.219748,656.97786 318.325753,661.789764 317.075865,669.858403 L317.075865,669.858403 L317.035082,670.129597 L342.378299,670.129597 L342.342313,669.863203 C341.730564,665.051299 339.333946,656.97786 330.162504,656.97786 Z M138.932053,656.97786 C131.989297,656.97786 127.097701,661.789764 125.845415,669.858403 L125.845415,669.858403 L125.80703,670.129597 L151.147848,670.129597 L151.111863,669.863203 C150.500113,665.051299 148.103495,656.97786 138.932053,656.97786 Z" id="Combined-Shape"></path>
        </g>
    </g>
</svg>