<?xml version="1.0" encoding="UTF-8"?>
<svg width="783px" height="94px" viewBox="0 0 783 94" version="1.1" xmlns="http://www.w3.org/2000/svg" xmlns:xlink="http://www.w3.org/1999/xlink">
    <title>Combined Shape</title>
    <g id="V3-Revision" stroke="none" stroke-width="1" fill="none" fill-rule="evenodd">
        <path d="M499.27864,22.6059279 L499.27864,33.1033179 L517.108135,33.1033179 L517.108135,39.6599868 L499.27864,39.6599868 L499.27864,77.7088258 C499.27864,83.7423052 500.722848,85.5782684 508.459678,85.5782684 C511.084203,85.5782684 515.409631,85.3166737 517.765466,84.9206816 L517.765466,84.9206816 L517.765466,91.350153 C516.854471,91.4956659 515.940186,91.6508716 515.024699,91.8090816 L512.276717,92.2860356 C508.308228,92.9686647 504.356349,93.5821084 500.590902,93.5821084 C491.930451,93.5821084 488.262353,90.0373793 488.262353,82.0359393 L488.262353,82.0359393 L488.262353,39.6599868 L478.423984,39.6599868 L478.423984,36.1176576 C485.906519,33.4969101 490.752533,27.7202256 494.821266,22.6059279 L494.821266,22.6059279 L499.27864,22.6059279 Z M632.500857,31.6585468 C644.961352,31.6585468 651.652211,35.7288654 651.652211,45.698266 L651.652211,45.698266 L651.652211,79.2831943 C651.652211,84.1382972 654.53343,85.5782684 658.990804,82.6911262 L658.990804,82.6911262 L660.178318,87.4166317 C656.366279,91.7437451 653.098818,93.5821084 649.553071,93.5821084 C644.570312,93.5821084 641.293255,90.1717766 640.638323,84.1382972 C633.033439,90.9613608 627.654843,93.5821084 621.227876,93.5821084 C612.701769,93.5821084 606.543492,87.6806264 606.543492,79.5447891 C606.543492,71.4089518 612.046838,66.4266515 626.608871,61.4395512 L626.608871,61.4395512 L640.638323,56.5844483 L640.638323,47.6662267 C640.638323,39.9263815 632.899094,37.300834 628.56407,37.300834 C623.451765,37.300834 618.471405,40.449571 618.471405,43.4687106 C618.471405,44.3796819 619.008014,45.4476539 619.634816,46.5322026 L619.846478,46.8941402 C621.164773,49.127499 622.654576,51.3649738 620.438599,52.3869323 L620.438599,52.3869323 L612.701769,56.0636587 C611.912493,56.452451 608.376341,49.8957821 608.376341,47.0086398 C608.376341,40.8431631 615.323895,31.6585468 632.500857,31.6585468 Z M203.467837,31.6585468 C215.930731,31.6585468 222.611993,35.7288654 222.611993,45.698266 L222.611993,45.698266 L222.611993,79.2831943 C222.611993,84.1382972 225.50041,85.5782684 229.957784,82.6911262 L229.957784,82.6911262 L231.135701,87.4166317 C227.333259,91.7437451 224.053803,93.5821084 220.510454,93.5821084 C215.530095,93.5821084 212.24824,90.1717766 211.593308,84.1382972 C203.990823,90.9613608 198.609827,93.5821084 192.18526,93.5821084 C183.668749,93.5821084 177.498477,87.6806264 177.498477,79.5447891 C177.498477,71.4089518 183.013817,66.4266515 197.563856,61.4395512 L197.563856,61.4395512 L211.593308,56.5844483 L211.593308,47.6662267 C211.593308,39.9263815 203.856478,37.300834 199.533449,37.300834 C194.418744,37.300834 189.438385,40.449571 189.438385,43.4687106 C189.438385,44.4809009 190.099388,45.6869193 190.810581,46.8941402 L191.131944,47.4368207 C192.343206,49.4823418 193.434727,51.4478353 191.405579,52.3869323 L191.405579,52.3869323 L183.668749,56.0636587 C182.879472,56.452451 179.333725,49.8957821 179.333725,47.0086398 C179.333725,40.8431631 186.290875,31.6585468 203.467837,31.6585468 Z M760.068591,31.6585468 C767.013746,31.6585468 772.917727,33.4969101 777.766141,37.300834 L777.766141,37.300834 L777.766141,51.4701506 L773.707004,51.4701506 C771.73981,41.1047579 767.536732,36.5112498 760.322887,36.5112498 C754.16461,36.5112498 750.496513,39.6599868 750.496513,45.302274 C750.496513,51.8302658 759.264591,55.065252 767.350109,58.6864414 L768.09425,59.0219091 C771.92612,60.7619339 775.536597,62.6155522 777.900486,64.9818804 C780.656956,67.7394252 782.098765,71.9369413 782.098765,76.2640547 C782.098765,87.0230395 774.364334,93.5821084 762.033386,93.5821084 C755.476873,93.5821084 747.737644,91.8781424 742.759683,89.3845923 L742.759683,89.3845923 L742.759683,72.8561229 L747.085111,72.8561229 C748.394974,83.0847183 753.240989,88.7294054 761.112164,88.7294054 C768.062116,88.7294054 773.052072,84.7910842 773.052072,79.4103918 C773.052072,69.3113938 755.731169,69.5753885 744.983572,58.8140037 C742.359047,56.1884562 740.914839,51.7317454 740.914839,47.9278214 C740.914839,38.352013 748.786014,31.6585468 760.068591,31.6585468 Z M122.582577,31.6585468 C139.490849,31.6585468 146.839038,46.4830503 146.839038,55.799664 L146.839038,55.799664 L105.007377,55.799664 C104.352446,73.3793124 115.500678,83.0847183 127.694882,83.0847183 C133.855558,83.0847183 139.102208,81.1167577 144.082568,76.7896442 L144.082568,76.7896442 L146.839038,79.2831943 C141.203747,88.4630107 132.41135,93.5821084 122.450631,93.5821084 C106.576334,93.5821084 95.1714072,80.8575628 95.1714072,63.2755145 C95.1714072,45.302274 107.108916,31.6585468 122.582577,31.6585468 Z M313.417189,31.6585468 C330.325462,31.6585468 337.673651,46.4830503 337.673651,55.799664 L337.673651,55.799664 L295.84199,55.799664 C295.187059,73.3793124 306.335291,83.0847183 318.529495,83.0847183 C324.687772,83.0847183 329.936821,81.1167577 334.914782,76.7896442 L334.914782,76.7896442 L337.673651,79.2831943 C332.035961,88.4630107 323.243564,93.5821084 313.282845,93.5821084 C297.408548,93.5821084 286.003621,80.8575628 286.003621,63.2755145 C286.003621,45.302274 297.943529,31.6585468 313.417189,31.6585468 Z M576.445424,31.6585468 C583.402573,31.6585468 589.294559,33.4969101 594.152569,37.300834 L594.152569,37.300834 L594.152569,51.4701506 L590.083836,51.4701506 C588.116642,41.1047579 583.925559,36.5112498 576.709316,36.5112498 C570.541443,36.5112498 566.873346,39.6599868 566.873346,45.302274 C566.873346,51.0268207 573.615946,54.2190655 580.729537,57.360078 L581.479431,57.6906288 C581.729669,57.8008208 581.980088,57.9110569 582.230414,58.0214443 L583.355318,58.5195704 C583.48003,58.5751116 583.604616,58.6307308 583.729041,58.6864414 L584.473382,59.0219091 C588.306317,60.7619339 591.91835,62.6155522 594.284515,64.9818804 C597.03139,67.7394252 598.475598,71.9369413 598.475598,76.2640547 C598.475598,87.0230395 590.741167,93.5821084 578.412618,93.5821084 C571.853705,93.5821084 564.116875,91.8781424 559.136516,89.3845923 L559.136516,89.3845923 L559.136516,72.8561229 L563.461943,72.8561229 C564.771807,83.0847183 569.629816,88.7294054 577.498592,88.7294054 C584.448545,88.7294054 589.428904,84.7910842 589.428904,79.4103918 C589.428904,69.3113938 572.119996,69.5753885 561.37,58.8140037 C558.747875,56.1884562 557.301267,51.7317454 557.301267,47.9278214 C557.301267,38.352013 565.172443,31.6585468 576.445424,31.6585468 Z M24.1197179,33.1033179 L24.1197179,37.8240235 C17.4384553,38.0856183 16.2509418,41.7623448 18.8754665,48.0574189 L18.8754665,48.0574189 L31.6046512,78.4912102 L44.5881317,49.49979 C40.7736946,39.5303894 39.8620681,37.8240235 33.3055543,37.8240235 L33.3055543,37.8240235 L33.3055543,33.1033179 L61.7626951,33.1033179 L61.7626951,37.8240235 C53.5028793,38.4816104 52.5816567,41.8943421 55.993059,50.4189716 L55.993059,50.4189716 L66.8773996,77.5768285 L78.5486178,49.49979 C80.6477577,44.3854923 80.7845017,37.8240235 71.989705,37.8240235 L71.989705,37.8240235 L71.989705,33.1033179 L93.4992923,33.1033179 L93.4992923,37.8240235 C89.4305593,38.6136077 87.8640011,39.7919842 85.8944081,44.5126897 L85.8944081,44.5126897 L65.5651372,93.5821084 L61.3740544,93.5821084 L46.9439665,56.1884562 L30.4243348,93.5821084 L25.954966,93.5821084 L6.94515449,46.3534529 C4.45497475,40.0535789 3.27705735,38.6136077 -2.13162821e-14,37.8240235 L-2.13162821e-14,37.8240235 L-2.13162821e-14,33.1033179 L24.1197179,33.1033179 Z M394.813441,31.6585468 C407.271536,31.6585468 413.955198,35.7288654 413.955198,45.698266 L413.955198,45.698266 L413.955198,79.2831943 C413.955198,84.1382972 416.846014,85.5782684 421.303387,82.6911262 L421.303387,82.6911262 L422.481305,87.4166317 C418.678863,91.7437451 415.399406,93.5821084 411.853659,93.5821084 C406.873299,93.5821084 403.593843,90.1717766 402.94131,84.1382972 C395.336426,90.9613608 389.955431,93.5821084 383.528464,93.5821084 C375.014352,93.5821084 368.84408,87.6806264 368.84408,79.5447891 C368.84408,71.4089518 374.359421,66.4266515 388.909459,61.4395512 L388.909459,61.4395512 L402.94131,56.5844483 L402.94131,47.6662267 C402.94131,39.9263815 395.202081,37.300834 390.876653,37.300834 C385.761949,37.300834 380.78159,40.449571 380.78159,43.4687106 C380.78159,44.4809009 381.442888,45.6869193 382.154465,46.8941402 L382.368835,47.25615 C382.404611,47.3164267 382.44036,47.3766583 382.476006,47.4368207 L382.688027,47.7967717 C383.805669,49.7100248 384.660969,51.5030763 382.751183,52.3869323 L382.751183,52.3869323 L375.014352,56.0636587 C374.225076,56.452451 370.67693,49.8957821 370.67693,47.0086398 C370.67693,40.8431631 377.636478,31.6585468 394.813441,31.6585468 Z M257.484106,31.6585468 L257.484106,44.6470871 L257.750397,44.6470871 C263.651979,34.9392812 266.931435,32.1841363 273.747043,32.1841363 C279.51428,32.1841363 283.451067,37.0392392 283.451067,39.6599868 C283.451067,40.3151737 282.138805,48.1870163 278.072471,48.1870163 C273.612698,48.1870163 272.569125,42.0215396 268.243698,42.0215396 C265.08899,42.0215396 262.730756,44.2534949 257.484106,51.7317454 L257.484106,51.7317454 L257.484751,75.1389679 C257.524644,84.7204186 259.441033,87.4166317 270.856227,87.4166317 L270.856227,87.4166317 L270.856227,92.1397372 L236.761396,92.1397372 L236.761396,87.4166317 C242.010446,87.4166317 246.467819,84.7910842 246.467819,77.3128337 L246.467819,77.3128337 L246.467819,46.6150477 L236.761396,41.7623448 L236.761396,38.7432051 L254.20465,31.6585468 L257.484106,31.6585468 Z M448.829709,31.6585468 L448.829709,44.6470871 L449.096,44.6470871 C454.997582,34.9392812 458.277039,32.1841363 465.092646,32.1841363 C470.862282,32.1841363 474.796671,37.0392392 474.796671,39.6599868 C474.796671,40.3151737 473.484408,48.1870163 469.418074,48.1870163 C467.30555,48.1870163 465.959542,46.8036268 464.668156,45.3474273 L464.23874,44.8611286 C462.950703,43.4049291 461.638188,42.0215396 459.589301,42.0215396 C456.432195,42.0215396 454.073961,44.2534949 448.829709,51.7317454 L448.829709,51.7317454 L448.829709,74.8240835 C448.829709,84.6614868 450.662559,87.4166317 462.201831,87.4166317 L462.201831,87.4166317 L462.201831,92.1397372 L428.107,92.1397372 L428.107,87.4166317 C433.35365,87.4166317 437.813423,84.7910842 437.813423,77.3128337 L437.813423,77.3128337 L437.813423,46.6150477 L428.107,41.7623448 L428.107,38.7432051 L445.547854,31.6585468 L448.829709,31.6585468 Z M543.52851,31.6585468 L543.52851,76.9192416 C543.52851,84.1382972 546.942312,87.2822344 551.665976,87.4166317 L551.665976,87.4166317 L551.665976,92.1397372 L523.074491,92.1397372 L523.074491,87.4166317 C528.05485,87.4166317 532.52182,84.3974921 532.52182,77.8384232 L532.52182,77.8384232 L532.52182,46.0918582 L522.551505,41.1047579 L522.551505,38.0856183 L540.25865,31.6585468 L543.52851,31.6585468 Z M686.210052,31.6585468 L686.210052,42.8111238 L686.473944,42.8111238 C691.842944,35.7288654 700.237105,31.6585468 707.450949,31.6585468 C719.647552,31.6585468 726.727052,37.8240235 726.727052,51.9909402 L726.727052,51.9909402 L726.727052,76.9192416 C726.727052,83.4831103 728.574295,86.6270475 736.042435,87.4166317 L736.042435,87.4166317 L736.042435,92.1397372 L705.097514,92.1397372 L705.097514,87.4166317 C712.699999,87.4166317 715.72276,83.7423052 715.72276,76.6600468 L715.72276,76.6600468 L715.72276,54.8804824 C715.72276,46.6150477 711.910722,40.449571 703.394212,40.449571 C697.358285,40.449571 691.842944,43.4687106 686.210052,48.1870163 L686.210052,48.1870163 L686.210052,76.6600468 C686.210052,83.8767025 689.098469,87.4166317 696.835299,87.4166317 L696.835299,87.4166317 L696.835299,92.1397372 L665.487342,92.1397372 L665.487342,87.4166317 C672.046255,87.150237 675.191367,84.0038999 675.191367,77.4472311 L675.191367,77.4472311 L675.191367,45.8254635 L666.410964,40.8431631 L666.410964,37.8240235 L682.930596,31.6585468 L686.210052,31.6585468 Z M211.593308,61.5739485 L204.645754,64.1970961 C194.030104,68.1282174 189.172094,70.7537649 189.172094,76.2640547 C189.172094,80.3343733 191.796619,84.7910842 198.353133,84.7910842 C203.076797,84.7910842 207.135934,82.6911262 211.593308,77.9704206 L211.593308,77.9704206 L211.593308,61.5739485 Z M640.638323,61.5739485 L633.688371,64.1970961 C623.063124,68.1282174 618.214711,70.7537649 618.214711,76.2640547 C618.214711,80.3343733 620.82724,84.7910842 627.386153,84.7910842 C632.109818,84.7910842 636.178551,82.6911262 640.638323,77.9704206 L640.638323,77.9704206 L640.638323,61.5739485 Z M402.94131,61.5739485 L395.991358,64.1970961 C385.373308,68.1282174 380.515299,70.7537649 380.515299,76.2640547 C380.515299,80.3343733 383.139823,84.7910842 389.698736,84.7910842 C394.4248,84.7910842 398.481538,82.6911262 402.94131,77.9704206 L402.94131,77.9704206 L402.94131,61.5739485 Z M120.080402,36.5112498 C112.477917,36.5112498 106.97697,42.1559369 105.796654,51.0765585 L105.796654,51.0765585 L133.066281,51.0765585 C132.022709,41.7623448 127.296654,36.5112498 120.080402,36.5112498 Z M310.915015,36.5112498 C303.31013,36.5112498 297.806785,42.1559369 296.628868,51.0765585 L296.628868,51.0765585 L323.898495,51.0765585 C322.854923,41.7623448 318.128868,36.5112498 310.915015,36.5112498 Z M537.502179,0.960760785 C541.436567,0.960760785 544.584078,4.11189776 544.584078,8.04301914 C544.584078,11.9813404 541.436567,15.1276774 537.502179,15.1276774 C533.567791,15.1276774 530.420281,11.9813404 530.420281,8.04301914 C530.420281,4.11189776 533.567791,0.960760785 537.502179,0.960760785 Z" id="Combined-Shape" fill="#000000"></path>
    </g>
</svg>