<?xml version="1.0" encoding="UTF-8"?>
<svg width="203px" height="168px" viewBox="0 0 203 168" version="1.1" xmlns="http://www.w3.org/2000/svg" xmlns:xlink="http://www.w3.org/1999/xlink">
    <title>V3 Revision</title>
    <g id="V3-Revision" stroke="none" stroke-width="1" fill="none" fill-rule="evenodd">
        <path d="M86.0836318,100.692246 C87.0855313,100.107763 147.459792,64.8168719 149.580547,63.5796277 L134.771606,40.1861762 C127.814003,44.2454792 58.4038884,84.6913582 58.4038884,84.6913582 L86.0836318,100.692246 Z" id="Fill-7" fill="#000000"></path>
        <path d="M169.863412,83.6397301 C169.863412,83.6397301 169.90826,99.5991212 169.908553,99.7274368 C169.929658,107.086156 167.75145,110.414708 162.585718,113.408933 C160.451478,114.646177 98.6036813,150.497419 98.6036813,150.497419 C98.6417875,163.928464 113.126826,172.298404 124.711691,165.583028 C147.686787,152.264994 178.190785,134.582761 182.486524,132.092675 C196.369485,124.044995 202.855157,112.321488 202.808219,95.569837 C202.783341,86.8049446 202.720613,64.5931143 202.720613,64.5931143 L169.863412,83.6397301 Z" id="Fill-12" fill="#000000"></path>
        <path d="M10.824218,70.3484484 C-2.62550505,62.5518085 -4.33793818,46.4726365 10.2107085,37.9837991 C24.728284,29.5135026 51.6925106,13.7804294 65.4851893,5.73275012 C79.2837304,-2.31816647 93.0128011,-1.88083418 108.318588,6.99177268 C116.330266,11.6358531 196.100279,57.8759435 196.100279,57.8759435 L163.456766,76.9225592 C163.456766,76.9225592 92.8120108,35.9716585 89.2792748,33.9239075 C82.5544132,30.0258818 78.5040194,30.2018742 73.3717031,33.1960994 C68.2458355,36.1873816 58.3602128,41.9548115 57.8399169,42.2588252 L10.824218,70.3484484" id="Fill-29" fill="#000000"></path>
    </g>
</svg>