<?xml version="1.0" encoding="UTF-8"?>
<svg width="308px" height="254px" viewBox="0 0 308 254" version="1.1" xmlns="http://www.w3.org/2000/svg" xmlns:xlink="http://www.w3.org/1999/xlink">
    <title>Group 15</title>
    <g id="V3-Desktop" stroke="none" stroke-width="1" fill="none" fill-rule="evenodd">
        <g id="Group-15" fill="#000000">
            <path d="M164.088412,134.22265 C165.607523,133.339983 223.583523,97.8839833 226.799079,96.0155389 L204.345301,60.6879833 C193.795967,66.8182055 122.119523,110.05865 122.119523,110.05865 L164.088412,134.22265 Z" id="Fill-8"></path>
            <path d="M257.552367,126.309894 C257.552367,126.309894 257.620812,150.411228 257.620812,150.605006 C257.652812,161.717894 254.350145,166.744561 246.517701,171.266339 C243.281701,173.134783 149.506145,227.276117 149.506145,227.276117 C149.563923,247.559228 171.526145,260.199228 189.091923,250.057894 C223.927479,229.94545 270.17859,203.242339 276.691923,199.481894 C297.741701,187.328561 307.575923,169.624117 307.504315,144.326339 C307.46659,131.089894 307.371479,97.5463389 307.371479,97.5463389 L257.552367,126.309894 Z" id="Fill-12"></path>
            <path d="M16.4121897,106.23785 C-3.98069923,94.4636278 -6.57758812,70.1814055 15.4819674,57.36185 C37.4944119,44.5702944 78.3784119,20.8107389 99.2908563,8.65740554 C120.213079,-3.50081668 141.029523,-2.84037224 164.23619,10.5587389 C176.38419,17.5720722 297.333523,87.4022944 297.333523,87.4022944 L247.838412,116.16585 C247.838412,116.16585 140.724634,54.3231833 135.36819,51.2307389 C125.17219,45.3440722 119.030856,45.60985 111.249079,50.1316278 C103.477079,54.6489611 88.4877452,63.3587389 87.6993008,63.81785 L16.4121897,106.23785" id="Fill-14"></path>
        </g>
    </g>
</svg>