<?xml version="1.0" encoding="UTF-8"?>
<svg width="287px" height="238px" viewBox="0 0 287 238" version="1.1" xmlns="http://www.w3.org/2000/svg" xmlns:xlink="http://www.w3.org/1999/xlink">
    <title>Group 13</title>
    <g id="V3-Desktop" stroke="none" stroke-width="1" fill="none" fill-rule="evenodd">
        <g id="Group-13" transform="translate(0.331754, 0.785182)" fill="#000000">
            <path d="M240.804834,113.637544 L240.723214,148.134692 L169.298223,191.103238 C164.496557,193.991803 161.566186,199.191618 161.582048,204.795155 L161.672492,236.576136 C161.672492,236.576136 248.42977,184.683896 257.950686,179.187461 C276.807779,168.300099 285.617603,152.439868 285.553454,129.777275 C285.519658,117.919627 285.434455,87.8705901 285.434455,87.8705901 L240.804834,113.637544 Z" id="Fill-6"></path>
            <path d="M172.744434,69.5673216 L118.401592,100.106081 C114.711157,102.179636 110.201731,102.155748 106.533592,100.043572 L65.1791381,76.2283401 C62.5023881,74.6871087 62.5226937,70.817905 65.2153696,69.304942 L118.072323,38.9083216 C122.479027,36.4318401 127.864777,36.4601087 132.245203,38.9827753 L172.780666,62.6439235 C175.457018,64.185155 175.43711,68.0543587 172.744434,69.5673216 L172.744434,69.5673216 Z M150.452916,6.12798829 C136.140684,-2.075058 118.544925,-2.04041912 104.26574,6.21916422 L7.02442516,61.8850531 C-2.39018595,67.4033864 -2.32926928,81.0347846 7.13511035,86.4687105 L86.4776752,132.023229 C101.972407,140.946127 121.045296,140.946127 136.540425,132.023229 L207.403629,91.4216735 L231.615018,104.906951 L277.65687,79.6452476 L150.452916,6.12798829 Z" id="Fill-12"></path>
        </g>
    </g>
</svg>