<?xml version="1.0" encoding="UTF-8"?>
<svg width="1369px" height="470px" viewBox="0 0 1369 470" version="1.1" xmlns="http://www.w3.org/2000/svg" xmlns:xlink="http://www.w3.org/1999/xlink">
    <title>Group 4</title>
    <defs>
        <path d="M1369,356.826111 C1300.07971,328.506714 1202.58437,300.611389 1075.46875,300.611389 C948.353125,300.611389 876.646875,306.169556 681.084375,370 C550.709375,412.55363 362.135007,475.400452 0,469.332642 L0,469.332642 L0,0 C63.0145833,0.779703776 159.709375,22.4463704 290.084375,65 C485.646875,128.830444 557.353125,134.388611 684.46875,134.388611 C811.584375,134.388611 915.884375,105 1043,65 C1127.74375,38.3333333 1236.41042,16.6666667 1369,0 Z" id="path-1"></path>
        <path d="M0,2.84217094e-14 C179.5,2.84217094e-14 394.709375,41.4463704 525.084375,84 C592.088462,105.869738 644.553053,120.898888 689.688296,131.207637 C686.850688,132.121825 683.981119,133.05452 681.084375,134 C552.013125,176.128093 365.900674,238.145545 10.8120974,233.494091 L0,233.332642 L0,2.84217094e-14 Z M1368.99944,59.399279 L1369,120.826111 C1340.07997,108.942848 1306.12852,97.1342554 1267.06842,87.4300397 C1270.69391,86.2961895 1274.33748,85.1524993 1278,84 C1305.76513,75.2630319 1336.09828,67.0627916 1368.99944,59.399279 Z" id="path-3"></path>
    </defs>
    <g id="V3-Desktop" stroke="none" stroke-width="1" fill="none" fill-rule="evenodd" opacity="0.25">
        <g id="Group-4">
            <g id="Group-3">
                <mask id="mask-2" fill="white">
                    <use xlink:href="#path-1"></use>
                </mask>
                <g id="Combined-Shape"></g>
                <g mask="url(#mask-2)" fill="#000000">
                    <g transform="translate(9.000000, 0.000000)">
                        <rect id="Rectangle-Copy-131" x="1350" y="0" width="1" height="600"></rect>
                        <rect id="Rectangle-Copy-130" x="1340" y="0" width="1" height="600"></rect>
                        <rect id="Rectangle-Copy-129" x="1330" y="0" width="1" height="600"></rect>
                        <rect id="Rectangle-Copy-128" x="1320" y="0" width="1" height="600"></rect>
                        <rect id="Rectangle-Copy-127" x="1310" y="0" width="1" height="600"></rect>
                        <rect id="Rectangle-Copy-126" x="1300" y="0" width="1" height="600"></rect>
                        <rect id="Rectangle-Copy-125" x="1290" y="0" width="1" height="600"></rect>
                        <rect id="Rectangle-Copy-124" x="1280" y="0" width="1" height="600"></rect>
                        <rect id="Rectangle-Copy-123" x="1270" y="0" width="1" height="600"></rect>
                        <rect id="Rectangle-Copy-122" x="1260" y="0" width="1" height="600"></rect>
                        <rect id="Rectangle-Copy-121" x="1250" y="0" width="1" height="600"></rect>
                        <rect id="Rectangle-Copy-120" x="1240" y="0" width="1" height="600"></rect>
                        <rect id="Rectangle-Copy-119" x="1230" y="0" width="1" height="600"></rect>
                        <rect id="Rectangle-Copy-118" x="1220" y="0" width="1" height="600"></rect>
                        <rect id="Rectangle-Copy-117" x="1210" y="0" width="1" height="600"></rect>
                        <rect id="Rectangle-Copy-116" x="1200" y="0" width="1" height="600"></rect>
                        <rect id="Rectangle-Copy-115" x="1190" y="0" width="1" height="600"></rect>
                        <rect id="Rectangle-Copy-114" x="1180" y="0" width="1" height="600"></rect>
                        <rect id="Rectangle-Copy-113" x="1170" y="0" width="1" height="600"></rect>
                        <rect id="Rectangle-Copy-112" x="1160" y="0" width="1" height="600"></rect>
                        <rect id="Rectangle-Copy-111" x="1150" y="0" width="1" height="600"></rect>
                        <rect id="Rectangle-Copy-110" x="1140" y="0" width="1" height="600"></rect>
                        <rect id="Rectangle-Copy-109" x="1130" y="0" width="1" height="600"></rect>
                        <rect id="Rectangle-Copy-108" x="1120" y="0" width="1" height="600"></rect>
                        <rect id="Rectangle-Copy-107" x="1110" y="0" width="1" height="600"></rect>
                        <rect id="Rectangle-Copy-106" x="1100" y="0" width="1" height="600"></rect>
                        <rect id="Rectangle-Copy-105" x="1090" y="0" width="1" height="600"></rect>
                        <rect id="Rectangle-Copy-104" x="1080" y="0" width="1" height="600"></rect>
                        <rect id="Rectangle-Copy-103" x="1070" y="0" width="1" height="600"></rect>
                        <rect id="Rectangle-Copy-102" x="1060" y="0" width="1" height="600"></rect>
                        <rect id="Rectangle-Copy-101" x="1050" y="0" width="1" height="600"></rect>
                        <rect id="Rectangle-Copy-100" x="1040" y="0" width="1" height="600"></rect>
                        <rect id="Rectangle-Copy-99" x="1030" y="0" width="1" height="600"></rect>
                        <rect id="Rectangle-Copy-98" x="1020" y="0" width="1" height="600"></rect>
                        <rect id="Rectangle-Copy-97" x="1010" y="0" width="1" height="600"></rect>
                        <rect id="Rectangle-Copy-96" x="1000" y="0" width="1" height="600"></rect>
                        <rect id="Rectangle-Copy-95" x="990" y="0" width="1" height="600"></rect>
                        <rect id="Rectangle-Copy-94" x="980" y="0" width="1" height="600"></rect>
                        <rect id="Rectangle-Copy-93" x="970" y="0" width="1" height="600"></rect>
                        <rect id="Rectangle-Copy-92" x="960" y="0" width="1" height="600"></rect>
                        <rect id="Rectangle-Copy-91" x="950" y="0" width="1" height="600"></rect>
                        <rect id="Rectangle-Copy-90" x="940" y="0" width="1" height="600"></rect>
                        <rect id="Rectangle-Copy-89" x="930" y="0" width="1" height="600"></rect>
                        <rect id="Rectangle-Copy-88" x="920" y="0" width="1" height="600"></rect>
                        <rect id="Rectangle-Copy-87" x="910" y="0" width="1" height="600"></rect>
                        <rect id="Rectangle-Copy-86" x="900" y="0" width="1" height="600"></rect>
                        <rect id="Rectangle-Copy-85" x="890" y="0" width="1" height="600"></rect>
                        <rect id="Rectangle-Copy-84" x="880" y="0" width="1" height="600"></rect>
                        <rect id="Rectangle-Copy-83" x="870" y="0" width="1" height="600"></rect>
                        <rect id="Rectangle-Copy-82" x="860" y="0" width="1" height="600"></rect>
                        <rect id="Rectangle-Copy-81" x="850" y="0" width="1" height="600"></rect>
                        <rect id="Rectangle-Copy-80" x="840" y="0" width="1" height="600"></rect>
                        <rect id="Rectangle-Copy-79" x="830" y="0" width="1" height="600"></rect>
                        <rect id="Rectangle-Copy-78" x="820" y="0" width="1" height="600"></rect>
                        <rect id="Rectangle-Copy-77" x="810" y="0" width="1" height="600"></rect>
                        <rect id="Rectangle-Copy-76" x="800" y="0" width="1" height="600"></rect>
                        <rect id="Rectangle-Copy-75" x="790" y="0" width="1" height="600"></rect>
                        <rect id="Rectangle-Copy-74" x="780" y="0" width="1" height="600"></rect>
                        <rect id="Rectangle-Copy-73" x="770" y="0" width="1" height="600"></rect>
                        <rect id="Rectangle-Copy-72" x="760" y="0" width="1" height="600"></rect>
                        <rect id="Rectangle-Copy-71" x="750" y="0" width="1" height="600"></rect>
                        <rect id="Rectangle-Copy-70" x="740" y="0" width="1" height="600"></rect>
                        <rect id="Rectangle-Copy-69" x="730" y="0" width="1" height="600"></rect>
                        <rect id="Rectangle-Copy-68" x="720" y="0" width="1" height="600"></rect>
                        <rect id="Rectangle-Copy-67" x="710" y="0" width="1" height="600"></rect>
                        <rect id="Rectangle-Copy-66" x="700" y="0" width="1" height="600"></rect>
                        <rect id="Rectangle-Copy-65" x="690" y="0" width="1" height="600"></rect>
                        <rect id="Rectangle-Copy-64" x="680" y="0" width="1" height="600"></rect>
                        <rect id="Rectangle-Copy-63" x="670" y="0" width="1" height="600"></rect>
                        <rect id="Rectangle-Copy-62" x="660" y="0" width="1" height="600"></rect>
                        <rect id="Rectangle-Copy-61" x="650" y="0" width="1" height="600"></rect>
                        <rect id="Rectangle-Copy-60" x="640" y="0" width="1" height="600"></rect>
                        <rect id="Rectangle-Copy-59" x="630" y="0" width="1" height="600"></rect>
                        <rect id="Rectangle-Copy-58" x="620" y="0" width="1" height="600"></rect>
                        <rect id="Rectangle-Copy-57" x="610" y="0" width="1" height="600"></rect>
                        <rect id="Rectangle-Copy-56" x="600" y="0" width="1" height="600"></rect>
                        <rect id="Rectangle-Copy-55" x="590" y="0" width="1" height="600"></rect>
                        <rect id="Rectangle-Copy-54" x="580" y="0" width="1" height="600"></rect>
                        <rect id="Rectangle-Copy-53" x="570" y="0" width="1" height="600"></rect>
                        <rect id="Rectangle-Copy-52" x="560" y="0" width="1" height="600"></rect>
                        <rect id="Rectangle-Copy-51" x="550" y="0" width="1" height="600"></rect>
                        <rect id="Rectangle-Copy-50" x="540" y="0" width="1" height="600"></rect>
                        <rect id="Rectangle-Copy-49" x="530" y="0" width="1" height="600"></rect>
                        <rect id="Rectangle-Copy-48" x="520" y="0" width="1" height="600"></rect>
                        <rect id="Rectangle-Copy-47" x="510" y="0" width="1" height="600"></rect>
                        <rect id="Rectangle-Copy-46" x="500" y="0" width="1" height="600"></rect>
                        <rect id="Rectangle-Copy-45" x="490" y="0" width="1" height="600"></rect>
                        <rect id="Rectangle-Copy-44" x="480" y="0" width="1" height="600"></rect>
                        <rect id="Rectangle-Copy-43" x="470" y="0" width="1" height="600"></rect>
                        <rect id="Rectangle-Copy-42" x="460" y="0" width="1" height="600"></rect>
                        <rect id="Rectangle-Copy-41" x="450" y="0" width="1" height="600"></rect>
                        <rect id="Rectangle-Copy-40" x="440" y="0" width="1" height="600"></rect>
                        <rect id="Rectangle-Copy-39" x="430" y="0" width="1" height="600"></rect>
                        <rect id="Rectangle-Copy-38" x="420" y="0" width="1" height="600"></rect>
                        <rect id="Rectangle-Copy-37" x="410" y="0" width="1" height="600"></rect>
                        <rect id="Rectangle-Copy-36" x="400" y="0" width="1" height="600"></rect>
                        <rect id="Rectangle-Copy-35" x="390" y="0" width="1" height="600"></rect>
                        <rect id="Rectangle-Copy-34" x="380" y="0" width="1" height="600"></rect>
                        <rect id="Rectangle-Copy-33" x="370" y="0" width="1" height="600"></rect>
                        <rect id="Rectangle-Copy-32" x="360" y="0" width="1" height="600"></rect>
                        <rect id="Rectangle-Copy-31" x="350" y="0" width="1" height="600"></rect>
                        <rect id="Rectangle-Copy-30" x="340" y="0" width="1" height="600"></rect>
                        <rect id="Rectangle-Copy-29" x="330" y="0" width="1" height="600"></rect>
                        <rect id="Rectangle-Copy-28" x="320" y="0" width="1" height="600"></rect>
                        <rect id="Rectangle-Copy-27" x="310" y="0" width="1" height="600"></rect>
                        <rect id="Rectangle-Copy-26" x="300" y="0" width="1" height="600"></rect>
                        <rect id="Rectangle-Copy-25" x="290" y="0" width="1" height="600"></rect>
                        <rect id="Rectangle-Copy-24" x="280" y="0" width="1" height="600"></rect>
                        <rect id="Rectangle-Copy-23" x="270" y="0" width="1" height="600"></rect>
                        <rect id="Rectangle-Copy-22" x="260" y="0" width="1" height="600"></rect>
                        <rect id="Rectangle-Copy-21" x="250" y="0" width="1" height="600"></rect>
                        <rect id="Rectangle-Copy-20" x="240" y="0" width="1" height="600"></rect>
                        <rect id="Rectangle-Copy-19" x="230" y="0" width="1" height="600"></rect>
                        <rect id="Rectangle-Copy-18" x="220" y="0" width="1" height="600"></rect>
                        <rect id="Rectangle-Copy-17" x="210" y="0" width="1" height="600"></rect>
                        <rect id="Rectangle-Copy-16" x="200" y="0" width="1" height="600"></rect>
                        <rect id="Rectangle-Copy-15" x="190" y="0" width="1" height="600"></rect>
                        <rect id="Rectangle-Copy-14" x="180" y="0" width="1" height="600"></rect>
                        <rect id="Rectangle-Copy-13" x="170" y="0" width="1" height="600"></rect>
                        <rect id="Rectangle-Copy-12" x="160" y="0" width="1" height="600"></rect>
                        <rect id="Rectangle-Copy-11" x="150" y="0" width="1" height="600"></rect>
                        <rect id="Rectangle-Copy-10" x="140" y="0" width="1" height="600"></rect>
                        <rect id="Rectangle-Copy-9" x="130" y="0" width="1" height="600"></rect>
                        <rect id="Rectangle-Copy-8" x="120" y="0" width="1" height="600"></rect>
                        <rect id="Rectangle-Copy-7" x="110" y="0" width="1" height="600"></rect>
                        <rect id="Rectangle-Copy-6" x="100" y="0" width="1" height="600"></rect>
                        <rect id="Rectangle-Copy-5" x="90" y="0" width="1" height="600"></rect>
                        <rect id="Rectangle-Copy-4" x="80" y="0" width="1" height="600"></rect>
                        <rect id="Rectangle-Copy-3" x="70" y="0" width="1" height="600"></rect>
                        <rect id="Rectangle-Copy-2" x="60" y="0" width="1" height="600"></rect>
                        <rect id="Rectangle-Copy" x="50" y="0" width="1" height="600"></rect>
                        <rect id="Rectangle" x="40" y="0" width="1" height="600"></rect>
                        <rect id="Rectangle" x="30" y="0" width="1" height="600"></rect>
                        <rect id="Rectangle" x="20" y="0" width="1" height="600"></rect>
                        <rect id="Rectangle" x="10" y="0" width="1" height="600"></rect>
                        <rect id="Rectangle" x="0" y="0" width="1" height="600"></rect>
                    </g>
                </g>
            </g>
            <g id="Group-3" transform="translate(0.000000, 236.000000)">
                <mask id="mask-4" fill="white">
                    <use xlink:href="#path-3"></use>
                </mask>
                <g id="Mask"></g>
                <g mask="url(#mask-4)" fill="#000000">
                    <g transform="translate(8.000000, -21.000000)">
                        <rect id="Rectangle-Copy-132" x="1360" y="0" width="1" height="600"></rect>
                        <rect id="Rectangle-Copy-131" x="1350" y="0" width="1" height="600"></rect>
                        <rect id="Rectangle-Copy-130" x="1340" y="0" width="1" height="600"></rect>
                        <rect id="Rectangle-Copy-129" x="1330" y="0" width="1" height="600"></rect>
                        <rect id="Rectangle-Copy-128" x="1320" y="0" width="1" height="600"></rect>
                        <rect id="Rectangle-Copy-127" x="1310" y="0" width="1" height="600"></rect>
                        <rect id="Rectangle-Copy-126" x="1300" y="0" width="1" height="600"></rect>
                        <rect id="Rectangle-Copy-125" x="1290" y="0" width="1" height="600"></rect>
                        <rect id="Rectangle-Copy-124" x="1280" y="0" width="1" height="600"></rect>
                        <rect id="Rectangle-Copy-123" x="1270" y="0" width="1" height="600"></rect>
                        <rect id="Rectangle-Copy-122" x="1260" y="0" width="1" height="600"></rect>
                        <rect id="Rectangle-Copy-121" x="1250" y="0" width="1" height="600"></rect>
                        <rect id="Rectangle-Copy-120" x="1240" y="0" width="1" height="600"></rect>
                        <rect id="Rectangle-Copy-119" x="1230" y="0" width="1" height="600"></rect>
                        <rect id="Rectangle-Copy-118" x="1220" y="0" width="1" height="600"></rect>
                        <rect id="Rectangle-Copy-117" x="1210" y="0" width="1" height="600"></rect>
                        <rect id="Rectangle-Copy-116" x="1200" y="0" width="1" height="600"></rect>
                        <rect id="Rectangle-Copy-115" x="1190" y="0" width="1" height="600"></rect>
                        <rect id="Rectangle-Copy-114" x="1180" y="0" width="1" height="600"></rect>
                        <rect id="Rectangle-Copy-113" x="1170" y="0" width="1" height="600"></rect>
                        <rect id="Rectangle-Copy-112" x="1160" y="0" width="1" height="600"></rect>
                        <rect id="Rectangle-Copy-111" x="1150" y="0" width="1" height="600"></rect>
                        <rect id="Rectangle-Copy-110" x="1140" y="0" width="1" height="600"></rect>
                        <rect id="Rectangle-Copy-109" x="1130" y="0" width="1" height="600"></rect>
                        <rect id="Rectangle-Copy-108" x="1120" y="0" width="1" height="600"></rect>
                        <rect id="Rectangle-Copy-107" x="1110" y="0" width="1" height="600"></rect>
                        <rect id="Rectangle-Copy-106" x="1100" y="0" width="1" height="600"></rect>
                        <rect id="Rectangle-Copy-105" x="1090" y="0" width="1" height="600"></rect>
                        <rect id="Rectangle-Copy-104" x="1080" y="0" width="1" height="600"></rect>
                        <rect id="Rectangle-Copy-103" x="1070" y="0" width="1" height="600"></rect>
                        <rect id="Rectangle-Copy-102" x="1060" y="0" width="1" height="600"></rect>
                        <rect id="Rectangle-Copy-101" x="1050" y="0" width="1" height="600"></rect>
                        <rect id="Rectangle-Copy-100" x="1040" y="0" width="1" height="600"></rect>
                        <rect id="Rectangle-Copy-99" x="1030" y="0" width="1" height="600"></rect>
                        <rect id="Rectangle-Copy-98" x="1020" y="0" width="1" height="600"></rect>
                        <rect id="Rectangle-Copy-97" x="1010" y="0" width="1" height="600"></rect>
                        <rect id="Rectangle-Copy-96" x="1000" y="0" width="1" height="600"></rect>
                        <rect id="Rectangle-Copy-95" x="990" y="0" width="1" height="600"></rect>
                        <rect id="Rectangle-Copy-94" x="980" y="0" width="1" height="600"></rect>
                        <rect id="Rectangle-Copy-93" x="970" y="0" width="1" height="600"></rect>
                        <rect id="Rectangle-Copy-92" x="960" y="0" width="1" height="600"></rect>
                        <rect id="Rectangle-Copy-91" x="950" y="0" width="1" height="600"></rect>
                        <rect id="Rectangle-Copy-90" x="940" y="0" width="1" height="600"></rect>
                        <rect id="Rectangle-Copy-89" x="930" y="0" width="1" height="600"></rect>
                        <rect id="Rectangle-Copy-88" x="920" y="0" width="1" height="600"></rect>
                        <rect id="Rectangle-Copy-87" x="910" y="0" width="1" height="600"></rect>
                        <rect id="Rectangle-Copy-86" x="900" y="0" width="1" height="600"></rect>
                        <rect id="Rectangle-Copy-85" x="890" y="0" width="1" height="600"></rect>
                        <rect id="Rectangle-Copy-84" x="880" y="0" width="1" height="600"></rect>
                        <rect id="Rectangle-Copy-83" x="870" y="0" width="1" height="600"></rect>
                        <rect id="Rectangle-Copy-82" x="860" y="0" width="1" height="600"></rect>
                        <rect id="Rectangle-Copy-81" x="850" y="0" width="1" height="600"></rect>
                        <rect id="Rectangle-Copy-80" x="840" y="0" width="1" height="600"></rect>
                        <rect id="Rectangle-Copy-79" x="830" y="0" width="1" height="600"></rect>
                        <rect id="Rectangle-Copy-78" x="820" y="0" width="1" height="600"></rect>
                        <rect id="Rectangle-Copy-77" x="810" y="0" width="1" height="600"></rect>
                        <rect id="Rectangle-Copy-76" x="800" y="0" width="1" height="600"></rect>
                        <rect id="Rectangle-Copy-75" x="790" y="0" width="1" height="600"></rect>
                        <rect id="Rectangle-Copy-74" x="780" y="0" width="1" height="600"></rect>
                        <rect id="Rectangle-Copy-73" x="770" y="0" width="1" height="600"></rect>
                        <rect id="Rectangle-Copy-72" x="760" y="0" width="1" height="600"></rect>
                        <rect id="Rectangle-Copy-71" x="750" y="0" width="1" height="600"></rect>
                        <rect id="Rectangle-Copy-70" x="740" y="0" width="1" height="600"></rect>
                        <rect id="Rectangle-Copy-69" x="730" y="0" width="1" height="600"></rect>
                        <rect id="Rectangle-Copy-68" x="720" y="0" width="1" height="600"></rect>
                        <rect id="Rectangle-Copy-67" x="710" y="0" width="1" height="600"></rect>
                        <rect id="Rectangle-Copy-66" x="700" y="0" width="1" height="600"></rect>
                        <rect id="Rectangle-Copy-65" x="690" y="0" width="1" height="600"></rect>
                        <rect id="Rectangle-Copy-64" x="680" y="0" width="1" height="600"></rect>
                        <rect id="Rectangle-Copy-63" x="670" y="0" width="1" height="600"></rect>
                        <rect id="Rectangle-Copy-62" x="660" y="0" width="1" height="600"></rect>
                        <rect id="Rectangle-Copy-61" x="650" y="0" width="1" height="600"></rect>
                        <rect id="Rectangle-Copy-60" x="640" y="0" width="1" height="600"></rect>
                        <rect id="Rectangle-Copy-59" x="630" y="0" width="1" height="600"></rect>
                        <rect id="Rectangle-Copy-58" x="620" y="0" width="1" height="600"></rect>
                        <rect id="Rectangle-Copy-57" x="610" y="0" width="1" height="600"></rect>
                        <rect id="Rectangle-Copy-56" x="600" y="0" width="1" height="600"></rect>
                        <rect id="Rectangle-Copy-55" x="590" y="0" width="1" height="600"></rect>
                        <rect id="Rectangle-Copy-54" x="580" y="0" width="1" height="600"></rect>
                        <rect id="Rectangle-Copy-53" x="570" y="0" width="1" height="600"></rect>
                        <rect id="Rectangle-Copy-52" x="560" y="0" width="1" height="600"></rect>
                        <rect id="Rectangle-Copy-51" x="550" y="0" width="1" height="600"></rect>
                        <rect id="Rectangle-Copy-50" x="540" y="0" width="1" height="600"></rect>
                        <rect id="Rectangle-Copy-49" x="530" y="0" width="1" height="600"></rect>
                        <rect id="Rectangle-Copy-48" x="520" y="0" width="1" height="600"></rect>
                        <rect id="Rectangle-Copy-47" x="510" y="0" width="1" height="600"></rect>
                        <rect id="Rectangle-Copy-46" x="500" y="0" width="1" height="600"></rect>
                        <rect id="Rectangle-Copy-45" x="490" y="0" width="1" height="600"></rect>
                        <rect id="Rectangle-Copy-44" x="480" y="0" width="1" height="600"></rect>
                        <rect id="Rectangle-Copy-43" x="470" y="0" width="1" height="600"></rect>
                        <rect id="Rectangle-Copy-42" x="460" y="0" width="1" height="600"></rect>
                        <rect id="Rectangle-Copy-41" x="450" y="0" width="1" height="600"></rect>
                        <rect id="Rectangle-Copy-40" x="440" y="0" width="1" height="600"></rect>
                        <rect id="Rectangle-Copy-39" x="430" y="0" width="1" height="600"></rect>
                        <rect id="Rectangle-Copy-38" x="420" y="0" width="1" height="600"></rect>
                        <rect id="Rectangle-Copy-37" x="410" y="0" width="1" height="600"></rect>
                        <rect id="Rectangle-Copy-36" x="400" y="0" width="1" height="600"></rect>
                        <rect id="Rectangle-Copy-35" x="390" y="0" width="1" height="600"></rect>
                        <rect id="Rectangle-Copy-34" x="380" y="0" width="1" height="600"></rect>
                        <rect id="Rectangle-Copy-33" x="370" y="0" width="1" height="600"></rect>
                        <rect id="Rectangle-Copy-32" x="360" y="0" width="1" height="600"></rect>
                        <rect id="Rectangle-Copy-31" x="350" y="0" width="1" height="600"></rect>
                        <rect id="Rectangle-Copy-30" x="340" y="0" width="1" height="600"></rect>
                        <rect id="Rectangle-Copy-29" x="330" y="0" width="1" height="600"></rect>
                        <rect id="Rectangle-Copy-28" x="320" y="0" width="1" height="600"></rect>
                        <rect id="Rectangle-Copy-27" x="310" y="0" width="1" height="600"></rect>
                        <rect id="Rectangle-Copy-26" x="300" y="0" width="1" height="600"></rect>
                        <rect id="Rectangle-Copy-25" x="290" y="0" width="1" height="600"></rect>
                        <rect id="Rectangle-Copy-24" x="280" y="0" width="1" height="600"></rect>
                        <rect id="Rectangle-Copy-23" x="270" y="0" width="1" height="600"></rect>
                        <rect id="Rectangle-Copy-22" x="260" y="0" width="1" height="600"></rect>
                        <rect id="Rectangle-Copy-21" x="250" y="0" width="1" height="600"></rect>
                        <rect id="Rectangle-Copy-20" x="240" y="0" width="1" height="600"></rect>
                        <rect id="Rectangle-Copy-19" x="230" y="0" width="1" height="600"></rect>
                        <rect id="Rectangle-Copy-18" x="220" y="0" width="1" height="600"></rect>
                        <rect id="Rectangle-Copy-17" x="210" y="0" width="1" height="600"></rect>
                        <rect id="Rectangle-Copy-16" x="200" y="0" width="1" height="600"></rect>
                        <rect id="Rectangle-Copy-15" x="190" y="0" width="1" height="600"></rect>
                        <rect id="Rectangle-Copy-14" x="180" y="0" width="1" height="600"></rect>
                        <rect id="Rectangle-Copy-13" x="170" y="0" width="1" height="600"></rect>
                        <rect id="Rectangle-Copy-12" x="160" y="0" width="1" height="600"></rect>
                        <rect id="Rectangle-Copy-11" x="150" y="0" width="1" height="600"></rect>
                        <rect id="Rectangle-Copy-10" x="140" y="0" width="1" height="600"></rect>
                        <rect id="Rectangle-Copy-9" x="130" y="0" width="1" height="600"></rect>
                        <rect id="Rectangle-Copy-8" x="120" y="0" width="1" height="600"></rect>
                        <rect id="Rectangle-Copy-7" x="110" y="0" width="1" height="600"></rect>
                        <rect id="Rectangle-Copy-6" x="100" y="0" width="1" height="600"></rect>
                        <rect id="Rectangle-Copy-5" x="90" y="0" width="1" height="600"></rect>
                        <rect id="Rectangle-Copy-4" x="80" y="0" width="1" height="600"></rect>
                        <rect id="Rectangle-Copy-3" x="70" y="0" width="1" height="600"></rect>
                        <rect id="Rectangle-Copy-2" x="60" y="0" width="1" height="600"></rect>
                        <rect id="Rectangle-Copy" x="50" y="0" width="1" height="600"></rect>
                        <rect id="Rectangle" x="40" y="0" width="1" height="600"></rect>
                        <rect id="Rectangle" x="30" y="0" width="1" height="600"></rect>
                        <rect id="Rectangle" x="20" y="0" width="1" height="600"></rect>
                        <rect id="Rectangle" x="10" y="0" width="1" height="600"></rect>
                        <rect id="Rectangle" x="0" y="0" width="1" height="600"></rect>
                    </g>
                </g>
            </g>
        </g>
    </g>
</svg>