<?xml version="1.0" encoding="UTF-8"?>
<svg width="80px" height="98px" viewBox="0 0 80 98" version="1.1" xmlns="http://www.w3.org/2000/svg" xmlns:xlink="http://www.w3.org/1999/xlink">
    <title>’’</title>
    <g id="V3-Desktop" stroke="none" stroke-width="1" fill="none" fill-rule="evenodd">
        <g id="NWD50-Landing-V3-Full" transform="translate(-1325.000000, -4752.000000)" fill="#000000" fill-rule="nonzero">
            <path d="M1325.54297,4849.10156 C1338.90234,4847.49349 1348.86003,4841.15397 1355.41602,4830.08301 C1361.97201,4819.01204 1365.25,4805.5599 1365.25,4789.72656 L1365.25,4789.72656 L1365.25,4752.43164 L1325.54297,4752.43164 L1325.54297,4792.88086 L1345.76758,4792.88086 C1346.01497,4793.74674 1346.1696,4794.51986 1346.23145,4795.2002 C1346.29329,4795.88053 1346.32422,4796.65365 1346.32422,4797.51953 C1346.32422,4806.05469 1344.56152,4813.60026 1341.03613,4820.15625 C1337.51074,4826.71224 1332.34635,4830.54688 1325.54297,4831.66016 L1325.54297,4831.66016 L1325.54297,4849.10156 Z M1365.28711,4849.10156 C1378.64648,4847.49349 1388.60417,4841.15397 1395.16016,4830.08301 C1401.71615,4819.01204 1404.99414,4805.5599 1404.99414,4789.72656 L1404.99414,4789.72656 L1404.99414,4752.43164 L1365.28711,4752.43164 L1365.28711,4792.88086 L1385.51172,4792.88086 C1385.75911,4793.74674 1385.91374,4794.51986 1385.97559,4795.2002 C1386.03743,4795.88053 1386.06836,4796.65365 1386.06836,4797.51953 C1386.06836,4806.05469 1384.30566,4813.60026 1380.78027,4820.15625 C1377.25488,4826.71224 1372.09049,4830.54688 1365.28711,4831.66016 L1365.28711,4831.66016 L1365.28711,4849.10156 Z" id="’’"></path>
        </g>
    </g>
</svg>