<?xml version="1.0" encoding="UTF-8"?>
<svg width="86px" height="66px" viewBox="0 0 86 66" version="1.1" xmlns="http://www.w3.org/2000/svg" xmlns:xlink="http://www.w3.org/1999/xlink">
    <title>’’</title>
    <g id="V3-Desktop" stroke="none" stroke-width="1" fill="none" fill-rule="evenodd">
        <path d="M0.72,65.24 C28.84,63.9733333 42.9,50.42 42.9,24.58 C42.9,17.2333333 40.9366667,11.3433333 37.01,6.91 C33.0833333,2.47666667 28.46,0.26 23.14,0.26 C18.0733333,0.26 14.0833333,1.59 11.17,4.25 C8.25666667,6.91 6.8,10.52 6.8,15.08 C6.8,19.1333333 8.13,22.49 10.79,25.15 C13.45,27.81 16.8066667,29.14 20.86,29.14 C22.38,29.14 24.1533333,28.6333333 26.18,27.62 C26.6866667,28.6333333 26.94,29.6466667 26.94,30.66 C26.6866667,44.8466667 17.9466667,52.8266667 0.72,54.6 L0.72,54.6 L0.72,65.24 Z M43.66,65.24 C71.78,63.9733333 85.84,50.42 85.84,24.58 C85.84,17.2333333 83.8766667,11.3433333 79.95,6.91 C76.0233333,2.47666667 71.4,0.26 66.08,0.26 C61.0133333,0.26 57.0233333,1.59 54.11,4.25 C51.1966667,6.91 49.74,10.52 49.74,15.08 C49.74,19.1333333 51.07,22.49 53.73,25.15 C56.39,27.81 59.7466667,29.14 63.8,29.14 C65.32,29.14 67.0933333,28.6333333 69.12,27.62 C69.6266667,28.6333333 69.88,29.6466667 69.88,30.66 C69.6266667,44.8466667 60.8866667,52.8266667 43.66,54.6 L43.66,54.6 L43.66,65.24 Z" id="’’" fill="#000000" fill-rule="nonzero"></path>
    </g>
</svg>