<?xml version="1.0" encoding="UTF-8"?>
<svg width="280px" height="100px" viewBox="0 0 280 100" version="1.1" xmlns="http://www.w3.org/2000/svg" xmlns:xlink="http://www.w3.org/1999/xlink">
    <title>Group</title>
    <g id="V3-Desktop" stroke="none" stroke-width="1" fill="none" fill-rule="evenodd">
        <g id="Group" fill="#000000">
            <path d="M2.48041232,8.48211607 L9.2696307,25.3503501 L10.8658339,25.3503501 L16.7657023,11.9946173 L21.9193051,25.3503501 L23.4161204,25.3503501 L30.6765743,7.82470065 C31.3800004,6.13787724 31.9394855,5.71702852 33.3926044,5.43589128 L33.3926044,3.74906788 L25.7106089,3.74906788 L25.7106089,5.43589128 C28.8516077,5.43589128 28.8027706,7.77927299 28.0530778,9.60580788 L23.8847856,19.6333216 L19.9975211,9.93322991 C18.7791631,6.88871937 19.1081712,5.67074373 22.0581054,5.43589128 L22.0581054,3.74906788 L11.8948408,3.74906788 L11.8948408,5.43589128 C14.2364529,5.43589128 14.5620338,6.04530767 15.9243328,9.60580788 L11.2873754,19.9598865 L6.74123804,9.0898182 C5.80390779,6.84157745 6.22801974,5.52931799 8.61418496,5.43589128 L8.61418496,3.74906788 L-1.01506105e-14,3.74906788 L-1.01506105e-14,5.43589128 C1.17037763,5.71702852 1.59106241,6.23216107 2.48041232,8.48211607 L2.48041232,8.48211607 Z M127.559166,19.1644739 C127.559166,17.1965132 129.293313,16.2588177 133.085473,14.8539886 L135.565886,13.9171502 L135.565886,19.7738902 C133.974823,21.4589994 132.525132,22.2098415 130.838108,22.2098415 C128.49564,22.2098415 127.559166,20.6173019 127.559166,19.1644739 L127.559166,19.1644739 Z M138.750581,25.3503501 C140.016919,25.3503501 141.188154,24.6929347 142.546169,23.147537 L142.125484,21.4589994 C140.533565,22.4909788 139.501131,21.9758462 139.501131,20.242738 L139.501131,8.24726363 C139.501131,4.68676341 137.114965,3.2330782 132.664789,3.2330782 C126.530159,3.2330782 124.045463,6.51415543 124.045463,8.71611139 C124.045463,9.7463765 125.311801,12.088044 125.593686,11.9491896 L128.355983,10.6369301 C129.57177,10.0746556 127.653413,8.48211607 127.653413,7.45185096 C127.653413,6.37272969 129.432113,5.24818075 131.258793,5.24818075 C132.803589,5.24818075 135.565886,6.18587628 135.565886,8.95096384 L135.565886,12.136043 L130.556224,13.8700083 C125.358925,15.6511155 123.390017,17.4296514 123.390017,20.3353076 C123.390017,23.2409638 125.593686,25.3503501 128.63444,25.3503501 C130.928928,25.3503501 132.850712,24.4126546 135.565886,21.9758462 C135.800647,24.1306602 136.971881,25.3503501 138.750581,25.3503501 L138.750581,25.3503501 Z M42.8858578,4.96704352 C45.4630876,4.96704352 47.1509674,6.84157745 47.5236719,10.1680824 L37.7845193,10.1680824 C38.2060608,6.9830032 40.1706845,4.96704352 42.8858578,4.96704352 L42.8858578,4.96704352 Z M43.7323681,25.3503501 C47.2897677,25.3503501 50.4299097,23.5212439 52.4425137,20.242738 L51.4580599,19.3521844 C49.6793601,20.897582 47.8055564,21.6012823 45.605315,21.6012823 C41.2502422,21.6012823 37.2687306,18.1333516 37.5026348,11.8557629 L52.4425137,11.8557629 C52.4425137,8.52840086 49.8181604,3.2330782 43.7794916,3.2330782 C38.2531844,3.2330782 33.9897883,8.10583788 33.9897883,14.5257095 C33.9897883,20.8041553 38.0629766,25.3503501 43.7323681,25.3503501 L43.7323681,25.3503501 Z M146.3409,21.2250041 C146.3409,24.0826612 147.656075,25.3503501 150.743953,25.3503501 C152.713717,25.3503501 154.821425,24.8815024 156.882009,24.551509 L156.882009,22.2561263 C156.036356,22.3966949 154.492417,22.4909788 153.555087,22.4909788 C150.791933,22.4909788 150.276144,21.8352776 150.276144,19.6796064 L150.276144,6.09159245 L156.648105,6.09159245 L156.648105,3.74906788 L150.276144,3.74906788 L150.276144,-5.07530526e-15 L148.684225,-5.07530526e-15 C147.234534,1.82739202 145.49953,3.89049362 142.83148,4.82561777 L142.83148,6.09159245 L146.3409,6.09159245 L146.3409,21.2250041 Z M96.7386508,23.147537 C92.6174822,23.147537 91.9620364,22.1626996 91.9620364,18.6493413 L91.9620364,10.4020777 C93.8358401,7.73127395 94.6780665,6.93500416 95.8013206,6.93500416 C97.3461162,6.93500416 97.7222478,9.13781724 99.3150238,9.13781724 C100.768143,9.13781724 101.232524,6.32558777 101.232524,6.09159245 C101.232524,5.15561117 99.8308125,3.42250298 97.7702282,3.42250298 C95.3326554,3.42250298 94.161421,4.40476905 92.0537131,7.87269969 L91.9620364,7.87269969 L91.9620364,3.2330782 L90.7916588,3.2330782 L84.5619255,5.76331331 L84.5619255,6.84157745 L88.0276484,8.57468565 L88.0276484,19.5390378 C88.0276484,22.2098415 86.4357292,23.147537 84.5619255,23.147537 L84.5619255,24.8335033 L96.7386508,24.8335033 L96.7386508,23.147537 Z M166.869632,4.96704352 C169.446861,4.96704352 171.130457,6.84157745 171.507446,10.1680824 L161.764009,10.1680824 C162.185551,6.9830032 164.154458,4.96704352 166.869632,4.96704352 L166.869632,4.96704352 Z M167.711858,25.3503501 C171.272685,25.3503501 174.4094,23.5212439 176.42286,20.242738 L175.440977,19.3521844 C173.65885,20.897582 171.78933,21.6012823 169.585662,21.6012823 C165.230589,21.6012823 161.248221,18.1333516 161.482125,11.8557629 L176.42286,11.8557629 C176.42286,8.52840086 173.801934,3.2330782 167.759838,3.2330782 C162.232674,3.2330782 157.973562,8.10583788 157.973562,14.5257095 C157.973562,20.8041553 162.046751,25.3503501 167.711858,25.3503501 L167.711858,25.3503501 Z M111.041077,4.96704352 C113.61745,4.96704352 115.30533,6.84157745 115.678034,10.1680824 L105.938881,10.1680824 C106.359566,6.9830032 108.325047,4.96704352 111.041077,4.96704352 L111.041077,4.96704352 Z M111.88673,25.3503501 C115.44413,25.3503501 118.584272,23.5212439 120.597733,20.242738 L119.612422,19.3521844 C117.834579,20.897582 115.959919,21.6012823 113.760534,21.6012823 C109.405461,21.6012823 105.423949,18.1333516 105.657854,11.8557629 L120.597733,11.8557629 C120.597733,8.52840086 117.973379,3.2330782 111.934711,3.2330782 C106.408403,3.2330782 102.14415,8.10583788 102.14415,14.5257095 C102.14415,20.8041553 106.217339,25.3503501 111.88673,25.3503501 L111.88673,25.3503501 Z M73.5564345,25.3503501 C77.8643838,25.3503501 81.1441829,23.0523961 82.1277799,19.3521844 L81.0516494,18.6493413 C79.7381875,20.7107286 77.9594877,21.647567 75.0095535,21.647567 C70.0898548,21.647567 67.3746816,16.9616608 67.3746816,12.8388861 C67.3746816,8.29354841 69.9510546,5.24818075 73.8374623,5.24818075 C79.2223988,5.24818075 77.2089381,9.69923459 80.2539762,9.69923459 C81.3301067,9.69923459 82.032676,8.85668001 82.032676,7.45185096 C82.032676,4.35934138 78.4752764,3.2330782 74.6325651,3.2330782 C66.6721123,3.2330782 63.5799506,9.46438214 63.5799506,14.4794247 C63.5799506,19.4456111 66.5770084,25.3503501 73.5564345,25.3503501 L73.5564345,25.3503501 Z" id="Fill-1"></path>
            <path d="M178.3138,37.0021171 L178.3138,40.751185 L184.681477,40.751185 L184.681477,43.0928524 L178.3138,43.0928524 L178.3138,56.6817235 C178.3138,58.8365376 178.829589,59.4922387 181.592742,59.4922387 C182.530073,59.4922387 184.074868,59.398812 184.916238,59.2573863 L184.916238,59.2573863 L184.916238,61.5536261 C182.855653,61.8827623 180.747946,62.350753 178.782465,62.350753 C175.689447,62.350753 174.379412,61.0847783 174.379412,58.2271212 L174.379412,58.2271212 L174.379412,43.0928524 L170.865709,43.0928524 L170.865709,41.8277349 C173.538042,40.8917536 175.268762,38.828652 176.721881,37.0021171 L176.721881,37.0021171 L178.3138,37.0021171 Z M225.893163,40.2351953 C230.34334,40.2351953 232.732932,41.6888805 232.732932,45.2493807 L232.732932,45.2493807 L232.732932,57.243998 C232.732932,58.9779633 233.761939,59.4922387 235.353859,58.4611165 L235.353859,58.4611165 L235.777971,60.148797 C234.416528,61.6941947 233.249578,62.350753 231.98324,62.350753 C230.203683,62.350753 229.033305,61.1327773 228.799401,58.9779633 C226.083371,61.4147717 224.162444,62.350753 221.867099,62.350753 C218.82206,62.350753 216.622676,60.2430809 216.622676,57.3374247 C216.622676,54.4317685 218.588156,52.6523755 223.788883,50.8712683 L223.788883,50.8712683 L228.799401,49.137303 L228.799401,45.9522238 C228.799401,43.1879934 226.035391,42.2502979 224.487168,42.2502979 C222.661345,42.2502979 220.882645,43.3748468 220.882645,44.4531109 C220.882645,45.483376 222.804429,47.0759156 221.585214,47.6381901 L221.585214,47.6381901 L218.82206,48.9513067 C218.540176,49.0901611 217.277265,46.7484936 217.277265,45.7173714 C217.277265,43.5154154 219.758534,40.2351953 225.893163,40.2351953 Z M72.6670846,40.2351953 C77.1181181,40.2351953 79.5042834,41.6888805 79.5042834,45.2493807 L79.5042834,45.2493807 L79.5042834,57.243998 C79.5042834,58.9779633 80.5358607,59.4922387 82.1277799,58.4611165 L82.1277799,58.4611165 L82.5484647,60.148797 C81.1904497,61.6941947 80.0192152,62.350753 78.7537337,62.350753 C76.9750339,62.350753 75.8029427,61.1327773 75.5690385,58.9779633 C72.8538652,61.4147717 70.9320812,62.350753 68.6375927,62.350753 C65.5959817,62.350753 63.3923132,60.2430809 63.3923132,57.3374247 C63.3923132,54.4317685 65.3620776,52.6523755 70.55852,50.8712683 L70.55852,50.8712683 L75.5690385,49.137303 L75.5690385,45.9522238 C75.5690385,43.1879934 72.8058849,42.2502979 71.261946,42.2502979 C69.4352659,42.2502979 67.6565661,43.3748468 67.6565661,44.4531109 C67.6565661,44.8083748 67.8845685,45.2304964 68.1335155,45.6541785 L68.2837406,45.9080526 C68.7071131,46.624933 69.0713362,47.3085809 68.3591354,47.6381901 L68.3591354,47.6381901 L65.5959817,48.9513067 C65.3140972,49.0901611 64.0477589,46.7484936 64.0477589,45.7173714 C64.0477589,43.5154154 66.5324552,40.2351953 72.6670846,40.2351953 Z M271.453068,40.2351953 C273.933481,40.2351953 276.042045,40.8917536 277.773622,42.2502979 L277.773622,42.2502979 L277.773622,47.3107681 L276.32393,47.3107681 C275.621361,43.6088421 274.120261,41.9683035 271.543888,41.9683035 C269.344504,41.9683035 268.034469,43.0928524 268.034469,45.107955 C268.034469,48.6230275 275.152695,49.464725 277.821602,52.1363858 C278.806056,53.1212233 279.320988,54.6203362 279.320988,56.1657338 C279.320988,60.0082284 276.558691,62.350753 272.154781,62.350753 C269.813169,62.350753 267.049158,61.7421937 265.271315,60.8516401 L265.271315,60.8516401 L265.271315,54.9486153 L266.816111,54.9486153 C267.283919,58.6016851 269.014639,60.6176448 271.825773,60.6176448 C274.307899,60.6176448 276.090026,59.2111015 276.090026,57.2894256 C276.090026,53.6826406 269.903989,53.7769245 266.065561,49.9335728 C265.128231,48.9958772 264.612442,47.4041948 264.612442,46.0456505 C264.612442,42.6257189 267.423576,40.2351953 271.453068,40.2351953 Z M43.7794916,40.2351953 C49.8181604,40.2351953 52.4425137,45.5296608 52.4425137,48.8570229 L52.4425137,48.8570229 L37.5026348,48.8570229 C37.2687306,55.1354687 41.2502422,58.6016851 45.605315,58.6016851 C47.8055564,58.6016851 49.6793601,57.898842 51.4580599,56.3534444 L51.4580599,56.3534444 L52.4425137,57.243998 C50.4299097,60.5225038 47.2897677,62.350753 43.7323681,62.350753 C38.0629766,62.350753 33.9897883,57.8062724 33.9897883,51.5269695 C33.9897883,45.107955 38.2531844,40.2351953 43.7794916,40.2351953 Z M111.934711,40.2351953 C117.973379,40.2351953 120.597733,45.5296608 120.597733,48.8570229 L120.597733,48.8570229 L105.657854,48.8570229 C105.423949,55.1354687 109.405461,58.6016851 113.760534,58.6016851 C115.959919,58.6016851 117.834579,57.898842 119.612422,56.3534444 L119.612422,56.3534444 L120.597733,57.243998 C118.584272,60.5225038 115.44413,62.350753 111.88673,62.350753 C106.217339,62.350753 102.14415,57.8062724 102.14415,51.5269695 C102.14415,45.107955 106.408403,40.2351953 111.934711,40.2351953 Z M205.873366,40.2351953 C208.358062,40.2351953 210.462343,40.8917536 212.197346,42.2502979 L212.197346,42.2502979 L212.197346,47.3107681 L210.744227,47.3107681 C210.041658,43.6088421 208.544843,41.9683035 205.967613,41.9683035 C203.764801,41.9683035 202.454766,43.0928524 202.454766,45.107955 C202.454766,48.6230275 209.572993,49.464725 212.24447,52.1363858 C213.225496,53.1212233 213.741285,54.6203362 213.741285,56.1657338 C213.741285,60.0082284 210.978988,62.350753 206.575935,62.350753 C204.233466,62.350753 201.470313,61.7421937 199.691613,60.8516401 L199.691613,60.8516401 L199.691613,54.9486153 L201.236408,54.9486153 C201.704217,58.6016851 203.43922,60.6176448 206.249497,60.6176448 C208.731623,60.6176448 210.510323,59.2111015 210.510323,57.2894256 C210.510323,53.6826406 204.32857,53.7769245 200.489286,49.9335728 C199.552812,48.9958772 199.036167,47.4041948 199.036167,46.0456505 C199.036167,42.6257189 201.847301,40.2351953 205.873366,40.2351953 Z M8.61418496,40.751185 L8.61418496,42.4371513 C6.22801974,42.530578 5.80390779,43.8436946 6.74123804,46.0919353 L6.74123804,46.0919353 L11.2873754,56.9611465 L15.9243328,46.6070679 C14.5620338,43.0465676 14.2364529,42.4371513 11.8948408,42.4371513 L11.8948408,42.4371513 L11.8948408,40.751185 L22.0581054,40.751185 L22.0581054,42.4371513 C19.1081712,42.6720037 18.7791631,43.8908365 19.9975211,46.935347 L19.9975211,46.935347 L23.8847856,56.6345816 L28.0530778,46.6070679 C28.8027706,44.780533 28.8516077,42.4371513 25.7106089,42.4371513 L25.7106089,42.4371513 L25.7106089,40.751185 L33.3926044,40.751185 L33.3926044,42.4371513 C31.9394855,42.7191456 31.3800004,43.1399943 30.6765743,44.8259606 L30.6765743,44.8259606 L23.4161204,62.350753 L21.9193051,62.350753 L16.7657023,48.9958772 L10.8658339,62.350753 L9.2696307,62.350753 L2.48041232,45.483376 C1.59106241,43.233421 1.17037763,42.7191456 -7.10542736e-15,42.4371513 L-7.10542736e-15,42.4371513 L-7.10542736e-15,40.751185 L8.61418496,40.751185 Z M141.0048,40.2351953 C145.45412,40.2351953 147.841142,41.6888805 147.841142,45.2493807 L147.841142,45.2493807 L147.841142,57.243998 C147.841142,58.9779633 148.873576,59.4922387 150.465495,58.4611165 L150.465495,58.4611165 L150.88618,60.148797 C149.528165,61.6941947 148.356931,62.350753 147.090592,62.350753 C145.311893,62.350753 144.140658,61.1327773 143.907611,58.9779633 C141.191581,61.4147717 139.269797,62.350753 136.974451,62.350753 C133.933697,62.350753 131.730029,60.2430809 131.730029,57.3374247 C131.730029,54.4317685 133.699793,52.6523755 138.896236,50.8712683 L138.896236,50.8712683 L143.907611,49.137303 L143.907611,45.9522238 C143.907611,43.1879934 141.1436,42.2502979 139.598805,42.2502979 C137.772125,42.2502979 135.993425,43.3748468 135.993425,44.4531109 C135.993425,44.8083748 136.221529,45.2304964 136.47061,45.6541785 L136.620918,45.9080526 C137.044534,46.624933 137.409052,47.3085809 136.696851,47.6381901 L136.696851,47.6381901 L133.933697,48.9513067 C133.651813,49.0901611 132.384618,46.7484936 132.384618,45.7173714 C132.384618,43.5154154 134.870171,40.2351953 141.0048,40.2351953 Z M91.9586092,40.2351953 L91.9586092,44.8739597 L92.0537131,44.8739597 C94.161421,41.4068861 95.3326554,40.4229058 97.766801,40.4229058 C99.8265285,40.4229058 101.232524,42.1568711 101.232524,43.0928524 C101.232524,43.3268477 100.763859,46.1382201 99.3115966,46.1382201 C98.5948475,46.1382201 98.1251627,45.692324 97.6845567,45.2018383 L97.3927351,44.8726459 C96.9542882,44.3821602 96.4964786,43.9362641 95.8013206,43.9362641 C94.6746393,43.9362641 93.832413,44.733391 91.9586092,47.4041948 L91.9586092,47.4041948 L91.9586092,55.6514584 C91.9586092,59.1648167 92.6131982,60.148797 96.7343669,60.148797 L96.7343669,60.148797 L96.7343669,61.8356204 L84.5576415,61.8356204 L84.5576415,60.148797 C86.432302,60.148797 88.0242212,59.2111015 88.0242212,56.5402978 L88.0242212,56.5402978 L88.0242212,45.5768027 L84.5576415,43.8436946 L84.5576415,42.7654304 L90.7873748,40.2351953 L91.9586092,40.2351953 Z M160.296325,40.2351953 L160.296325,44.8739597 L160.391429,44.8739597 C162.499137,41.4068861 163.670371,40.4229058 166.104517,40.4229058 C168.165101,40.4229058 169.570239,42.1568711 169.570239,43.0928524 C169.570239,43.3268477 169.101574,46.1382201 167.649312,46.1382201 C166.932563,46.1382201 166.462878,45.692324 166.022272,45.2018383 L165.730451,44.8726459 C165.292004,44.3821602 164.834194,43.9362641 164.139036,43.9362641 C163.011498,43.9362641 162.169272,44.733391 160.296325,47.4041948 L160.296325,47.4041948 L160.296325,55.6514584 C160.296325,59.1648167 160.950914,60.148797 165.072082,60.148797 L165.072082,60.148797 L165.072082,61.8356204 L152.895357,61.8356204 L152.895357,60.148797 C154.769161,60.148797 156.361937,59.2111015 156.361937,56.5402978 L156.361937,56.5402978 L156.361937,45.5768027 L152.895357,43.8436946 L152.895357,42.7654304 L159.124234,40.2351953 L160.296325,40.2351953 Z M194.117325,40.2351953 L194.117325,56.3997291 C194.117325,58.9779633 195.33654,60.100798 197.023563,60.148797 L197.023563,60.148797 L197.023563,61.8356204 L186.812318,61.8356204 L186.812318,60.148797 C188.591018,60.148797 190.186364,59.0705329 190.186364,56.7280083 L190.186364,56.7280083 L190.186364,45.3899493 L186.625537,43.6088421 L186.625537,42.530578 L192.949518,40.2351953 L194.117325,40.2351953 Z M245.075019,40.2351953 L245.075019,44.2182585 L245.169266,44.2182585 C247.086766,41.6888805 250.08468,40.2351953 252.661053,40.2351953 C257.016983,40.2351953 259.545376,42.4371513 259.545376,47.4967644 L259.545376,47.4967644 L259.545376,56.3997291 C259.545376,58.743968 260.205105,59.8668027 262.872298,60.148797 L262.872298,60.148797 L262.872298,61.8356204 L251.820541,61.8356204 L251.820541,60.148797 C254.535714,60.148797 255.615272,58.8365376 255.615272,56.3071596 L255.615272,56.3071596 L255.615272,48.5287437 C255.615272,45.5768027 254.253829,43.3748468 251.212218,43.3748468 C249.05653,43.3748468 247.086766,44.4531109 245.075019,46.1382201 L245.075019,46.1382201 L245.075019,56.3071596 C245.075019,58.8845366 246.106596,60.148797 248.86975,60.148797 L248.86975,60.148797 L248.86975,61.8356204 L237.674051,61.8356204 L237.674051,60.148797 C240.01652,60.0536561 241.139774,58.9299643 241.139774,56.5882968 L241.139774,56.5882968 L241.139774,45.2948084 L238.003916,43.5154154 L238.003916,42.4371513 L243.903784,40.2351953 L245.075019,40.2351953 Z M75.5690385,50.9192673 L73.0877694,51.8561057 C69.2964656,53.2600777 67.5614622,54.1977732 67.5614622,56.1657338 C67.5614622,57.619419 68.4987924,59.2111015 70.8404045,59.2111015 C72.5274276,59.2111015 73.9771193,58.4611165 75.5690385,56.7751502 L75.5690385,56.7751502 L75.5690385,50.9192673 Z M228.799401,50.9192673 L226.317275,51.8561057 C222.522544,53.2600777 220.790968,54.1977732 220.790968,56.1657338 C220.790968,57.619419 221.724014,59.2111015 224.066483,59.2111015 C225.753506,59.2111015 227.206625,58.4611165 228.799401,56.7751502 L228.799401,56.7751502 L228.799401,50.9192673 Z M143.907611,50.9192673 L141.425485,51.8561057 C137.633324,53.2600777 135.898321,54.1977732 135.898321,56.1657338 C135.898321,57.619419 136.835651,59.2111015 139.17812,59.2111015 C140.866,59.2111015 142.314835,58.4611165 143.907611,56.7751502 L143.907611,56.7751502 L143.907611,50.9192673 Z M42.8858578,41.9683035 C40.1706845,41.9683035 38.2060608,43.9842632 37.7845193,47.1701995 L37.7845193,47.1701995 L47.5236719,47.1701995 C47.1509674,43.8436946 45.4630876,41.9683035 42.8858578,41.9683035 Z M111.041077,41.9683035 C108.325047,41.9683035 106.359566,43.9842632 105.938881,47.1701995 L105.938881,47.1701995 L115.678034,47.1701995 C115.30533,43.8436946 113.61745,41.9683035 111.041077,41.9683035 Z M191.965064,29.2717003 C193.370203,29.2717003 194.494314,30.3971063 194.494314,31.8010783 C194.494314,33.2076216 193.370203,34.3313134 191.965064,34.3313134 C190.559925,34.3313134 189.435815,33.2076216 189.435815,31.8010783 C189.435815,30.3971063 190.559925,29.2717003 191.965064,29.2717003 Z" id="Combined-Shape"></path>
            <path d="M141.48546,76.8156065 C146.716174,76.8156065 150.093648,79.770976 150.999277,85.1357259 L150.999277,85.1357259 L151.069534,85.5531461 L145.616911,86.1214204 L145.561219,85.7374281 C145.119115,82.7383452 143.8305,81.2803744 141.620834,81.2803744 C138.650336,81.2803744 137.144953,83.684612 137.144953,88.42966 C137.144953,91.750165 137.928918,95.7075144 141.663673,95.7075144 C143.962446,95.7075144 145.182517,94.4741105 145.740289,91.5838826 L145.740289,91.5838826 L145.810546,91.2247469 L151.11066,91.6893091 L151.045544,92.1075864 C150.267577,97.1971989 146.840409,100 141.397211,100 C134.986694,100 130.84582,95.4066633 130.84582,88.2985197 C130.84582,81.6446528 135.31913,76.8156065 141.48546,76.8156065 Z M111.445482,76.8156065 C117.47387,76.8156065 121.266887,80.9220958 121.589041,87.8031011 C121.631024,88.2736631 121.631024,88.7313682 121.631024,89.2156443 L121.631024,89.2156443 L121.631024,89.615922 L106.670582,89.615922 L106.674009,89.7033488 C106.809382,93.5749856 108.606074,95.6209447 111.868738,95.6209447 C114.094683,95.6209447 115.568365,94.5221096 116.378033,92.2627262 L116.378033,92.2627262 L116.484275,91.9627322 L121.516213,92.6330045 L121.353423,93.0992809 C119.852324,97.456908 116.225524,99.9554295 111.401786,99.9554295 C105.056386,99.9554295 100.792133,95.4623765 100.792133,88.777653 C100.792133,81.7355081 105.173766,76.8156065 111.445482,76.8156065 Z M43.2971178,76.8156065 C49.3263619,76.8156065 53.1185225,80.9220958 53.4406762,87.8031011 C53.482659,88.2736631 53.482659,88.7313682 53.482659,89.2156443 L53.482659,89.2156443 L53.482659,89.615922 L38.5230738,89.615922 L38.526501,89.7033488 C38.6618741,93.5749856 40.4577097,95.6209447 43.7212298,95.6209447 C45.9463181,95.6209447 47.4200001,94.5221096 48.2305251,92.2627262 L48.2305251,92.2627262 L48.3367673,91.9627322 L53.3678489,92.6330045 L53.2059152,93.0992809 C51.7039592,97.456908 48.0771594,99.9554295 43.2534214,99.9554295 C36.9080212,99.9554295 32.6437683,95.4623765 32.6437683,88.777653 C32.6437683,81.7355081 37.0254017,76.8156065 43.2971178,76.8156065 Z M163.031204,76.8156065 C167.852372,76.8156065 171.3755,79.0107055 172.456771,82.6869177 L172.456771,82.6869177 L172.579292,83.1069093 L167.63389,84.0926039 L167.51908,83.7626105 C166.90476,82.0286451 165.39595,81.148377 163.031204,81.148377 C160.529372,81.148377 159.259607,81.850363 159.259607,83.2371924 C159.259607,84.5648801 160.848099,84.8863023 163.439037,85.3028654 L163.439037,85.3028654 L164.404642,85.4605765 C168.759714,86.165991 173.213318,87.5768199 173.213318,92.7058602 C173.213318,97.108915 169.402308,99.9554295 163.509294,99.9554295 C157.623134,99.9554295 153.913226,97.7106172 152.775406,93.4627022 L152.775406,93.4627022 L152.666594,93.0478533 L157.715668,92.0664444 L157.813342,92.4281514 C158.357405,94.4878245 160.411992,95.6209447 163.59583,95.6209447 C164.860455,95.6209447 167.801821,95.3835209 167.801821,93.1849934 C167.801821,91.5375978 166.42667,91.2418894 163.567556,90.7773273 L163.567556,90.7773273 L163.094607,90.6993289 C158.247736,90.0230567 153.76243,88.702226 153.76243,83.6734694 C153.76243,79.5721228 157.487761,76.8156065 163.031204,76.8156065 Z M73.6978052,76.8156065 C79.9146866,76.8156065 82.5681709,79.3878408 82.5681709,85.4194345 L82.5681709,85.4194345 L82.5681709,95.0183853 C82.5681709,96.8140637 82.7223934,98.2540349 83.0017076,99.07259 L83.0017076,99.07259 L83.185061,99.6057222 L77.7701367,99.6057222 L77.6698921,99.3622985 C77.484825,98.9131646 77.3460248,98.1734651 77.2877629,97.3334819 L77.2877629,97.3334819 L77.274911,97.1620568 L77.1583874,97.2777687 C75.3634085,99.0443048 73.1006213,99.8680026 70.0375905,99.8680026 C65.837597,99.8680026 63.1241373,97.3831952 63.1241373,93.5355579 C63.1241373,88.8993649 66.6626876,86.2148471 73.9437044,85.3268649 C74.9358694,85.2111529 75.9982912,85.1280117 77.1044095,85.0782984 L77.1044095,85.0782984 L77.1798071,85.0748699 L77.1780936,84.993443 C77.1755232,84.7045916 77.1626713,84.2897428 77.1086934,84.0283194 C76.900493,82.3260678 76.1902126,81.1929476 73.4073528,81.1929476 C70.5619471,81.1929476 69.2793298,81.9986457 68.833798,84.0651758 L68.833798,84.0651758 L68.7584003,84.4148831 L63.5850913,83.8508944 L63.6741977,83.4171888 C64.5361303,79.1607025 68.0969571,76.8156065 73.6978052,76.8156065 Z M98.9705935,76.8601771 C99.466676,76.8601771 99.8950719,76.8601771 100.332892,76.9561752 L100.332892,76.9561752 L100.650762,77.0247452 L100.650762,82.0200739 L100.164961,81.9275043 C100.096418,81.9146474 99.8393804,81.8932193 98.8849143,81.8932193 C96.3616624,81.8932193 94.2590953,83.3194765 92.803406,86.0211367 L92.803406,86.0211367 L92.7931245,99.6057222 L86.8452757,99.6057222 L86.8452757,77.2518835 L92.4855362,77.2518835 L92.4855362,80.6906719 L92.634618,80.4772476 C93.7707239,78.8264235 95.7936094,76.8601771 98.9705935,76.8601771 Z M6.20745674,77.2518835 L10.1898251,90.2133386 L10.2669364,90.461905 L14.2955715,77.2518835 L18.7577433,77.2518835 L22.998006,90.4756191 L26.8938384,77.2518835 L31.97033,77.2518835 L24.944637,99.6057222 L20.3513761,99.6057222 L16.1136838,86.009137 L11.9899447,99.6057222 L7.39325661,99.6057222 L0.227049832,77.2518835 L6.20745674,77.2518835 Z M201.023924,92.9141417 L201.023924,99.6057222 L193.957105,99.6057222 L193.957105,92.9141417 L201.023924,92.9141417 Z M179.528731,77.2518835 L183.9969,90.0924839 C184.02089,90.1524827 184.305345,90.9881802 184.582946,91.8358776 L184.582946,91.8358776 L184.663484,92.077587 L184.740595,91.8358776 C185.010485,90.979609 185.29494,90.1044836 185.29751,90.093341 L185.29751,90.093341 L189.901053,77.2518835 L195.056369,77.2518835 L186.811461,99.6057222 L181.509633,99.6057222 L173.311849,77.2518835 L179.528731,77.2518835 Z M77.1815207,88.7150828 L77.1009823,88.7193685 C76.0556963,88.7725103 75.2074724,88.8616513 74.4303622,88.9979343 C70.723024,89.6536355 68.8423659,91.0173225 68.8423659,93.0529961 C68.8423659,94.1929733 69.1593789,95.7075144 71.9096807,95.7075144 C75.2725886,95.7075144 76.7882533,93.1515655 77.172096,92.3681526 L77.172096,92.3681526 L77.1815207,88.7150828 Z M111.486608,81.0635216 C109.007053,81.0635216 107.259198,82.7820586 106.812809,85.6637153 L106.812809,85.6637153 L106.798244,85.7605705 L115.849392,85.7605705 L115.83654,85.6654295 C115.618059,83.9468925 114.762124,81.0635216 111.486608,81.0635216 Z M43.1900189,81.0635216 C40.7104633,81.0635216 38.9634648,82.7820586 38.5162195,85.6637153 L38.5162195,85.6637153 L38.5025108,85.7605705 L47.5528028,85.7605705 L47.5399509,85.6654295 C47.321469,83.9468925 46.465534,81.0635216 43.1900189,81.0635216 Z" id="Combined-Shape"></path>
        </g>
    </g>
</svg>