<?xml version="1.0" encoding="UTF-8"?>
<svg width="71px" height="56px" viewBox="0 0 71 56" version="1.1" xmlns="http://www.w3.org/2000/svg" xmlns:xlink="http://www.w3.org/1999/xlink">
    <title>Symbols</title>
    <g id="Symbols" stroke="none" stroke-width="1" fill="none" fill-rule="evenodd">
        <path d="M53.9910535,19.9596951 C54.0276844,19.9810561 58.6455237,22.6590018 58.6455237,22.6590018 L69.0786868,16.5689291 C69.0786868,16.5689291 62.6367023,12.8330923 60.0760973,11.3481678 C55.1843224,8.51128437 50.7962931,8.37144927 46.3861541,10.9456949 C44.1623475,12.2437335 28.547079,21.3587989 28.547079,21.3587989 L18.316557,15.4259701 L42.6324675,1.23223693 C35.9993651,-0.726207287 28.0401481,-0.516360535 22.4277464,2.75969544 C19.7207114,4.33985089 0.726497198,15.4270993 0.726497198,15.4270993 C0.726497198,15.4270993 18.2919177,25.6137005 22.1920343,27.8753404 C26.8722679,30.5895152 31.380027,29.9576224 35.6527297,27.4636455 C35.9729459,27.2767596 48.2291301,20.122491 48.9068492,19.7269816 C50.5470904,18.769497 51.8436941,18.7144475 53.9910535,19.9596951" id="Fill-8" fill="#D8182A"></path>
        <path d="M60.4469597,24.8398459 C60.4469597,24.8398459 60.4612935,29.942792 60.4613872,29.9838203 C60.4681325,32.3367388 59.7719575,33.4010288 58.1209425,34.3584193 C57.4388203,34.7540228 37.6717029,46.2173016 37.6717029,46.2173016 L37.699059,55.8639473 C37.699059,55.8639473 62.2411257,41.6315384 64.4814209,40.3324646 C68.9185413,37.7592541 70.9914209,34.0107136 70.9764193,28.6544459 C70.968468,25.8519095 70.9484194,18.7497733 70.9484194,18.7497733 L60.4469597,24.8398459 Z" id="Fill-13" fill="#D8182A"></path>
    </g>
</svg>