<?xml version="1.0" encoding="UTF-8"?>
<svg width="203px" height="169px" viewBox="0 0 203 169" version="1.1" xmlns="http://www.w3.org/2000/svg" xmlns:xlink="http://www.w3.org/1999/xlink">
    <title>Group</title>
    <g id="V3-Revision" stroke="none" stroke-width="1" fill="none" fill-rule="evenodd">
        <g id="Group" fill="#D8182A" fill-rule="nonzero">
            <path d="M59.0722223,51.5461756 C52.3473608,47.6478556 52.6176216,45.3022712 57.7622491,42.3006885 C58.282545,41.9972634 68.1681677,36.2292449 73.2943283,33.238257 C78.4263515,30.2437375 82.4770385,30.0683337 89.2019001,33.9663594 C92.734343,36.0141104 163.379391,76.9644225 163.379391,76.9644225 L196.022612,57.9178068 C196.022612,57.9178068 116.252598,11.6777164 108.24092,7.03363599 C92.9351333,-1.83867658 79.2063557,-2.27600886 65.4075214,5.77520203 C51.6151359,13.822587 24.6506161,29.5553659 10.1330407,38.026251 C-4.41560602,46.5144998 -0.971686659,54.7237507 12.4777433,62.5200964 C20.0564764,66.9131375 100.593596,113.597918 100.593596,113.597918 L133.230954,94.5551279 C133.230954,94.5551279 61.5576247,52.9873709 59.0722223,51.5461756" id="Fill-5"></path>
            <path d="M202.642828,64.7400139 L169.785627,83.786041 C169.785627,83.786041 169.831061,99.7454322 169.831061,99.8737477 C169.852166,107.232467 167.673958,110.561019 162.507932,113.555538 C157.348649,116.546526 147.398246,122.314545 146.874432,122.61797 C141.696388,125.619552 139.525215,124.811989 139.504404,117.45327 C139.504697,117.55863 139.440502,101.376158 139.440502,101.376158 L106.58975,120.418948 C106.58975,120.418948 106.654531,143.465712 106.677981,151.759427 C106.719898,166.483928 112.122768,172.981815 126.76668,164.492978 C141.379521,156.022681 168.520208,140.289902 182.402876,132.242517 C196.2917,124.191895 202.777665,112.467799 202.73098,95.7164423 C202.705556,86.9515498 202.642828,64.7400139 202.642828,64.7400139" id="Fill-9"></path>
            <path d="M104.254604,93.8488627 C105.256503,93.2643796 150.666759,66.7245489 152.787222,65.4873047 L137.978574,42.0938533 C131.020678,46.1534505 76.5748601,77.847975 76.5748601,77.847975 L104.254604,93.8488627 Z" id="Fill-31"></path>
        </g>
    </g>
</svg>