<?xml version="1.0" encoding="UTF-8"?>
<svg width="65px" height="54px" viewBox="0 0 65 54" version="1.1" xmlns="http://www.w3.org/2000/svg" xmlns:xlink="http://www.w3.org/1999/xlink">
    <title>Symbols</title>
    <g id="Symbols" stroke="none" stroke-width="1" fill="none" fill-rule="evenodd">
        <path d="M18.9448986,16.5621878 C16.7955718,15.3157169 16.8819496,14.5658206 18.5262193,13.6059835 C18.6925106,13.5089646 21.8520453,11.6647599 23.4904128,10.7083104 C25.130654,9.75091985 26.4252904,9.69474114 28.5746172,10.9411179 C29.703618,11.5958774 52.2824168,24.689656 52.2824168,24.689656 L62.7154863,18.5995834 C62.7154863,18.5995834 37.2202659,3.81451521 34.6596609,2.32949656 C29.7677924,-0.50729276 25.3799504,-0.64712786 20.9697177,1.92711777 C16.5615461,4.50023417 7.94344079,9.53081601 3.30349186,12.2392506 C-1.3463877,14.9534255 -0.245679802,17.5782037 4.0528801,20.0711455 C6.47511201,21.4757072 32.2155067,36.4030571 32.2155067,36.4030571 L42.6467024,30.3142077 C42.6467024,30.3142077 19.7392558,17.0230979 18.9448986,16.5621878" id="Fill-5" fill="#D8182A"></path>
        <path d="M64.8313675,20.7808604 L54.3299078,26.8708389 C54.3299078,26.8708389 54.344429,31.9736909 54.344429,32.0148133 C54.3511743,34.3677318 53.6549993,35.4320218 52.0038906,36.3895064 C50.3549367,37.3457677 47.1746975,39.1900666 47.007282,39.2870854 C45.3523322,40.2469226 44.6584056,39.9887076 44.651754,37.6357891 C44.6518477,37.6693834 44.6313306,32.4952024 44.6313306,32.4952024 L34.131932,38.5839577 C34.131932,38.5839577 34.1526364,45.9530604 34.1601312,48.6049399 C34.1735282,53.3130353 35.9003346,55.3907063 40.5806618,52.6765315 C45.2510585,49.9680969 53.9254686,44.9376092 58.3624953,42.3645868 C62.8014894,39.7903412 64.8744627,36.0417066 64.8594611,30.6854388 C64.8514161,27.8829966 64.8313675,20.7808604 64.8313675,20.7808604" id="Fill-10" fill="#D8182A"></path>
    </g>
</svg>