<?xml version="1.0" encoding="UTF-8"?>
<svg width="272px" height="235px" viewBox="0 0 272 235" version="1.1" xmlns="http://www.w3.org/2000/svg" xmlns:xlink="http://www.w3.org/1999/xlink">
    <title>Group 10</title>
    <g id="V3-Desktop" stroke="none" stroke-width="1" fill="none" fill-rule="evenodd">
        <g id="Group-10" transform="translate(0.952266, 0.804932)" fill="#D8182A">
            <path d="M12.008422,92.2343914 L12.0088201,92.2343914 L110.9777,35.4931043 L164.315616,66.2086414 L81.6206442,114.136919 C72.3521534,119.439854 72.3529497,132.806484 81.6230331,138.107827 L120.57944,160.297817 L158.2777,138.76278 L133.664579,124.711336 L229.470968,69.6418728 C232.139755,68.105021 232.168422,64.2636877 229.522728,62.687021 L135.866339,6.87302099 C120.526487,-2.26846049 101.415774,-2.29274752 86.0524312,6.81090988 L11.7512183,50.8393266 C-4.03057803,60.1910303 -3.888041,83.0801691 12.008422,92.2343914" id="Fill-8"></path>
            <path d="M128.757204,170.493436 L128.757204,217.206565 C128.757204,229.871658 142.458677,237.79401 153.434825,231.475797 L270.990853,163.809723 L270.990853,122.892436 L167.145454,182.834834 L167.145454,148.020362 L128.757204,170.493436 Z" id="Fill-10"></path>
        </g>
    </g>
</svg>