<?xml version="1.0" encoding="UTF-8"?>
<svg width="88px" height="20px" viewBox="0 0 88 20" version="1.1" xmlns="http://www.w3.org/2000/svg" xmlns:xlink="http://www.w3.org/1999/xlink">
    <title>Combined Shape</title>
    <defs>
        <filter color-interpolation-filters="auto" id="filter-1">
            <feColorMatrix in="SourceGraphic" type="matrix" values="0 0 0 0 0.878431 0 0 0 0 0.878431 0 0 0 0 0.878431 0 0 0 1.000000 0"></feColorMatrix>
        </filter>
    </defs>
    <g id="Sandtable" stroke="none" stroke-width="1" fill="none" fill-rule="evenodd">
        <g id="Sandtable-titleTC" transform="translate(-602.000000, -20.000000)" filter="url(#filter-1)">
            <g transform="translate(602.000000, 20.000000)">
                <path d="M47.6539429,0.213377348 C48.5746672,0.426158114 49.5610154,0.70257425 50.3902638,0.978990385 C50.5235003,1.06450041 50.5692383,1.21364581 50.479751,1.3210305 C50.2311754,1.57756058 49.6266394,1.8102274 49.6266394,2.08863214 L49.6266394,5.40960297 L50.1436767,5.43147763 L50.7263381,4.3655852 C50.7939507,4.26018912 51.0166745,4.24030306 51.1518996,4.34371054 L52.6552852,5.70789377 C52.7209092,5.7934038 52.6990345,5.92067453 52.6095473,6.00618456 L52.4961968,6.04993388 L49.6266394,6.04993388 L49.6266394,8.96920645 L49.8076024,8.90358247 L51.6908116,8.00871009 C51.734561,8.13796944 51.8240482,8.26524017 51.8479115,8.39251091 L49.6505026,9.86209022 L49.6502267,16.2009495 C49.6470536,18.0921957 49.6073897,18.7442355 49.1115906,19.2363756 C48.5508039,19.5963131 47.9224046,19.8528432 47.250256,20 C47.1607688,19.0852416 46.3315204,18.3832639 45.4565341,18.1048592 L44.8500094,17.9159417 L44.8718841,17.5082776 L47.250256,17.7866823 C47.4749684,17.808557 47.8329174,17.6594116 47.8329174,17.4446422 L47.8130313,11.2461595 C47.0712816,11.737345 46.6675947,12.0992712 45.8164716,12.7793742 C45.8582323,13.1214143 45.3650582,13.2049357 45.2556849,13.0359043 C44.8500094,12.483072 44.4701858,11.9063765 44.1778609,11.2879202 C45.3889215,10.820598 46.5999821,10.3095264 47.7891681,9.79646625 L47.7891681,6.04993388 L46.2619192,6.04993388 C45.9954461,6.04993388 45.5917592,6.11356925 45.1661977,6.22095393 L44.6730236,5.43147763 L47.7653048,5.43147763 C47.7653048,3.30168137 47.7434301,1.91761208 47.6539429,0.213377348 Z M80.7636244,15.5502968 C82.4877452,15.7630776 84.4624303,16.2522745 85.6078669,16.9980015 C86.3456395,17.4673123 86.8388136,18.2329253 86.7950643,19.0442763 C86.7274517,19.4479632 86.6160898,19.746254 86.232289,19.8755133 C86.0334285,19.9391487 85.8524654,19.8755133 85.7172402,19.746254 C84.2178318,18.2985493 82.4678592,16.7852207 80.604536,15.8923369 L80.7636244,15.5502968 Z M78.0949161,14.8682052 C78.7451901,15.2718921 79.1926263,15.5920575 79.8210255,16.1468784 C79.9105128,16.2105138 79.8667634,16.3159098 79.8210255,16.4014199 C79.5963131,16.5306792 79.2602388,16.4232945 79.0116632,16.5088045 C76.9057302,17.8073638 74.7520706,19.1297863 72.397562,19.8755133 L72.1072256,19.5971086 C74.2151472,18.2329253 76.4125561,16.7852207 78.0949161,14.8682052 Z M54.1785569,0.404283456 C55.0535432,0.682688197 56.0398914,1.06450041 56.7140286,1.5119366 C56.8035159,1.59744663 56.7796526,1.78835274 56.692154,1.85198811 C56.4893162,1.98124745 56.1532419,2.10851819 56.0856293,2.27754964 C55.7276804,3.10878665 55.4134808,3.98377298 55.0754179,4.81500999 L61.1983335,4.81500999 L62.2960437,3.25793205 C62.3417816,3.17242202 62.5446193,3.13066131 62.6778559,3.25793205 C63.4414803,3.85451364 63.9784037,4.42922057 64.6505523,5.13318684 C64.7400396,5.28233224 64.6962903,5.47522695 64.4715779,5.47522695 L59.4940988,5.47522695 L59.4940988,8.45614628 L61.1068577,8.43427162 L61.7809949,7.30673242 C61.8704821,7.15559842 62.0932059,7.19934774 62.2065564,7.28485777 C62.9244429,7.75218001 63.3738677,8.13796944 64.0241417,8.73256242 C64.0897656,8.79818639 64.1136289,8.94733179 64.0460163,9.01096716 L63.8889165,9.11636324 L59.4940988,9.11636324 L59.4940988,12.2702912 L60.7270341,12.2702912 L61.7809949,10.9279827 C61.8704821,10.8424726 62.1647957,10.8424726 62.2304197,10.9279827 C63.0139302,11.5245642 63.4414803,11.9282511 64.0698796,12.5049467 C64.1374922,12.6103427 64.1792529,12.7376135 64.0897656,12.8449982 L63.9346544,12.9305082 L59.4940988,12.9305082 L59.4940988,16.6571545 L61.7133823,16.6571545 L62.6778559,15.485866 C62.7454685,15.3784813 62.9920555,15.3367206 63.17103,15.485866 C63.8889165,16.0168236 64.2926034,16.2534676 64.9210027,16.8918099 C64.964752,16.9991946 65.0104899,17.1045907 64.9428773,17.2119754 L64.8315154,17.3173715 L54.8964434,17.3173715 L54.8725801,18.9579708 C54.8725801,19.2145009 54.7413322,19.3000109 54.3376453,19.4471677 L53.3512971,19.8110825 C53.2140833,19.8110825 53.0589721,19.7255725 53.0808467,19.6181878 C53.1027214,18.6378054 53.1484593,17.6594116 53.1484593,16.6989152 L53.170334,8.86182176 C52.0944985,9.92572559 51.8717747,10.160381 50.772076,11.3097949 C50.6368508,11.2879202 50.5692383,11.1606495 50.4578764,11.0990027 C52.4544361,8.22347946 53.5302715,4.94228073 54.0234457,1.53381126 L54.1129329,0.915355016 C54.1566822,0.788084277 54.1566822,0.597178169 54.1785569,0.404283456 Z M16.6625237,10.1597844 L16.752011,10.1816591 C17.4917721,10.6509699 18.2315333,11.2256769 18.9036819,11.7168624 C18.9732831,11.7586231 18.9732831,11.9057799 18.9036819,11.9714039 C18.4562457,12.1424239 17.6727352,12.2915693 17.583248,12.41884 C15.2486254,15.9327056 11.5040816,18.4463027 7.42346355,19.3610611 C6.86267686,19.4903205 6.25814085,19.6394659 5.65161624,19.7031012 L5.38315452,19.3610611 C8.47941296,18.2553966 11.5736828,16.742068 13.8367156,14.2085848 C14.958289,12.9736609 15.9665119,11.587603 16.6625237,10.1597844 Z M6.90841478,4.43061259 L7.35585097,4.6215187 L5.87632864,8.81946447 L5.49650503,9.92512901 L4.59964404,12.5242361 C4.23970648,13.5901286 4.1720939,14.5685224 4.26158114,15.8273095 C4.35305698,16.9349627 4.46243027,17.9769918 4.48629354,19.0866336 C4.48629354,19.4048104 4.08260666,19.5977051 3.72465771,19.5539558 C3.03063446,19.4465711 2.28888469,19.0229982 2.10991021,18.3409066 C2.04428624,17.658815 2.35649727,17.0622334 2.46785917,16.4020164 C2.62694759,15.5290187 2.7820588,14.6759071 2.46785917,13.7611486 C1.9528104,13.1228063 1.09969873,12.8225269 0.294313583,12.6097462 L0.451413401,12.1841846 C1.14543665,12.313444 2.13178487,12.41884 2.67069691,12.2279339 C3.18574568,11.9714039 3.56556929,11.3748223 4.15021924,10.2452945 C5.13656747,8.35015362 6.12291569,6.34762809 6.90841478,4.43061259 Z M73.228799,7.07088384 L73.7000984,7.22002923 C72.87085,9.39357482 71.8606385,11.5452457 71.4112137,13.8679367 C71.0751395,15.6358068 71.7254134,17.2744176 71.793026,19.1297863 C71.7492766,19.2789317 71.6359261,19.4042139 71.5245642,19.4678492 C70.8941764,19.5334732 70.3592415,19.3823392 69.8422042,19.1496724 C69.5737425,18.9368916 69.1919302,18.5113301 69.2138049,18.1056546 C69.414654,16.9343661 69.7765802,15.8068269 69.8422042,14.6335498 C69.8183409,14.335259 69.7984549,14.0588428 69.5737425,13.8043014 C69.0805683,13.3986259 68.4521691,13.1838565 67.8237698,13.0585744 L67.8456445,12.6091496 C68.6987561,12.6727849 69.9754407,12.6310242 70.3353783,12.0344426 L72.0833623,9.15891939 L73.228799,7.07088384 Z M28.9405705,0.659620375 C29.6823203,0.979785827 30.6448053,1.38546131 31.3626918,1.76727352 C31.4303044,1.83090889 31.4959283,2.02380361 31.3169539,2.13118829 C31.0266175,2.23658437 30.7800304,2.32010579 30.5095801,2.44936514 C29.3681207,3.64053971 28.1789347,4.8794408 26.9002615,5.83595995 L35.1529735,5.87772066 L35.7137602,5.30301373 C35.8251221,5.19761765 36.0040965,5.2175037 36.117447,5.28312768 C36.721983,5.6669285 37.3046444,6.11436469 37.9091804,6.49617691 C37.9787816,6.58168693 37.9787816,6.75270699 37.9091804,6.83821702 C37.4160063,7.17826852 37.1694192,7.30553926 37.1475446,7.39104929 C36.9924334,8.73335786 36.6762451,10.4793533 36.117447,11.2032056 C35.6863174,11.7822875 34.9828284,11.9401032 34.282903,12.0452288 L33.9345146,12.0951072 C33.8769252,12.1032572 33.8196799,12.111468 33.7629384,12.1199527 C33.6714625,10.9486642 32.4822766,10.2884472 31.4303044,10.0120311 L31.5635409,9.56459487 C32.2138148,9.71374027 32.5518777,9.84101101 33.0888012,9.92652103 L34.389349,10.1393018 C34.5464488,10.0975411 34.6359361,9.96828175 34.7035487,9.81913635 C34.9720104,9.03164865 35.3100733,7.62570471 35.3995605,6.49617691 L31.5416663,6.49617691 C31.0942301,8.3714317 30.1277679,10.2248118 28.2922852,11.2887157 C27.9084844,11.503485 27.5067861,11.7162658 27.079236,11.9071719 L27.8189971,12.334722 L36.9447068,12.3546081 L37.7759438,11.3961003 C37.8415678,11.332465 38.0901435,11.332465 38.1796307,11.417975 C38.9174033,11.9708073 39.1878536,12.163702 39.8619908,12.7384089 C40.1065892,12.929315 39.0764917,13.504022 39.0764917,13.655156 L39.0764917,17.9366231 L39.6372784,17.9366231 L40.5778887,16.7215853 C40.6693645,16.6142006 40.848339,16.6559613 40.9378263,16.6997107 C41.4747497,17.2127708 42.0792857,17.7218538 42.5744484,18.2985493 C42.6201863,18.4039454 42.5505851,18.5113301 42.4630865,18.5530908 L23.5136667,18.5749654 C23.2670796,18.5749654 23.0443558,18.6187148 22.4597059,18.7439969 C22.2369821,18.4894554 22.1236316,18.2130393 21.8989192,17.9366231 L25.7329502,17.9366231 L25.7329502,13.826176 L25.7130641,12.4182435 C24.8818271,12.5673889 23.9412168,12.8020443 23.0443558,12.8875543 L22.9310053,12.4838674 C25.4644885,11.9071719 28.2445587,10.3103219 29.0519324,7.77485011 C29.1891462,7.36917463 29.3880067,6.92372704 29.3681207,6.49617691 L26.0034005,6.49617691 C24.7923399,7.26377855 23.5792907,7.88024619 22.1474949,8.43506707 L21.9207939,8.0731409 C24.388653,6.58168693 26.8783868,4.36638064 28.2008094,1.85278355 L28.82722,0.659620375 L28.9405705,0.659620375 Z M37.1932825,12.9730643 L35.039623,12.9730643 L35.039623,17.9366231 L37.1932825,17.9366231 L37.1932825,12.9730643 Z M29.41187,12.9730643 L27.5724101,12.9730643 L27.5724101,17.9366231 L29.41187,17.9366231 L29.41187,12.9730643 Z M33.2240263,12.9730643 L31.2036034,12.9730643 L31.2036034,17.9366231 L33.2240263,17.9366231 L33.2240263,12.9730643 Z M57.7679894,12.9305082 L54.898432,12.9305082 L54.898432,16.6571545 L57.7679894,16.6571545 L57.7679894,12.9305082 Z M78.0730415,0.275819554 C79.0355264,0.424964951 79.8667634,0.595985006 80.6721486,1.06529585 C80.9644736,1.2343273 81.2110606,1.55648136 81.2786732,1.83090889 C81.3005479,2.42749048 81.0320861,2.9624253 80.604536,3.36611218 L84.4624303,3.36611218 L85.269804,2.51300051 C85.3155419,2.42749048 85.5402543,2.4712398 85.6078669,2.51300051 L87.3101131,3.76979905 C87.4214749,3.85530908 87.4910761,4.04820379 87.3777256,4.11183916 L87.2425005,4.13371382 C86.9283008,4.2391099 86.5047279,4.21723524 86.232289,4.43001601 C85.6078669,4.8794408 85.0470802,5.32488839 84.4624303,5.83595995 C84.8004932,6.11436469 85.1365675,6.32714546 85.3155419,6.58168693 C85.3831545,6.70895767 85.3374166,6.7944677 85.2240661,6.86009167 L85.0669663,6.90185239 L80.6283993,6.90185239 L80.6283993,8.77511857 L83.2314836,8.77511857 L83.9473815,8.02939159 C84.0149941,7.98763088 84.1939686,7.94587016 84.3073191,8.02939159 C84.9118551,8.39330635 85.3374166,8.7114832 85.6973542,8.96801328 C85.9876905,9.24442942 85.4050292,9.47908484 85.2240661,9.75748958 L85.1146928,10.0120311 C85.1146928,11.7381405 85.1365675,13.080449 85.1803168,14.6971851 C85.1803168,14.9537152 84.977479,15.080986 84.8223678,15.1883706 C84.5976554,15.2937667 83.7902817,15.5920575 83.6351705,15.5701829 C83.476082,15.5284221 83.4323327,15.4210375 83.4084695,15.2937667 L83.4084695,14.6753105 L76.4125561,14.6753105 L76.4125561,14.8900798 C76.4125561,15.0173506 76.1898323,15.166496 76.0526185,15.23212 C75.6946695,15.4429121 75.3148459,15.5920575 74.9529198,15.7630776 C74.7759339,15.8267129 74.5969594,15.7412029 74.5969594,15.5701829 L74.6625834,12.2054627 C74.6864467,10.7140087 74.6625834,9.24442942 74.5512215,7.81661082 C74.9529198,7.90212085 75.3804699,8.15865093 75.7165442,8.30779633 L76.7486303,8.77511857 L78.9022899,8.77511857 L78.9022899,6.90185239 L77.2418045,6.90185239 C76.8838555,6.90185239 76.4801686,6.98736241 75.9869945,7.07088384 L75.4460939,6.3052708 L82.4459845,6.3052708 L83.3627315,5.26125302 C83.4979567,5.11210762 83.6769312,5.26125302 83.9911308,5.49590844 C84.2178318,5.04648365 84.418681,4.43001601 84.5300429,3.96269376 L75.6946695,3.96269376 C75.6727949,4.92120152 75.4460939,5.92146998 74.6188341,6.53793762 C74.3503724,6.73083233 74.0341841,6.86009167 73.6762352,6.7944677 C73.4077735,6.73083233 73.1611864,6.62344764 73.0040866,6.36890617 C72.7356249,5.53965776 73.7438478,5.23937836 74.2151472,4.57916141 C74.6407087,3.98257982 74.8634325,3.42974755 74.9111591,2.32010579 L75.3804699,2.32010579 L75.5594444,3.36611218 L79.6181878,3.36611218 C79.3278514,2.32010579 78.810814,1.29995128 77.894067,0.554224295 L78.0730415,0.275819554 Z M12.1563441,0 C13.210305,0.318176847 13.9500661,0.552832271 14.8449385,0.914758434 C14.9801637,0.958507751 14.9801637,1.17128852 14.8906764,1.2786732 C14.6222147,1.51332863 14.3100037,1.576964 14.1071659,1.85338013 L14.1071659,10.9492607 C14.1071659,12.1205493 14.1071659,12.9736609 13.5901286,13.3773478 C12.9398546,13.9083054 12.1344695,14.2085848 11.3489704,14.4850009 C11.2137452,13.9520547 11.124258,13.3335985 10.7205711,12.9080369 C10.227397,12.41884 9.57712308,12.2696946 8.94872381,12.0569139 L9.06207431,11.587603 C9.89132272,11.7168624 10.831933,11.8640192 11.7069194,11.8023724 C12.1762302,11.6313524 12.2000935,11.3111869 12.2000935,10.8001153 L12.2239567,1.89514084 L12.1563441,0 Z M83.4084695,11.8415479 L80.6283993,11.8415479 L80.6283993,14.0787289 L83.4084695,14.0787289 L83.4084695,11.8415479 Z M78.9022899,11.8415479 L76.3906814,11.8415479 L76.3906814,14.0787289 L78.9022899,14.0787289 L78.9022899,11.8415479 Z M8.99446173,4.51612262 C9.91319738,4.9217981 10.5415967,5.21810029 11.3270957,5.68741113 C11.3927197,5.7510465 11.4145944,5.87831724 11.3927197,5.96382727 C11.2137452,6.11297267 10.9452835,6.28399272 10.6967079,6.45302417 C9.75609756,9.07599455 8.16521333,11.2455629 6.52660257,13.5483679 L6.14479035,13.3972339 L6.8408022,11.8858938 L7.49306474,10.2035338 C8.2308373,8.30839291 8.72401141,6.47489883 8.99446173,4.51612262 Z M57.7679894,9.09448858 L54.898432,9.09448858 L54.898432,12.2702912 L57.7679894,12.2702912 L57.7679894,9.09448858 Z M78.9022899,9.37170016 L76.3906814,9.37170016 L76.3906814,11.2449663 L78.9022899,11.2449663 L78.9022899,9.37170016 Z M83.4084695,9.37170016 L80.6283993,9.37170016 L80.6283993,11.2449663 L83.4084695,11.2449663 L83.4084695,9.37170016 Z M14.6003401,4.81441341 C16.5272986,5.43286966 18.5019836,6.26410667 19.8244062,7.94447814 C20.2519563,8.6046951 19.8920187,9.3941714 19.5559444,10.010639 C19.3073688,10.2254084 19.0170324,10.6509699 18.6352202,10.4799499 C18.5238583,10.4381892 18.3886331,10.2890438 18.3687471,10.1597844 C17.4480228,8.30839291 16.2588369,6.3893888 14.3975023,5.13259026 L14.6003401,4.81441341 Z M67.1973591,6.13425074 C68.3626818,6.38879222 69.5737425,6.60356159 70.5143528,7.39104929 C70.9419029,7.75297545 70.8742903,8.41518101 70.7390652,8.88250326 C70.60384,9.15891939 70.538216,9.52084555 70.2001531,9.62823024 C69.999304,9.67197956 69.7288537,9.6501049 69.6851044,9.5009595 C69.0109672,8.39330635 68.205582,7.1345192 66.9945214,6.47430225 L67.1973591,6.13425074 Z M0.159088423,5.28173565 C1.23492389,5.60190111 2.13178487,5.96382727 3.05052052,6.5385342 C3.47608205,6.90244897 3.94937011,7.3280105 3.81414495,7.98822746 C3.67891979,8.62656976 3.47608205,9.01037058 3.05052052,9.37229674 C2.91728396,9.49956748 2.67069691,9.54331679 2.48973383,9.47968143 L2.35649727,9.35042208 C1.81758524,7.98822746 1.25878715,6.60216957 0,5.58201505 L0.159088423,5.28173565 Z M57.7679894,5.47522695 L54.898432,5.47522695 L54.898432,8.45614628 L57.7679894,8.45614628 L57.7679894,5.47522695 Z M33.7828244,0.405078898 C34.4330983,0.510474978 35.0614976,0.659620375 35.6680222,0.852515089 C35.8450081,0.874389747 35.8688714,1.06529585 35.7137602,1.21444125 C35.5546717,1.40534736 35.220586,1.70363815 35.2424607,1.78914818 C35.6222843,2.70589522 36.409772,3.6007676 37.3961202,4.13371382 C39.0088791,4.98483688 40.8026011,5.41039842 42.7096736,5.60329313 L42.6639356,6.04874072 C41.6557128,6.00698 40.6693645,6.28538475 40.0628399,7.09275849 L39.951478,7.2836646 C37.9549183,6.49617691 35.8450081,4.98483688 34.8387738,3.13145675 C34.3654858,2.25845903 34.0532747,1.34171199 33.7828244,0.405078898 Z M68.5655196,1.19256659 C69.5956171,1.47097133 70.5600907,1.89653287 71.5245642,2.40561582 C71.9521144,2.64225985 72.4870492,3.17321746 72.5347757,3.64053971 C72.5765364,4.0899645 72.5765364,4.38626669 72.2643254,4.83569149 C72.1529635,5.00472294 71.9043879,5.19761765 71.6597894,5.28312768 C71.3455898,5.34676305 71.18849,5.06835831 71.0313901,4.8794408 C70.472592,3.6007676 69.5737425,2.4712398 68.4064311,1.49085739 L68.5655196,1.19256659 Z M2.55734641,0.447436191 C2.82779672,0.552832271 3.1201217,0.682091615 3.27523292,0.723852326 C4.2854444,1.19316318 5.11469281,1.576964 5.85445398,2.46984777 C6.16865361,2.83376254 6.19052827,3.45023018 5.98967914,3.89766637 C5.81070466,4.28146719 5.51837968,4.79253875 5.02520557,4.9217981 C4.82236783,4.98543347 4.57578078,4.96355881 4.42066956,4.83628807 C4.15021924,4.34510256 4.10646993,3.77039563 3.87976892,3.23744941 C3.49994531,2.32070238 3.20762034,1.53520329 2.33462261,0.767601643 L2.55734641,0.447436191 Z M57.5651517,0.724448908 C58.6191125,1.21364581 59.875911,1.63920734 60.4585724,2.66333907 C60.6375469,3.45082676 59.8977857,4.08916906 59.2475118,4.47296988 C59.0227994,4.51473059 58.7543376,4.49484454 58.5753632,4.3655852 C58.2611635,4.00365903 58.3963887,3.51446213 58.2611635,3.10878665 C58.1040637,2.34118501 57.9032146,1.53381126 57.3185646,1.0207511 L57.5651517,0.724448908 Z" id="Combined-Shape" fill="#3C3C3C"></path>
            </g>
        </g>
    </g>
</svg>