<?xml version="1.0" encoding="UTF-8"?>
<svg width="143px" height="18px" viewBox="0 0 143 18" version="1.1" xmlns="http://www.w3.org/2000/svg" xmlns:xlink="http://www.w3.org/1999/xlink">
    <title>Sandtable-title</title>
    <defs>
        <filter color-interpolation-filters="auto" id="filter-1">
            <feColorMatrix in="SourceGraphic" type="matrix" values="0 0 0 0 0.878431 0 0 0 0 0.878431 0 0 0 0 0.878431 0 0 0 1.000000 0"></feColorMatrix>
        </filter>
    </defs>
    <g id="Sandtable" stroke="none" stroke-width="1" fill="none" fill-rule="evenodd">
        <g id="Sandtable-title" transform="translate(-30.000000, -20.000000)" filter="url(#filter-1)">
            <g transform="translate(29.999900, 20.000000)">
                <path d="M4.51707812,6.04643171 C5.50727504,6.04643171 6.51972359,6.30455046 7.50547019,6.8007615 L7.62340376,9.71572324 L6.84682235,9.71572324 L5.88332736,7.59959453 C5.57625505,7.38820417 5.08226917,7.03440347 4.25895937,7.03440347 C3.17753081,7.03440347 2.51665781,7.74200487 2.51665781,8.60981791 C2.51665781,9.50655805 2.9639153,10.0717491 4.37689293,10.6814434 L5.45832149,11.1531777 C7.57667536,12.0699442 8.25979998,13.0823928 8.25979998,14.4241653 C8.25979998,16.4223604 6.09249255,18 3.67151669,18 C2.37647262,18 1.31729569,17.5772193 0.378277478,17.0810082 L0,13.6698355 L0.847786582,13.6698355 L2.07162548,16.3289036 C2.46992941,16.6114991 2.9639153,17.0120282 4.02531739,17.0120282 C5.20020274,17.0120282 6.00126092,16.3289036 6.00126092,15.2919783 C6.00126092,14.4241653 5.48279826,13.7655174 3.78945026,12.9867108 L2.75252494,12.5172017 C1.08142855,11.7628719 0.307072305,10.9150854 0.307072305,9.4108761 C0.307072305,7.52838935 2.26076422,6.04643171 4.51707812,6.04643171 Z M56.6248007,0 L56.6248007,16.0945941 L58.4850358,16.5396264 L58.4850358,17.387413 L55.1183662,17.8591473 L54.5086719,16.2347793 C53.6364086,17.1292943 52.6484368,17.9281273 51.0974992,17.9281273 C47.8954916,17.9281273 46.3200771,15.2935359 46.3200771,12.541011 C46.3200771,8.65810392 48.9769201,6.09471771 52.3435897,6.09471771 C53.1913763,6.09471771 53.8255473,6.21265128 54.2950564,6.32835969 L54.2950564,1.85800996 L52.0832458,1.43522925 L52.0832458,0.611919449 L56.6248007,0 Z M18.7093815,6.09494023 C21.2527413,6.09494023 22.2874414,7.22309718 22.2874414,9.6462982 L22.2874414,15.8122211 C22.2874414,16.3284586 22.4276266,16.4953457 23.1107512,16.4953457 L24.2166566,16.4953457 L24.2166566,17.2007219 C24.2166566,17.2007219 22.7792022,17.834893 21.8179323,17.834893 C20.5429147,17.834893 20.051154,16.9871064 20.0044256,15.9524063 L19.9332204,15.9524063 C18.7093815,17.1517684 18.0974621,17.903873 16.5665509,17.903873 C15.2025268,17.903873 13.6515891,16.9626296 13.6515891,15.0578913 C13.6515891,13.1754045 15.04009,12.3053663 17.4388142,11.6934469 L19.9332204,11.0570507 L19.9332204,9.90664211 C19.8397636,8.04640698 19.0409306,7.15189201 17.7458865,7.15189201 C17.1094903,7.15189201 16.5220476,7.43448753 16.3329089,7.5524211 L16.2394521,9.90664211 C16.1927237,9.92889372 15.6030559,10.0223505 15.1802752,10.0223505 C14.4036938,10.0223505 13.9809131,9.6462982 13.9809131,8.96539874 C13.9809131,7.81053985 16.1682469,6.09494023 18.7093815,6.09494023 Z M108.872486,7.90533173 C108.872486,9.78781848 106.921019,10.5888767 105.109738,10.8937238 L105.109738,10.9404522 C107.55519,10.9404522 109.698021,12.0463575 109.698021,14.0000494 C109.698021,16.4232505 107.250343,17.6226126 103.836945,17.600361 L98.3341204,17.5536326 L98.3341204,16.6591176 L100.002992,16.2585885 L100.002992,6.49457926 L98.3541468,6.02284499 L98.3541468,5.15280679 L103.647806,5.1060784 C106.73188,5.08160162 108.872486,5.9761166 108.872486,7.90533173 Z M141.280852,5.05712484 L141.280852,8.65743637 L140.457543,8.65743637 L139.373889,6.21198373 L134.505235,6.21198373 L134.505235,10.6823335 L137.304489,10.6823335 L137.93866,8.96450867 L138.668513,8.96450867 L138.668513,13.3169248 L137.86968,13.3169248 L137.304489,11.763762 L134.505235,11.763762 L134.505235,16.4455021 L139.447319,16.4455021 L141.162919,13.6239971 L142.032957,13.6239971 L141.305329,17.5536326 L130.43319,17.5536326 L130.43319,16.6591176 L132.104286,16.2585885 L132.104286,6.49457926 L130.459891,6.02284499 L130.459891,5.15280679 L139.467346,5.15280679 L141.280852,5.05712484 Z M32.1255486,6.06935087 L32.6440112,8.18770475 L32.6907396,8.18770475 C33.1602487,7.64476531 34.6689083,6.06935087 36.5513951,6.06935087 C38.8099341,6.06935087 39.8668859,7.0595478 39.8668859,10.0234631 L39.8668859,16.2361144 L41.4200487,16.7056235 L41.4200487,17.5534101 L36.219846,17.5534101 L36.219846,16.6811467 L37.5371417,16.2361144 L37.5371417,10.352787 C37.4681616,8.70616741 36.9252222,7.78717565 35.3720594,7.78717565 C34.0792405,7.78717565 32.9488584,8.70616741 32.7152164,8.96428616 L32.7152164,16.2361144 L34.2416773,16.6811467 L34.2416773,17.5534101 L28.9012894,17.5534101 L28.9012894,16.6811467 L30.3854722,16.2116376 L30.3854722,8.30563831 L28.8100577,7.95183761 L28.8100577,7.2219846 L32.007615,6.06935087 L32.1255486,6.06935087 Z M75.4064999,5.03331561 L75.5689367,8.96517622 L74.7478521,8.96517622 L73.4995364,6.21265128 L70.6980579,6.21265128 L70.6980579,16.2570309 L72.5827698,16.6597851 L72.5827698,17.552075 L66.4168469,17.552075 L66.4168469,16.6597851 L68.2993337,16.2570309 L68.2993337,6.21265128 L65.522332,6.21265128 L64.2517647,8.96517622 L63.43068,8.96517622 L63.5686401,5.03331561 L65.1952332,5.15347434 L73.8043836,5.15347434 L75.4064999,5.03331561 Z M87.2917558,4.82259281 L92.0691778,16.3778572 L93.5266587,16.6604527 L93.5266587,17.5527425 L87.6678081,17.5527425 L87.6678081,16.6604527 L89.456838,16.3289036 L88.3286811,13.5519019 L83.1952332,13.5519019 L82.1405066,16.21097 L84.1609534,16.6604527 L84.1609534,17.5527425 L79.3835313,17.5527425 L79.3835313,16.6804792 L80.631847,16.3289036 L85.4804742,5.17416835 L86.399466,5.05845994 L87.2917558,4.82259281 Z M120.641811,5.15391937 L120.641811,6.02173241 L118.688119,6.47121506 L118.688119,16.4466147 L122.75794,16.4466147 L124.618175,13.0354419 L125.441484,13.0354419 L124.664903,17.55252 L114.618298,17.55252 L114.618298,16.6602302 L116.289395,16.2574759 L116.289395,6.49346668 L114.642775,6.02173241 L114.642775,5.15391937 L120.641811,5.15391937 Z M104.239699,11.5768484 L102.379464,11.5768484 L102.379464,16.0227214 C102.708788,16.3765221 103.391913,16.7525744 104.566798,16.7525744 C106.004253,16.7525744 107.225866,15.9047878 107.225866,14.3071218 C107.225866,12.7517338 105.933047,11.7882388 104.239699,11.5768484 Z M19.9332204,11.9048373 L17.9105485,12.5879619 C16.733438,12.9862658 16.0747902,13.4357485 16.0747902,14.3992434 C16.0747902,15.5741288 16.96708,16.1882734 17.9572769,16.1882734 C18.9919771,16.1882734 19.6506249,15.4584204 19.9332204,15.0578913 L19.9332204,11.9048373 Z M51.8006502,7.17614627 C50.0828255,7.17614627 48.6498214,8.63362714 48.6498214,11.3171721 C48.6498214,13.7648499 49.635568,16.1880509 52.4615232,16.1880509 C53.2136279,16.1880509 53.8255473,15.9299321 54.2950564,15.6228598 L54.2950564,8.70705747 C54.1303945,8.44671356 53.3093098,7.17614627 51.8006502,7.17614627 Z M85.7853214,7.20129059 L85.7630697,7.20129059 L83.6914443,12.3525398 L87.8547217,12.3525398 L85.7853214,7.20129059 Z M102.379464,5.95386498 L102.379464,10.6823335 C105.178718,10.5399231 106.424808,9.7166133 106.424808,8.14119887 C106.424808,6.82167802 105.41236,5.90491143 102.379464,5.95386498 Z" id="Combined-Shape" fill="#3C3C3C"></path>
            </g>
        </g>
    </g>
</svg>