<?xml version="1.0" encoding="UTF-8"?>
<svg width="118px" height="50px" viewBox="0 0 118 50" version="1.1" xmlns="http://www.w3.org/2000/svg" xmlns:xlink="http://www.w3.org/1999/xlink">
    <title>Group 62</title>
    <defs>
        <polygon id="path-1" points="0 0 118 0 118 50 0 50"></polygon>
    </defs>
    <g id="r" stroke="none" stroke-width="1" fill="none" fill-rule="evenodd">
        <g id="04-Acknowledgement" transform="translate(-960.000000, -1280.000000)">
            <g id="Group-4" transform="translate(600.000000, 180.000000)">
                <g id="Group-62" transform="translate(360.000000, 1100.000000)">
                    <mask id="mask-2" fill="white">
                        <use xlink:href="#path-1"></use>
                    </mask>
                    <g id="Clip-2"></g>
                    <path d="M56.241919,28.8040458 L59.9206238,28.8040458 L59.9206238,27.286317 L56.241919,27.286317 L56.241919,28.8040458 Z M55.5596245,25.6584255 L60.6641985,25.6584255 L60.6641985,24.8451092 L55.5596245,24.8451092 L55.5596245,25.6584255 Z M55.5596245,24.1092216 L60.6641985,24.1092216 L60.6641985,23.2940168 L55.5596245,23.2940168 L55.5596245,24.1092216 Z M55.4124257,26.4610402 L60.7804413,26.4610402 L60.7804413,29.9919157 L59.9206238,29.9919157 L59.9206238,29.6286931 L56.241919,29.6286931 L56.241919,30.0252792 L55.4124257,30.0252792 L55.4124257,26.4610402 Z M61.4621041,21.7007478 L61.4621041,22.5348377 L54.8147863,22.5348377 L54.8147863,21.7007478 L57.8863753,21.7007478 C57.7398083,21.3041617 57.4460426,20.709912 57.1844963,20.2692608 L58.0228342,19.9280708 C58.3064918,20.3693516 58.6211054,20.9629717 58.7784122,21.3582988 L58.0228342,21.7007478 L61.4621041,21.7007478 Z M55.0245287,20.2585592 C54.7844621,20.9522702 54.4906963,21.6673842 54.175451,22.3390626 L54.175451,30.0580133 L53.2846776,30.0580133 L53.2846776,23.9656952 C53.0016517,24.4277495 52.6977779,24.8344076 52.4046439,25.1963712 C52.309249,24.9760455 52.0382265,24.4491525 51.8809197,24.2181254 C52.7919093,23.185113 53.6308789,21.577995 54.1451268,19.9840965 L55.0245287,20.2585592 Z" id="Fill-1" fill="#9F9E9F" mask="url(#mask-2)"></path>
                    <path d="M65.6973844,28.7480202 L70.3736291,28.7480202 L70.3736291,27.4292139 L65.6973844,27.4292139 L65.6973844,28.7480202 Z M64.8489385,25.6584255 L71.2536627,25.6584255 L71.2536627,24.8344076 L64.8489385,24.8344076 L64.8489385,25.6584255 Z M64.8489385,23.9984293 L71.2536627,23.9984293 L71.2536627,23.1731525 L64.8489385,23.1731525 L64.8489385,23.9984293 Z M64.7320639,26.5605015 L71.3680102,26.5605015 L71.3680102,29.9919157 L70.3729973,29.9919157 L70.3729973,29.595959 L65.6973844,29.595959 L65.6973844,30.0252792 L64.7320639,30.0252792 L64.7320639,26.5605015 Z M72.7212277,21.5131563 L72.7212277,22.3931998 L63.3700018,22.3931998 L63.3700018,21.5131563 L67.8466122,21.5131563 C67.6577177,21.1064981 67.3336278,20.5997492 67.0284905,20.1823895 L67.9931792,19.9066678 C68.3810763,20.3800531 68.790453,21.0183679 68.9787158,21.4697207 L68.8321488,21.5131563 L72.7212277,21.5131563 Z" id="Fill-3" fill="#9F9E9F" mask="url(#mask-2)"></path>
                    <path d="M79.6612373,25.6695047 C79.9872225,26.3839892 80.4471396,27.0009009 81.0353027,27.5284234 C81.5786114,27.010973 82.0303156,26.3946907 82.3550373,25.6695047 L79.6612373,25.6695047 Z M75.8353338,28.5733964 L77.2713111,28.5733964 L77.2713111,27.0009009 L75.8353338,27.0009009 L75.8353338,28.5733964 Z M74.9951007,25.4932442 L78.1311286,25.4932442 L78.1311286,24.70259 L74.9951007,24.70259 L74.9951007,25.4932442 Z M83.5825357,24.9550202 C83.2249629,26.2851574 82.6064755,27.3194288 81.8205732,28.1327451 C82.4914962,28.5620653 83.2780302,28.8799637 84.1479558,29.0782568 C83.9483214,29.2878809 83.6754036,29.7165716 83.5402082,30.0023654 C82.5849958,29.7493057 81.7567661,29.342018 81.0353027,28.8044235 C80.2904645,29.3533491 79.4312788,29.7493057 78.5177622,30.03447 C78.4350024,29.8040723 78.2776956,29.4855444 78.1191253,29.2431862 L78.1191253,29.3974142 L75.834702,29.3974142 L75.834702,29.8934616 L74.9951007,29.8934616 L74.9951007,26.1743651 L78.1191253,26.1743651 L78.1191253,29.1009188 C78.896183,28.8912948 79.6296496,28.5733964 80.2797247,28.1327451 C79.6713454,27.5057614 79.168469,26.7465822 78.79068,25.8791288 L79.3573636,25.6695047 L78.4135228,25.6695047 L78.4135228,24.712662 L82.8155861,24.712662 L82.9836327,24.6799279 L83.5825357,24.9550202 Z M78.109649,23.7230852 C79.2006885,23.0847704 79.3674716,22.2494216 79.3674716,21.5129045 L79.3674716,20.3262936 L82.6803907,20.3262936 L82.6803907,22.7983471 C82.6803907,23.1074325 82.7012386,23.2169658 82.8370658,23.2169658 L83.3708981,23.2169658 C83.4985124,23.2169658 83.7177311,23.1943037 83.8434502,23.1502386 C83.8642981,23.4152588 83.885146,23.7791109 83.9173655,24.0082495 C83.7922781,24.0636457 83.5711642,24.0756062 83.3708981,24.0756062 L82.7536742,24.0756062 C81.9456606,24.0756062 81.7788775,23.7130132 81.7788775,22.765613 L81.7788775,21.2711758 L80.2588768,21.2711758 L80.2588768,21.5355665 C80.2588768,22.5465464 79.9752192,23.7344162 78.706025,24.5030379 C78.5923092,24.3066333 78.2979117,23.9541124 78.1191253,23.7791109 L78.1191253,24.0428721 L74.9951007,24.0428721 L74.9951007,23.2396278 L78.109649,23.2396278 L78.109649,23.7230852 Z M78.5499817,22.591241 L74.5452917,22.591241 L74.5452917,21.7760362 L76.4013856,21.7760362 C76.2428153,21.3700076 75.9282017,20.7430238 75.6464393,20.2923005 L76.4108619,19.8856424 C76.6945195,20.3476967 77.0400891,20.9299858 77.1860243,21.3259425 L76.4222335,21.7760362 L78.5499817,21.7760362 L78.5499817,22.591241 Z" id="Fill-4" fill="#9F9E9F" mask="url(#mask-2)"></path>
                    <path d="M95.3020818,24.658273 L93.2488806,24.658273 L93.2488806,30.0348477 L92.2412327,30.0348477 L92.2412327,24.658273 L90.3011155,24.658273 L90.3011155,23.6567357 L92.2412327,23.6567357 L92.2412327,20.1491518 L93.2488806,20.1491518 L93.2488806,23.6567357 L95.3020818,23.6567357 L95.3020818,24.658273 Z M87.3451375,28.5731446 L89.0432928,28.5731446 L89.0432928,27.0012786 L87.3451375,27.0012786 L87.3451375,28.5731446 Z M89.8930023,29.3977919 L87.3451375,29.3977919 L87.3451375,29.8932098 L86.5074314,29.8932098 L86.5074314,26.1741133 L89.8930023,26.1741133 L89.8930023,29.3977919 Z M86.4436242,25.4829204 L89.8506747,25.4829204 L89.8506747,24.6916366 L86.4436242,24.6916366 L86.4436242,25.4829204 Z M86.444256,24.0426203 L89.8828942,24.0426203 L89.8828942,23.239376 L86.444256,23.239376 L86.444256,24.0426203 Z M90.3219634,22.5916187 L85.9938152,22.5916187 L85.9938152,21.7757844 L87.9333007,21.7757844 C87.7753621,21.3697558 87.4607485,20.7434015 87.1783544,20.2926782 L87.9434087,19.8847611 C88.2359109,20.3468154 88.5726359,20.929734 88.7305745,21.3250611 L87.9541486,21.7757844 L90.3219634,21.7757844 L90.3219634,22.5916187 Z" id="Fill-5" fill="#9F9E9F" mask="url(#mask-2)"></path>
                    <path d="M102.577111,24.0428721 C103.290361,26.3292225 104.610728,28.1887708 106.591909,29.0568537 C106.352474,29.2759203 106.026489,29.704611 105.870445,30.0136964 C103.90948,29.0568537 102.64155,27.2753637 101.823428,24.9443186 C101.288332,26.9354327 100.154965,28.8371576 97.7764104,30.0136964 C97.6191036,29.7379746 97.30449,29.3766406 97.0322039,29.155056 C99.5270013,28.0125103 100.544126,26.0327272 100.962979,24.0428721 L97.2413146,24.0428721 L97.2413146,22.9871976 L101.141765,22.9871976 C101.266852,21.886199 101.256744,20.8305246 101.266852,19.9511106 L102.326936,19.9511106 C102.315564,20.8418556 102.305456,21.8981596 102.180369,22.9871976 L106.404278,22.9871976 L106.404278,24.0428721 L102.577111,24.0428721 Z" id="Fill-6" fill="#9F9E9F" mask="url(#mask-2)"></path>
                    <path d="M114.980215,23.810523 L114.980215,24.866827 L114.980215,25.2073874 L116.636043,25.2073874 L116.636043,23.810523 L114.980215,23.810523 Z M114.015526,25.2073874 L114.015526,24.866827 L114.015526,23.810523 L112.412134,23.810523 L112.412134,25.2073874 L114.015526,25.2073874 Z M114.917039,26.0540673 C114.832384,26.7798829 114.664338,27.4622628 114.277072,28.067214 C115.283457,28.6161395 116.552019,28.96929 118,29.122259 C117.810474,29.3419551 117.548296,29.7612033 117.421313,30.0463676 C115.974596,29.8279304 114.728777,29.4193838 113.711021,28.7930295 C113.186033,29.3085915 112.463938,29.7385412 111.446814,30.0589576 C111.332466,29.8279304 111.058285,29.4193838 110.849806,29.2103892 C111.782275,28.9806211 112.453198,28.6274706 112.913747,28.2201829 C112.348959,27.7367256 111.875775,27.1651379 111.510621,26.4947186 L112.307895,26.2309573 C112.600397,26.7364472 112.998402,27.176469 113.481062,27.5497635 C113.75398,27.0889682 113.889175,26.5815898 113.952351,26.0540673 L111.520097,26.0540673 L111.520097,22.9632136 L114.015526,22.9632136 L114.015526,22.0183315 L111.258551,22.0183315 L111.258551,21.0847803 L114.015526,21.0847803 L114.015526,19.9951128 L114.980215,19.9951128 L114.980215,21.0847803 L117.873649,21.0847803 L117.873649,22.0183315 L114.980215,22.0183315 L114.980215,22.9632136 L117.568512,22.9632136 L117.568512,26.0540673 L114.917039,26.0540673 Z M111.572533,20.2267694 C111.278767,20.962657 110.933197,21.7218361 110.53456,22.4356911 L110.53456,30.0797312 L109.612831,30.0797312 L109.612831,23.9112433 C109.286846,24.3732976 108.941908,24.8013588 108.595707,25.1633223 C108.500944,24.9228526 108.228026,24.3732976 108.061243,24.1303099 C109.088475,23.118071 110.074012,21.5229136 110.661543,19.9069825 L111.572533,20.2267694 Z" id="Fill-7" fill="#9F9E9F" mask="url(#mask-2)"></path>
                    <path d="M83.0569162,5.20943807 C83.0569162,2.52713101 81.1534408,0.298694738 77.9460246,0.298694738 L71.7731542,0.298694738 L71.7731542,16.3346229 L74.8472702,16.3346229 L74.8472702,12.1352166 L74.8472702,9.93888489 L74.8472702,7.32519352 L74.8472702,6.10647809 L74.8472702,3.0917941 L77.7470221,3.0917941 C79.0964491,3.0917941 79.9815367,3.97057858 79.9815367,5.20943807 C79.9815367,6.44703855 79.0964491,7.32519352 77.7470221,7.32519352 L77.065991,7.32519352 L77.0603052,7.32519352 L75.5162979,7.32519352 L75.5162979,8.72772347 L77.0514607,9.93888489 L77.0603052,9.9439209 L77.0653593,9.94643891 L80.1363165,16.3346229 L83.6987785,16.3346229 L80.1805393,9.41954592 C81.7068575,8.85865984 83.0569162,7.46242491 83.0569162,5.20943807" id="Fill-8" fill="#9F9E9F" mask="url(#mask-2)"></path>
                    <path d="M92.598616,10.853488 C92.598616,12.7237378 91.5006272,13.8436214 89.8182657,13.8436214 C88.136536,13.8436214 87.0593951,12.7237378 87.0593951,10.853488 L87.0593951,0.503219864 L83.9429515,0.503219864 L83.9429515,10.9674278 C83.9429515,14.41395 86.5445154,16.6726024 89.8182657,16.6726024 C93.0920161,16.6726024 95.6916847,14.41395 95.6916847,10.9674278 L95.6916847,0.503219864 L92.598616,0.503219864 L92.598616,10.853488 Z" id="Fill-9" fill="#9F9E9F" mask="url(#mask-2)"></path>
                    <path d="M106.738413,10.7139275 C106.2766,8.00769935 103.766009,7.15598345 102.3294,6.87459616 C102.29339,6.86704213 102.260539,6.86011762 102.227056,6.85193409 L102.108918,6.83367854 L102.101968,6.83241954 C101.871378,6.79276093 101.663531,6.76128584 101.515069,6.73799427 C101.503065,6.73547626 101.492326,6.73421726 101.481586,6.73295826 C101.357762,6.7134437 101.28132,6.70274217 101.278793,6.70274217 L101.276897,6.70274217 L101.149283,6.68196861 C100.548485,6.58943185 100.070247,6.33700164 99.7802716,6.0367293 C99.4700803,5.71379489 99.3449929,5.27566165 99.3449929,4.86081999 C99.3449929,3.91216081 99.8775617,3.09506751 100.96102,2.85900435 L100.96102,2.85711584 C100.96102,2.85711584 101.170763,2.78975915 101.555501,2.74191702 C102.263697,2.65504577 103.567638,2.63993773 105.271479,3.24300043 C105.344763,3.2681805 105.419941,3.29587858 105.493857,3.32420616 L105.493857,2.99686524 L105.493857,1.04918675 L105.493857,0.641899104 C103.401487,-0.12294555 101.482849,0.00862032099 101.482849,0.00862032099 C98.6519586,0.0967505692 96.8514591,1.83480496 96.5974939,4.35407106 L96.6076019,4.36099558 C96.6076019,4.36099558 95.9139358,7.89501853 100.74117,9.00294165 C101.292059,9.10932745 103.401487,9.29817798 103.890465,10.7705826 C103.923948,10.8650079 103.948586,10.9657282 103.965012,11.0714845 C103.977647,11.1489132 103.983964,11.2231944 103.98965,11.2981051 C104.133058,12.9285147 102.84807,13.7783421 101.269316,13.8161122 C101.259208,13.8161122 101.249732,13.8173712 101.242151,13.8173712 C101.223198,13.8173712 101.206141,13.8186302 101.188452,13.8198892 C101.181502,13.8198892 101.17329,13.8211482 101.167604,13.8211482 L101.158759,13.8211482 L101.155601,13.8211482 C100.642616,13.8161122 99.1693653,13.746867 97.6417836,12.672937 C97.3025316,12.4356148 96.9613843,12.147303 96.6278181,11.802336 L96.6278181,13.7972272 L96.6278181,14.4216929 C96.8501955,14.7421093 97.1433295,15.0851878 97.5236455,15.4030862 C98.347453,16.0905021 99.5850595,16.6664962 101.424728,16.6746798 C104.492526,16.6551652 106.854655,14.8636032 106.854655,11.7009862 C106.854655,11.6713997 106.853392,11.6437016 106.852128,11.616633 C106.83823,11.2936986 106.799061,10.9946853 106.738413,10.7139275" id="Fill-10" fill="#9F9E9F" mask="url(#mask-2)"></path>
                    <polygon id="Fill-11" fill="#9F9E9F" mask="url(#mask-2)" points="106.511992 0.298883588 106.511992 3.09135345 110.627871 3.09135345 110.627871 16.3348117 113.70325 16.3348117 113.70325 3.09135345 117.819129 3.09135345 117.819129 0.298883588"></polygon>
                    <path d="M33.1347505,8.69939589 C32.4872024,8.07430063 31.6741348,7.72870416 30.3322888,7.51026705 L28.5400021,7.22510274 C27.7642079,7.09857289 27.06991,6.78885801 26.6346314,6.37275734 C26.1848224,5.93966012 25.9573909,5.34855796 25.9573909,4.61329989 C25.9573909,2.96904126 27.072437,1.83593807 28.7977578,1.72388675 L28.8192375,1.72136874 C29.0075002,1.70185419 29.2147156,1.69115266 29.4326708,1.69115266 L29.4958462,1.69115266 C30.3322888,1.69744768 31.2698121,1.86930166 32.2465041,2.18782956 L33.5144348,3.11634467 L33.5144348,2.67884094 L33.5144348,1.26183245 L33.5144348,1.17559071 C32.9300621,0.851397294 32.2875681,0.582600037 31.6052735,0.38115947 C31.0063705,0.204269472 30.398623,0.0846641351 29.8471016,0.0355629969 C29.7807674,0.0286384774 29.7182237,0.0254909685 29.6449402,0.0210844561 C29.4851064,0.0116419295 29.3221138,0.00849442063 29.1553307,0.00849442063 C26.1646062,0.00849442063 24.2491275,1.73144077 24.1568913,4.49998957 C24.1044557,7.64498043 26.7420296,8.71450394 28.3005672,9.06765443 L29.4743666,9.24769194 C29.5084813,9.24958044 29.573552,9.25461646 29.6613658,9.26468849 C29.8054058,9.28042603 30.0347326,9.31567813 30.3025963,9.38303482 C30.8730704,9.52844973 31.6494963,9.84257111 32.1176262,10.519915 C32.4619323,11.0184804 32.5844926,11.6353922 32.4796214,12.3643552 C32.4745673,12.3857583 32.4701451,12.4140859 32.460037,12.449338 C32.3437942,12.9365723 31.7802695,14.5424313 29.4724713,14.780383 C29.4724713,14.780383 29.3991878,14.7910845 29.3764447,14.7923436 C29.3379077,14.7954911 29.2981071,14.7980091 29.2564114,14.7992681 L29.2102933,14.8005271 C29.1382733,14.8049336 29.0675169,14.8093401 28.9904428,14.8105991 L28.8849399,14.8118581 C28.4894618,14.8118581 28.0567101,14.772829 27.5948978,14.6954003 C27.098339,14.600975 26.6062024,14.4593371 26.1311233,14.2742636 C25.5916052,14.0633805 25.0735667,13.7958422 24.5915382,13.4792029 C24.5037244,13.4200297 24.4146471,13.358968 24.3255697,13.2953883 L24.3255697,15.0290362 C25.1158942,15.6717575 26.7104419,16.6625933 29.046669,16.6745539 L29.1174254,16.6751834 C29.2248237,16.6751834 29.3322219,16.6745539 29.4402518,16.6695178 L29.4509917,16.6619638 L29.5305927,16.6537803 C32.4947835,16.4391202 34.3350835,14.6450401 34.3350835,11.9753231 C34.3350835,10.5696457 33.9219162,9.43654247 33.1347505,8.69939589" id="Fill-12" fill="#9F9E9F" mask="url(#mask-2)"></path>
                    <polygon id="Fill-13" fill="#9F9E9F" mask="url(#mask-2)" points="34.983137 1.18163392 36.3123479 2.15421416 36.3123479 16.3343711 38.2455157 16.3343711 38.2455157 0.299072439 34.983137 0.299072439"></polygon>
                    <path d="M46.4861177,7.90943412 L45.6332495,7.90943412 L45.6332495,8.81969368 L46.8215792,9.70288467 L49.590558,9.70288467 L49.590558,10.7849982 C49.590558,11.9942711 49.305005,12.8925702 48.6909399,13.6171267 C47.9852705,14.441774 46.9593016,14.8956448 45.8012962,14.8956448 C44.765851,14.8956448 43.8074799,14.4921342 43.1700399,13.7896102 C42.3026413,12.8277315 42.1036387,11.8073091 42.1036387,8.34127234 C42.1036387,4.89223212 42.3026413,3.87810477 43.1700399,2.91370805 C43.8220102,2.19607603 44.7791178,1.78438187 45.8012962,1.78438187 C47.685819,1.78438187 48.9891279,2.82809581 49.4882138,4.72919116 L51.507932,4.72919116 C51.0265353,2.39122158 49.3012145,0.00792786904 45.8012962,0.00792786904 C44.1599987,0.00792786904 42.7600314,0.589587507 41.6386676,1.73402173 C40.1085589,3.29707463 40.1085589,5.03890604 40.1091658,8.20467045 L40.1091658,8.47346771 C40.1085589,11.6404911 40.1085589,13.382952 41.6386676,14.9453754 C42.7436058,16.0759606 44.1827419,16.6727283 45.8012962,16.6727283 C47.5657857,16.6727283 49.0339825,16.0539281 50.1667178,14.8326946 C51.1870009,13.722883 51.5831107,12.4349224 51.5831107,10.2404792 L51.5831107,7.91447013 L46.7457687,7.91447013 L46.4861177,7.90943412 Z" id="Fill-14" fill="#9F9E9F" mask="url(#mask-2)"></path>
                    <polygon id="Fill-15" fill="#9F9E9F" mask="url(#mask-2)" points="12.604002 1.18654404 13.9332129 2.15849478 13.9332129 16.3543893 22.8080961 16.3543893 22.8080961 14.6773965 15.8670125 14.6773965 15.8670125 9.08742079 22.5402323 9.08742079 22.5402323 7.43183113 15.8670125 7.43183113 15.8670125 1.98223428 22.8080961 1.98223428 22.8080961 0.303982553 12.604002 0.303982553"></polygon>
                    <path d="M10.1750334,8.92866044 C10.1699794,10.8908175 10.109331,12.5627742 9.24382768,13.5133219 C8.52678665,14.2964221 7.56652024,14.6772706 6.31059286,14.6772706 L3.28322666,14.6772706 L3.28322666,1.97707236 L6.31059286,1.97707236 C7.56715199,1.97707236 8.52678665,2.35729144 9.24572294,3.14102114 C10.114385,4.09849334 10.1718746,5.62314663 10.1750334,7.55005156 L10.1750334,8.21228742 L10.1750334,8.92866044 Z M12.1303127,8.21228742 L12.1309444,7.55823508 C12.1359985,5.37071642 12.142316,3.29902609 10.5679845,1.73849119 C9.61972144,0.796127039 8.23428444,0.298820638 6.56076753,0.298820638 L0,0.298820638 L0,1.18138212 L1.32984262,2.15396236 L1.32984262,16.3542634 L6.56076753,16.3542634 C8.23428444,16.3542634 9.61972144,15.8556979 10.5679845,14.9152223 C12.1429478,13.3546874 12.1359985,11.074632 12.1309444,8.87011678 L12.1303127,8.21228742 Z" id="Fill-16" fill="#9F9E9F" mask="url(#mask-2)"></path>
                    <polygon id="Fill-17" fill="#9F9E9F" mask="url(#mask-2)" points="58.1390138 0.298883588 58.1390138 1.48549443 59.2287898 3.09135345 63.6592821 3.09135345 63.6592821 12.8473719 55.2278903 0.298883588 51.9655116 0.298883588 51.9655116 1.18144507 53.2947224 2.15402531 53.2947224 16.3348117 55.2278903 16.3348117 55.2278903 3.77939889 63.6592821 16.3291462 63.6592821 16.3536968 66.7346616 16.3536968 66.7346616 12.5647256 66.7346616 3.09135345 70.8499086 3.09135345 70.8499086 0.298883588"></polygon>
                    <path d="M54.5761727,34.8870473 L54.0120162,36.5697056 L55.1251671,36.5697056 L54.5761727,34.8870473 Z M55.5269628,37.8211551 L55.2774199,37.059458 L53.8496553,37.059458 L53.6007442,37.8211551 L53.0163715,37.8211551 L54.3430554,34.0296659 L54.7846516,34.0296659 L56.1113354,37.8211551 L55.5269628,37.8211551 Z" id="Fill-18" fill="#9F9E9F" mask="url(#mask-2)"></path>
                    <polygon id="Fill-19" fill="#9F9E9F" mask="url(#mask-2)" points="58.8133482 37.8212181 57.1410948 35.1533895 57.1410948 37.8212181 56.5921004 37.8212181 56.5921004 34.0297289 57.0949768 34.0297289 58.7672302 36.6918919 58.7672302 34.0297289 59.3162246 34.0297289 59.3162246 37.8212181"></polygon>
                    <polygon id="Fill-20" fill="#9F9E9F" mask="url(#mask-2)" points="61.4273576 37.8210292 61.976352 37.8210292 61.976352 34.02954 61.4273576 34.02954"></polygon>
                    <polygon id="Fill-21" fill="#9F9E9F" mask="url(#mask-2)" points="65.1161073 37.8212181 63.4444857 35.1533895 63.4444857 37.8212181 62.8948595 37.8212181 62.8948595 34.0297289 63.3983676 34.0297289 65.070621 36.6918919 65.070621 34.0297289 65.6196154 34.0297289 65.6196154 37.8212181"></polygon>
                    <polygon id="Fill-22" fill="#9F9E9F" mask="url(#mask-2)" points="66.5376175 37.8210292 67.0859801 37.8210292 67.0859801 34.02954 66.5376175 34.02954"></polygon>
                    <polygon id="Fill-23" fill="#9F9E9F" mask="url(#mask-2)" points="69.2299012 34.5464869 69.2299012 37.8211551 68.6809068 37.8211551 68.6809068 34.5464869 67.6852622 34.5464869 67.6852622 34.0296659 70.2255459 34.0296659 70.2255459 34.5464869"></polygon>
                    <polygon id="Fill-24" fill="#9F9E9F" mask="url(#mask-2)" points="70.8190158 37.8210292 71.3673785 37.8210292 71.3673785 34.02954 70.8190158 34.02954"></polygon>
                    <path d="M73.4152729,34.8870473 L72.8504847,36.5697056 L73.9636356,36.5697056 L73.4152729,34.8870473 Z M74.3654313,37.8211551 L74.1158884,37.059458 L72.6881238,37.059458 L72.4392127,37.8211551 L71.8542083,37.8211551 L73.1808921,34.0296659 L73.6231201,34.0296659 L74.9498039,37.8211551 L74.3654313,37.8211551 Z" id="Fill-25" fill="#9F9E9F" mask="url(#mask-2)"></path>
                    <polygon id="Fill-26" fill="#9F9E9F" mask="url(#mask-2)" points="76.6554771 34.5464869 76.6554771 37.8211551 76.1071145 37.8211551 76.1071145 34.5464869 75.1108381 34.5464869 75.1108381 34.0296659 77.6517535 34.0296659 77.6517535 34.5464869"></polygon>
                    <polygon id="Fill-27" fill="#9F9E9F" mask="url(#mask-2)" points="78.2446549 37.8210292 78.7936493 37.8210292 78.7936493 34.02954 78.2446549 34.02954"></polygon>
                    <polygon id="Fill-28" fill="#9F9E9F" mask="url(#mask-2)" points="80.8815338 37.8212181 80.4544679 37.8212181 79.2648747 34.0297289 79.834717 34.0297289 80.6680008 36.7875761 81.5012847 34.0297289 82.0806033 34.0297289"></polygon>
                    <polygon id="Fill-29" fill="#9F9E9F" mask="url(#mask-2)" points="82.5467115 37.8212181 82.5467115 34.0297289 84.858932 34.0297289 84.858932 34.5465498 83.0957059 34.5465498 83.0957059 35.6538435 84.5999127 35.6538435 84.5999127 36.1643694 83.0957059 36.1643694 83.0957059 37.3050266 84.858932 37.3050266 84.858932 37.8212181"></polygon>
                    <path d="M88.4798944,34.7481163 C88.3529118,34.6045899 88.154541,34.5145711 87.9410081,34.5145711 C87.7281069,34.5145711 87.5297361,34.6045899 87.4027535,34.7481163 C87.2252306,34.9508159 87.1892206,35.1635875 87.1892206,35.9252846 C87.1892206,36.6869818 87.2252306,36.8997534 87.4027535,37.1018234 C87.5297361,37.2466088 87.7281069,37.3366276 87.9410081,37.3366276 C88.154541,37.3366276 88.3529118,37.2466088 88.4798944,37.1018234 C88.6580491,36.8997534 88.6934273,36.6869818 88.6934273,35.9252846 C88.6934273,35.1635875 88.6580491,34.9508159 88.4798944,34.7481163 M88.8968522,37.4480494 C88.647941,37.7092926 88.3276417,37.8534485 87.9410081,37.8534485 C87.5550063,37.8534485 87.2397609,37.7092926 86.9908497,37.4480494 C86.6351721,37.0753844 86.6402223,36.6548772 86.6402223,35.9252846 C86.6402223,35.1956921 86.6351721,34.7751849 86.9908497,34.4018903 C87.2397609,34.1412766 87.5550063,33.9977502 87.9410081,33.9977502 C88.3276417,33.9977502 88.647941,34.1412766 88.8968522,34.4018903 C89.2525298,34.7751849 89.2424218,35.1956921 89.2424218,35.9252846 C89.2424218,36.6548772 89.2525298,37.0753844 88.8968522,37.4480494" id="Fill-30" fill="#9F9E9F" mask="url(#mask-2)"></path>
                    <polygon id="Fill-31" fill="#9F9E9F" mask="url(#mask-2)" points="90.5719485 34.5464869 90.5719485 35.7016226 92.076787 35.7016226 92.076787 36.2184436 90.5719485 36.2184436 90.5719485 37.8211551 90.0235858 37.8211551 90.0235858 34.0296659 92.3358063 34.0296659 92.3358063 34.5464869"></polygon>
                    <polygon id="Fill-32" fill="#9F9E9F" mask="url(#mask-2)" points="95.3878109 34.5464869 95.3878109 37.8211551 94.8388165 37.8211551 94.8388165 34.5464869 93.8431718 34.5464869 93.8431718 34.0296659 96.3834555 34.0296659 96.3834555 34.5464869"></polygon>
                    <polygon id="Fill-33" fill="#9F9E9F" mask="url(#mask-2)" points="98.9939271 37.8212181 98.9939271 36.1643694 97.5257303 36.1643694 97.5257303 37.8212181 96.9773677 37.8212181 96.9773677 34.0297289 97.5257303 34.0297289 97.5257303 35.6481779 98.9939271 35.6481779 98.9939271 34.0297289 99.5435533 34.0297289 99.5435533 37.8212181"></polygon>
                    <polygon id="Fill-34" fill="#9F9E9F" mask="url(#mask-2)" points="100.456059 37.8212181 100.456059 34.0297289 102.76828 34.0297289 102.76828 34.5465498 101.005053 34.5465498 101.005053 35.6538435 102.50926 35.6538435 102.50926 36.1643694 101.005053 36.1643694 101.005053 37.3050266 102.76828 37.3050266 102.76828 37.8212181"></polygon>
                    <polygon id="Fill-35" fill="#9F9E9F" mask="url(#mask-2)" points="55.465809 43.8943364 55.465809 42.2381172 53.9969804 42.2381172 53.9969804 43.8943364 53.4486178 43.8943364 53.4486178 40.1028472 53.9969804 40.1028472 53.9969804 41.7219258 55.465809 41.7219258 55.465809 40.1028472 56.0148034 40.1028472 56.0148034 43.8943364"></polygon>
                    <path d="M58.6350672,40.8218012 C58.5080846,40.6776453 58.3097138,40.5876265 58.0961808,40.5876265 C57.8832797,40.5876265 57.6849088,40.6776453 57.5579262,40.8218012 C57.3797716,41.0238713 57.3443933,41.2372724 57.3443933,41.99834 C57.3443933,42.7600372 57.3797716,42.9734383 57.5579262,43.1748788 C57.6849088,43.3196642 57.8832797,43.409683 58.0961808,43.409683 C58.3097138,43.409683 58.5080846,43.3196642 58.6350672,43.1748788 C58.8132219,42.9734383 58.8486001,42.7600372 58.8486001,41.99834 C58.8486001,41.2372724 58.8132219,41.0238713 58.6350672,40.8218012 M59.0513932,43.5217343 C58.8031138,43.782348 58.4828144,43.9265039 58.0961808,43.9265039 C57.710179,43.9265039 57.3949337,43.782348 57.1466542,43.5217343 C56.7903449,43.1484398 56.7953951,42.7279326 56.7953951,41.99834 C56.7953951,41.269377 56.7903449,40.8482403 57.1466542,40.4749457 C57.3949337,40.214332 57.710179,40.0708056 58.0961808,40.0708056 C58.4828144,40.0708056 58.8031138,40.214332 59.0513932,40.4749457 C59.4077026,40.8482403 59.3975945,41.269377 59.3975945,41.99834 C59.3975945,42.7279326 59.4077026,43.1484398 59.0513932,43.5217343" id="Fill-36" fill="#9F9E9F" mask="url(#mask-2)"></path>
                    <polygon id="Fill-37" fill="#9F9E9F" mask="url(#mask-2)" points="62.3990588 43.8943364 60.7274371 41.2265079 60.7274371 43.8943364 60.177811 43.8943364 60.177811 40.1028472 60.6813191 40.1028472 62.3535725 42.7650102 62.3535725 40.1028472 62.9025669 40.1028472 62.9025669 43.8943364"></polygon>
                    <path d="M65.9847694,43.4947287 C65.710588,43.7981485 65.3700725,43.9265669 64.9891247,43.9265669 C64.6125992,43.9265669 64.2872458,43.782411 64.0383346,43.5217973 C63.682657,43.1485027 63.6877072,42.7279955 63.6877072,41.998403 C63.6877072,41.2694399 63.682657,40.8483032 64.0383346,40.4750087 C64.2872458,40.2143949 64.6024911,40.0708685 64.9891247,40.0708685 C65.7567061,40.0708685 66.2039881,40.5977615 66.3057005,41.2480369 L65.7510203,41.2480369 C65.6594159,40.8325657 65.3953427,40.5876895 64.9891247,40.5876895 C64.7755918,40.5876895 64.582275,40.6777082 64.4552924,40.8218642 C64.2771377,41.0239342 64.2367055,41.2373353 64.2367055,41.998403 C64.2367055,42.7601001 64.2771377,42.9791667 64.4552924,43.1806073 C64.582275,43.3241337 64.7755918,43.4097459 64.9891247,43.4097459 C65.2279278,43.4097459 65.4364067,43.3140617 65.5779197,43.1428372 C65.710588,42.9835732 65.7611284,42.7922047 65.7611284,42.546699 L65.7611284,42.3339274 L64.9891247,42.3339274 L64.9891247,41.844175 L66.3107545,41.844175 L66.3107545,42.4245757 C66.3107545,42.914328 66.2242042,43.2284494 65.9847694,43.4947287" id="Fill-38" fill="#9F9E9F" mask="url(#mask-2)"></path>
                    <polygon id="Fill-39" fill="#9F9E9F" mask="url(#mask-2)" points="70.4594845 43.8943364 69.4429919 42.0247161 68.8333491 42.7920788 68.8333491 43.8943364 68.2849865 43.8943364 68.2849865 40.1028472 68.8333491 40.1028472 68.8333491 42.0096081 70.3122857 40.1028472 70.982577 40.1028472 69.8094094 41.5884714 71.1045055 43.8943364"></polygon>
                    <path d="M73.3085065,40.8218012 C73.1815239,40.6776453 72.983153,40.5876265 72.7696201,40.5876265 C72.5567189,40.5876265 72.3583481,40.6776453 72.2307338,40.8218012 C72.0532108,41.0238713 72.0178326,41.2372724 72.0178326,41.99834 C72.0178326,42.7600372 72.0532108,42.9734383 72.2307338,43.1748788 C72.3583481,43.3196642 72.5567189,43.409683 72.7696201,43.409683 C72.983153,43.409683 73.1815239,43.3196642 73.3085065,43.1748788 C73.4866612,42.9734383 73.5220394,42.7600372 73.5220394,41.99834 C73.5220394,41.2372724 73.4866612,41.0238713 73.3085065,40.8218012 M73.7254642,43.5217343 C73.4765531,43.782348 73.1562537,43.9265039 72.7696201,43.9265039 C72.3836183,43.9265039 72.0683729,43.782348 71.8194618,43.5217343 C71.4637842,43.1484398 71.4688343,42.7279326 71.4688343,41.99834 C71.4688343,41.269377 71.4637842,40.8482403 71.8194618,40.4749457 C72.0683729,40.214332 72.3836183,40.0708056 72.7696201,40.0708056 C73.1562537,40.0708056 73.4765531,40.214332 73.7254642,40.4749457 C74.0811419,40.8482403 74.0710338,41.269377 74.0710338,41.99834 C74.0710338,42.7279326 74.0811419,43.1484398 73.7254642,43.5217343" id="Fill-40" fill="#9F9E9F" mask="url(#mask-2)"></path>
                    <polygon id="Fill-41" fill="#9F9E9F" mask="url(#mask-2)" points="77.0725613 43.8943364 75.4009396 41.2265079 75.4009396 43.8943364 74.8513134 43.8943364 74.8513134 40.1028472 75.3548215 40.1028472 77.027075 42.7650102 77.027075 40.1028472 77.5760694 40.1028472 77.5760694 43.8943364"></polygon>
                    <path d="M80.6582087,43.4947287 C80.3840273,43.7981485 80.0435118,43.9265669 79.662564,43.9265669 C79.2860385,43.9265669 78.9606851,43.782411 78.7117739,43.5217973 C78.3560963,43.1485027 78.3611465,42.7279955 78.3611465,41.998403 C78.3611465,41.2694399 78.3560963,40.8483032 78.7117739,40.4750087 C78.9606851,40.2143949 79.2759304,40.0708685 79.662564,40.0708685 C80.4301454,40.0708685 80.8774274,40.5977615 80.9791398,41.2480369 L80.4244596,41.2480369 C80.3328552,40.8325657 80.068782,40.5876895 79.662564,40.5876895 C79.4490311,40.5876895 79.2557143,40.6777082 79.1287317,40.8218642 C78.950577,41.0239342 78.9101447,41.2373353 78.9101447,41.998403 C78.9101447,42.7601001 78.950577,42.9791667 79.1287317,43.1806073 C79.2557143,43.3241337 79.4490311,43.4097459 79.662564,43.4097459 C79.9013671,43.4097459 80.109846,43.3140617 80.2513589,43.1428372 C80.3840273,42.9835732 80.4345677,42.7922047 80.4345677,42.546699 L80.4345677,42.3339274 L79.662564,42.3339274 L79.662564,41.844175 L80.9841938,41.844175 L80.9841938,42.4245757 C80.9841938,42.914328 80.8976435,43.2284494 80.6582087,43.4947287" id="Fill-42" fill="#9F9E9F" mask="url(#mask-2)"></path>
                    <path d="M84.0866124,40.9601027 L83.5224559,42.642761 L84.6356068,42.642761 L84.0866124,40.9601027 Z M85.0367708,43.8942105 L84.7872279,43.1331429 L83.3600951,43.1331429 L83.1111839,43.8942105 L82.5261795,43.8942105 L83.8528634,40.1027213 L84.2950913,40.1027213 L85.6211434,43.8942105 L85.0367708,43.8942105 Z" id="Fill-43" fill="#9F9E9F" mask="url(#mask-2)"></path>
                    <polygon id="Fill-44" fill="#9F9E9F" mask="url(#mask-2)" points="88.745168 43.8943364 88.745168 41.3599623 87.9112525 43.2069205 87.5050345 43.2069205 86.6515345 41.3599623 86.6515345 43.8943364 86.1019084 43.8943364 86.1019084 40.1028472 86.6515345 40.1028472 87.7078276 42.4622199 88.745168 40.1028472 89.2935307 40.1028472 89.2935307 43.8943364"></polygon>
                    <path d="M91.6188916,42.2221908 L90.7552836,42.2221908 L90.7552836,43.3779561 L91.6188916,43.3779561 C92.0004711,43.3779561 92.2133723,43.1330799 92.2133723,42.796926 C92.2133723,42.462031 92.0004711,42.2221908 91.6188916,42.2221908 M91.5683513,40.6194793 L90.7552836,40.6194793 L90.7552836,41.7059994 L91.5683513,41.7059994 C91.9189748,41.7059994 92.1584097,41.5140014 92.1584097,41.1621099 C92.1584097,40.8114774 91.9189748,40.6194793 91.5683513,40.6194793 M91.6694319,43.8941476 L90.2062892,43.8941476 L90.2062892,40.1026584 L91.6138376,40.1026584 C92.2847605,40.1026584 92.7067724,40.502392 92.7067724,41.1413363 C92.7067724,41.5517715 92.4622835,41.8438603 92.2184263,41.9458396 C92.4982935,42.0622974 92.7629985,42.3443142 92.7629985,42.8239945 C92.7629985,43.5214825 92.3106625,43.8941476 91.6694319,43.8941476" id="Fill-45" fill="#9F9E9F" mask="url(#mask-2)"></path>
                    <path d="M94.6715911,40.9601027 L94.1074346,42.642761 L95.2205856,42.642761 L94.6715911,40.9601027 Z M95.6217495,43.8942105 L95.3722066,43.1331429 L93.9450738,43.1331429 L93.6955309,43.8942105 L93.1105265,43.8942105 L94.4378421,40.1027213 L94.88007,40.1027213 L96.2061221,43.8942105 L95.6217495,43.8942105 Z" id="Fill-46" fill="#9F9E9F" mask="url(#mask-2)"></path>
                    <path d="M97.6532815,43.9263151 C97.1093411,43.9263151 96.7182853,43.7928607 96.3727157,43.4258612 L96.7385014,43.0475306 C97.0025747,43.3245114 97.2925499,43.4101236 97.6633896,43.4101236 C98.1359417,43.4101236 98.4101231,43.197352 98.4101231,42.8290935 C98.4101231,42.664164 98.3646368,42.5256737 98.2686101,42.4350254 C98.176374,42.3443771 98.0854014,42.3072365 97.8712367,42.2757614 L97.4448026,42.2109228 C97.1497734,42.1693756 96.9160243,42.0623603 96.7580858,41.9081324 C96.5805629,41.7325014 96.4940125,41.4932907 96.4940125,41.1835759 C96.4940125,40.523858 96.9520343,40.0706167 97.7038218,40.0706167 C98.1820598,40.0706167 98.5168895,40.1984056 98.8264491,40.502455 L98.4764573,40.8644185 C98.2528163,40.6403158 97.993797,40.5710706 97.6886597,40.5710706 C97.2615939,40.5710706 97.0278448,40.8266484 97.0278448,41.1621728 C97.0278448,41.3012927 97.0689089,41.423416 97.1655673,41.5140643 C97.2565399,41.599047 97.4037386,41.6626267 97.5717852,41.6896953 L97.9830572,41.7539045 C98.3191505,41.8067826 98.5074132,41.8923949 98.659666,42.0359213 C98.857405,42.2165883 98.9546952,42.488533 98.9546952,42.813356 C98.9546952,43.5108439 98.4101231,43.9263151 97.6532815,43.9263151" id="Fill-47" fill="#9F9E9F" mask="url(#mask-2)"></path>
                    <path d="M100.618925,43.9263151 C100.074985,43.9263151 99.6839291,43.7928607 99.3383595,43.4258612 L99.7041452,43.0475306 C99.9688502,43.3245114 100.258194,43.4101236 100.629033,43.4101236 C101.101586,43.4101236 101.375767,43.197352 101.375767,42.8290935 C101.375767,42.664164 101.330281,42.5256737 101.234254,42.4350254 C101.142018,42.3443771 101.051045,42.3072365 100.837512,42.2757614 L100.410446,42.2109228 C100.115417,42.1693756 99.8822999,42.0623603 99.7243614,41.9081324 C99.5468384,41.7325014 99.4602881,41.4932907 99.4602881,41.1835759 C99.4602881,40.523858 99.9176781,40.0706167 100.669466,40.0706167 C101.147704,40.0706167 101.482533,40.1984056 101.792093,40.502455 L101.442101,40.8644185 C101.21846,40.6403158 100.959441,40.5710706 100.654935,40.5710706 C100.227869,40.5710706 99.9934886,40.8266484 99.9934886,41.1621728 C99.9934886,41.3012927 100.034553,41.423416 100.131211,41.5140643 C100.222815,41.599047 100.369382,41.6626267 100.537429,41.6896953 L100.948701,41.7539045 C101.284794,41.8067826 101.473057,41.8923949 101.624678,42.0359213 C101.823049,42.2165883 101.920339,42.488533 101.920339,42.813356 C101.920339,43.5108439 101.375767,43.9263151 100.618925,43.9263151" id="Fill-48" fill="#9F9E9F" mask="url(#mask-2)"></path>
                    <path d="M103.758554,40.9601027 L103.193766,42.642761 L104.306917,42.642761 L103.758554,40.9601027 Z M104.708713,43.8942105 L104.45917,43.1331429 L103.031405,43.1331429 L102.782494,43.8942105 L102.19749,43.8942105 L103.524805,40.1027213 L103.966401,40.1027213 L105.293085,43.8942105 L104.708713,43.8942105 Z" id="Fill-49" fill="#9F9E9F" mask="url(#mask-2)"></path>
                    <path d="M107.60341,40.8746794 C107.451158,40.6990484 107.248365,40.6197311 106.988714,40.6197311 L106.323476,40.6197311 L106.323476,43.3782079 L106.988714,43.3782079 C107.248365,43.3782079 107.451158,43.2982612 107.60341,43.1220007 C107.791673,42.9041931 107.796727,42.4937579 107.796727,41.9719009 C107.796727,41.450044 107.791673,41.0931165 107.60341,40.8746794 M107.979304,43.5374719 C107.750609,43.777312 107.420833,43.8943994 107.044308,43.8943994 L105.77385,43.8943994 L105.77385,40.1022807 L107.044308,40.1022807 C107.420833,40.1022807 107.750609,40.2199975 107.979304,40.4598377 C108.370992,40.8696433 108.345722,41.4236049 108.345722,41.9719009 C108.345722,42.520197 108.370992,43.1276662 107.979304,43.5374719" id="Fill-50" fill="#9F9E9F" mask="url(#mask-2)"></path>
                    <path d="M110.838687,40.8218012 C110.711704,40.6776453 110.513333,40.5876265 110.299801,40.5876265 C110.086899,40.5876265 109.888529,40.6776453 109.760914,40.8218012 C109.583391,41.0238713 109.548013,41.2372724 109.548013,41.99834 C109.548013,42.7600372 109.583391,42.9734383 109.760914,43.1748788 C109.888529,43.3196642 110.086899,43.409683 110.299801,43.409683 C110.513333,43.409683 110.711704,43.3196642 110.838687,43.1748788 C111.016842,42.9734383 111.05222,42.7600372 111.05222,41.99834 C111.05222,41.2372724 111.016842,41.0238713 110.838687,40.8218012 M111.255645,43.5217343 C111.006734,43.782348 110.686434,43.9265039 110.299801,43.9265039 C109.913799,43.9265039 109.598553,43.782348 109.349642,43.5217343 C108.993965,43.1484398 108.999015,42.7279326 108.999015,41.99834 C108.999015,41.269377 108.993965,40.8482403 109.349642,40.4749457 C109.598553,40.214332 109.913799,40.0708056 110.299801,40.0708056 C110.686434,40.0708056 111.006734,40.214332 111.255645,40.4749457 C111.611322,40.8482403 111.601214,41.269377 111.601214,41.99834 C111.601214,42.7279326 111.611322,43.1484398 111.255645,43.5217343" id="Fill-51" fill="#9F9E9F" mask="url(#mask-2)"></path>
                    <path d="M113.743872,40.6195423 L112.930804,40.6195423 L112.930804,41.8067826 L113.743872,41.8067826 C114.109658,41.8067826 114.358569,41.5883455 114.358569,41.215051 C114.358569,40.8423859 114.109658,40.6195423 113.743872,40.6195423 L113.743872,40.6195423 Z M114.378785,43.8942105 L113.616889,42.2971645 L112.930804,42.2971645 L112.930804,43.8942105 L112.38181,43.8942105 L112.38181,40.1027213 L113.784304,40.1027213 C114.470389,40.1027213 114.907563,40.5660346 114.907563,41.2100149 C114.907563,41.7539045 114.59295,42.1001305 114.185468,42.2165883 L115.020015,43.8942105 L114.378785,43.8942105 Z" id="Fill-52" fill="#9F9E9F" mask="url(#mask-2)"></path>
                    <path d="M116.63857,43.9263151 C116.095261,43.9263151 115.703573,43.7928607 115.358004,43.4258612 L115.72379,43.0475306 C115.988495,43.3245114 116.27847,43.4101236 116.648678,43.4101236 C117.121862,43.4101236 117.396043,43.197352 117.396043,42.8290935 C117.396043,42.664164 117.349925,42.5256737 117.253898,42.4350254 C117.161662,42.3443771 117.07069,42.3072365 116.857157,42.2757614 L116.430723,42.2109228 C116.135062,42.1693756 115.901944,42.0623603 115.744006,41.9081324 C115.566483,41.7325014 115.479932,41.4932907 115.479932,41.1835759 C115.479932,40.523858 115.937954,40.0706167 116.689742,40.0706167 C117.167348,40.0706167 117.502178,40.1984056 117.812369,40.502455 L117.462377,40.8644185 C117.238104,40.6403158 116.979085,40.5710706 116.67458,40.5710706 C116.247514,40.5710706 116.013765,40.8266484 116.013765,41.1621728 C116.013765,41.3012927 116.054197,41.423416 116.150855,41.5140643 C116.24246,41.599047 116.389027,41.6626267 116.557073,41.6896953 L116.968977,41.7539045 C117.30507,41.8067826 117.492701,41.8923949 117.644954,42.0359213 C117.842693,42.2165883 117.939983,42.488533 117.939983,42.813356 C117.939983,43.5108439 117.396043,43.9263151 116.63857,43.9263151" id="Fill-53" fill="#9F9E9F" mask="url(#mask-2)"></path>
                    <path d="M55.1560599,46.8955491 C55.0290773,46.7513932 54.8300747,46.6613744 54.6165418,46.6613744 C54.4036406,46.6613744 54.2052698,46.7513932 54.0782872,46.8955491 C53.9007643,47.0976191 53.8647543,47.3110202 53.8647543,48.0720879 C53.8647543,48.833785 53.9007643,49.0471861 54.0782872,49.2486267 C54.2052698,49.3934121 54.4036406,49.4834308 54.6165418,49.4834308 C54.8300747,49.4834308 55.0290773,49.3934121 55.1560599,49.2486267 C55.3335828,49.0471861 55.3695928,48.833785 55.3695928,48.0720879 C55.3695928,47.3110202 55.3335828,47.0976191 55.1560599,46.8955491 M55.5723859,49.5954822 C55.3234748,49.8560959 55.0031754,50.0002518 54.6165418,50.0002518 C54.23054,50.0002518 53.9159264,49.8560959 53.6670152,49.5954822 C53.3107058,49.2221876 53.3163862,48.8016804 53.3163862,48.0720879 C53.3163862,47.3431248 53.3107058,46.9219881 53.6670152,46.5486936 C53.9159264,46.2880798 54.23054,46.1445534 54.6165418,46.1445534 C55.0031754,46.1445534 55.3234748,46.2880798 55.5723859,46.5486936 C55.9286953,46.9219881 55.9179555,47.3431248 55.9179555,48.0720879 C55.9179555,48.8016804 55.9286953,49.2221876 55.5723859,49.5954822" id="Fill-54" fill="#9F9E9F" mask="url(#mask-2)"></path>
                    <polygon id="Fill-55" fill="#9F9E9F" mask="url(#mask-2)" points="57.2475454 46.6932901 57.2475454 47.8484259 58.7523839 47.8484259 58.7523839 48.3652468 57.2475454 48.3652468 57.2475454 49.9679584 56.6991827 49.9679584 56.6991827 46.1764692 59.0114032 46.1764692 59.0114032 46.6932901"></polygon>
                    <path d="M62.6680597,46.9483643 C62.515807,46.7727333 62.3123821,46.693416 62.0527311,46.693416 L61.3874939,46.693416 L61.3874939,49.4518928 L62.0527311,49.4518928 C62.3123821,49.4518928 62.515807,49.3719461 62.6680597,49.1956856 C62.8556907,48.977878 62.8613765,48.5674428 62.8613765,48.0455858 C62.8613765,47.5237289 62.8556907,47.1668014 62.6680597,46.9483643 M63.0439535,49.6111568 C62.8152585,49.8509969 62.4854828,49.9680843 62.1089573,49.9680843 L60.8384995,49.9680843 L60.8384995,46.1759656 L62.1089573,46.1759656 C62.4854828,46.1759656 62.8152585,46.2936824 63.0439535,46.5335226 C63.4356411,46.9433282 63.4103709,47.4972898 63.4103709,48.0455858 C63.4103709,48.5938819 63.4356411,49.2013511 63.0439535,49.6111568" id="Fill-56" fill="#9F9E9F" mask="url(#mask-2)"></path>
                    <polygon id="Fill-57" fill="#9F9E9F" mask="url(#mask-2)" points="64.1955783 49.9680213 64.1955783 46.1765321 66.5077987 46.1765321 66.5077987 46.6933531 64.7445727 46.6933531 64.7445727 47.8006467 66.2487795 47.8006467 66.2487795 48.3118021 64.7445727 48.3118021 64.7445727 49.4518299 66.5077987 49.4518299 66.5077987 49.9680213"></polygon>
                    <path d="M68.1885176,50 C67.645209,50 67.2535214,49.8665456 66.9079518,49.4995461 L67.2737375,49.1212155 C67.5384425,49.3981963 67.8284177,49.4838085 68.1986257,49.4838085 C68.6718096,49.4838085 68.9459909,49.2710369 68.9459909,48.9027784 C68.9459909,48.7378489 68.8998728,48.5993586 68.8038462,48.5087103 C68.7116101,48.418062 68.6206375,48.3809214 68.4071046,48.3488169 L67.9806705,48.2846077 C67.6850095,48.2430606 67.4518922,48.1360453 67.2939536,47.9818173 C67.1164307,47.8061863 67.0298804,47.5669756 67.0298804,47.2572608 C67.0298804,46.5975429 67.4879022,46.1443016 68.2396897,46.1443016 C68.7172959,46.1443016 69.0521256,46.2720905 69.3623169,46.5761399 L69.0123251,46.9381034 C68.7880523,46.7140007 68.5290331,46.6447556 68.2245276,46.6447556 C67.7974617,46.6447556 67.5637127,46.9003333 67.5637127,47.2358577 C67.5637127,47.3749776 67.604145,47.497101 67.7008033,47.5877492 C67.7924077,47.6727319 67.9389747,47.7363116 68.1070213,47.7633802 L68.5189251,47.8275894 C68.8550183,47.8804675 69.0426493,47.9660798 69.1955338,48.1096062 C69.3926411,48.2902732 69.4899313,48.562218 69.4899313,48.8870409 C69.4899313,49.5845288 68.9459909,50 68.1885176,50" id="Fill-58" fill="#9F9E9F" mask="url(#mask-2)"></path>
                    <polygon id="Fill-59" fill="#9F9E9F" mask="url(#mask-2)" points="70.1948426 49.9678954 70.7432053 49.9678954 70.7432053 46.1764062 70.1948426 46.1764062"></polygon>
                    <path d="M73.8273662,49.5684765 C73.5525531,49.8718964 73.2120376,50.0003148 72.8310898,50.0003148 C72.455196,50.0003148 72.1292109,49.8561588 71.8802997,49.5955451 C71.5246221,49.2222506 71.5296723,48.8017434 71.5296723,48.0721508 C71.5296723,47.3431878 71.5246221,46.9220511 71.8802997,46.5487565 C72.1292109,46.2881428 72.445088,46.1446164 72.8310898,46.1446164 C73.5986712,46.1446164 74.0459532,46.6715094 74.1476656,47.3211552 L73.5929854,47.3211552 C73.501381,46.9063135 73.2373078,46.6614373 72.8310898,46.6614373 C72.6175569,46.6614373 72.4242401,46.7514561 72.2972575,46.895612 C72.1197346,47.0976821 72.0786705,47.3110832 72.0786705,48.0721508 C72.0786705,48.833848 72.1197346,49.0522851 72.2972575,49.2543552 C72.4242401,49.3978816 72.6175569,49.4834938 72.8310898,49.4834938 C73.0698929,49.4834938 73.2783718,49.3878095 73.4198847,49.216585 C73.5525531,49.0573211 73.6037252,48.8659526 73.6037252,48.6204469 L73.6037252,48.4076753 L72.8310898,48.4076753 L72.8310898,47.9179229 L74.1527196,47.9179229 L74.1527196,48.4983235 C74.1527196,48.9880759 74.0661693,49.3021973 73.8273662,49.5684765" id="Fill-60" fill="#9F9E9F" mask="url(#mask-2)"></path>
                    <polygon id="Fill-61" fill="#9F9E9F" mask="url(#mask-2)" points="77.1539944 49.9680213 75.4823727 47.3001928 75.4823727 49.9680213 74.9327466 49.9680213 74.9327466 46.1765321 75.4362547 46.1765321 77.1085081 48.8386951 77.1085081 46.1765321 77.6575025 46.1765321 77.6575025 49.9680213"></polygon>
                </g>
            </g>
        </g>
    </g>
</svg>