<?xml version="1.0" encoding="UTF-8"?>
<svg width="178px" height="50px" viewBox="0 0 178 50" version="1.1" xmlns="http://www.w3.org/2000/svg" xmlns:xlink="http://www.w3.org/1999/xlink">
    <title>Group 52</title>
    <defs>
        <polygon id="path-1" points="0 50 178 50 178 0 0 0"></polygon>
    </defs>
    <g id="r" stroke="none" stroke-width="1" fill="none" fill-rule="evenodd">
        <g id="04-Acknowledgement" transform="translate(-660.000000, -1280.000000)">
            <g id="Group-4" transform="translate(600.000000, 180.000000)">
                <g id="Group-52" transform="translate(60.000000, 1100.000000)">
                    <path d="M22.186105,15.9357126 C22.186105,15.9357126 27.0414588,12.4704767 27.0414588,8.19582397 C27.0414588,3.92085206 22.186105,0.455935298 22.186105,0.455935298 C22.186105,0.455935298 17.3304324,3.92085206 17.3304324,8.19582397 C17.3304324,12.4704767 22.186105,15.9357126 22.186105,15.9357126" id="Fill-1" fill="#9F9E9F"></path>
                    <path d="M13.2157798,21.2151146 C7.24299975,19.2343415 2.12661566,18.4562034 1.78909303,19.4778687 C1.45125169,20.4992148 6.0197591,22.9328912 11.9931766,24.9136643 C17.9659566,26.8944375 23.082022,27.6722564 23.4198633,26.6509103 C23.7577047,25.6298833 19.1891972,23.196207 13.2157798,21.2151146" id="Fill-3" fill="#9F9E9F"></path>
                    <path d="M9.35597427,18.4907696 C7.40350626,16.8984271 6.32082036,15.6204678 6.62933963,15.1062838 C7.18295323,14.1841998 12.0035668,16.0695409 17.3956422,19.3158258 C20.4288838,21.1421203 22.996478,23.0099071 24.5645718,24.4592611 L24.5919816,24.5071367 C24.4170052,23.0271423 20.2341469,19.4524308 14.6161003,16.0695409 C8.45113315,12.3579052 2.89204941,10.2826575 2.20011209,11.4351828 C1.61622025,12.4070575 4.68133367,15.3648121 9.35469939,18.4939613 L9.35597427,18.4907696 Z" id="Fill-5" fill="#9F9E9F"></path>
                    <path d="M25.1081139,27.0677152 C25.6642772,27.1430395 26.0272973,27.0820779 26.1576531,26.8647227 C26.3498402,26.543637 26.0024373,25.9276376 25.2410194,25.1233275 C25.6604526,22.3162215 27.0083121,17.899857 29.0022135,13.0899551 C32.2187181,5.33059698 35.8989577,-0.514056276 37.2216385,0.035874783 C38.5446379,0.586125013 37.0093721,7.32222194 33.7928675,15.08158 C30.5760442,22.8412573 26.8961233,28.6859105 25.5731238,28.1356603 C25.2990261,28.0217164 25.1476349,27.6415841 25.1081139,27.0409049 L25.1081139,27.0677152 Z" id="Fill-7" fill="#9F9E9F"></path>
                    <path d="M37.6275899,10.3816962 C40.0112837,7.82769252 41.8837534,6.43866178 42.5508307,6.9107152 C43.7208454,7.73832474 40.7449731,13.972047 35.9042803,20.8345355 C33.0721499,24.8490642 30.3276671,28.0813055 28.3034875,29.9079193 L28.2649225,29.9079193 C30.2170718,29.890684 35.410267,24.6492634 40.4877675,17.4516456 C46.0219912,9.60611148 49.3232748,2.40785543 47.8603581,1.37310413 C46.6157633,0.492512256 42.31976,4.36309493 37.6553184,10.3737169 L37.6275899,10.3816962 Z" id="Fill-9" fill="#9F9E9F"></path>
                    <path d="M36.9594927,23.8510814 C42.8446252,24.6742225 46.6007198,25.9253715 46.6007198,27.3271691 C46.6007198,29.8055293 34.848303,31.815347 20.3514033,31.815347 C12.1428148,31.815347 4.81420731,31.1712606 0.000605564677,30.1620429 L0.0292902073,30.1725756 C2.2469318,32.8612693 14.6817244,34.9202393 29.6885732,34.9202393 C46.2628785,34.9202393 59.6997212,32.4086853 59.6997212,29.3101764 C59.6997212,26.6802101 50.0192918,24.473145 36.9559868,23.8657632 L36.9594927,23.8510814 Z" id="Fill-11" fill="#9F9E9F"></path>
                    <path d="M68.0108733,28.5672429 L75.1087288,28.5672429 C74.7316851,28.3744638 74.3759955,28.1730671 74.0410226,27.9630528 C73.3707581,27.5194056 72.7135611,26.9918165 72.0684754,26.3799663 L72.0684754,28.1146589 L70.9379817,28.1146589 L70.9379817,26.4054999 C70.0500327,27.2765167 69.0744361,27.9972041 68.0108733,28.5672429 L68.0108733,28.5672429 Z M68.9785019,30.4774793 L74.1793463,30.4774793 L74.1793463,29.4468772 L68.9785019,29.4468772 L68.9785019,30.4774793 Z M68.9785019,32.4387831 L74.1793463,32.4387831 L74.1793463,31.3580712 L68.9785019,31.3580712 L68.9785019,32.4387831 Z M74.81997,23.6019048 C74.6692163,23.6019048 74.426353,23.6357369 74.0910614,23.7024436 C73.4797598,23.8115999 72.8056707,23.8993719 72.0684754,23.9663977 L72.0684754,25.0222143 L77.0181698,25.0222143 L77.0181698,25.9656828 L72.9729978,25.9656828 C73.7522639,26.6183868 74.4136043,27.0840568 74.957975,27.3610969 C75.5195566,27.669735 76.323364,27.9553927 77.3703535,28.2155168 L76.5282999,29.1960091 C76.084644,29.0198269 75.6613862,28.831197 75.2594825,28.6304387 L75.2594825,33.8214304 L74.1793463,33.8214304 L74.1793463,33.3691656 L68.9785019,33.3691656 L68.9785019,33.8214304 L67.898047,33.8214304 L67.898047,28.6176718 C67.4792513,28.8353462 67.0521688,29.027487 66.616481,29.1960091 L65.7874948,28.1146589 C67.3116055,27.8465555 68.7898207,27.1296982 70.2218218,25.9656828 L65.887891,25.9656828 L65.887891,25.0222143 L70.9379817,25.0222143 L70.9379817,24.0544888 C69.9496364,24.1132162 68.8653569,24.1425799 67.6845058,24.1425799 L67.0559934,23.1620876 L68.4883132,23.1620876 C70.6826884,23.1620876 72.6925257,22.9485625 74.5181438,22.5211929 L75.3729462,23.3883796 C75.4226662,23.4215734 75.447845,23.4930676 75.447845,23.6019048 C75.447845,23.6689307 75.4312716,23.7024436 75.3981249,23.7024436 C75.3053779,23.7024436 75.2177304,23.6816975 75.1339075,23.6395669 L74.81997,23.6019048 Z" id="Fill-13" fill="#9F9E9F"></path>
                    <mask id="mask-2" fill="white">
                        <use xlink:href="#path-1"></use>
                    </mask>
                    <g id="Clip-16"></g>
                    <path d="M88.870441,26.1534828 L90.3907271,26.1534828 L90.3907271,24.9342508 L88.870441,24.9342508 L88.870441,26.1534828 Z M87.8782711,28.4160836 L91.5964382,28.4160836 C91.2617841,28.0480799 90.9350979,27.6203912 90.617017,27.1339751 L88.8076535,27.1339751 C88.4726807,27.6787994 88.1628865,28.1064881 87.8782711,28.4160836 L87.8782711,28.4160836 Z M88.2801748,30.477607 L90.8802783,30.477607 L90.8802783,29.3464661 L88.2801748,29.3464661 L88.2801748,30.477607 Z M85.9685114,23.9917399 L87.8406624,23.9917399 L87.8406624,22.4705725 L88.7952235,22.5458967 C88.9794427,22.5541952 89.071871,22.5966449 89.071871,22.67165 C89.071871,22.7386758 89.0046214,22.8350654 88.870441,22.9608186 L88.870441,23.9917399 L90.3907271,23.9917399 L90.3907271,22.4705725 L91.3832157,22.5583444 C91.5760403,22.5755796 91.6719745,22.6298386 91.6719745,22.7217598 C91.6719745,22.7721887 91.6053623,22.8516622 91.4715007,22.9608186 L91.4715007,23.9917399 L93.4807005,23.9917399 L93.4807005,24.9342508 L91.4715007,24.9342508 L91.4715007,26.1534828 L93.7831642,26.1534828 L93.7831642,27.1339751 L91.8603369,27.1339751 C92.2125206,27.5447477 92.5181714,27.8418956 92.7772894,28.0263763 C93.104613,28.2944796 93.5689855,28.5380068 94.1720004,28.7553621 L93.279908,29.7862833 C92.8024681,29.4929655 92.3632743,29.1619855 91.9610519,28.7936625 L91.9610519,31.4079895 L88.2801748,31.4079895 L88.2801748,32.2509192 C88.2801748,32.5771116 88.4098932,32.7398887 88.6696485,32.7398887 L91.6719745,32.7398887 C91.8893403,32.7398887 92.0531615,32.6735012 92.1624818,32.5391303 C92.2625594,32.4389107 92.3588123,32.061651 92.4509219,31.4079895 L93.5316955,31.7099249 C93.4140884,32.514235 93.2298693,33.0373557 92.9787193,33.2805638 C92.7192826,33.541007 92.3798477,33.6702712 91.9610519,33.6702712 L88.4312473,33.6702712 C87.6099103,33.6702712 87.19972,33.3769533 87.19972,32.7903176 L87.19972,29.045169 C86.9064992,29.2877387 86.5635583,29.5354152 86.1696226,29.7862833 L85.1898827,28.9063298 C85.8932938,28.5708814 86.4921654,28.2111761 86.9861787,27.8252987 C87.1958953,27.6577341 87.4301533,27.4272929 87.6895899,27.1339751 L85.8305064,27.1339751 L85.8305064,26.1534828 L87.8406624,26.1534828 L87.8406624,24.9342508 L85.9685114,24.9342508 L85.9685114,23.9917399 Z M85.0391289,29.3464661 L85.6797526,30.1383286 C85.0518777,31.3112808 84.3816132,32.4053978 83.6695966,33.419403 C83.6695966,33.6871872 83.6026658,33.8215581 83.4684854,33.8215581 L82.5394217,33.0794863 C83.4684854,31.9735599 84.3019336,30.7291135 85.0391289,29.3464661 L85.0391289,29.3464661 Z M83.1296879,26.0028342 C83.8831378,26.4132877 84.5196182,26.8406572 85.0391289,27.285262 L84.3102203,28.0768052 C83.7075241,27.6076243 83.050327,27.180574 82.3379918,26.7950158 L83.1296879,26.0028342 Z M83.8203503,22.67165 C84.5157936,23.0572082 85.1019164,23.4638316 85.5790376,23.8912011 L84.8883752,24.6326346 C84.335399,24.1800506 83.7320654,23.7695971 83.0793304,23.4006358 L83.8203503,22.67165 Z" id="Fill-15" fill="#9F9E9F" mask="url(#mask-2)"></path>
                    <path d="M107.958828,32.5771436 L107.192948,31.9480582 L104.705033,31.9480582 C104.453883,32.2665905 104.160981,32.5688451 103.826327,32.8532262 C105.224863,32.7775827 106.602682,32.6859807 107.958828,32.5771436 L107.958828,32.5771436 Z M99.4920773,31.1692817 L110.77311,31.1692817 L110.77311,31.9480582 L108.612519,31.9480582 C109.173782,32.4006422 109.730582,32.9247204 110.282921,33.5193354 L109.403896,34.1101203 C109.177606,33.82542 108.94303,33.5573167 108.700804,33.3058102 C106.941798,33.4574162 104.278269,33.6575363 100.710537,33.9093619 C100.651256,34.0434136 100.589424,34.1101203 100.521537,34.1101203 C100.455244,34.1101203 100.416998,34.0596913 100.409348,33.9594717 L100.170629,33.0297276 L102.393688,32.9288696 C102.779019,32.6192741 103.105386,32.291805 103.373109,31.9480582 L99.4920773,31.9480582 L99.4920773,31.1692817 Z M101.652668,30.6282875 L109.064461,30.6282875 L109.064461,29.937283 L101.652668,29.937283 L101.652668,30.6282875 Z M106.062135,25.7634882 L107.091914,25.7634882 L107.091914,25.4245289 C107.091914,25.2486659 107.075659,25.0351407 107.041557,24.7836342 L107.909108,24.8586393 C108.051575,24.8675761 108.12233,24.9049191 108.12233,24.9719449 C108.12233,25.0641852 108.059224,25.1484463 107.934286,25.2234514 L107.934286,25.7634882 L109.943805,25.7634882 L109.504611,28.6050646 C109.504611,28.7052842 109.567399,28.755394 109.692336,28.755394 L109.843727,28.755394 C109.926913,28.755394 110.006592,28.6969858 110.082129,28.5801693 C110.140773,28.4620761 110.207704,28.1148185 110.282921,27.536162 L111.074617,27.9258694 C110.999719,28.5131434 110.881793,28.927427 110.722752,29.1703159 C110.572317,29.4218223 110.362919,29.5478948 110.094877,29.5478948 L109.202466,29.5478948 C108.775703,29.5478948 108.56248,29.3337312 108.56248,28.9063617 L108.939205,26.5432221 L107.934286,26.5432221 L107.934286,26.64408 C107.934286,27.188266 107.854288,27.6577661 107.695248,28.0516227 C107.963608,28.261637 108.222408,28.4789922 108.474195,28.7052842 L107.833571,29.3966079 C107.649034,29.1703159 107.452384,28.9567907 107.242986,28.755394 L106.9163,29.0576486 C106.648258,29.2925582 106.330177,29.5012958 105.961739,29.6854573 L105.23283,29.0576486 C105.601588,28.8897648 105.890665,28.7343287 106.099744,28.5922978 C106.300855,28.4585653 106.464039,28.3245136 106.589933,28.1901427 C106.288744,27.9555523 105.965564,27.7375587 105.622623,27.536162 L106.112174,26.9961253 C106.405714,27.1636899 106.69001,27.3392337 106.966339,27.5237144 C107.050162,27.2642286 107.091914,26.9709108 107.091914,26.64408 L107.091914,26.5432221 L106.062135,26.5432221 L106.062135,25.7634882 Z M100.132064,25.1733416 L102.042461,25.1733416 L102.042461,24.6326665 L102.921167,24.7083099 C103.088813,24.7166084 103.172317,24.7581006 103.172317,24.833744 C103.172317,24.884173 103.105386,24.9636465 102.971843,25.0728028 L102.971843,25.1733416 L104.642883,25.1733416 L104.642883,25.8646653 L102.971843,25.8646653 L102.971843,26.3044824 L105.333227,26.3044824 L105.333227,26.9961253 L104.253091,26.9961253 C104.604956,27.373385 105.027576,27.7164935 105.521908,28.0264082 L104.792999,28.4665445 C104.248947,28.0388558 103.767364,27.5489289 103.348568,26.9961253 L101.891388,26.9961253 C101.707807,27.3057208 101.485023,27.582761 101.225267,27.8253307 L102.0925,27.8253307 L102.0925,27.2852939 L102.85838,27.3354037 C103.000847,27.3440213 103.072558,27.3765767 103.072558,27.4359424 C103.072558,27.4857331 103.022201,27.5658449 102.921167,27.6750013 L102.921167,27.8253307 L103.850868,27.8253307 L103.850868,28.4665445 L102.921167,28.4665445 L102.921167,28.9315762 L104.592207,28.755394 L104.592207,29.3966079 C103.696609,29.5057642 102.271938,29.6522636 100.321064,29.8367442 C100.253814,29.937283 100.191026,29.9880311 100.132064,29.9880311 C100.082344,29.9880311 100.053021,29.950369 100.044416,29.8744063 L99.8809136,29.1451014 C100.626714,29.1112693 101.363591,29.0656279 102.0925,29.0069005 L102.0925,28.4665445 L101.11276,28.4665445 L101.11276,27.9389554 C100.819858,28.1818443 100.492534,28.4039871 100.132064,28.6050646 L99.3410049,28.1148185 C99.8101582,27.8795897 100.182421,27.6414884 100.459387,27.3979611 C100.601854,27.2805063 100.739859,27.1464547 100.873721,26.9961253 L99.5424348,26.9961253 L99.5424348,26.3044824 L102.042461,26.3044824 L102.042461,25.8646653 L100.132064,25.8646653 L100.132064,25.1733416 Z M99.4920773,23.2120378 L103.222993,23.2120378 L103.222993,22.5711431 L104.140583,22.6464674 C104.307591,22.655085 104.391096,22.6968964 104.391096,22.7722207 C104.391096,22.8226496 104.328627,22.9021231 104.202733,23.0109603 L104.202733,23.2120378 L106.552005,23.2120378 L106.552005,22.5711431 L107.481388,22.6464674 C107.649034,22.655085 107.732856,22.6968964 107.732856,22.7722207 C107.732856,22.8226496 107.665607,22.9021231 107.532064,23.0109603 L107.532064,23.2120378 L110.77311,23.2120378 L110.77311,24.0926297 L107.532064,24.0926297 L107.532064,24.5825567 L106.552005,24.5825567 L106.552005,24.0926297 L104.202733,24.0926297 L104.202733,24.7332052 L103.222993,24.7332052 L103.222993,24.0926297 L99.4920773,24.0926297 L99.4920773,23.2120378 Z" id="Fill-17" fill="#9F9E9F" mask="url(#mask-2)"></path>
                    <path d="M123.165162,22.860216 C123.533919,23.1452354 123.894071,23.4886631 124.245936,23.8911373 L123.554955,24.481603 C123.203408,24.0545527 122.85983,23.7108058 122.524857,23.4513201 L123.165162,22.860216 Z M124.095182,25.663492 L127.776059,25.663492 L127.776059,26.6439843 L126.896397,26.6439843 L126.896397,32.5898146 C126.896397,33.0583572 126.746281,33.4017848 126.444773,33.6200975 C126.192986,33.8467087 125.556824,33.959376 124.534695,33.959376 L124.14554,32.9287739 L125.250855,32.9287739 C125.627898,32.9287739 125.832834,32.7484424 125.866299,32.3880988 L125.866299,26.6439843 L124.095182,26.6439843 L124.095182,25.663492 Z M124.534695,24.2932923 L127.386586,24.2932923 L127.386586,23.3128 L124.534695,23.3128 L124.534695,24.2932923 Z M122.813616,26.8450618 L123.68053,26.9334721 C123.822678,26.9334721 123.894071,26.9666658 123.894071,27.0330533 C123.894071,27.1007175 123.848494,27.1843402 123.756066,27.2851981 L123.756066,30.5777627 C123.756066,30.8046931 123.86953,30.9176795 124.095182,30.9176795 C124.187292,30.9176795 124.259003,30.888635 124.308723,30.8302267 C124.367368,30.7290496 124.426012,30.3811536 124.484975,29.7862195 L125.37643,30.1385839 C125.28432,30.9518308 125.142172,31.4293101 124.949347,31.571341 C124.790625,31.7226279 124.505373,31.797633 124.095182,31.797633 C123.559098,31.797633 123.211695,31.7226279 123.052336,31.571341 C122.893296,31.4293101 122.813616,31.1940813 122.813616,30.8678889 L122.813616,26.8450618 Z M119.773681,26.8450618 L120.715494,26.9085768 C120.841706,26.9242161 120.904175,26.9666658 120.904175,27.0330533 C120.904175,27.1007175 120.853818,27.1677433 120.75374,27.2350883 C120.703701,28.7013584 120.632308,29.7862195 120.540199,30.4909483 C120.464344,31.0019406 120.35598,31.5209121 120.213513,32.0491395 L119.183415,31.8477428 C119.35871,31.2611071 119.476317,30.7670309 119.534961,30.3651951 C119.660855,29.6192932 119.739897,28.4457027 119.773681,26.8450618 L119.773681,26.8450618 Z M119.635358,24.6829997 L121.205682,24.6829997 L121.205682,22.5212568 L122.19849,22.6087095 C122.382709,22.6173271 122.4745,22.6719053 122.4745,22.7721249 C122.4745,22.8225539 122.407569,22.9020274 122.27307,23.0111837 L122.27307,24.6829997 L123.756066,24.6829997 L123.756066,25.6137014 L122.27307,25.6137014 L122.27307,33.7203171 L121.205682,33.7203171 L121.205682,25.6137014 L119.635358,25.6137014 L119.635358,24.6829997 Z M118.55554,25.3743234 L119.534961,25.7136018 C119.660855,25.747753 119.723324,25.7975437 119.723324,25.8645695 C119.723324,25.8980824 119.693683,25.9443622 119.635358,26.0030896 C119.518388,26.0362833 119.304528,26.2999183 118.994734,26.794952 L118.743265,27.1466781 L118.743265,34.0101241 L117.713487,34.0101241 L117.713487,28.3786768 C117.52863,28.5711368 117.3323,28.7645542 117.123539,28.9570141 L116.042128,28.3662292 C117.072544,27.5360663 117.909817,26.5392963 118.55554,25.3743234 L118.55554,25.3743234 Z M118.59283,22.7216959 L119.585319,23.0616127 C119.710575,23.0951256 119.773681,23.1452354 119.773681,23.2122613 C119.773681,23.2457742 119.739897,23.2962031 119.673285,23.363229 C119.572889,23.3884435 119.37624,23.6061179 119.083338,24.0168905 C118.596974,24.653636 118.010532,25.2530385 117.324013,25.8144597 L116.243558,25.2233556 C117.214693,24.5282019 117.998421,23.6938898 118.59283,22.7216959 L118.59283,22.7216959 Z" id="Fill-18" fill="#9F9E9F" mask="url(#mask-2)"></path>
                    <path d="M140.118232,30.577667 C140.16859,30.7040586 140.235839,30.8250243 140.319981,30.9431174 C140.495276,31.2450529 140.763637,31.5291147 141.123151,31.7975373 C141.433583,31.5208163 141.722341,31.1148312 141.989746,30.577667 L140.118232,30.577667 Z M138.44783,29.648242 L142.392287,29.648242 C142.517543,29.5477032 142.592761,29.4975935 142.618577,29.4975935 C142.693157,29.4975935 142.765187,29.5307872 142.832118,29.5981322 L143.359597,30.0880592 C143.417922,30.1471058 143.447563,30.2096632 143.447563,30.2766891 C143.447563,30.3599926 143.334099,30.4611697 143.108447,30.577667 C142.765187,31.3159087 142.388144,31.8945652 141.976997,32.3129979 C142.187032,32.4132175 142.409179,32.5060962 142.643756,32.590038 C143.11259,32.7486659 143.740465,32.8785683 144.527699,32.9791071 L143.648674,33.9595994 C142.895224,33.7840555 142.249501,33.5615936 141.713736,33.293171 C141.512625,33.1923131 141.323943,33.0879443 141.14833,32.9791071 C140.512168,33.3563668 139.658003,33.6662815 138.585835,33.9091704 L137.907284,33.0298552 C138.594122,32.9203797 139.141998,32.7990948 139.553145,32.6650432 C139.83776,32.5724837 140.093054,32.468434 140.319981,32.3512984 L140.281416,32.3129979 C139.91234,31.9609527 139.619757,31.5674152 139.401754,31.1311089 C139.309963,30.9389682 139.238889,30.7544875 139.189487,30.577667 L138.44783,30.577667 L138.44783,29.648242 Z M142.077712,22.6718096 L142.794191,23.3886669 C142.835943,23.4470751 142.856978,23.5016533 142.856978,23.5517631 C142.856978,23.6184698 142.760088,23.6523019 142.568219,23.6523019 C142.191176,23.9456197 141.797877,24.2303199 141.38705,24.5067217 L141.588161,24.6832231 C141.713736,24.7834427 141.851741,24.8843006 142.002495,24.9848394 C142.597223,24.6158781 143.11259,24.2389375 143.548278,23.8536985 L144.264438,24.5699175 C144.314477,24.6197082 144.339018,24.6746055 144.339018,24.7330137 C144.339018,24.8003587 144.239259,24.8335525 144.037511,24.8335525 C143.66971,25.0518652 143.284061,25.2698588 142.882476,25.4875332 C143.417922,25.7476573 144.050259,25.9860778 144.779168,26.2037522 L144.037511,27.1842445 C143.367884,26.9164603 142.777936,26.6400585 142.267031,26.3553582 L142.267031,27.8755681 C142.267031,28.168886 142.383363,28.3157045 142.618577,28.3157045 L142.907017,28.3157045 C143.007413,28.3157045 143.082949,28.2694247 143.133307,28.1778227 C143.175378,28.1021793 143.21713,27.837906 143.258882,27.3856412 L144.288979,27.6748098 C144.205475,28.3195345 144.075757,28.7389248 143.900143,28.9317039 C143.723892,29.141399 143.49314,29.2454486 143.208524,29.2454486 L142.36679,29.2454486 C141.61334,29.2454486 141.236615,28.9696852 141.236615,28.4162432 L141.236615,27.0840249 L140.269305,27.0840249 C140.218947,27.6202316 140.118232,28.0389835 139.967797,28.3412381 C139.766367,28.7682885 139.339604,29.1538466 138.685594,29.4975935 L138.007999,28.7054119 C138.493407,28.4711406 138.816268,28.2113357 138.975309,27.9256779 C139.101202,27.7418356 139.184388,27.4571354 139.226459,27.0718964 L139.226459,26.1536424 L141.926958,26.1536424 C141.567444,25.9356488 141.248726,25.7176552 140.973035,25.5003 C140.260699,24.9302612 139.678401,24.1342496 139.226459,23.1119459 L140.206199,22.8601203 C140.38245,23.2290816 140.578461,23.5642108 140.796465,23.865827 C141.290797,23.4722896 141.718517,23.0739646 142.077712,22.6718096 L142.077712,22.6718096 Z M134.075653,23.061517 L138.057719,23.061517 L138.2464,22.7975628 C138.305044,22.7471338 138.355083,22.7219194 138.397154,22.7219194 C138.480977,22.7219194 138.556513,22.7806468 138.623444,22.8981016 L139.062956,23.4260099 C139.105027,23.4847373 139.1267,23.5434647 139.1267,23.6021921 C139.1267,23.6858148 139.012917,23.7694375 138.786946,23.8536985 C137.923857,24.9008975 137.099014,25.6215849 136.31178,26.0157606 L136.236881,26.0531036 L138.007999,26.0531036 L138.007999,29.0574571 L135.357219,29.0574571 C135.282002,29.4012039 135.201685,29.7446315 135.118499,30.0880592 L138.007999,30.0880592 C138.007999,31.5460308 137.907284,32.4636465 137.706173,32.8409062 C137.580598,33.2095483 137.308731,33.4610548 136.889298,33.5951065 C136.454566,33.745755 135.713865,33.8213985 134.666875,33.8213985 L134.226088,32.8281394 C135.391003,32.8281394 136.077204,32.7946264 136.28692,32.7279198 C136.495999,32.6688732 136.659183,32.5306723 136.777109,32.3129979 C136.919257,32.1285173 137.006586,31.6973177 137.04037,31.0181225 L134.8546,31.0181225 L134.716595,31.458578 L133.636141,31.1183421 C134.038044,30.0880592 134.330946,29.0743731 134.515803,28.0769648 L137.015829,28.0769648 L137.015829,27.0332767 L134.867349,27.0332767 L134.867349,26.6939983 C134.448235,26.8615629 134.020833,27.0080623 133.585464,27.1341347 L132.894802,26.3042909 C133.673431,26.1121502 134.376842,25.8769214 135.005354,25.6008388 C134.695241,25.3576307 134.369192,25.1358071 134.025295,24.9344104 L134.766634,24.2430868 C135.227182,24.5111901 135.629723,24.7920603 135.972664,25.0856973 L136.248993,24.9219628 C136.584603,24.6953516 136.943799,24.36884 137.329448,23.9414705 L134.075653,23.9414705 L134.075653,23.061517 Z" id="Fill-19" fill="#9F9E9F" mask="url(#mask-2)"></path>
                    <path d="M155.688766,29.295718 L157.51056,29.295718 L157.51056,28.1652155 L155.688766,28.1652155 L155.688766,29.295718 Z M152.44772,25.0223419 L159.118493,25.0223419 L159.118493,23.80311 L152.44772,23.80311 L152.44772,25.0223419 Z M151.367584,22.8602798 L160.198948,22.8602798 L160.198948,25.9654913 L152.44772,25.9654913 L152.44772,26.103373 C152.44772,27.4193137 152.418717,28.4834287 152.360073,29.295718 L154.608949,29.295718 L154.608949,28.1652155 L153.088981,28.1652155 L153.088981,27.184404 L154.608949,27.184404 L154.608949,26.2035926 L155.601119,26.2920029 C155.793943,26.2999821 155.890515,26.3551987 155.890515,26.4547799 C155.890515,26.5064855 155.823903,26.5850015 155.688766,26.6938387 L155.688766,27.184404 L157.51056,27.184404 L157.51056,26.2035926 L158.50273,26.2920029 C158.687905,26.2999821 158.779058,26.3551987 158.779058,26.4547799 C158.779058,26.5064855 158.712765,26.5850015 158.578903,26.6938387 L158.578903,27.184404 L160.198948,27.184404 L160.198948,28.1652155 L158.578903,28.1652155 L158.578903,29.295718 L160.939968,29.295718 L160.939968,30.2765295 L157.435342,30.2765295 C157.719639,30.7370927 158.030071,31.1357369 158.364725,31.4705469 L158.390222,31.4957614 C158.875949,31.1609514 159.298888,30.8213538 159.658721,30.477607 L160.425557,31.2321264 C160.475277,31.2905347 160.501412,31.3489429 160.501412,31.4079895 C160.501412,31.4750153 160.383167,31.5078899 160.148591,31.5078899 C159.838797,31.7099249 159.516891,31.9068532 159.1816,32.0993131 C159.374424,32.2161296 159.584141,32.3300735 159.809793,32.4389107 C160.370737,32.6811613 160.911602,32.8279798 161.430157,32.8784087 L160.551132,33.90933 C160.324842,33.90933 159.880867,33.7293177 159.219846,33.3692932 C158.474045,32.9664998 157.929674,32.5474288 157.586096,32.11208 C157.142121,31.6422607 156.731931,31.0307298 156.355525,30.2765295 L154.85978,30.2765295 L154.85978,32.287943 C155.505185,32.1787866 156.141346,32.0492034 156.769859,31.8982356 L156.769859,32.7903176 C155.94884,32.9920335 154.655163,33.2681161 152.88787,33.6201614 C152.812653,33.7791084 152.732973,33.8592202 152.649469,33.8592202 C152.573614,33.8592202 152.5274,33.804642 152.510827,33.6954857 L152.259995,32.6403074 C152.770901,32.5898785 153.277344,32.5266827 153.779644,32.4513584 L153.779644,30.2765295 L152.234498,30.2765295 C152.11721,30.9305102 151.953388,31.5506588 151.744947,32.1369753 C151.543835,32.6811613 151.255077,33.2553493 150.877396,33.8592202 L149.897656,33.2301348 C150.190876,32.7864876 150.399956,32.4219947 150.526168,32.1369753 C150.811102,31.5334236 151.007114,30.9135941 151.115797,30.2765295 C151.283761,29.3295501 151.367584,27.9389235 151.367584,26.103373 L151.367584,22.8602798 Z" id="Fill-20" fill="#9F9E9F" mask="url(#mask-2)"></path>
                    <path d="M171.36078,30.8679527 L173.910845,30.8679527 L173.910845,29.9375702 L171.36078,29.9375702 L171.36078,30.8679527 Z M170.330364,29.0071877 L174.940942,29.0071877 L174.940942,32.287943 L173.910845,32.287943 L173.910845,31.7976969 L171.36078,31.7976969 L171.36078,32.4389107 L170.330364,32.4389107 L170.330364,29.0071877 Z M169.451658,26.0028342 L169.425842,27.0331171 L177.993307,27.0331171 C177.993307,29.7068098 177.905978,31.3869242 177.729727,32.0740987 C177.620725,32.7526555 177.382005,33.2180063 177.013886,33.469832 C176.628555,33.7293177 175.971677,33.8592202 175.041338,33.8592202 L174.501111,32.7398887 C175.489775,32.7398887 176.071436,32.6648836 176.247687,32.514235 C176.423301,32.3970994 176.561306,32.11591 176.662021,31.6719436 C176.804169,31.2024436 176.884486,29.9879992 176.900741,28.0263763 L169.350624,28.0263763 C169.283693,28.8147278 169.174373,29.5513737 169.023619,30.2388673 C168.831432,31.2110612 168.432716,32.4344423 167.830975,33.90933 L166.750202,33.3692932 C167.336643,32.0945256 167.730261,30.9640231 167.931372,29.9755515 C168.224274,28.5590721 168.370565,27.1716372 168.370565,25.8145235 L168.370565,22.7721887 L176.913489,22.7721887 L176.913489,26.0028342 L169.451658,26.0028342 Z M169.451658,25.0727709 L175.833353,25.0727709 L175.833353,23.7025712 L169.451658,23.7025712 L169.451658,25.0727709 Z" id="Fill-21" fill="#9F9E9F" mask="url(#mask-2)"></path>
                    <polygon id="Fill-22" fill="#9F9E9F" mask="url(#mask-2)" points="6.80747126 39.4617506 5.1055158 39.4617506 5.1055158 42.6282428 1.70192359 42.6282428 1.70192359 39.4617506 -3.18718251e-05 39.4617506 -3.18718251e-05 47.3420744 1.70192359 47.3420744 1.70192359 44.1532402 5.1055158 44.1532402 5.1055158 47.3420744 6.80747126 47.3420744"></polygon>
                    <path d="M11.5983803,44.6386031 C11.5983803,45.805491 11.2382286,46.4530883 10.5571277,46.4530883 C10.0067013,46.4530883 9.49611468,46.0483799 9.49611468,44.6733927 C9.49611468,43.4720343 9.92638432,42.9058255 10.5571277,42.9058255 C11.2879487,42.9058255 11.5983803,43.598745 11.5983803,44.6386031 M13.1499007,44.685202 C13.1499007,42.6399563 11.6885775,41.9112897 10.5571277,41.9112897 C9.19556337,41.9112897 7.94459423,42.8589074 7.94459423,44.6733927 C7.94459423,46.3484003 9.04544707,47.4463474 10.5571277,47.4463474 C11.578301,47.4463474 13.1499007,46.7993885 13.1499007,44.685202" id="Fill-23" fill="#9F9E9F" mask="url(#mask-2)"></path>
                    <path d="M15.576749,42.0154351 L14.1249873,42.0154351 L14.1249873,47.3420744 L15.576749,47.3420744 L15.576749,43.9103513 C15.9569798,43.2515831 16.2272529,43.032632 16.5877233,43.032632 C16.9979136,43.032632 17.3086639,43.3444618 17.3086639,44.0957895 L17.3086639,47.3420744 L18.7601069,47.3420744 L18.7601069,43.9566311 C18.7601069,42.3853539 17.7991713,41.9113855 17.0779119,41.9113855 C16.4876457,41.9113855 16.0372968,42.1660836 15.576749,42.7785722 L15.576749,42.0154351 Z" id="Fill-24" fill="#9F9E9F" mask="url(#mask-2)"></path>
                    <path d="M23.2182103,48.3358761 C23.2182103,48.6943047 22.8179001,49.0067728 22.176639,49.0067728 C21.4059783,49.0067728 20.9855889,48.786545 20.9855889,48.3821558 C20.9855889,47.9889375 21.4059783,47.746687 22.0867605,47.746687 C22.8073824,47.746687 23.2182103,47.9551055 23.2182103,48.3358761 L23.2182103,48.3358761 Z M21.2157035,43.9798348 C21.2157035,43.4366063 21.5761738,43.009556 22.0564822,43.009556 C22.5571886,43.009556 22.8873807,43.4366063 22.8873807,43.9220649 C22.8873807,44.4761452 22.5176676,44.9389427 22.0564822,44.9389427 C21.5962531,44.9389427 21.2157035,44.4994446 21.2157035,43.9798348 L21.2157035,43.9798348 Z M24.6693345,42.0153393 L21.9267639,42.0153393 C20.264967,42.0153393 19.8643381,43.2980863 19.8643381,43.9565353 C19.8643381,44.9389427 20.5648808,45.4942996 21.1557845,45.5977109 L21.1557845,45.6210104 C20.8855114,45.6899512 20.3150057,45.8399614 20.3150057,46.4061702 C20.3150057,46.78726 20.5648808,46.9959976 20.8753124,47.0994089 L20.8753124,47.1230275 C19.8544578,47.4233671 19.6441038,48.0004277 19.6441038,48.451735 C19.6441038,49.1564638 20.1645707,50.0000319 22.1068397,50.0000319 C23.5984411,50.0000319 24.5494964,49.4456325 24.5494964,48.2091653 C24.5494964,47.9436153 24.4793784,47.5274168 24.1791458,47.1804782 C23.4180466,46.2912688 21.6564908,46.8223688 21.6564908,46.2101994 C21.6564908,45.5862208 22.9976572,46.1406202 23.8183567,45.1930025 C24.0688693,44.904153 24.2390648,44.4994446 24.2390648,44.0264337 C24.2390648,43.714604 24.1689468,43.4605441 24.0089503,43.1359476 L24.6693345,43.1359476 L24.6693345,42.0153393 Z" id="Fill-25" fill="#9F9E9F" mask="url(#mask-2)"></path>
                    <polygon id="Fill-26" fill="#9F9E9F" mask="url(#mask-2)" points="34.0753156 39.4617506 32.2031646 39.4617506 30.051179 43.032632 30.0310997 43.032632 30.0310997 39.4617506 28.3291443 39.4617506 28.3291443 47.3420744 30.0310997 47.3420744 30.0310997 43.644163 32.7338305 47.3420744 34.8660556 47.3420744 31.8528933 43.1596619"></polygon>
                    <path d="M38.2045018,44.6386031 C38.2045018,45.805491 37.8443502,46.4530883 37.1629306,46.4530883 C36.6128229,46.4530883 36.1022362,46.0483799 36.1022362,44.6733927 C36.1022362,43.4720343 36.5325059,42.9058255 37.1629306,42.9058255 C37.8940702,42.9058255 38.2045018,43.598745 38.2045018,44.6386031 M39.756341,44.685202 C39.756341,42.6399563 38.2946991,41.9112897 37.1629306,41.9112897 C35.8016849,41.9112897 34.5507158,42.8589074 34.5507158,44.6733927 C34.5507158,46.3484003 35.6518873,47.4463474 37.1629306,47.4463474 C38.1844226,47.4463474 39.756341,46.7993885 39.756341,44.685202" id="Fill-27" fill="#9F9E9F" mask="url(#mask-2)"></path>
                    <path d="M42.1827111,42.0154351 L40.7309495,42.0154351 L40.7309495,47.3420744 L42.1827111,47.3420744 L42.1827111,43.9103513 C42.5632607,43.2515831 42.8332151,43.032632 43.1940042,43.032632 C43.6041945,43.032632 43.9146261,43.3444618 43.9146261,44.0957895 L43.9146261,47.3420744 L45.366069,47.3420744 L45.366069,43.9566311 C45.366069,42.3853539 44.4048148,41.9113855 43.6845115,41.9113855 C43.0936079,41.9113855 42.643259,42.1660836 42.1827111,42.7785722 L42.1827111,42.0154351 Z" id="Fill-28" fill="#9F9E9F" mask="url(#mask-2)"></path>
                    <path d="M49.8240131,48.3358761 C49.8240131,48.6943047 49.423703,49.0067728 48.7830793,49.0067728 C48.0120998,49.0067728 47.5917105,48.786545 47.5917105,48.3821558 C47.5917105,47.9889375 48.0120998,47.746687 48.692882,47.746687 C49.413504,47.746687 49.8240131,47.9551055 49.8240131,48.3358761 L49.8240131,48.3358761 Z M47.8221438,43.9798348 C47.8221438,43.4366063 48.1822954,43.009556 48.6626038,43.009556 C49.1633102,43.009556 49.4935023,43.4366063 49.4935023,43.9220649 C49.4935023,44.4761452 49.1231517,44.9389427 48.6626038,44.9389427 C48.2023746,44.9389427 47.8221438,44.4994446 47.8221438,43.9798348 L47.8221438,43.9798348 Z M51.275456,42.0153393 L48.5325667,42.0153393 C46.8707698,42.0153393 46.4704597,43.2980863 46.4704597,43.9565353 C46.4704597,44.9389427 47.1713211,45.4942996 47.761906,45.5977109 L47.761906,45.6210104 C47.4916329,45.6899512 46.9208085,45.8399614 46.9208085,46.4061702 C46.9208085,46.78726 47.1713211,46.9959976 47.4814339,47.0994089 L47.4814339,47.1230275 C46.4605794,47.4233671 46.2502253,48.0004277 46.2502253,48.451735 C46.2502253,49.1564638 46.771011,50.0000319 48.7129613,50.0000319 C50.2045627,50.0000319 51.1556179,49.4456325 51.1556179,48.2091653 C51.1556179,47.9436153 51.0854999,47.5274168 50.7849486,47.1804782 C50.0241682,46.2912688 48.2626124,46.8223688 48.2626124,46.2101994 C48.2626124,45.5862208 49.6037788,46.1406202 50.4244783,45.1930025 C50.6749908,44.904153 50.8451864,44.4994446 50.8451864,44.0264337 C50.8451864,43.714604 50.7750684,43.4605441 50.6147531,43.1359476 L51.275456,43.1359476 L51.275456,42.0153393 Z" id="Fill-29" fill="#9F9E9F" mask="url(#mask-2)"></path>
                    <path d="M58.0770629,44.4076512 L55.975116,44.4076512 L56.9758913,41.3452086 L58.0770629,44.4076512 Z M57.9371455,39.4617825 L55.9652357,39.4617825 L53.2118287,47.3421063 L55.0138617,47.3421063 L55.5244484,45.7826384 L58.5780879,45.7826384 L59.1387133,47.3421063 L60.9707059,47.3421063 L57.9371455,39.4617825 Z" id="Fill-30" fill="#9F9E9F" mask="url(#mask-2)"></path>
                    <path d="M63.0973534,42.0154351 L61.6459105,42.0154351 L61.6459105,47.3420744 L63.0973534,47.3420744 L63.0973534,45.043088 C63.4176652,44.0603616 63.7580563,43.4829818 64.2884035,43.4829818 C64.5188368,43.4829818 64.7690306,43.5988408 65.1495802,43.8762001 L65.550209,42.396844 C65.129501,42.0380962 64.8793071,41.9113855 64.5889548,41.9113855 C64.0283294,41.9113855 63.548021,42.4313145 63.1174326,43.5410709 L63.0973534,43.5410709 L63.0973534,42.0154351 Z" id="Fill-31" fill="#9F9E9F" mask="url(#mask-2)"></path>
                    <path d="M69.6081936,42.0154351 L67.9266361,42.0154351 L67.9266361,40.3404274 L67.7462415,40.3404274 L65.8141715,42.8357037 L65.8141715,43.1596619 L66.4748744,43.1596619 L66.4748744,45.4477964 C66.4748744,46.9376851 67.3057729,47.4464432 68.2670272,47.4464432 C68.7173761,47.4464432 69.0979256,47.3538837 69.6081936,47.1116331 L69.6081936,45.8984654 C69.2177637,46.1292258 68.9376104,46.2102952 68.6373778,46.2102952 C68.1870289,46.2102952 67.9266361,45.8745276 67.9266361,45.3549178 L67.9266361,43.1596619 L69.6081936,43.1596619 L69.6081936,42.0154351 Z" id="Fill-32" fill="#9F9E9F" mask="url(#mask-2)"></path>
                    <path d="M73.5330495,42.3043803 C73.0524223,42.0267018 72.621834,41.9114812 72.0414481,41.9114812 C70.9004367,41.9114812 70.1291385,42.5699303 70.1291385,43.5526568 C70.1291385,45.2969245 72.4216789,45.1584044 72.4216789,45.9323933 C72.4216789,46.1756013 72.1517246,46.3256115 71.7211362,46.3256115 C71.1707098,46.3256115 70.6996442,46.1053838 70.2292161,45.8746234 L70.2292161,47.0530015 C70.4296899,47.1803506 71.1401128,47.4462197 71.8814515,47.4462197 C73.0827006,47.4462197 73.7634828,46.8222411 73.7634828,45.713123 C73.7634828,43.9334274 71.4706237,43.9104471 71.4706237,43.3215772 C71.4706237,42.9513392 71.8011345,42.906017 71.9910906,42.906017 C72.2817616,42.906017 72.9023061,43.0442179 73.5330495,43.4945677 L73.5330495,42.3043803 Z" id="Fill-33" fill="#9F9E9F" mask="url(#mask-2)"></path>
                    <path d="M79.271221,40.9064447 L80.3625123,40.9064447 C81.9739518,40.9064447 82.6046952,42.049714 82.6046952,43.4020401 C82.6046952,44.5577571 82.0937898,45.8985931 80.3819541,45.8985931 L79.271221,45.8985931 L79.271221,40.9064447 Z M77.5692655,39.4618783 L77.5692655,47.342202 L80.3924718,47.342202 C83.1152818,47.342202 84.3566894,45.6783653 84.3566894,43.4135303 C84.3566894,41.2533832 83.075442,39.4618783 80.5824279,39.4618783 L77.5692655,39.4618783 Z" id="Fill-34" fill="#9F9E9F" mask="url(#mask-2)"></path>
                    <path d="M86.7556498,44.0719794 C86.8155688,43.3330993 87.1862382,42.9060489 87.7564251,42.9060489 C88.3170505,42.9060489 88.6976001,43.3445894 88.7575192,44.0719794 L86.7556498,44.0719794 Z M89.959087,45.6898555 C89.2779861,46.2563834 88.8276372,46.4529925 88.2472512,46.4529925 C87.3363545,46.4529925 86.7754103,45.8985931 86.7256903,44.9506562 L90.039404,44.9506562 C90.1092033,43.0094602 88.9978327,41.911194 87.6566663,41.911194 C86.2348642,41.911194 85.2238899,43.0675493 85.2238899,44.6962772 C85.2238899,46.3601139 86.2750227,47.4462517 87.8966612,47.4462517 C88.2571315,47.4462517 89.1281885,47.4462517 89.959087,46.7415228 L89.959087,45.6898555 Z" id="Fill-35" fill="#9F9E9F" mask="url(#mask-2)"></path>
                    <polygon id="Fill-36" fill="#9F9E9F" mask="url(#mask-2)" points="92.234544 47.4463155 93.0460007 47.4463155 95.1673894 42.0153074 93.6263866 42.0153074 92.6351729 44.95072 91.6538394 42.0153074 90.1029564 42.0153074"></polygon>
                    <path d="M96.8927069,44.0719794 C96.9526259,43.3330993 97.3232953,42.9060489 97.8938009,42.9060489 C98.4541076,42.9060489 98.8346572,43.3445894 98.8945762,44.0719794 L96.8927069,44.0719794 Z M100.095825,45.6898555 C99.4153619,46.2563834 98.9643755,46.4529925 98.3839896,46.4529925 C97.4734116,46.4529925 96.9124674,45.8985931 96.8627474,44.9506562 L100.176142,44.9506562 C100.245942,43.0094602 99.1348898,41.911194 97.7934047,41.911194 C96.3719213,41.911194 95.3606283,43.0675493 95.3606283,44.6962772 C95.3606283,46.3601139 96.4120798,47.4462517 98.034037,47.4462517 C98.3941886,47.4462517 99.2646081,47.4462517 100.095825,46.7415228 L100.095825,45.6898555 Z" id="Fill-37" fill="#9F9E9F" mask="url(#mask-2)"></path>
                    <polygon id="Fill-38" fill="#9F9E9F" mask="url(#mask-2)" points="101.150655 47.3419467 102.602098 47.3419467 102.602098 39.4616229 101.150655 39.4616229"></polygon>
                    <path d="M107.258508,44.6386031 C107.258508,45.805491 106.898038,46.4530883 106.217256,46.4530883 C105.667148,46.4530883 105.156242,46.0483799 105.156242,44.6733927 C105.156242,43.4720343 105.586512,42.9058255 106.217256,42.9058255 C106.948395,42.9058255 107.258508,43.598745 107.258508,44.6386031 M108.810666,44.685202 C108.810666,42.6399563 107.348387,41.9112897 106.217256,41.9112897 C104.85601,41.9112897 103.604085,42.8589074 103.604085,44.6733927 C103.604085,46.3484003 104.705575,47.4463474 106.217256,47.4463474 C107.238748,47.4463474 108.810666,46.7993885 108.810666,44.685202" id="Fill-39" fill="#9F9E9F" mask="url(#mask-2)"></path>
                    <path d="M111.206694,43.5290062 C111.567164,43.2060055 111.797598,43.1013175 112.107711,43.1013175 C112.798692,43.1013175 113.198365,43.6911449 113.198365,44.7077035 C113.198365,45.7012818 112.758533,46.3255796 112.047792,46.3255796 C111.757121,46.3255796 111.497046,46.2218491 111.206694,45.9786411 L111.206694,43.5290062 Z M111.206694,42.0154989 L109.754614,42.0154989 L109.754614,49.9998723 L111.206694,49.9998723 L111.206694,47.0769074 C111.547085,47.3073486 111.987554,47.4461878 112.398382,47.4461878 C113.769508,47.4461878 114.670524,46.3255796 114.670524,44.6148248 C114.670524,43.0898274 113.729349,41.9114493 112.5281,41.9114493 C112.027712,41.9114493 111.617203,42.084759 111.206694,42.4776581 L111.206694,42.0154989 Z" id="Fill-40" fill="#9F9E9F" mask="url(#mask-2)"></path>
                    <path d="M117.106392,42.0154351 L115.654312,42.0154351 L115.654312,47.3420744 L117.106392,47.3420744 L117.106392,43.7718313 C117.456345,43.2863727 117.836894,43.032632 118.216806,43.032632 C118.647714,43.032632 119.098062,43.3214815 119.098062,44.1880298 L119.098062,47.3420744 L120.549505,47.3420744 L120.549505,43.9333316 C120.880016,43.3444618 121.270446,43.032632 121.691154,43.032632 C122.22182,43.032632 122.541494,43.4603207 122.541494,44.2228194 L122.541494,47.3420744 L123.993256,47.3420744 L123.993256,43.9221607 C123.993256,42.7086738 123.242356,41.9113855 122.191861,41.9113855 C121.500561,41.9113855 120.970213,42.247153 120.369748,43.0444413 C120.049436,42.2813043 119.50889,41.9113855 118.707951,41.9113855 C118.41728,41.9113855 118.147007,41.9694745 117.877053,42.0971428 C117.616341,42.2353437 117.356586,42.4313145 117.106392,42.6975028 L117.106392,42.0154351 Z" id="Fill-41" fill="#9F9E9F" mask="url(#mask-2)"></path>
                    <path d="M126.523528,44.0719794 C126.583447,43.3330993 126.954435,42.9060489 127.524622,42.9060489 C128.085248,42.9060489 128.465797,43.3445894 128.525716,44.0719794 L126.523528,44.0719794 Z M129.727284,45.6898555 C129.046821,46.2563834 128.596153,46.4529925 128.01513,46.4529925 C127.103914,46.4529925 126.543608,45.8985931 126.49325,44.9506562 L129.806964,44.9506562 C129.877401,43.0094602 128.76603,41.911194 127.424545,41.911194 C126.003061,41.911194 124.992406,43.0675493 124.992406,44.6962772 C124.992406,46.3601139 126.04322,47.4462517 127.664858,47.4462517 C128.025329,47.4462517 128.896067,47.4462517 129.727284,46.7415228 L129.727284,45.6898555 Z" id="Fill-42" fill="#9F9E9F" mask="url(#mask-2)"></path>
                    <path d="M132.203183,42.0154351 L130.751422,42.0154351 L130.751422,47.3420744 L132.203183,47.3420744 L132.203183,43.9103513 C132.583414,43.2515831 132.853687,43.032632 133.214476,43.032632 C133.624985,43.032632 133.93478,43.3444618 133.93478,44.0957895 L133.93478,47.3420744 L135.38686,47.3420744 L135.38686,43.9566311 C135.38686,42.3853539 134.426243,41.9113855 133.704346,41.9113855 C133.11408,41.9113855 132.663412,42.1660836 132.203183,42.7785722 L132.203183,42.0154351 Z" id="Fill-43" fill="#9F9E9F" mask="url(#mask-2)"></path>
                    <path d="M139.904723,42.0154351 L138.223165,42.0154351 L138.223165,40.3404274 L138.042771,40.3404274 L136.110382,42.8357037 L136.110382,43.1596619 L136.771404,43.1596619 L136.771404,45.4477964 C136.771404,46.9376851 137.602302,47.4464432 138.563557,47.4464432 C139.014224,47.4464432 139.394455,47.3538837 139.904723,47.1116331 L139.904723,45.8984654 C139.514612,46.1292258 139.23414,46.2102952 138.933588,46.2102952 C138.48324,46.2102952 138.223165,45.8745276 138.223165,45.3549178 L138.223165,43.1596619 L139.904723,43.1596619 L139.904723,42.0154351 Z" id="Fill-44" fill="#9F9E9F" mask="url(#mask-2)"></path>
                    <path d="M149.966116,44.9391022 C148.984145,45.4826499 148.384318,45.8056506 147.492863,45.8056506 C146.071379,45.8056506 145.060086,44.8005822 145.060086,43.3904862 C145.060086,41.9928378 146.08126,40.9986212 147.532702,40.9986212 C148.374119,40.9986212 149.134899,41.3222602 149.885162,41.8077188 L149.885162,40.0513226 C149.214897,39.5888443 148.364238,39.358084 147.412546,39.358084 C144.800012,39.358084 143.308092,41.3222602 143.308092,43.4252758 C143.308092,45.4590313 144.629817,47.4461878 147.282509,47.4461878 C148.293802,47.4461878 149.014742,47.2269176 149.966116,46.6600705 L149.966116,44.9391022 Z" id="Fill-45" fill="#9F9E9F" mask="url(#mask-2)"></path>
                    <path d="M154.587531,44.6386031 C154.587531,45.805491 154.226742,46.4530883 153.546278,46.4530883 C152.995852,46.4530883 152.484947,46.0483799 152.484947,44.6733927 C152.484947,43.4720343 152.915854,42.9058255 153.546278,42.9058255 C154.276781,42.9058255 154.587531,43.598745 154.587531,44.6386031 M156.138733,44.685202 C156.138733,42.6399563 154.677728,41.9112897 153.546278,41.9112897 C152.185033,41.9112897 150.932789,42.8589074 150.932789,44.6733927 C150.932789,46.3484003 152.034916,47.4463474 153.546278,47.4463474 C154.567452,47.4463474 156.138733,46.7993885 156.138733,44.685202" id="Fill-46" fill="#9F9E9F" mask="url(#mask-2)"></path>
                    <path d="M160.2974,47.3422339 L161.749162,47.3422339 L161.749162,42.0155947 L160.287201,42.0155947 L160.287201,45.4125281 C160.137085,45.9324571 159.736775,46.3253562 159.296306,46.3253562 C158.915757,46.3253562 158.565167,46.0598062 158.565167,45.3087976 L158.565167,42.0155947 L157.114042,42.0155947 L157.114042,45.4240182 C157.114042,46.7993246 157.894902,47.4462836 158.80548,47.4462836 C159.386822,47.4462836 159.836852,47.1919046 160.2974,46.5797352 L160.2974,47.3422339 Z" id="Fill-47" fill="#9F9E9F" mask="url(#mask-2)"></path>
                    <path d="M164.405232,42.0154351 L162.953789,42.0154351 L162.953789,47.3420744 L164.405232,47.3420744 L164.405232,43.9103513 C164.785782,43.2515831 165.056055,43.032632 165.416207,43.032632 C165.827034,43.032632 166.137466,43.3444618 166.137466,44.0957895 L166.137466,47.3420744 L167.58859,47.3420744 L167.58859,43.9566311 C167.58859,42.3853539 166.627655,41.9113855 165.907033,41.9113855 C165.316448,41.9113855 164.86578,42.1660836 164.405232,42.7785722 L164.405232,42.0154351 Z" id="Fill-48" fill="#9F9E9F" mask="url(#mask-2)"></path>
                    <path d="M172.827298,45.8860178 C172.186675,46.1640154 171.876243,46.2562557 171.525972,46.2562557 C170.694755,46.2562557 170.144647,45.6325963 170.144647,44.6849786 C170.144647,43.7491702 170.704954,43.1481718 171.575692,43.1481718 C171.9368,43.1481718 172.376631,43.2745634 172.75718,43.5059621 L172.75718,42.2586431 C172.276235,42.0495864 171.676088,41.9113855 171.205341,41.9113855 C169.684099,41.9113855 168.593445,43.0674216 168.593445,44.6961495 C168.593445,46.3599862 169.643941,47.4464432 171.265898,47.4464432 C171.756086,47.4464432 172.246912,47.330265 172.827298,47.0883337 L172.827298,45.8860178 Z" id="Fill-49" fill="#9F9E9F" mask="url(#mask-2)"></path>
                    <path d="M174.555038,39.3579563 C174.113613,39.3579563 173.754099,39.7741548 173.754099,40.2819554 C173.754099,40.7907134 174.113613,41.206912 174.555038,41.206912 C174.994869,41.206912 175.355977,40.7907134 175.355977,40.2819554 C175.355977,39.7741548 174.994869,39.3579563 174.555038,39.3579563 L174.555038,39.3579563 Z M173.83346,47.3420105 L175.285222,47.3420105 L175.285222,42.0153713 L173.83346,42.0153713 L173.83346,47.3420105 Z" id="Fill-50" fill="#9F9E9F" mask="url(#mask-2)"></path>
                    <polygon id="Fill-51" fill="#9F9E9F" mask="url(#mask-2)" points="176.548238 47.3419467 178 47.3419467 178 39.4616229 176.548238 39.4616229"></polygon>
                </g>
            </g>
        </g>
    </g>
</svg>