<?xml version="1.0" encoding="utf-8"?>
<!-- Generator: Adobe Illustrator 25.1.0, SVG Export Plug-In . SVG Version: 6.00 Build 0)  -->
<svg version="1.1" id="Layer_1" xmlns="http://www.w3.org/2000/svg" xmlns:xlink="http://www.w3.org/1999/xlink" x="0px" y="0px"
	 viewBox="0 0 613.2 613.2" style="enable-background:new 0 0 613.2 613.2;" xml:space="preserve"  width="613.2" height="613.2">
<style type="text/css">
	.st0{fill:#010002;}
</style>
<g>
	<g>
		<path class="st0" d="M609.1,257.5c-8.6-53-30.7-101.5-62.8-141.7c-0.3-0.3-0.5-0.7-0.8-1c-20.7-25.7-45.4-48-73.2-65.9
			c-0.2-0.2-0.4-0.5-0.6-0.7c-1.7-2-4-3.1-6.3-3.7C420.4,17.1,367.9,1.1,311.8,0.2c-0.4,0-0.8-0.1-1.3,0c-1.3,0-2.6-0.1-3.9-0.1
			c-20.2,0-40,2-59.2,5.8c-0.1,0-0.2,0-0.3,0c-0.1,0-0.2,0.1-0.3,0.1c-13.2,2.6-26.1,6.2-38.7,10.5c-0.3,0-0.5,0.2-0.7,0.2
			c-44.2,15.1-83.9,40-116.4,72.1c-0.4,0.4-0.7,0.7-1.1,1c-12.8,12.8-24.4,26.7-34.8,41.6c-0.3,0.5-0.7,0.9-1,1.4
			c-18.3,26.5-32.4,56-41.7,87.6c-0.1,0.4-0.3,0.9-0.4,1.3C4.4,248.7,0,277.1,0,306.6c0,24.4,3,48.2,8.4,71c0.1,0.3,0.2,0.7,0.2,1
			c12.6,52.1,38.5,99,73.9,136.9c0.5,0.5,1,1,1.4,1.5c21.9,23.2,47.3,43,75.5,58.4c0,0,0.1,0,0.1,0.1c43.7,24,93.8,37.7,147.1,37.7
			l0,0l0,0c0,0,0,0,0,0c14,0,27.8-1,41.3-2.9c0.3,0,0.5,0,0.8-0.1c0,0,0.1,0,0.1,0c70.4-9.7,133.2-43.4,179.9-92.6
			c0.6-0.6,1.2-1.3,1.8-1.9c26.3-28.1,47.3-61.2,61.6-97.7c0.2-0.4,0.3-0.8,0.5-1.2c13.2-34.2,20.6-71.4,20.6-110.2
			c0-16.1-1.4-31.9-3.9-47.3C609.2,258.6,609.2,258.1,609.1,257.5z M375.7,580.4c-6.3,1.6-12.7,2.9-19.2,4.1l-9.1-53.9
			c27-4.4,51.7-10.1,74.3-16.9c-22.3,42.4-45.2,65.7-45.7,66.1C376,579.9,375.9,580.1,375.7,580.4z M84.3,413.9
			c17.6,4.8,38.4,9.1,62.4,12c13.7,34.9,30.8,64.2,48.5,88.5c-24.7-1.7-46.2-4.9-64.5-8.9C113.5,480.8,97,450.4,84.3,413.9z
			 M24.2,306.6c0-22.7,2.8-44.7,7.8-65.9c2.9,1.3,6.4,2.8,10.2,4.3c-4.8,39.9-4.3,82.9,5.3,127.5c0.3,1.2,0.6,2.3,0.8,3.5
			c-7.3-3.2-13.1-6.1-17.5-8.6C26.6,347.8,24.2,327.5,24.2,306.6z M71.3,367.4c-8.6-39.6-9.4-78.1-5.6-114
			c14.5,4.6,32.2,9,53.1,12.6c-1.1,30,1.1,61.5,8.1,93.9c3.1,14.2,6.8,27.7,10.9,40.5c-24.6-3.6-45.1-8.7-61.8-14.1
			C74.2,380.1,72.7,373.9,71.3,367.4z M87.8,156.2c15.5,2.7,31.5,4.4,47.8,5.6c-7,24.4-12.5,51.2-15.2,79.7
			c-20.4-3.6-37.7-8.2-51.3-12.6C73.5,202.8,80.1,178.3,87.8,156.2z M239.3,32.4l16.8,100.3c-32.1,4.6-61.2,6.3-87.2,6.1
			c18.7-52.5,41.8-89.5,48.8-100.2C224.8,36.3,232,34.2,239.3,32.4z M172.1,163.1c28.3,0,57.5-2.2,87.6-6.5c0.1,0,0.3,0,0.4-0.1
			l14.7,87.3c-51,6.3-94.6,5.4-130.2,1.1c2.9-29.5,8.9-57.1,16.4-82.1C164.7,162.9,168.4,163.1,172.1,163.1z M150.4,354.7
			c-6.3-29.2-8.3-57.8-7.4-85.2c18,2.1,38,3.4,59.8,3.4c23.2,0,48.7-1.6,76-5L301,399.8c-53.7,6.9-99.1,7.2-136.7,3.8
			C158.9,388.3,154.2,372.1,150.4,354.7z M302.8,264.2c57.4-9.8,103.8-28.4,140-48.8c10.3,28.3,17.8,59.1,20.4,92.1
			c1.3,15.9,1.3,31.1,0.7,45.7c-36.5,17.9-82.4,33.7-139,43.1L302.8,264.2z M487.4,305.6c-3-37.3-11.5-71.7-23.2-103.1
			c22.4-14.6,39.9-29.2,52.8-41.7c18.5,38,32.9,82.1,36.8,131.1c0,0.2,0,0.4,0,0.6c-15.5,14.5-36.8,31.4-65.1,47.7
			C488.7,328.9,488.3,317.4,487.4,305.6z M460.7,72.9c14.8,18.3,30.3,40.3,44.5,65.4c-11.7,11.6-28.3,26.2-50.4,41
			c-12.3-27.7-26.9-52.6-41.8-74.4C431.6,94.3,447.5,83.3,460.7,72.9z M433.7,192.5c-34.5,19.9-79.4,38.3-134.9,47.8L284,152.4
			c41.6-8.3,77.1-21.2,106.9-35.8C406.3,138.6,421.3,164,433.7,192.5z M174.2,428.6c12.6,0.9,25.9,1.4,40,1.4
			c27.4,0,57.7-2,90.8-6.3l14.5,86.4c-34.1,4.3-64.9,5.9-92.3,5.6C208.4,492.7,189.5,463.8,174.2,428.6z M343.5,506.6L329,420.2
			c52.9-8.7,96.8-22.8,133-38.9c-4.4,39.7-14.3,74-26.1,102.4C408.9,493.1,378.1,501,343.5,506.6z M487.8,368.8
			c27.7-14.6,49.9-30.1,67.3-44.5c0,40.4-6.2,76-15.1,106.4c-19.6,14-43.7,28.2-72.9,40.8C477.2,442,485.1,407.7,487.8,368.8z
			 M588.9,306.6c0,34.6-6.3,67.8-17.8,98.5c6.2-30.4,9.4-64.7,7.5-102.5c3.7-3.7,7-7.2,9.9-10.5
			C588.8,296.9,588.9,301.7,588.9,306.6z M575.7,269.6c-6.5-47.6-22-90.3-40.9-127.2c0.2-0.2,0.5-0.5,0.7-0.8
			c24.5,34,41.7,73.6,49.2,116.5C582.8,260.7,579.9,264.6,575.7,269.6z M440.4,58c-11.8,8.9-25.7,18.2-41.7,27.2
			c-18.7-24.5-37-44.1-51.3-58C380.6,32,411.9,42.6,440.4,58z M306.6,24.2c0.4,0,0.9,0,1.3,0c9.3,7.7,38,33.1,68.5,72.5
			c-27.1,12.9-59.2,24.3-96.3,31.7L263.1,27.6C277.3,25.4,291.8,24.2,306.6,24.2z M143,137.9c-17.3-1-32.7-2.8-46.5-5
			c3.9-9.7,7.9-18.8,11.9-27.3c20.9-20.6,45-38,71.5-51.3C168.8,74.6,154.8,103.2,143,137.9z M56,176.6c-3.9,13.9-7.3,28.5-10,43.6
			c-2.8-1.2-5.1-2.2-7.1-3.2C43.5,203.1,49.3,189.6,56,176.6z M56,405.1c9.8,32.6,22.6,61.1,36.7,85.6c-23.1-26.8-41.2-57.9-53-92
			C44.6,400.7,50,402.9,56,405.1z M171.3,554.3c-6-6-12.2-12.7-18.6-20.2c18.5,2.8,39.4,4.8,62.6,5.5c16.8,19.4,33.3,34.6,47.3,45.9
			C230,580.4,199.2,569.6,171.3,554.3z M309.6,588.9c-7.8-4.5-32.5-20.2-60.9-49.1c23-0.5,47.9-2.4,74.8-5.8l9,53.8
			C325,588.4,317.3,588.8,309.6,588.9z M454.8,502.5c27.6-10.4,51.5-22.1,72-34.3c-5,12.1-10.2,23-15.4,32.5
			c-26,27.4-57.3,49.6-92.4,64.8C430,550,443,528.9,454.8,502.5z"/>
	</g>
</g>
</svg>
